<svg width="17" height="20" viewBox="0 0 17 20" fill="none" xmlns="http://www.w3.org/2000/svg">
<mask id="path-1-inside-1_189_4098" fill="white">
<path fill-rule="evenodd" clip-rule="evenodd" d="M0 0H17L17 10.9999L17 11.6157L17 18.3475C17 19.208 15.9854 19.6667 15.3394 19.0983L8.21757 12.8313L1.66063 18.6012C1.01465 19.1697 1.47641e-05 18.711 1.33844e-05 17.8505L0 11.6157V10.5028V0Z"/>
</mask>
<path fill-rule="evenodd" clip-rule="evenodd" d="M0 0H17L17 10.9999L17 11.6157L17 18.3475C17 19.208 15.9854 19.6667 15.3394 19.0983L8.21757 12.8313L1.66063 18.6012C1.01465 19.1697 1.47641e-05 18.711 1.33844e-05 17.8505L0 11.6157V10.5028V0Z" fill="current"/>
<path d="M17 0L18.5 2.60096e-07C18.5 -0.397825 18.342 -0.779355 18.0607 -1.06066C17.7794 -1.34196 17.3978 -1.5 17 -1.5V0ZM0 0V-1.5C-0.828427 -1.5 -1.5 -0.828427 -1.5 0L0 0ZM17 10.9999L15.5 10.9999L15.5 10.9999L17 10.9999ZM17 11.6157L18.5 11.6157L18.5 11.6157L17 11.6157ZM17 18.3475L18.5 18.3476L18.5 18.3476L17 18.3475ZM15.3394 19.0983L14.3484 20.2244L14.3484 20.2244L15.3394 19.0983ZM8.21757 12.8313L9.20849 11.7052C8.64194 11.2066 7.79319 11.2066 7.22664 11.7052L8.21757 12.8313ZM1.66063 18.6012L2.65156 19.7273L2.65156 19.7273L1.66063 18.6012ZM1.33844e-05 17.8505L1.50001 17.8505L1.50001 17.8505L1.33844e-05 17.8505ZM0 11.6157L-1.5 11.6157L-1.5 11.6157L0 11.6157ZM17 -1.5H0V1.5H17V-1.5ZM18.5 10.9999L18.5 2.60096e-07L15.5 -2.60096e-07L15.5 10.9999L18.5 10.9999ZM15.5 10.9999L15.5 11.6157L18.5 11.6157L18.5 10.9999L15.5 10.9999ZM15.5 11.6157L15.5 18.3475L18.5 18.3476L18.5 11.6157L15.5 11.6157ZM15.5 18.3475C15.5 17.9173 16.0073 17.688 16.3303 17.9722L14.3484 20.2244C15.9634 21.6455 18.5 20.4988 18.5 18.3476L15.5 18.3475ZM16.3303 17.9722L9.20849 11.7052L7.22664 13.9573L14.3484 20.2244L16.3303 17.9722ZM2.65156 19.7273L9.20849 13.9573L7.22664 11.7052L0.669705 17.4751L2.65156 19.7273ZM-1.49999 17.8505C-1.49998 20.0017 1.0366 21.1484 2.65156 19.7273L0.669705 17.4751C0.992696 17.1909 1.50001 17.4202 1.50001 17.8505L-1.49999 17.8505ZM-1.5 11.6157L-1.49999 17.8505L1.50001 17.8505L1.5 11.6157L-1.5 11.6157ZM-1.5 10.5028V11.6157H1.5V10.5028H-1.5ZM-1.5 0V10.5028H1.5V0H-1.5Z" fill="black" mask="url(#path-1-inside-1_189_4098)"/>
</svg>
