<svg width="20" height="24" viewBox="0 0 20 24" fill="none" xmlns="http://www.w3.org/2000/svg">
<path d="M11.118 2C11.118 2.78225 10.5561 3.3 9.99982 3.3C9.44356 3.3 8.88164 2.78225 8.88164 2C8.88164 1.21775 9.44356 0.7 9.99982 0.7C10.5561 0.7 11.118 1.21775 11.118 2Z" fill="white" stroke="black" stroke-width="1.4"/>
<circle cx="10" cy="20.0854" r="2.3" fill="white" stroke="black" stroke-width="1.4"/>
<mask id="path-3-inside-1_2505_13246" fill="white">
<path fill-rule="evenodd" clip-rule="evenodd" d="M10 2C5.48131 2 1.81818 5.66312 1.81818 10.1818V17.0854H1.5C0.671573 17.0854 0 17.757 0 18.5854V19.0426C0 19.871 0.671573 20.5426 1.5 20.5426H18.5C19.3284 20.5426 20 19.871 20 19.0426V18.5854C20 17.757 19.3284 17.0854 18.5 17.0854H18.1818V10.1818C18.1818 5.66312 14.5187 2 10 2Z"/>
</mask>
<path fill-rule="evenodd" clip-rule="evenodd" d="M10 2C5.48131 2 1.81818 5.66312 1.81818 10.1818V17.0854H1.5C0.671573 17.0854 0 17.757 0 18.5854V19.0426C0 19.871 0.671573 20.5426 1.5 20.5426H18.5C19.3284 20.5426 20 19.871 20 19.0426V18.5854C20 17.757 19.3284 17.0854 18.5 17.0854H18.1818V10.1818C18.1818 5.66312 14.5187 2 10 2Z" fill="white"/>
<path d="M1.81818 17.0854V18.4854C2.59138 18.4854 3.21818 17.8586 3.21818 17.0854H1.81818ZM18.1818 17.0854H16.7818C16.7818 17.8586 17.4086 18.4854 18.1818 18.4854V17.0854ZM3.21818 10.1818C3.21818 6.43632 6.2545 3.4 10 3.4V0.6C4.70811 0.6 0.418182 4.88992 0.418182 10.1818H3.21818ZM3.21818 17.0854V10.1818H0.418182V17.0854H3.21818ZM1.5 18.4854H1.81818V15.6854H1.5V18.4854ZM1.4 18.5854C1.4 18.5302 1.44477 18.4854 1.5 18.4854V15.6854C-0.101625 15.6854 -1.4 16.9838 -1.4 18.5854H1.4ZM1.4 19.0426V18.5854H-1.4V19.0426H1.4ZM1.5 19.1426C1.44477 19.1426 1.4 19.0978 1.4 19.0426H-1.4C-1.4 20.6442 -0.101627 21.9426 1.5 21.9426V19.1426ZM18.5 19.1426H1.5V21.9426H18.5V19.1426ZM18.6 19.0426C18.6 19.0978 18.5552 19.1426 18.5 19.1426V21.9426C20.1016 21.9426 21.4 20.6442 21.4 19.0426H18.6ZM18.6 18.5854V19.0426H21.4V18.5854H18.6ZM18.5 18.4854C18.5552 18.4854 18.6 18.5302 18.6 18.5854H21.4C21.4 16.9838 20.1016 15.6854 18.5 15.6854V18.4854ZM18.1818 18.4854H18.5V15.6854H18.1818V18.4854ZM16.7818 10.1818V17.0854H19.5818V10.1818H16.7818ZM10 3.4C13.7455 3.4 16.7818 6.43632 16.7818 10.1818H19.5818C19.5818 4.88993 15.2919 0.6 10 0.6V3.4Z" fill="black" mask="url(#path-3-inside-1_2505_13246)"/>
<circle cx="16.5" cy="6.5" r="3.5" fill="#DB00FF"/>
</svg>
