<svg width="1920" height="1080" viewBox="0 0 1920 1080" fill="none" xmlns="http://www.w3.org/2000/svg">
<g clip-path="url(#clip0_2160_11569)">
<rect width="1920" height="1080" fill="#E4DDFF"/>
<path fill-rule="evenodd" clip-rule="evenodd" d="M1434.77 296.788C1434.77 299.365 1434.56 301.893 1434.15 304.354C1437.78 307.37 1440.74 311.152 1442.79 315.451C1446.5 312.456 1451.23 310.663 1456.39 310.663C1467.62 310.663 1476.85 319.187 1477.9 330.088H1478V332.169V334.25C1478 349.576 1465.51 362 1450.11 362H1413.16H1302.31V361.989C1302.08 361.996 1301.85 362 1301.61 362C1289.68 362 1280 352.372 1280 340.494C1280 328.616 1289.68 318.988 1301.61 318.988C1302.28 318.988 1302.95 319.019 1303.61 319.078C1302.76 316.187 1302.31 313.13 1302.31 309.969C1302.31 291.961 1316.98 277.363 1335.08 277.363C1338.99 277.363 1342.74 278.045 1346.22 279.297C1353.13 262.687 1369.57 251 1388.76 251C1414.17 251 1434.77 271.5 1434.77 296.788Z" fill="white"/>
<path fill-rule="evenodd" clip-rule="evenodd" d="M1622.96 381.525C1622.96 383.243 1622.82 384.928 1622.54 386.568C1624.98 388.579 1626.97 391.101 1628.35 393.967C1630.84 391.971 1634.02 390.775 1637.48 390.775C1645.03 390.775 1651.23 396.458 1651.93 403.725H1652C1652 403.98 1652 404.234 1651.99 404.487C1652 404.694 1652 404.903 1652 405.112C1652 407.279 1651.51 409.332 1650.64 411.173C1647.59 419.25 1639.7 425 1630.46 425H1608.45H1533.99V424.993C1533.83 424.998 1533.67 425 1533.52 425C1525.5 425 1519 418.581 1519 410.663C1519 402.744 1525.5 396.325 1533.52 396.325C1533.97 396.325 1534.42 396.345 1534.86 396.385C1534.29 394.458 1533.99 392.42 1533.99 390.312C1533.99 378.307 1543.84 368.575 1556 368.575C1558.63 368.575 1561.15 369.03 1563.48 369.865C1568.12 358.791 1579.17 351 1592.06 351C1609.13 351 1622.96 364.667 1622.96 381.525Z" fill="white"/>
<path fill-rule="evenodd" clip-rule="evenodd" d="M350.965 478.525C350.965 480.243 350.821 481.928 350.545 483.568C352.983 485.579 354.974 488.101 356.349 490.967C358.844 488.971 362.022 487.775 365.482 487.775C373.026 487.775 379.226 493.458 379.933 500.725H380C380 500.98 379.995 501.234 379.986 501.487C379.995 501.694 380 501.903 380 502.112C380 504.279 379.514 506.332 378.643 508.173C375.586 516.25 367.702 522 358.458 522H336.447H261.986V521.993C261.83 521.998 261.674 522 261.518 522C253.5 522 247 515.581 247 507.663C247 499.744 253.5 493.325 261.518 493.325C261.969 493.325 262.415 493.345 262.856 493.385C262.29 491.458 261.986 489.42 261.986 487.312C261.986 475.307 271.84 465.575 283.996 465.575C286.625 465.575 289.146 466.03 291.483 466.865C296.121 455.791 307.168 448 320.056 448C337.127 448 350.965 461.667 350.965 478.525Z" fill="white"/>
<rect x="-626" y="814" width="3258" height="266" fill="#D5FF9F"/>
<path d="M1374.93 825.067L1465.47 770.525L1456.86 753.15C1455.49 750.381 1452.42 749.258 1449.62 750.504L1365.24 788.184C1361.81 789.714 1360.21 794.132 1361.84 797.562L1374.93 825.067Z" fill="#CBCBCB"/>
<path d="M1556.12 825.067L1465.57 770.525L1474.18 753.15C1475.55 750.381 1478.63 749.258 1481.42 750.504L1565.81 788.184C1569.23 789.714 1570.83 794.132 1569.2 797.562L1556.12 825.067Z" fill="#DBDBDB"/>
<path d="M1465.45 772.1L1562.45 815.072L1465.45 865.1L1368.45 815.072L1465.45 772.1Z" fill="url(#paint0_linear_2160_11569)"/>
<g filter="url(#filter0_d_2160_11569)">
<path d="M1530.45 820.089C1530.45 844.948 1499.11 865.1 1460.45 865.1C1421.79 865.1 1390.45 844.948 1390.45 820.089C1390.45 780.537 1453.32 767.502 1468.03 742.1C1504.59 767.056 1530.45 795.23 1530.45 820.089Z" fill="url(#paint1_linear_2160_11569)"/>
<path d="M1429.45 796.1H1434.45V806.1H1429.45V796.1Z" fill="white"/>
<path d="M1441.45 796.1H1446.45V806.1H1441.45V796.1Z" fill="white"/>
<path d="M1428.45 812.1C1428.45 813.204 1429.18 814.1 1430.07 814.1H1447.84C1448.73 814.1 1449.45 813.204 1449.45 812.1V812.1C1449.45 810.995 1448.73 810.1 1447.84 810.1H1430.07C1429.18 810.1 1428.45 810.995 1428.45 812.1V812.1Z" fill="white"/>
<path d="M1441.45 805.6C1441.45 806.98 1439.66 808.1 1437.45 808.1C1435.24 808.1 1433.45 806.98 1433.45 805.6C1433.45 804.219 1435.24 803.1 1437.45 803.1C1439.66 803.1 1441.45 804.219 1441.45 805.6Z" fill="#8722ED"/>
</g>
<path d="M1464.45 932.1V866.117L1368.45 815.1L1372.51 879.041L1464.45 932.1Z" fill="#E6E6E6"/>
<path d="M1464.45 932.1V866.117L1562.45 815.1L1558.37 877.001L1464.45 932.1Z" fill="#CDCDCD"/>
<path d="M1368.55 814.721L1466.09 865.96L1450.89 892.73C1449.2 895.709 1445.43 896.781 1442.42 895.139L1357.2 848.599C1354.15 846.937 1353.03 843.123 1354.7 840.08L1368.55 814.721Z" fill="#FCFCFC"/>
<path d="M1562.68 814.721L1465.13 865.961L1480.81 893.391C1482.51 896.377 1486.3 897.434 1489.31 895.763L1574.09 848.618C1577.11 846.942 1578.21 843.149 1576.55 840.122L1562.68 814.721Z" fill="#D9D9D9"/>
<path d="M1280 754C1280 748.477 1284.48 744 1290 744H1292C1297.52 744 1302 748.477 1302 754V838C1302 843.523 1297.52 848 1292 848H1290C1284.48 848 1280 843.523 1280 838V754Z" fill="url(#paint2_linear_2160_11569)"/>
<path d="M1218 707.25C1218 703.798 1220.81 701 1224.27 701H1359.73C1363.19 701 1366 703.798 1366 707.25V764.75C1366 768.202 1363.19 771 1359.73 771H1224.27C1220.81 771 1218 768.202 1218 764.75V707.25Z" fill="#DBA15C"/>
<g filter="url(#filter1_d_2160_11569)">
<path d="M1234 726H1242.16C1248.02 726 1251.19 728.797 1251.19 733.605C1251.19 737.568 1248.11 741.036 1242.74 741.036H1239.11V747.621H1234V726ZM1239.11 736.403H1242.97C1245.16 736.403 1246.2 734.917 1246.2 733.489C1246.2 731.915 1245.08 730.662 1243.03 730.662H1239.11V736.403Z" fill="white"/>
<path d="M1261.06 743.396C1262.99 743.396 1264.75 742.143 1264.75 739.579C1264.75 737.131 1262.99 735.762 1261.06 735.762C1259.18 735.762 1257.48 737.131 1257.48 739.579C1257.48 742.143 1259.18 743.396 1261.06 743.396ZM1261.12 748C1256.07 748 1252.49 744.649 1252.49 739.579C1252.49 734.305 1256.38 731.158 1261.12 731.158C1265.85 731.158 1269.74 734.305 1269.74 739.579C1269.74 744.649 1266.16 748 1261.12 748Z" fill="white"/>
<path d="M1279.73 743.396C1281.67 743.396 1283.43 742.143 1283.43 739.579C1283.43 737.131 1281.67 735.762 1279.73 735.762C1277.86 735.762 1276.16 737.131 1276.16 739.579C1276.16 742.143 1277.86 743.396 1279.73 743.396ZM1279.79 748C1274.74 748 1271.17 744.649 1271.17 739.579C1271.17 734.305 1275.06 731.158 1279.79 731.158C1284.52 731.158 1288.42 734.305 1288.42 739.579C1288.42 744.649 1284.84 748 1279.79 748Z" fill="white"/>
<path d="M1297.81 747.621V726H1306.4C1311.8 726 1314.1 728.04 1314.36 731.128C1314.62 732.935 1313.67 735.179 1311.85 735.966C1314.08 736.985 1315.17 739.55 1314.91 742.026C1314.54 745.611 1312.14 747.621 1307.47 747.621H1297.81ZM1302.83 730.575V734.13H1307.33C1308.59 734.042 1309.34 733.401 1309.34 732.323C1309.34 731.274 1308.57 730.575 1307.15 730.575H1302.83ZM1302.83 738.53V743.046H1307.27C1309.29 743.075 1309.86 742.056 1309.86 740.774C1309.86 739.579 1309.11 738.53 1307.04 738.53H1302.83Z" fill="white"/>
<path d="M1325.03 743.396C1326.97 743.396 1328.73 742.143 1328.73 739.579C1328.73 737.131 1326.97 735.762 1325.03 735.762C1323.16 735.762 1321.46 737.131 1321.46 739.579C1321.46 742.143 1323.16 743.396 1325.03 743.396ZM1325.09 748C1320.04 748 1316.47 744.649 1316.47 739.579C1316.47 734.305 1320.36 731.158 1325.09 731.158C1329.82 731.158 1333.72 734.305 1333.72 739.579C1333.72 744.649 1330.14 748 1325.09 748Z" fill="white"/>
<path d="M1333.89 731.595H1339.66L1342.32 736.082L1344.97 731.595H1350.6L1345.55 739.608L1351 747.621H1345.29L1342.32 743.367L1339.35 747.621H1333.72L1339.09 739.608L1333.89 731.595Z" fill="white"/>
</g>
<path d="M714 785.934C714 848.376 631.173 898.995 529 898.995C426.827 898.995 344 848.376 344 785.934C344 686.585 510.147 653.842 549.032 590.035C645.656 652.723 714 723.492 714 785.934Z" fill="url(#paint3_linear_2160_11569)"/>
<path fill-rule="evenodd" clip-rule="evenodd" d="M543.778 485C537.389 485 531.907 488.878 529.555 494.408C526.725 490.837 522.35 488.546 517.439 488.546C509.463 488.546 502.899 494.59 502.077 502.348C500.685 501.936 499.211 501.715 497.685 501.715C489.153 501.715 482.236 508.632 482.236 517.164C482.236 517.571 482.252 517.975 482.283 518.374C480.612 517.755 478.804 517.417 476.918 517.417C468.386 517.417 461.469 524.334 461.469 532.866C461.469 535.578 462.168 538.126 463.395 540.341C457.009 542.238 452.352 548.151 452.352 555.153C452.352 558.804 453.619 562.16 455.737 564.804C448.614 566.179 443.234 572.448 443.234 579.972C443.234 584.221 444.95 588.069 447.726 590.862C444.95 593.655 443.234 597.503 443.234 601.752C443.234 609.512 448.956 615.936 456.411 617.035C456.076 618.3 455.897 619.629 455.897 621C455.897 629.532 462.814 636.449 471.346 636.449C474.59 636.449 477.6 635.449 480.085 633.741C484.515 635.489 489.342 636.449 494.393 636.449H580.501C584.83 636.449 588.995 635.743 592.887 634.441C595.135 635.719 597.737 636.449 600.508 636.449C609.04 636.449 615.957 629.532 615.957 621C615.957 620.573 615.94 620.149 615.906 619.731L615.931 619.731C615.963 619.732 615.994 619.732 616.026 619.733C616.087 619.733 616.149 619.734 616.21 619.734C624.742 619.734 631.659 612.817 631.659 604.285C631.659 600.606 630.373 597.227 628.225 594.573C632.144 591.771 634.698 587.183 634.698 581.998C634.698 574.407 629.223 568.095 622.007 566.795C622.356 565.506 622.542 564.15 622.542 562.75C622.542 559.227 621.362 555.979 619.376 553.38C621.362 550.781 622.542 547.533 622.542 544.009C622.542 535.477 615.625 528.561 607.093 528.561C606.536 528.561 605.986 528.59 605.445 528.647C606.657 526.443 607.346 523.91 607.346 521.216C607.346 512.684 600.429 505.767 591.897 505.767C588.716 505.767 585.76 506.729 583.303 508.377C582.022 501.136 575.699 495.637 568.091 495.637C564.74 495.637 561.639 496.704 559.107 498.516C558.156 490.896 551.656 485 543.778 485Z" fill="#8E8E8E"/>
<path opacity="0.8" d="M553.766 587.02C553.427 575.071 561.954 565.125 572.811 564.805L587.227 564.381C598.084 564.061 607.16 573.488 607.499 585.437C607.837 597.386 599.311 607.332 588.454 607.652L574.037 608.077C563.18 608.397 554.104 598.969 553.766 587.02Z" fill="url(#paint4_radial_2160_11569)"/>
<path opacity="0.8" d="M468.164 587.02C467.825 575.071 476.352 565.125 487.209 564.805L501.625 564.381C512.482 564.061 521.558 573.488 521.897 585.437C522.236 597.386 513.709 607.332 502.852 607.652L488.436 608.077C477.579 608.397 468.503 598.969 468.164 587.02Z" fill="url(#paint5_radial_2160_11569)"/>
<path d="M548.369 578.481C548.369 581.328 544.094 587.647 538.82 587.647C533.547 587.647 529.271 581.328 529.271 578.481C529.271 575.633 533.547 573.324 538.82 573.324C544.094 573.324 548.369 575.633 548.369 578.481Z" fill="#CCCCCC"/>
<g filter="url(#filter2_d_2160_11569)">
<path d="M582.825 568.894C581.105 576.679 573.4 581.596 565.615 579.876C557.831 578.156 552.914 570.451 554.634 562.666C556.354 554.881 564.059 549.965 571.844 551.684C579.629 553.404 584.545 561.11 582.825 568.894Z" fill="white"/>
</g>
<mask id="mask0_2160_11569" style="mask-type:alpha" maskUnits="userSpaceOnUse" x="554" y="551" width="30" height="30">
<path d="M582.827 568.892C581.107 576.677 573.402 581.594 565.617 579.874C557.833 578.154 552.916 570.449 554.636 562.664C556.356 554.879 564.061 549.963 571.846 551.683C579.631 553.402 584.547 561.108 582.827 568.892Z" fill="#D9D9D9"/>
</mask>
<g mask="url(#mask0_2160_11569)">
<path d="M591.684 568.718C588.746 577.843 578.967 582.858 569.843 579.92C560.718 576.982 555.703 567.203 558.641 558.078C561.579 548.954 571.358 543.938 580.483 546.877C589.607 549.815 594.623 559.594 591.684 568.718Z" fill="#250061"/>
</g>
<path d="M574.094 559.044C573.705 560.805 571.962 561.917 570.201 561.528C568.441 561.139 567.328 559.396 567.717 557.636C568.107 555.875 569.849 554.763 571.61 555.152C573.371 555.541 574.483 557.284 574.094 559.044Z" fill="white"/>
<path d="M570.429 565.898C570.731 568.084 571.972 570.03 573.828 571.224C571.642 571.526 569.696 572.767 568.502 574.623C568.2 572.437 566.959 570.491 565.102 569.297C567.289 568.995 569.235 567.754 570.429 565.898Z" fill="#FF6CD6"/>
<path d="M578.655 561.799C578.475 562.613 577.67 563.126 576.857 562.947C576.044 562.767 575.53 561.962 575.71 561.148C575.889 560.335 576.695 559.821 577.508 560.001C578.321 560.181 578.835 560.986 578.655 561.799Z" fill="#ADFF98"/>
<g filter="url(#filter3_d_2160_11569)">
<path d="M521.398 568.896C519.678 576.681 511.973 581.598 504.188 579.878C496.403 578.158 491.486 570.453 493.206 562.668C494.926 554.883 502.631 549.967 510.416 551.686C518.201 553.406 523.117 561.111 521.398 568.896Z" fill="white"/>
</g>
<mask id="mask1_2160_11569" style="mask-type:alpha" maskUnits="userSpaceOnUse" x="492" y="551" width="30" height="30">
<path d="M521.398 568.894C519.678 576.679 511.973 581.596 504.188 579.876C496.403 578.156 491.486 570.451 493.206 562.666C494.926 554.881 502.631 549.965 510.416 551.684C518.201 553.404 523.117 561.11 521.398 568.894Z" fill="#D9D9D9"/>
</mask>
<g mask="url(#mask1_2160_11569)">
<path d="M530.259 568.72C527.32 577.845 517.542 582.86 508.417 579.922C499.292 576.984 494.277 567.205 497.215 558.08C500.153 548.956 509.932 543.94 519.057 546.879C528.182 549.817 533.197 559.596 530.259 568.72Z" fill="#250061"/>
</g>
<path d="M512.664 559.046C512.275 560.807 510.533 561.919 508.772 561.53C507.011 561.141 505.899 559.398 506.288 557.638C506.677 555.877 508.42 554.765 510.181 555.154C511.941 555.543 513.053 557.285 512.664 559.046Z" fill="white"/>
<path d="M509.002 565.898C509.303 568.084 510.545 570.03 512.401 571.224C510.214 571.526 508.268 572.767 507.074 574.623C506.772 572.437 505.531 570.491 503.675 569.297C505.861 568.995 507.807 567.754 509.002 565.898Z" fill="#FF6CD6"/>
<path d="M517.231 561.799C517.052 562.613 516.247 563.126 515.433 562.947C514.62 562.767 514.106 561.962 514.286 561.148C514.466 560.335 515.271 559.821 516.084 560.001C516.897 560.181 517.411 560.986 517.231 561.799Z" fill="#ADFF98"/>
<path d="M546.857 577.544C546.735 578.405 545.42 578.776 543.921 578.371C542.421 577.967 541.304 576.941 541.426 576.079C541.548 575.218 542.862 574.847 544.362 575.252C545.861 575.656 546.978 576.682 546.857 577.544Z" fill="white"/>
<path d="M577.316 542.398C577.274 542.956 576.788 543.374 576.23 543.333L562.592 542.315C562.034 542.273 561.616 541.787 561.657 541.229L561.681 540.91C561.716 540.446 562.064 540.064 562.523 539.987C567.64 539.124 570.567 538.782 576.691 541.023C577.111 541.177 577.376 541.594 577.342 542.04L577.316 542.398Z" fill="white"/>
<path d="M498.124 542.398C498.165 542.956 498.652 543.374 499.209 543.333L512.847 542.315C513.405 542.273 513.824 541.787 513.782 541.229L513.758 540.91C513.724 540.446 513.375 540.064 512.916 539.987C507.8 539.124 504.873 538.782 498.748 541.023C498.328 541.177 498.064 541.594 498.097 542.04L498.124 542.398Z" fill="white"/>
<g filter="url(#filter4_d_2160_11569)">
<path d="M477.172 633.408H594.177V650.123H477.172V633.408Z" fill="#5A38BC"/>
</g>
<path d="M556.428 653.666C556.428 663.737 548.264 671.901 538.194 671.901C528.123 671.901 519.959 663.737 519.959 653.666C519.959 643.596 528.123 635.432 538.194 635.432C548.264 635.432 556.428 643.596 556.428 653.666Z" fill="#FF73D8"/>
<path fill-rule="evenodd" clip-rule="evenodd" d="M538.952 665.742C540.545 665.394 541.738 663.975 541.738 662.278C541.738 660.32 540.15 658.732 538.192 658.732C536.234 658.732 534.646 660.32 534.646 662.278C534.646 663.975 535.839 665.394 537.432 665.742V670.889C537.432 671.308 537.772 671.649 538.192 671.649C538.612 671.649 538.952 671.308 538.952 670.889L538.952 665.742Z" fill="#464646"/>
<path d="M517.934 654.68C517.934 653.001 519.294 651.641 520.973 651.641H556.429C558.107 651.641 559.468 653.001 559.468 654.68C559.468 656.358 558.107 657.719 556.429 657.719H520.973C519.294 657.719 517.934 656.358 517.934 654.68Z" fill="#FFA8E7"/>
<g filter="url(#filter5_d_2160_11569)">
<path fill-rule="evenodd" clip-rule="evenodd" d="M489.328 504.25C489.328 514.321 481.164 522.485 471.093 522.485C469.911 522.485 468.755 522.372 467.635 522.157C467.598 522.271 467.559 522.384 467.519 522.497C472.422 525.766 475.652 531.346 475.652 537.68C475.652 547.751 467.488 555.915 457.417 555.915C457.397 555.915 457.376 555.915 457.355 555.915C457.396 556.416 457.417 556.923 457.417 557.435C457.417 567.505 449.253 575.669 439.183 575.669C429.112 575.669 420.948 567.505 420.948 557.435C420.948 554.202 421.789 551.167 423.264 548.534C414.747 546.999 408.285 539.549 408.285 530.589C408.285 520.518 416.449 512.355 426.52 512.355C428.56 512.355 430.522 512.69 432.354 513.308C433.825 504.713 441.312 498.172 450.326 498.172C451.508 498.172 452.664 498.285 453.784 498.499C456.193 491.247 463.032 486.016 471.093 486.016C481.164 486.016 489.328 494.18 489.328 504.25Z" fill="#8E8E8E"/>
</g>
<g filter="url(#filter6_d_2160_11569)">
<path fill-rule="evenodd" clip-rule="evenodd" d="M585.061 504.25C585.061 514.321 593.225 522.485 603.295 522.485C604.478 522.485 605.634 522.372 606.753 522.157C606.791 522.271 606.83 522.384 606.87 522.497C601.967 525.766 598.737 531.346 598.737 537.68C598.737 547.751 606.901 555.915 616.971 555.915C616.992 555.915 617.013 555.915 617.034 555.915C616.992 556.416 616.971 556.923 616.971 557.435C616.971 567.505 625.135 575.669 635.206 575.669C645.277 575.669 653.441 567.505 653.441 557.435C653.441 554.202 652.6 551.167 651.124 548.534C659.642 546.999 666.104 539.549 666.104 530.589C666.104 520.518 657.94 512.355 647.869 512.355C645.829 512.355 643.867 512.69 642.035 513.308C640.563 504.713 633.077 498.172 624.063 498.172C622.88 498.172 621.724 498.285 620.605 498.499C618.196 491.247 611.357 486.016 603.295 486.016C593.225 486.016 585.061 494.18 585.061 504.25Z" fill="#8E8E8E"/>
</g>
<path fill-rule="evenodd" clip-rule="evenodd" d="M524.738 594.286C524.834 594.037 525.113 593.913 525.362 594.009L538.948 599.253L552.051 594.011C552.299 593.912 552.58 594.033 552.679 594.28C552.778 594.528 552.658 594.809 552.41 594.908L539.13 600.22C539.017 600.265 538.891 600.266 538.777 600.222L525.014 594.91C524.765 594.814 524.642 594.535 524.738 594.286Z" fill="white"/>
<path fill-rule="evenodd" clip-rule="evenodd" d="M523.466 593.795C523.833 592.844 524.902 592.37 525.853 592.738L538.939 597.788L551.545 592.746C552.492 592.367 553.567 592.828 553.945 593.774C554.324 594.721 553.863 595.796 552.917 596.174L539.637 601.486L539.273 600.577L539.637 601.486C539.204 601.659 538.721 601.662 538.286 601.494L524.524 596.182C523.572 595.815 523.099 594.747 523.466 593.795ZM552.558 595.278C552.558 595.278 552.557 595.278 552.557 595.278L552.558 595.278Z" fill="#FFFCFC"/>
<g filter="url(#filter7_d_2160_11569)">
<path fill-rule="evenodd" clip-rule="evenodd" d="M608.809 618.682C591.67 618.682 577.775 632.576 577.775 649.715V668.779L577.775 668.813C577.775 675.405 583.119 680.749 589.711 680.749C593.616 680.749 597.083 678.874 599.261 675.975C601.438 678.874 604.905 680.749 608.81 680.749C612.714 680.749 616.181 678.874 618.359 675.976C620.536 678.874 624.003 680.749 627.907 680.749C634.499 680.749 639.843 675.405 639.843 668.813C639.843 668.759 639.843 668.705 639.842 668.651V649.715C639.842 632.576 625.948 618.682 608.809 618.682Z" fill="#8E8E8E"/>
</g>
<g filter="url(#filter8_d_2160_11569)">
<path fill-rule="evenodd" clip-rule="evenodd" d="M466.1 618.682C448.96 618.682 435.066 632.576 435.066 649.715V668.813C435.066 675.405 440.411 680.749 447.003 680.749C450.908 680.749 454.375 678.874 456.552 675.975C458.73 678.874 462.197 680.749 466.101 680.749C470.006 680.749 473.472 678.874 475.65 675.976C477.828 678.874 481.294 680.749 485.199 680.749C491.791 680.749 497.135 675.405 497.135 668.813C497.135 668.747 497.134 668.68 497.133 668.614V649.715C497.133 632.576 483.239 618.682 466.1 618.682Z" fill="#8E8E8E"/>
</g>
<path fill-rule="evenodd" clip-rule="evenodd" d="M406 207C378.386 207 356 229.386 356 257V345.969C356 373.584 378.386 395.969 406 395.969H508.437C511.79 395.969 514.787 398.06 515.945 401.207L527.516 432.662C529.764 438.773 538.407 438.773 540.655 432.662L552.226 401.207C553.384 398.06 556.381 395.969 559.734 395.969H662.646C690.261 395.969 712.646 373.584 712.646 345.969V257C712.646 229.386 690.261 207 662.646 207H406Z" fill="white"/>
<path d="M491.528 323.943C491.528 337.143 474.47 347.844 453.429 347.844C432.388 347.844 415.33 337.143 415.33 323.943C415.33 302.941 449.546 296.02 457.554 282.531C477.453 295.783 491.528 310.743 491.528 323.943Z" fill="#8722ED"/>
<path d="M513.676 303.699C513.375 301.151 513.3 298.527 513.525 295.679C509.096 295.154 504.741 294.554 504.741 288.932C504.741 284.435 507.594 282.786 511.573 282.411C518.931 281.586 527.865 281.212 536.124 281.212C544.307 281.212 553.316 281.586 560.674 282.411C564.653 282.786 567.506 284.435 567.506 288.932C567.506 294.779 562.776 295.304 558.271 295.679C558.497 298.452 558.346 301.151 558.046 303.624C558.947 303.699 559.848 303.849 560.674 303.924C564.653 304.374 567.506 305.948 567.506 310.52C567.506 315.018 564.653 316.517 560.674 316.892C553.316 317.716 544.307 318.166 536.124 318.166C527.865 318.166 518.931 317.716 511.573 316.892C507.594 316.517 504.741 315.018 504.741 310.52C504.741 305.948 507.594 304.374 511.573 303.924C512.249 303.849 513 303.774 513.676 303.699ZM532.52 302.725C533.721 302.725 534.922 302.725 536.124 302.725C537.175 302.725 538.226 302.725 539.277 302.725C539.277 300.701 539.427 298.752 539.727 296.653C538.526 296.653 537.325 296.653 536.124 296.653C534.772 296.653 533.421 296.653 532.069 296.653C532.37 298.752 532.52 300.701 532.52 302.725ZM523.586 335.931C518.631 335.781 513.751 335.482 509.321 335.107C505.042 334.732 502.414 331.734 502.414 327.236C502.414 323.488 505.042 319.59 509.321 320.04C525.388 321.539 546.034 321.389 562.701 320.04C567.055 319.665 569.683 323.488 569.683 327.236C569.683 331.734 567.055 334.732 562.626 335.107C558.121 335.482 553.316 335.707 548.436 335.856C548.661 336.906 548.737 338.18 548.737 339.679C548.737 348.15 545.884 348.375 536.049 348.375C526.213 348.375 523.285 348.15 523.285 339.679C523.285 338.18 523.361 336.981 523.586 335.931Z" fill="#8722ED"/>
<path d="M623.227 309.396C623.152 310.296 623.152 311.12 623.077 312.02C622.702 317.941 619.774 320.865 615.495 320.865C610.915 320.865 607.762 317.417 608.437 310.82C609.038 303.399 609.038 297.777 608.512 291.106C607.912 283.76 610.915 280.387 615.495 280.387C619.774 280.387 622.702 283.31 623.077 289.232C623.152 290.432 623.152 291.556 623.227 292.755L626.155 292.98C626.08 292.156 626.08 291.331 626.005 290.506C625.33 283.086 628.408 279.562 633.063 279.562C637.192 279.562 640.27 282.561 640.645 288.707C641.021 296.503 641.096 305.198 640.645 312.994C640.195 319.066 637.192 322.064 633.063 322.064C628.408 322.064 625.33 318.616 625.93 311.795C626.005 310.895 626.005 310.071 626.08 309.171L623.227 309.396ZM588.542 295.754C589.143 297.103 589.368 300.101 589.143 301.375C587.04 302.05 585.614 302.575 584.037 303.399C583.061 303.849 583.662 305.423 584.788 304.824C588.091 303.249 590.869 302.125 596.05 302.05C602.506 301.975 606.485 303.549 607.011 309.471C607.536 315.093 604.909 317.567 600.104 319.066C595.899 320.34 590.419 320.265 585.989 320.265C577.656 320.265 575.028 316.892 574.052 311.12C572.776 304.599 572.551 296.503 574.052 290.057C575.253 284.21 577.656 281.287 583.287 280.762C588.917 280.162 592.896 280.237 597.851 280.612C603.707 280.987 606.11 283.46 606.11 288.033C606.11 292.755 604.083 295.754 597.851 295.754H588.542ZM577.055 336.156C577.055 326.936 586.89 321.689 608.963 321.689C630.96 321.689 640.72 326.936 640.72 336.156C640.72 345.526 632.537 348.375 608.963 348.375C585.389 348.375 577.055 345.526 577.055 336.156ZM603.482 336.531C606.936 338.33 610.915 338.33 614.368 336.531C614.894 336.231 615.344 335.482 615.044 334.732C614.819 334.132 614.068 333.608 613.467 333.982C610.69 335.482 606.936 335.407 604.233 333.908C603.783 333.608 602.957 333.833 602.581 334.582C602.206 335.332 602.506 336.006 603.482 336.531Z" fill="#8722ED"/>
<path d="M423.288 252.874H425.303V256.579H426.999V258.291H425.303V262.756H423.288V252.874ZM415.33 260.672V253.811H417.33V255.657H419.65V253.811H421.664V260.672H415.33ZM416.809 266.074V261.743H418.852V264.422H425.752V266.074H416.809ZM417.33 259.035H419.65V257.249H417.33V259.035Z" fill="#8722ED"/>
<path d="M436.595 252.844H438.639V266.327H436.595V260.984H434.522V259.318H436.595V257.323H434.551V255.657H436.595V252.844ZM428.043 255.612V253.96H433.928V259.258H430.087V261.669C431.594 261.654 432.957 261.58 434.493 261.342L434.653 263.038C432.768 263.336 431.087 263.381 429.13 263.381H428.072V257.621H431.913V255.612H428.043Z" fill="#8722ED"/>
<path d="M449.25 252.859H451.308V262.726H449.25V260.077H446.452V258.41H449.25V257.056H446.655C445.742 259.08 443.886 260.568 441.292 261.386L440.451 259.734C443.147 258.886 444.8 257.353 445.118 255.508H441.176V253.856H447.322C447.322 254.392 447.278 254.898 447.177 255.389H449.25V252.859ZM442.64 266.074V261.773H444.698V264.422H451.627V266.074H442.64Z" fill="#8722ED"/>
<path d="M456.664 254.049H458.563V257.011H459.983V254.049H461.868V263.142H456.664V254.049ZM458.563 261.505H459.983V258.618H458.563V261.505ZM462.795 265.702V253.052H464.68V257.948H465.651V252.859H467.579V266.298H465.651V259.615H464.68V265.702H462.795Z" fill="#8722ED"/>
<path d="M477.943 252.874H479.987V262.77H477.943V259.586H475.769V260.717H469.521V253.737H471.536V255.701H473.783V253.737H475.769V255.046H477.943V252.874ZM471.261 266.074V261.803H473.305V264.422H480.248V266.074H471.261ZM471.536 259.065H473.783V257.294H471.536V259.065ZM475.769 257.934H477.943V256.713H475.769V257.934Z" fill="#8722ED"/>
<path d="M484.771 253.871H486.815V255.716C486.815 258.216 487.742 260.672 490.032 261.669L488.858 263.366C487.38 262.681 486.394 261.416 485.829 259.853C485.249 261.58 484.234 262.964 482.654 263.693L481.451 261.967C483.8 260.94 484.771 258.35 484.771 255.716V253.871ZM490.496 266.327V252.844H492.54V266.327H490.496Z" fill="#8722ED"/>
<path d="M500.991 254.719H503.267V252.859H505.311V259.66H503.267V256.371H500.991V254.719ZM494.193 258.142C496.411 257.472 497.251 255.835 497.251 254.183V253.29H499.295V254.183C499.295 255.746 500.092 257.279 502.18 257.934L501.136 259.541C499.759 259.094 498.846 258.231 498.295 257.13C497.715 258.35 496.73 259.303 495.237 259.779L494.193 258.142ZM496.614 261.788V260.196H505.311V263.901H498.643V264.556H505.659V266.164H496.628V262.398H503.296V261.788H496.614Z" fill="#8722ED"/>
<path d="M513.624 258.201C514.377 258.201 514.899 258.752 514.899 259.526C514.899 260.3 514.377 260.836 513.624 260.836C512.87 260.836 512.334 260.3 512.334 259.526C512.334 258.752 512.87 258.201 513.624 258.201Z" fill="#8722ED"/>
<path d="M529.92 252.859H531.964V259.615H529.92V252.859ZM520.962 258.053C523.194 257.383 524.049 255.731 524.049 254.153V253.141H526.122V254.153C526.122 255.686 526.948 257.234 529.108 257.859L528.151 259.466C526.687 259.035 525.687 258.157 525.107 257.041C524.513 258.261 523.484 259.243 521.933 259.719L520.962 258.053ZM523.179 261.773V260.181H531.964V263.916H525.194V264.616H532.268V266.223H523.194V262.428H529.949V261.773H523.179Z" fill="#8722ED"/>
<path d="M538.603 257.695H540.646V259.243H545.56V260.88H533.732V259.243H538.603V257.695ZM534.196 256.847C536.602 256.639 537.762 255.835 538.11 255.046H534.805V253.424H544.517V255.046H541.183C541.545 255.85 542.69 256.639 545.097 256.847L544.415 258.484C541.893 258.246 540.328 257.323 539.661 256.073C538.98 257.323 537.414 258.246 534.892 258.484L534.196 256.847ZM535.066 263.931C535.066 262.413 536.762 261.55 539.617 261.55C542.473 261.55 544.169 262.413 544.169 263.931C544.169 265.464 542.473 266.312 539.617 266.312C536.762 266.312 535.066 265.464 535.066 263.931ZM537.11 263.931C537.11 264.527 537.921 264.765 539.617 264.765C541.328 264.765 542.125 264.527 542.125 263.931C542.125 263.351 541.328 263.098 539.617 263.098C537.921 263.098 537.11 263.351 537.11 263.931Z" fill="#8722ED"/>
<path d="M553.96 253.365C555.961 253.365 557.425 254.555 557.425 256.267C557.425 257.948 555.961 259.169 553.96 259.169C551.974 259.169 550.51 257.948 550.51 256.267C550.51 254.555 551.974 253.365 553.96 253.365ZM549.786 259.883C552.032 259.883 555.265 259.853 558.004 259.407L558.135 260.94C557.12 261.148 556.062 261.282 555.033 261.386V265.896H553.004V261.505C551.931 261.55 550.902 261.565 550.018 261.565L549.786 259.883ZM552.467 256.267C552.467 257.056 553.105 257.457 553.96 257.457C554.844 257.457 555.482 257.056 555.482 256.267C555.482 255.478 554.844 255.061 553.96 255.061C553.105 255.061 552.467 255.478 552.467 256.267ZM558.715 266.298V252.859H560.744V266.298H558.715Z" fill="#8722ED"/>
<path d="M571.268 252.859H573.312V266.298H571.268V252.859ZM562.411 262.249C564.6 261.252 565.528 258.975 565.528 256.996V256.654H562.875V255.017H565.513V253.171H567.557V255.017H570.166V256.654H567.557V256.996C567.557 258.871 568.499 261.059 570.703 262.026L569.63 263.619C568.166 263.009 567.151 261.773 566.571 260.285C566.006 261.863 564.991 263.187 563.484 263.842L562.411 262.249Z" fill="#8722ED"/>
<path d="M587.742 252.859H589.669V266.298H587.742V252.859ZM578.131 262.309C580.059 261.029 580.653 258.633 580.653 256.386V255.835H578.624V254.153H584.437V255.835H582.625V256.386C582.625 258.588 583.19 260.851 585.103 261.996L583.929 263.5C582.813 262.83 582.088 261.714 581.654 260.359C581.219 261.833 580.479 263.083 579.32 263.827L578.131 262.309ZM583.538 259.08V257.398H585.103V253.052H586.988V265.702H585.103V259.08H583.538Z" fill="#8722ED"/>
<path d="M596.932 261.208C599.773 261.208 601.599 262.175 601.599 263.768C601.599 265.36 599.773 266.312 596.932 266.312C594.105 266.312 592.279 265.36 592.279 263.768C592.279 262.175 594.105 261.208 596.932 261.208ZM591.134 260.464V258.797H595.381V256.52H597.41V258.797H602.904V260.464H591.134ZM592.438 255.091V253.454H601.527V254.54C601.527 255.597 601.527 256.758 601.164 258.142L599.164 257.934C599.454 256.802 599.498 255.939 599.512 255.091H592.438ZM594.294 263.768C594.294 264.437 595.236 264.75 596.932 264.75C598.657 264.75 599.585 264.437 599.585 263.768C599.585 263.083 598.657 262.77 596.932 262.77C595.236 262.77 594.294 263.083 594.294 263.768Z" fill="#8722ED"/>
<path d="M610.355 256.981H612.761V252.844H614.776V266.327H612.761V258.648H610.355V256.981ZM603.528 261.952C605.818 260.88 606.717 258.276 606.717 255.716V253.856H608.76V255.716C608.76 258.276 609.572 260.746 611.804 261.743L610.601 263.41C609.195 262.711 608.267 261.476 607.731 259.913C607.18 261.565 606.224 262.889 604.789 263.619L603.528 261.952Z" fill="#8722ED"/>
<path d="M625.285 252.844H627.329V266.327H625.285V252.844ZM617.052 263.217V253.9H619.067V257.1H621.531V253.9H623.546V263.217H617.052ZM619.067 261.55H621.531V258.722H619.067V261.55Z" fill="#8722ED"/>
<path d="M633.881 253.588H636.056V254.54C636.056 256.43 637.476 258.544 640.593 259.065L639.723 260.806C637.404 260.345 635.795 259.094 634.968 257.442C634.113 259.08 632.519 260.359 630.199 260.806L629.344 259.065C632.432 258.544 633.881 256.386 633.881 254.54V253.588ZM629.112 264.69V262.994H640.955V264.69H629.112Z" fill="#8722ED"/>
</g>
<defs>
<filter id="filter0_d_2160_11569" x="1386.45" y="742.1" width="148" height="131" filterUnits="userSpaceOnUse" color-interpolation-filters="sRGB">
<feFlood flood-opacity="0" result="BackgroundImageFix"/>
<feColorMatrix in="SourceAlpha" type="matrix" values="0 0 0 0 0 0 0 0 0 0 0 0 0 0 0 0 0 0 127 0" result="hardAlpha"/>
<feOffset dy="4"/>
<feGaussianBlur stdDeviation="2"/>
<feComposite in2="hardAlpha" operator="out"/>
<feColorMatrix type="matrix" values="0 0 0 0 0 0 0 0 0 0 0 0 0 0 0 0 0 0 0.5 0"/>
<feBlend mode="normal" in2="BackgroundImageFix" result="effect1_dropShadow_2160_11569"/>
<feBlend mode="normal" in="SourceGraphic" in2="effect1_dropShadow_2160_11569" result="shape"/>
</filter>
<filter id="filter1_d_2160_11569" x="1230" y="722" width="125" height="30" filterUnits="userSpaceOnUse" color-interpolation-filters="sRGB">
<feFlood flood-opacity="0" result="BackgroundImageFix"/>
<feColorMatrix in="SourceAlpha" type="matrix" values="0 0 0 0 0 0 0 0 0 0 0 0 0 0 0 0 0 0 127 0" result="hardAlpha"/>
<feOffset/>
<feGaussianBlur stdDeviation="2"/>
<feComposite in2="hardAlpha" operator="out"/>
<feColorMatrix type="matrix" values="0 0 0 0 0 0 0 0 0 0 0 0 0 0 0 0 0 0 0.7 0"/>
<feBlend mode="normal" in2="BackgroundImageFix" result="effect1_dropShadow_2160_11569"/>
<feBlend mode="normal" in="SourceGraphic" in2="effect1_dropShadow_2160_11569" result="shape"/>
</filter>
<filter id="filter2_d_2160_11569" x="546.291" y="543.342" width="44.877" height="44.877" filterUnits="userSpaceOnUse" color-interpolation-filters="sRGB">
<feFlood flood-opacity="0" result="BackgroundImageFix"/>
<feColorMatrix in="SourceAlpha" type="matrix" values="0 0 0 0 0 0 0 0 0 0 0 0 0 0 0 0 0 0 127 0" result="hardAlpha"/>
<feOffset/>
<feGaussianBlur stdDeviation="4"/>
<feComposite in2="hardAlpha" operator="out"/>
<feColorMatrix type="matrix" values="0 0 0 0 0 0 0 0 0 0 0 0 0 0 0 0 0 0 0.25 0"/>
<feBlend mode="normal" in2="BackgroundImageFix" result="effect1_dropShadow_2160_11569"/>
<feBlend mode="normal" in="SourceGraphic" in2="effect1_dropShadow_2160_11569" result="shape"/>
</filter>
<filter id="filter3_d_2160_11569" x="484.863" y="543.344" width="44.877" height="44.877" filterUnits="userSpaceOnUse" color-interpolation-filters="sRGB">
<feFlood flood-opacity="0" result="BackgroundImageFix"/>
<feColorMatrix in="SourceAlpha" type="matrix" values="0 0 0 0 0 0 0 0 0 0 0 0 0 0 0 0 0 0 127 0" result="hardAlpha"/>
<feOffset/>
<feGaussianBlur stdDeviation="4"/>
<feComposite in2="hardAlpha" operator="out"/>
<feColorMatrix type="matrix" values="0 0 0 0 0 0 0 0 0 0 0 0 0 0 0 0 0 0 0.25 0"/>
<feBlend mode="normal" in2="BackgroundImageFix" result="effect1_dropShadow_2160_11569"/>
<feBlend mode="normal" in="SourceGraphic" in2="effect1_dropShadow_2160_11569" result="shape"/>
</filter>
<filter id="filter4_d_2160_11569" x="473.172" y="633.408" width="125.006" height="24.7148" filterUnits="userSpaceOnUse" color-interpolation-filters="sRGB">
<feFlood flood-opacity="0" result="BackgroundImageFix"/>
<feColorMatrix in="SourceAlpha" type="matrix" values="0 0 0 0 0 0 0 0 0 0 0 0 0 0 0 0 0 0 127 0" result="hardAlpha"/>
<feOffset dy="4"/>
<feGaussianBlur stdDeviation="2"/>
<feComposite in2="hardAlpha" operator="out"/>
<feColorMatrix type="matrix" values="0 0 0 0 0 0 0 0 0 0 0 0 0 0 0 0 0 0 0.25 0"/>
<feBlend mode="normal" in2="BackgroundImageFix" result="effect1_dropShadow_2160_11569"/>
<feBlend mode="normal" in="SourceGraphic" in2="effect1_dropShadow_2160_11569" result="shape"/>
</filter>
<filter id="filter5_d_2160_11569" x="407.285" y="483.016" width="87.043" height="95.6543" filterUnits="userSpaceOnUse" color-interpolation-filters="sRGB">
<feFlood flood-opacity="0" result="BackgroundImageFix"/>
<feColorMatrix in="SourceAlpha" type="matrix" values="0 0 0 0 0 0 0 0 0 0 0 0 0 0 0 0 0 0 127 0" result="hardAlpha"/>
<feOffset dx="2"/>
<feGaussianBlur stdDeviation="1.5"/>
<feComposite in2="hardAlpha" operator="out"/>
<feColorMatrix type="matrix" values="0 0 0 0 0 0 0 0 0 0 0 0 0 0 0 0 0 0 0.2 0"/>
<feBlend mode="normal" in2="BackgroundImageFix" result="effect1_dropShadow_2160_11569"/>
<feBlend mode="normal" in="SourceGraphic" in2="effect1_dropShadow_2160_11569" result="shape"/>
</filter>
<filter id="filter6_d_2160_11569" x="580.061" y="483.016" width="87.043" height="95.6543" filterUnits="userSpaceOnUse" color-interpolation-filters="sRGB">
<feFlood flood-opacity="0" result="BackgroundImageFix"/>
<feColorMatrix in="SourceAlpha" type="matrix" values="0 0 0 0 0 0 0 0 0 0 0 0 0 0 0 0 0 0 127 0" result="hardAlpha"/>
<feOffset dx="-2"/>
<feGaussianBlur stdDeviation="1.5"/>
<feComposite in2="hardAlpha" operator="out"/>
<feColorMatrix type="matrix" values="0 0 0 0 0 0 0 0 0 0 0 0 0 0 0 0 0 0 0.2 0"/>
<feBlend mode="normal" in2="BackgroundImageFix" result="effect1_dropShadow_2160_11569"/>
<feBlend mode="normal" in="SourceGraphic" in2="effect1_dropShadow_2160_11569" result="shape"/>
</filter>
<filter id="filter7_d_2160_11569" x="569.775" y="613.682" width="78.0684" height="78.0684" filterUnits="userSpaceOnUse" color-interpolation-filters="sRGB">
<feFlood flood-opacity="0" result="BackgroundImageFix"/>
<feColorMatrix in="SourceAlpha" type="matrix" values="0 0 0 0 0 0 0 0 0 0 0 0 0 0 0 0 0 0 127 0" result="hardAlpha"/>
<feOffset dy="3"/>
<feGaussianBlur stdDeviation="4"/>
<feComposite in2="hardAlpha" operator="out"/>
<feColorMatrix type="matrix" values="0 0 0 0 0 0 0 0 0 0 0 0 0 0 0 0 0 0 0.25 0"/>
<feBlend mode="normal" in2="BackgroundImageFix" result="effect1_dropShadow_2160_11569"/>
<feBlend mode="normal" in="SourceGraphic" in2="effect1_dropShadow_2160_11569" result="shape"/>
</filter>
<filter id="filter8_d_2160_11569" x="427.066" y="613.682" width="78.0684" height="78.0684" filterUnits="userSpaceOnUse" color-interpolation-filters="sRGB">
<feFlood flood-opacity="0" result="BackgroundImageFix"/>
<feColorMatrix in="SourceAlpha" type="matrix" values="0 0 0 0 0 0 0 0 0 0 0 0 0 0 0 0 0 0 127 0" result="hardAlpha"/>
<feOffset dy="3"/>
<feGaussianBlur stdDeviation="4"/>
<feComposite in2="hardAlpha" operator="out"/>
<feColorMatrix type="matrix" values="0 0 0 0 0 0 0 0 0 0 0 0 0 0 0 0 0 0 0.25 0"/>
<feBlend mode="normal" in2="BackgroundImageFix" result="effect1_dropShadow_2160_11569"/>
<feBlend mode="normal" in="SourceGraphic" in2="effect1_dropShadow_2160_11569" result="shape"/>
</filter>
<linearGradient id="paint0_linear_2160_11569" x1="1465.45" y1="884.982" x2="1465.45" y2="755.424" gradientUnits="userSpaceOnUse">
<stop/>
<stop offset="1" stop-color="#D3D3D3"/>
</linearGradient>
<linearGradient id="paint1_linear_2160_11569" x1="1460.45" y1="723.308" x2="1460.45" y2="877.94" gradientUnits="userSpaceOnUse">
<stop stop-color="#B973FF"/>
<stop offset="0.606435" stop-color="#D79F71"/>
<stop offset="0.823668" stop-color="#D79F71"/>
<stop offset="0.989583" stop-color="#986A44"/>
</linearGradient>
<linearGradient id="paint2_linear_2160_11569" x1="1291" y1="744" x2="1291" y2="848" gradientUnits="userSpaceOnUse">
<stop stop-color="#B59166"/>
<stop offset="1" stop-color="#DBA15C"/>
</linearGradient>
<linearGradient id="paint3_linear_2160_11569" x1="529" y1="590.035" x2="529" y2="922.29" gradientUnits="userSpaceOnUse">
<stop stop-color="#B368FF"/>
<stop offset="0.739583" stop-color="#7C26D3"/>
</linearGradient>
<radialGradient id="paint4_radial_2160_11569" cx="0" cy="0" r="1" gradientUnits="userSpaceOnUse" gradientTransform="translate(580.632 586.229) rotate(88.3762) scale(21.6443 26.8781)">
<stop stop-color="#70BA96" stop-opacity="0.56"/>
<stop offset="0.84375" stop-color="#FF72D7" stop-opacity="0.14"/>
<stop offset="1" stop-color="#FF72D7" stop-opacity="0"/>
</radialGradient>
<radialGradient id="paint5_radial_2160_11569" cx="0" cy="0" r="1" gradientUnits="userSpaceOnUse" gradientTransform="translate(495.031 586.229) rotate(88.3762) scale(21.6443 26.8781)">
<stop stop-color="#70BA96" stop-opacity="0.56"/>
<stop offset="0.84375" stop-color="#FF72D7" stop-opacity="0.14"/>
<stop offset="1" stop-color="#FF72D7" stop-opacity="0"/>
</radialGradient>
<clipPath id="clip0_2160_11569">
<rect width="1920" height="1080" fill="white"/>
</clipPath>
</defs>
</svg>
