<svg width="17" height="19" viewBox="0 0 17 19" fill="none" xmlns="http://www.w3.org/2000/svg">
<mask id="path-1-inside-1_189_3975" fill="white">
<path fill-rule="evenodd" clip-rule="evenodd" d="M0 0H17L17 10.5037L17 11.6157L17 17.8514C17 18.7119 15.9854 19.1706 15.3394 18.6021L8.5 12.5836L1.66063 18.6021C1.01465 19.1706 1.47641e-05 18.7119 1.33844e-05 17.8514L0 11.6157V10.5037V0Z"/>
</mask>
<path d="M17 0L18.5 2.72382e-07C18.5 -0.397824 18.342 -0.779355 18.0607 -1.06066C17.7794 -1.34196 17.3978 -1.5 17 -1.5V0ZM0 0V-1.5C-0.828427 -1.5 -1.5 -0.828427 -1.5 0L0 0ZM17 10.5037H15.5V10.5037L17 10.5037ZM17 11.6157L18.5 11.6157V11.6157L17 11.6157ZM17 17.8514L18.5 17.8514L17 17.8514ZM15.3394 18.6021L14.3484 19.7282L14.3484 19.7282L15.3394 18.6021ZM8.5 12.5836L9.49093 11.4576C8.92437 10.959 8.07563 10.959 7.50907 11.4576L8.5 12.5836ZM1.66063 18.6021L2.65156 19.7282H2.65156L1.66063 18.6021ZM1.33844e-05 17.8514L1.50001 17.8514V17.8514L1.33844e-05 17.8514ZM0 11.6157H-1.5V11.6157L0 11.6157ZM17 -1.5H0V1.5H17V-1.5ZM18.5 10.5037L18.5 2.72382e-07L15.5 -2.72382e-07L15.5 10.5037H18.5ZM15.5 10.5037L15.5 11.6157L18.5 11.6157L18.5 10.5037L15.5 10.5037ZM15.5 11.6157L15.5 17.8514L18.5 17.8514L18.5 11.6157L15.5 11.6157ZM15.5 17.8514C15.5 17.4212 16.0073 17.1918 16.3303 17.476L14.3484 19.7282C15.9634 21.1493 18.5 20.0026 18.5 17.8514L15.5 17.8514ZM16.3303 17.476L9.49093 11.4576L7.50907 13.7097L14.3484 19.7282L16.3303 17.476ZM2.65156 19.7282L9.49093 13.7097L7.50907 11.4576L0.669705 17.476L2.65156 19.7282ZM-1.49999 17.8514C-1.49998 20.0026 1.0366 21.1493 2.65156 19.7282L0.669705 17.476C0.992696 17.1918 1.50001 17.4212 1.50001 17.8514L-1.49999 17.8514ZM-1.5 11.6157L-1.49999 17.8514L1.50001 17.8514L1.5 11.6157L-1.5 11.6157ZM-1.5 10.5037V11.6157H1.5V10.5037H-1.5ZM-1.5 0V10.5037H1.5V0H-1.5Z" fill="current" mask="url(#path-1-inside-1_189_3975)"/>
</svg>
