<svg width="15" height="15" viewBox="0 0 15 15" fill="none" xmlns="http://www.w3.org/2000/svg">
<path d="M0 2.36842C0 1.06038 1.06038 0 2.36842 0H12.6316C13.9396 0 15 1.06038 15 2.36842V12.6316C15 13.9396 13.9396 15 12.6316 15H2.36842C1.06038 15 0 13.9396 0 12.6316V2.36842Z" fill="#8722ED"/>
<path fill-rule="evenodd" clip-rule="evenodd" d="M12.2876 3.29583C12.6477 3.54174 12.7402 4.03297 12.4943 4.39302L7.64134 11.4983C7.50126 11.7034 7.27282 11.8306 7.02469 11.8417C6.77656 11.8528 6.53768 11.7465 6.37985 11.5547L2.54858 6.89953C2.2715 6.56287 2.3198 6.06534 2.65646 5.78827C2.99312 5.5112 3.49065 5.5595 3.76772 5.89616L6.93066 9.73928L11.1904 3.50248C11.4363 3.14244 11.9276 3.04991 12.2876 3.29583Z" fill="white"/>
</svg>
