<svg width="17" height="17" viewBox="0 0 17 17" fill="none" xmlns="http://www.w3.org/2000/svg">
<path d="M0 2.125C0 0.951395 0.951395 0 2.125 0H14.875C16.0486 0 17 0.951395 17 2.125V14.875C17 16.0486 16.0486 17 14.875 17H2.125C0.951395 17 0 16.0486 0 14.875V2.125Z" fill="current"/>
<path fill-rule="evenodd" clip-rule="evenodd" d="M13.5919 3.19839C14.0287 3.54135 14.131 4.21028 13.8203 4.69249L8.75804 12.5496C8.58491 12.8183 8.30933 12.984 8.01093 12.9989C7.71252 13.0138 7.42452 12.8762 7.23014 12.6258L3.23363 7.47805C2.88481 7.02875 2.93199 6.35237 3.339 5.96731C3.74602 5.58225 4.35874 5.63433 4.70756 6.08363L7.89594 10.1904L12.2384 3.45052C12.5491 2.96832 13.1551 2.85544 13.5919 3.19839Z" fill="white"/>
</svg>
