<svg width="14" height="14" viewBox="0 0 14 14" fill="none" xmlns="http://www.w3.org/2000/svg">
<path fill-rule="evenodd" clip-rule="evenodd" d="M13 7C13 10.3137 10.3137 13 7 13C3.68629 13 1 10.3137 1 7C1 3.68629 3.68629 1 7 1C10.3137 1 13 3.68629 13 7ZM14 7C14 10.866 10.866 14 7 14C3.13401 14 0 10.866 0 7C0 3.13401 3.13401 0 7 0C10.866 0 14 3.13401 14 7ZM7.5 4.5C7.5 4.22386 7.27614 4 7 4C6.72386 4 6.5 4.22386 6.5 4.5V7.5C6.5 7.77614 6.72386 8 7 8H10C10.2761 8 10.5 7.77614 10.5 7.5C10.5 7.22386 10.2761 7 10 7H7.5V4.5Z" fill="#8722ED"/>
</svg>
