<svg width="18" height="18" viewBox="0 0 18 18" fill="none" xmlns="http://www.w3.org/2000/svg">
<circle cx="9" cy="9" r="9" fill="#A54BFF"/>
<path d="M7.71135 9.62929C7.56407 8.36275 7.45607 7.11584 7.50516 5.75111C7.5248 5.09329 8.0648 4.63184 8.84044 4.63184C9.61607 4.63184 10.1561 5.09329 10.1757 5.75111C10.215 7.11584 10.107 8.36275 9.95971 9.62929C9.9008 10.2282 9.54735 10.6307 8.84044 10.6307C8.13353 10.6307 7.78007 10.2282 7.71135 9.62929ZM7.53462 12.4275C7.53462 11.6027 8.0648 11.0824 8.84044 11.0824C9.63571 11.0824 10.1463 11.6027 10.1463 12.4275C10.1463 13.0951 9.59644 13.5958 8.84044 13.5958C8.07462 13.5958 7.53462 13.0951 7.53462 12.4275Z" fill="white"/>
</svg>
