<svg width="20" height="20" viewBox="0 0 20 20" fill="none" xmlns="http://www.w3.org/2000/svg">
<circle cx="10" cy="10" r="10" fill="#8722ED"/>
<path fill-rule="evenodd" clip-rule="evenodd" d="M8.58788 10.1703L13.0124 5.74575L14.2547 6.98806L9.83019 11.4126L8.91539 11.5183L8.48214 11.0851L8.58788 10.1703ZM14.6413 6.60146L13.399 5.35914L13.7208 5.03735L14.9631 6.27967L14.6413 6.60146ZM14.0301 4.57342C13.8593 4.40261 13.5823 4.40261 13.4115 4.57342L8.17434 9.81061C8.10457 9.88037 8.06045 9.97167 8.04912 10.0697L7.86655 11.6492C7.83418 11.9292 8.07125 12.1663 8.35128 12.1339L9.9308 11.9514C10.0288 11.94 10.1201 11.8959 10.1899 11.8261L15.4271 6.58896C15.5979 6.41814 15.5979 6.1412 15.4271 5.97038L14.0301 4.57342ZM13.3645 13.2729V9.02188L13.8959 8.49051V13.2729C13.8959 13.8598 13.4201 14.3356 12.8331 14.3356H6.98804C6.4011 14.3356 5.92529 13.8598 5.92529 13.2729V7.42776C5.92529 6.84083 6.4011 6.36502 6.98804 6.36502H11.2608L10.7294 6.89639H6.98804C6.69457 6.89639 6.45666 7.13429 6.45666 7.42776V13.2729C6.45666 13.5663 6.69457 13.8042 6.98804 13.8042H12.8331C13.1266 13.8042 13.3645 13.5663 13.3645 13.2729Z" fill="white"/>
</svg>
