<svg width="12" height="13" viewBox="0 0 12 13" fill="none" xmlns="http://www.w3.org/2000/svg">
<path fill-rule="evenodd" clip-rule="evenodd" d="M3.31703 7.13474L8.8311 1.62067L10.3793 3.1689L4.86527 8.68297L3.7252 8.81474L3.18526 8.2748L3.31703 7.13474ZM10.8611 2.68709L9.31291 1.13886L9.71394 0.73783L11.2622 2.28606L10.8611 2.68709ZM10.0994 0.159658C9.88651 -0.053219 9.54137 -0.0532196 9.32849 0.159658L2.80166 6.68649C2.71472 6.77343 2.65972 6.88721 2.64561 7.00935L2.41808 8.97783C2.37774 9.32681 2.67319 9.62226 3.02217 9.58192L4.99065 9.3544C5.11279 9.34028 5.22657 9.28529 5.31351 9.19835L11.8403 2.67151C12.0532 2.45863 12.0532 2.11349 11.8403 1.90062L10.0994 0.159658ZM9.2711 11.0037V5.70595L9.93332 5.04372V11.0037C9.93332 11.7352 9.34035 12.3282 8.60888 12.3282H1.32444C0.592973 12.3282 0 11.7352 0 11.0037V3.71928C0 2.98781 0.592973 2.39484 1.32444 2.39484H6.64937L5.98715 3.05706H1.32444C0.958708 3.05706 0.662221 3.35355 0.662221 3.71928V11.0037C0.662221 11.3695 0.958708 11.6659 1.32444 11.6659H8.60888C8.97461 11.6659 9.2711 11.3695 9.2711 11.0037Z" fill="#C7C7C7"/>
</svg>
