<svg width="375" height="149" viewBox="0 0 375 149" fill="none" xmlns="http://www.w3.org/2000/svg">
<mask id="mask0_2010_10638" style="mask-type:alpha" maskUnits="userSpaceOnUse" x="0" y="0" width="375" height="149">
<path d="M0 0H375V149H0V0Z" fill="#D9D9D9"/>
</mask>
<g mask="url(#mask0_2010_10638)">
<path d="M0 0H375V149H0V0Z" fill="#A54BFF"/>
<path d="M404 142.341C404 215.896 332.366 275.525 244 275.525C155.634 275.525 84 215.896 84 142.341C84 68.7849 155.634 9.15625 244 9.15625C332.366 9.15625 404 68.7849 404 142.341Z" fill="url(#paint0_linear_2010_10638)"/>
<path d="M111 -15.5C111 22.8838 80.5554 54 43 54C5.44464 54 -25 22.8838 -25 -15.5C-25 -53.8838 5.44464 -85 43 -85C80.5554 -85 111 -53.8838 111 -15.5Z" fill="url(#paint1_linear_2010_10638)" fill-opacity="0.3"/>
</g>
<mask id="mask1_2010_10638" style="mask-type:alpha" maskUnits="userSpaceOnUse" x="10" y="31" width="162" height="118">
<path d="M43 37.382L107.288 31.5503L171.576 37.382V148.913H43L10 147.05L43 37.382Z" fill="#D9D9D9"/>
</mask>
<g mask="url(#mask1_2010_10638)">
<g filter="url(#filter0_d_2010_10638)">
<path d="M68.9424 147.09C68.9424 133.951 79.5891 123.3 92.7224 123.3H115.279C128.413 123.3 139.059 133.951 139.059 147.09C139.059 160.228 128.413 170.879 115.279 170.879H92.7224C79.5891 170.879 68.9424 160.228 68.9424 147.09Z" fill="white"/>
<path d="M56.4219 102.015C56.4219 90.2589 65.8568 80.729 77.4953 80.729H135.516C147.154 80.729 156.589 90.2589 156.589 102.015C156.589 113.77 147.154 123.3 135.516 123.3H77.4953C65.8568 123.3 56.4219 113.77 56.4219 102.015Z" fill="white"/>
<path d="M63.0996 91.3483C63.0996 67.5045 82.5331 48.1753 106.505 48.1753C130.478 48.1753 149.911 67.5045 149.911 91.3483V99.9284H63.0996V91.3483Z" fill="white"/>
<path d="M156.666 61.6367C151.677 65.1964 144.747 64.0375 141.187 59.0481C137.627 54.0587 138.786 47.1283 143.775 43.5685C148.765 40.0088 155.695 41.1677 159.255 46.1571C162.815 51.1465 161.656 58.077 156.666 61.6367Z" fill="white"/>
<path d="M146.686 68.7578C141.697 72.3175 134.766 71.1586 131.206 66.1692C127.647 61.1798 128.806 54.2494 133.795 50.6896C138.784 47.1299 145.715 48.2888 149.275 53.2782C152.834 58.2676 151.675 65.1981 146.686 68.7578Z" fill="white"/>
<path d="M159.241 72.7983C154.251 76.3581 147.321 75.1991 143.761 70.2097C140.201 65.2203 141.36 58.2899 146.35 54.7301C151.339 51.1704 158.27 52.3294 161.829 57.3188C165.389 62.3081 164.23 69.2386 159.241 72.7983Z" fill="white"/>
<path d="M54.6978 62.7324C59.6872 66.2921 66.6177 65.1332 70.1774 60.1438C73.7371 55.1544 72.5782 48.224 67.5888 44.6642C62.5994 41.1045 55.669 42.2635 52.1092 47.2528C48.5495 52.2422 49.7084 59.1727 54.6978 62.7324Z" fill="white"/>
<path d="M64.6773 69.854C69.6667 73.4137 76.5971 72.2548 80.1569 67.2654C83.7166 62.276 82.5577 55.3455 77.5683 51.7858C72.5789 48.2261 65.6484 49.385 62.0887 54.3744C58.529 59.3638 59.6879 66.2942 64.6773 69.854Z" fill="white"/>
<path d="M52.1226 73.894C57.112 77.4538 64.0425 76.2948 67.6022 71.3054C71.1619 66.316 70.003 59.3856 65.0136 55.8258C60.0242 52.2661 53.0938 53.4251 49.534 58.4145C45.9743 63.4039 47.1332 70.3343 52.1226 73.894Z" fill="white"/>
<path d="M65.6226 98.7404C65.4357 92.2744 70.5259 86.8812 76.9919 86.6943L85.5775 86.4462C92.0435 86.2593 97.4367 91.3495 97.6236 97.8154C97.8105 104.281 92.7203 109.675 86.2543 109.862L77.6687 110.11C71.2027 110.297 65.8095 105.206 65.6226 98.7404Z" fill="url(#paint2_radial_2010_10638)"/>
<path d="M113.253 98.7404C113.067 92.2744 118.157 86.8812 124.623 86.6943L133.208 86.4462C139.674 86.2593 145.068 91.3495 145.254 97.8154C145.441 104.281 140.351 109.675 133.885 109.862L125.3 110.11C118.834 110.297 113.44 105.206 113.253 98.7404Z" fill="url(#paint3_radial_2010_10638)"/>
<path d="M112.35 94.3536C112.35 96.3451 109.173 100.764 105.254 100.764C101.336 100.764 98.1592 96.3451 98.1592 94.3536C98.1592 92.362 101.336 90.7476 105.254 90.7476C109.173 90.7476 112.35 92.362 112.35 94.3536Z" fill="#DB00FF"/>
<path fill-rule="evenodd" clip-rule="evenodd" d="M95.4082 102.436C95.1144 102.409 94.8524 102.608 94.823 102.882C94.7936 103.156 95.008 103.4 95.3018 103.427C96.3031 103.52 98.0125 103.867 99.8162 104.608C101.616 105.347 103.475 106.463 104.825 108.076C104.853 108.111 104.887 108.143 104.926 108.172C105.159 108.341 105.495 108.302 105.676 108.084C107.027 106.467 108.889 105.348 110.693 104.608C112.496 103.867 114.206 103.52 115.207 103.427C115.501 103.4 115.715 103.156 115.686 102.882C115.656 102.608 115.394 102.409 115.101 102.436C113.987 102.54 112.168 102.914 110.261 103.697C108.529 104.408 106.695 105.469 105.254 106.997C103.814 105.469 101.98 104.408 100.247 103.697C98.341 102.914 96.5221 102.54 95.4082 102.436Z" fill="black"/>
<g filter="url(#filter1_d_2010_10638)">
<path d="M96.4892 86.1572C96.4892 90.9978 92.5652 94.9219 87.7246 94.9219C82.884 94.9219 78.96 90.9978 78.96 86.1572C78.96 81.3166 82.884 77.3926 87.7246 77.3926C92.5652 77.3926 96.4892 81.3166 96.4892 86.1572Z" fill="white"/>
</g>
<mask id="mask2_2010_10638" style="mask-type:alpha" maskUnits="userSpaceOnUse" x="78" y="77" width="19" height="18">
<path d="M96.4873 86.1582C96.4873 90.9988 92.5632 94.9228 87.7226 94.9228C82.8821 94.9228 78.958 90.9988 78.958 86.1582C78.958 81.3176 82.8821 77.3936 87.7226 77.3936C92.5632 77.3936 96.4873 81.3176 96.4873 86.1582Z" fill="#D9D9D9"/>
</mask>
<g mask="url(#mask2_2010_10638)">
<path d="M101.457 84.7223C100.913 90.4869 95.7989 94.719 90.0343 94.1751C84.2698 93.6312 80.0376 88.5171 80.5815 82.7526C81.1255 76.988 86.2395 72.7559 92.004 73.2998C97.7686 73.8437 102.001 78.9578 101.457 84.7223Z" fill="black"/>
</g>
<path d="M89.8104 81.1493C89.8104 82.3018 88.8761 83.2361 87.7235 83.2361C86.571 83.2361 85.6367 82.3018 85.6367 81.1493C85.6367 79.9968 86.571 79.0625 87.7235 79.0625C88.8761 79.0625 89.8104 79.9968 89.8104 81.1493Z" fill="white"/>
<path d="M89.8108 83.2363C90.2401 84.5899 91.1548 85.657 92.315 86.1579C91.1548 86.6587 90.2401 87.7259 89.8108 89.0794C89.3815 87.7259 88.4668 86.6587 87.3066 86.1579C88.4668 85.657 89.3815 84.5899 89.8108 83.2363Z" fill="#B56CFF"/>
<path d="M93.1507 82.4011C93.1507 82.8621 92.5901 83.2359 91.8986 83.2359C91.2071 83.2359 90.6465 82.8621 90.6465 82.4011C90.6465 81.9401 91.2071 81.5664 91.8986 81.5664C92.5901 81.5664 93.1507 81.9401 93.1507 82.4011Z" fill="#ADFF98"/>
<g filter="url(#filter2_d_2010_10638)">
<path d="M131.548 86.1572C131.548 90.9978 127.624 94.9219 122.783 94.9219C117.943 94.9219 114.019 90.9978 114.019 86.1572C114.019 81.3166 117.943 77.3926 122.783 77.3926C127.624 77.3926 131.548 81.3166 131.548 86.1572Z" fill="white"/>
</g>
<mask id="mask3_2010_10638" style="mask-type:alpha" maskUnits="userSpaceOnUse" x="114" y="77" width="18" height="18">
<path d="M131.548 86.1582C131.548 90.9988 127.624 94.9228 122.783 94.9228C117.943 94.9228 114.019 90.9988 114.019 86.1582C114.019 81.3176 117.943 77.3936 122.783 77.3936C127.624 77.3936 131.548 81.3176 131.548 86.1582Z" fill="#D9D9D9"/>
</mask>
<g mask="url(#mask3_2010_10638)">
<path d="M136.597 84.7223C136.054 90.4869 130.939 94.719 125.175 94.1751C119.41 93.6312 115.178 88.5171 115.722 82.7526C116.266 76.988 121.38 72.7559 127.145 73.2998C132.909 73.8437 137.141 78.9578 136.597 84.7223Z" fill="black"/>
</g>
<path d="M124.871 81.1488C124.871 82.3013 123.937 83.2356 122.784 83.2356C121.632 83.2356 120.697 82.3013 120.697 81.1488C120.697 79.9963 121.632 79.062 122.784 79.062C123.937 79.062 124.871 79.9963 124.871 81.1488Z" fill="white"/>
<path d="M124.871 83.2354C125.301 84.5889 126.215 85.656 127.376 86.1569C126.215 86.6577 125.301 87.7249 124.871 89.0784C124.442 87.7249 123.527 86.6577 122.367 86.1569C123.527 85.656 124.442 84.5889 124.871 83.2354Z" fill="#B56CFF"/>
<path d="M128.209 82.4011C128.209 82.8621 127.835 83.2359 127.374 83.2359C126.913 83.2359 126.539 82.8621 126.539 82.4011C126.539 81.9401 126.913 81.5664 127.374 81.5664C127.835 81.5664 128.209 81.9401 128.209 82.4011Z" fill="#ADFF98"/>
<path d="M110.454 93.6976C110.32 94.2567 109.418 94.5194 108.439 94.2843C107.461 94.0492 106.777 93.4054 106.911 92.8463C107.045 92.2872 107.947 92.0246 108.926 92.2597C109.904 92.4947 110.588 93.1385 110.454 93.6976Z" fill="white"/>
<path d="M118.192 73.7747C118.192 73.4674 118.433 73.2183 118.731 73.2183H126.001C126.299 73.2183 126.54 73.4674 126.54 73.7747V74.3312C126.54 74.6386 126.299 74.8877 126.001 74.8877H118.731C118.433 74.8877 118.192 74.6386 118.192 74.3312V73.7747Z" fill="#8722ED"/>
<path d="M83.1338 73.7747C83.1338 73.4674 83.3749 73.2183 83.6723 73.2183H90.9425C91.24 73.2183 91.4811 73.4674 91.4811 73.7747V74.3312C91.4811 74.6386 91.24 74.8877 90.9425 74.8877H83.6723C83.3749 74.8877 83.1338 74.6386 83.1338 74.3312V73.7747Z" fill="#8722ED"/>
<path d="M72.2812 123.3H135.721V131.647H72.2812V123.3Z" fill="#A54BFF"/>
<path d="M114.019 133.735C114.019 139.036 109.534 143.334 104.002 143.334C98.47 143.334 93.9854 139.036 93.9854 133.735C93.9854 128.433 98.47 124.135 104.002 124.135C109.534 124.135 114.019 128.433 114.019 133.735Z" fill="#D5AAFF"/>
<path fill-rule="evenodd" clip-rule="evenodd" d="M104.391 140.281C105.329 140.101 106.031 139.367 106.031 138.49C106.031 137.477 105.097 136.657 103.944 136.657C102.792 136.657 101.857 137.477 101.857 138.49C101.857 139.367 102.559 140.101 103.497 140.281L103.497 142.942C103.497 143.159 103.697 143.335 103.944 143.335C104.191 143.335 104.391 143.159 104.391 142.942L104.391 140.281Z" fill="#464646"/>
<path d="M92.3154 134.152C92.3154 133.23 93.0538 132.483 93.9645 132.483H113.204C114.115 132.483 114.853 133.23 114.853 134.152C114.853 135.074 114.115 135.822 113.204 135.822H93.9645C93.0538 135.822 92.3154 135.074 92.3154 134.152Z" fill="#E9D2FF"/>
<g filter="url(#filter3_d_2010_10638)">
<path d="M81.3066 142.289C81.3066 155.366 73.3553 165.968 63.5469 165.968C53.7384 165.968 45.7871 155.366 45.7871 142.289C45.7871 129.211 48.86 118.609 63.5469 118.609C78.2337 118.609 81.3066 129.211 81.3066 142.289Z" fill="white"/>
</g>
<g filter="url(#filter4_d_2010_10638)">
<path d="M161.4 142.289C161.4 155.366 153.449 165.968 143.641 165.968C133.832 165.968 125.881 155.366 125.881 142.289C125.881 129.211 128.954 118.609 143.641 118.609C158.327 118.609 161.4 129.211 161.4 142.289Z" fill="white"/>
</g>
<g filter="url(#filter5_d_2010_10638)">
<path d="M116.522 47.739C116.522 51.6192 111.477 54.7646 105.253 54.7646C99.0296 54.7646 93.9844 51.6192 93.9844 47.739C93.9844 41.5655 104.105 39.5309 106.473 35.5659C112.359 39.4613 116.522 43.8589 116.522 47.739Z" fill="#B89146"/>
</g>
<path d="M100.662 43.9131H101.497V45.5825H100.662V43.9131Z" fill="white"/>
<path d="M102.331 43.9131H103.166V45.5825H102.331V43.9131Z" fill="white"/>
<path d="M100.662 46.8346C100.662 47.0651 100.777 47.252 100.919 47.252H103.744C103.886 47.252 104.001 47.0651 104.001 46.8346C104.001 46.6041 103.886 46.4172 103.744 46.4172H100.919C100.777 46.4172 100.662 46.6041 100.662 46.8346Z" fill="white"/>
</g>
</g>
<g filter="url(#filter6_d_2010_10638)">
<path fill-rule="evenodd" clip-rule="evenodd" d="M107 18.2702C107.69 18.2702 108.25 18.8299 108.25 19.5202L108.25 28.5202C108.25 29.2106 107.69 29.7702 107 29.7702C106.31 29.7702 105.75 29.2106 105.75 28.5202L105.75 19.5202C105.75 18.8299 106.31 18.2702 107 18.2702Z" fill="white"/>
</g>
<g filter="url(#filter7_d_2010_10638)">
<path fill-rule="evenodd" clip-rule="evenodd" d="M91.1161 23.6361C91.6043 23.148 92.3957 23.148 92.8839 23.6361L99.2479 30.0001C99.736 30.4883 99.736 31.2797 99.2479 31.7679C98.7597 32.256 97.9683 32.256 97.4801 31.7679L91.1161 25.4039C90.628 24.9157 90.628 24.1243 91.1161 23.6361Z" fill="white"/>
</g>
<g filter="url(#filter8_d_2010_10638)">
<path fill-rule="evenodd" clip-rule="evenodd" d="M123.247 23.6361C122.759 23.148 121.968 23.148 121.479 23.6361L115.115 30.0001C114.627 30.4883 114.627 31.2797 115.115 31.7679C115.604 32.256 116.395 32.256 116.883 31.7679L123.247 25.4039C123.735 24.9157 123.735 24.1243 123.247 23.6361Z" fill="white"/>
</g>
<g filter="url(#filter9_d_2010_10638)">
<path d="M219.153 67.4335C218.962 65.8039 218.915 64.1264 219.058 62.305C216.244 61.9695 213.478 61.5861 213.478 57.9913C213.478 55.1155 215.29 54.061 217.818 53.8213C222.491 53.2941 228.166 53.0545 233.412 53.0545C238.61 53.0545 244.332 53.2941 249.006 53.8213C251.533 54.061 253.345 55.1155 253.345 57.9913C253.345 61.7298 250.341 62.0654 247.48 62.305C247.623 64.0784 247.528 65.8039 247.337 67.3856C247.909 67.4335 248.481 67.5294 249.006 67.5773C251.533 67.8649 253.345 68.8715 253.345 71.7952C253.345 74.671 251.533 75.6296 249.006 75.8693C244.332 76.3965 238.61 76.6841 233.412 76.6841C228.166 76.6841 222.491 76.3965 217.818 75.8693C215.29 75.6296 213.478 74.671 213.478 71.7952C213.478 68.8715 215.29 67.8649 217.818 67.5773C218.247 67.5294 218.724 67.4815 219.153 67.4335ZM231.123 66.8105C231.886 66.8105 232.649 66.8105 233.412 66.8105C234.08 66.8105 234.747 66.8105 235.415 66.8105C235.415 65.5163 235.51 64.2702 235.701 62.9281C234.938 62.9281 234.175 62.9281 233.412 62.9281C232.554 62.9281 231.695 62.9281 230.837 62.9281C231.028 64.2702 231.123 65.5163 231.123 66.8105ZM225.448 88.0436C222.301 87.9477 219.201 87.756 216.387 87.5163C213.669 87.2767 212 85.3595 212 82.4837C212 80.0871 213.669 77.5948 216.387 77.8824C226.593 78.841 239.707 78.7451 250.293 77.8824C253.059 77.6427 254.728 80.0871 254.728 82.4837C254.728 85.3595 253.059 87.2767 250.246 87.5163C247.384 87.756 244.332 87.8998 241.233 87.9956C241.376 88.6667 241.423 89.4815 241.423 90.4401C241.423 95.8562 239.611 96 233.364 96C227.117 96 225.257 95.8562 225.257 90.4401C225.257 89.4815 225.305 88.7146 225.448 88.0436Z" fill="url(#paint4_linear_2010_10638)"/>
<path d="M288.739 71.0763C288.692 71.6514 288.692 72.1786 288.644 72.7538C288.405 76.5403 286.546 78.4096 283.827 78.4096C280.918 78.4096 278.916 76.2048 279.345 71.9869C279.726 67.2418 279.726 63.6471 279.392 59.3813C279.011 54.6841 280.918 52.5272 283.827 52.5272C286.546 52.5272 288.405 54.3965 288.644 58.183C288.692 58.9499 288.692 59.6688 288.739 60.4357L290.599 60.5795C290.551 60.0523 290.551 59.5251 290.504 58.9978C290.075 54.2527 292.03 52 294.986 52C297.609 52 299.564 53.9172 299.803 57.8475C300.041 62.8322 300.089 68.3922 299.803 73.3769C299.517 77.2593 297.609 79.1765 294.986 79.1765C292.03 79.1765 290.075 76.9717 290.456 72.61C290.504 72.0349 290.504 71.5076 290.551 70.9325L288.739 71.0763ZM266.707 62.3529C267.089 63.2157 267.232 65.1329 267.089 65.9477C265.754 66.3791 264.848 66.7146 263.846 67.2418C263.226 67.5294 263.608 68.5359 264.323 68.1525C266.421 67.146 268.186 66.427 271.476 66.3791C275.577 66.3312 278.105 67.3377 278.439 71.1242C278.772 74.719 277.103 76.3007 274.051 77.2593C271.381 78.0741 267.9 78.0261 265.086 78.0261C259.793 78.0261 258.124 75.8693 257.504 72.1786C256.693 68.0087 256.55 62.8322 257.504 58.7102C258.267 54.9717 259.793 53.1024 263.369 52.7669C266.946 52.3834 269.473 52.4314 272.621 52.671C276.34 52.9107 277.866 54.4924 277.866 57.4161C277.866 60.4357 276.579 62.3529 272.621 62.3529H266.707ZM259.411 88.1874C259.411 82.2919 265.658 78.9368 279.679 78.9368C293.651 78.9368 299.851 82.2919 299.851 88.1874C299.851 94.1786 294.653 96 279.679 96C264.705 96 259.411 94.1786 259.411 88.1874ZM276.197 88.427C278.391 89.5773 280.918 89.5773 283.112 88.427C283.446 88.2353 283.732 87.756 283.541 87.2767C283.398 86.8932 282.921 86.5577 282.54 86.7974C280.775 87.756 278.391 87.7081 276.674 86.7495C276.388 86.5577 275.864 86.7015 275.625 87.1808C275.387 87.6601 275.577 88.0915 276.197 88.427Z" fill="url(#paint5_linear_2010_10638)"/>
</g>
<path d="M197.728 35.4481H198.976V37.4081H199.88V38.4321H198.976V40.8081H197.728V35.4481ZM193.368 39.7041V35.9601H194.608V36.9041H195.696V35.9601H196.936V39.7041H193.368ZM194.192 42.6161V40.2561H195.456V41.6241H199.2V42.6161H194.192ZM194.608 38.7281H195.696V37.8561H194.608V38.7281Z" fill="white"/>
<path d="M205.088 35.4321H206.344V42.7441H205.088V39.8961H204.024V38.9041H205.088V37.9201H204.024V36.9201H205.088V35.4321ZM200.416 37.0081V36.0241H203.712V38.9601H201.672V40.1441C202.448 40.1281 203.168 40.0961 203.968 39.9841L204.056 40.9921C203.032 41.1521 202.104 41.1681 201.024 41.1681H200.424V37.9841H202.472V37.0081H200.416Z" fill="white"/>
<path d="M212.073 35.4401H213.337V40.7681H212.073V39.4161H210.609V38.4161H212.073V37.7761H210.729C210.225 38.8561 209.209 39.6481 207.769 40.0801L207.257 39.0961C208.705 38.6641 209.561 37.8961 209.753 36.9681H207.665V35.9761H211.113C211.113 36.2561 211.089 36.5281 211.041 36.7841H212.073V35.4401ZM208.465 42.6161V40.2561H209.729V41.6241H213.513V42.6161H208.465Z" fill="white"/>
<path d="M216.196 36.0721H217.364V37.6321H217.964V36.0721H219.124V41.0481H216.196V36.0721ZM217.364 40.0641H217.964V38.5921H217.364V40.0641ZM219.54 42.4161V35.5361H220.7V38.1681H221.124V35.4401H222.308V42.7201H221.124V39.1601H220.7V42.4161H219.54Z" fill="white"/>
<path d="M227.909 35.4481H229.165V40.8081H227.909V39.1441H226.821V39.7281H223.293V35.9201H224.533V36.9281H225.597V35.9201H226.821V36.5921H227.909V35.4481ZM224.269 42.6161V40.2801H225.525V41.6241H229.309V42.6161H224.269ZM224.533 38.7441H225.597V37.8721H224.533V38.7441ZM226.821 38.1521H227.909V37.5841H226.821V38.1521Z" fill="white"/>
<path d="M231.693 35.9681H232.957V36.8881C232.957 38.2481 233.373 39.5841 234.701 40.1361L233.981 41.1521C233.173 40.7921 232.653 40.1601 232.341 39.3681C232.029 40.2481 231.477 40.9521 230.613 41.3361L229.877 40.3041C231.245 39.7361 231.693 38.3281 231.693 36.8881V35.9681ZM234.829 42.7441V35.4321H236.085V42.7441H234.829Z" fill="white"/>
<path d="M240.701 36.3681H241.885V35.4481H243.141V39.1121H241.885V37.3601H240.701V36.3681ZM236.909 38.2081C238.181 37.8481 238.573 36.9681 238.573 36.1121V35.6801H239.845V36.1121C239.845 36.9281 240.205 37.7521 241.397 38.1041L240.757 39.0641C240.013 38.8321 239.517 38.4001 239.221 37.8401C238.901 38.4561 238.365 38.9441 237.549 39.1841L236.909 38.2081ZM238.261 40.3281V39.3761H243.141V41.4561H239.509V41.6961H243.317V42.6561H238.269V40.5601H241.901V40.3281H238.261Z" fill="white"/>
<path d="M247.697 38.2881C248.145 38.2881 248.465 38.6081 248.465 39.0561C248.465 39.5041 248.145 39.8241 247.697 39.8241C247.249 39.8241 246.929 39.5041 246.929 39.0561C246.929 38.6081 247.249 38.2881 247.697 38.2881Z" fill="white"/>
<path d="M256.634 35.4481H257.89V39.0721H256.634V35.4481ZM251.714 38.1681C253.002 37.8081 253.402 36.9281 253.402 36.1281V35.5841H254.682V36.1281C254.682 36.9121 255.058 37.7281 256.298 38.0641L255.706 39.0321C254.906 38.8081 254.37 38.3681 254.058 37.8001C253.722 38.4241 253.162 38.9201 252.314 39.1601L251.714 38.1681ZM252.954 40.3121V39.3681H257.89V41.4641H254.202V41.7361H258.042V42.6961H252.962V40.5761H256.65V40.3121H252.954Z" fill="white"/>
<path d="M261.442 38.0721H262.698V38.8561H265.378V39.8401H258.794V38.8561H261.442V38.0721ZM259.026 37.5361C260.306 37.4401 260.882 37.0721 261.098 36.7121H259.386V35.7361H264.794V36.7121H263.066C263.282 37.0721 263.85 37.4401 265.146 37.5361L264.722 38.5121C263.282 38.3921 262.45 37.8961 262.082 37.2561C261.714 37.8961 260.89 38.3921 259.45 38.5121L259.026 37.5361ZM259.522 41.4401C259.522 40.6081 260.474 40.1361 262.066 40.1361C263.658 40.1361 264.61 40.6081 264.61 41.4401C264.61 42.2721 263.658 42.7361 262.066 42.7361C260.474 42.7361 259.522 42.2721 259.522 41.4401ZM260.786 41.4401C260.786 41.7201 261.178 41.8161 262.066 41.8161C262.962 41.8161 263.346 41.7201 263.346 41.4401C263.346 41.1681 262.962 41.0641 262.066 41.0641C261.178 41.0641 260.786 41.1681 260.786 41.4401Z" fill="white"/>
<path d="M269.974 35.7041C271.094 35.7041 271.91 36.3601 271.91 37.2961C271.91 38.2081 271.094 38.8801 269.974 38.8801C268.862 38.8801 268.038 38.2081 268.038 37.2961C268.038 36.3601 268.862 35.7041 269.974 35.7041ZM267.67 39.2081C268.894 39.2081 270.67 39.2001 272.182 38.9601L272.262 39.8721C271.726 39.9841 271.174 40.0561 270.63 40.1041V42.5041H269.374V40.1841C268.806 40.2081 268.278 40.2161 267.806 40.2161L267.67 39.2081ZM269.238 37.2961C269.238 37.6801 269.55 37.8641 269.974 37.8641C270.406 37.8641 270.718 37.6801 270.718 37.2961C270.718 36.8961 270.406 36.7121 269.974 36.7121C269.55 36.7121 269.238 36.8961 269.238 37.2961ZM272.542 42.7201V35.4401H273.79V42.7201H272.542Z" fill="white"/>
<path d="M279.454 35.4401H280.71V42.7201H279.454V35.4401ZM274.59 40.4561C275.846 39.9041 276.278 38.6721 276.278 37.6561V37.5681H274.862V36.5921H276.278V35.6241H277.534V36.5921H278.926V37.5681H277.534V37.6561C277.534 38.6161 277.982 39.8081 279.238 40.3441L278.582 41.2961C277.782 40.9761 277.246 40.3441 276.926 39.5841C276.614 40.3921 276.07 41.0721 275.246 41.4161L274.59 40.4561Z" fill="white"/>
<path d="M288.554 35.4401H289.738V42.7201H288.554V35.4401ZM283.274 40.5041C284.37 39.7921 284.634 38.5041 284.634 37.3121V37.1121H283.578V36.1041H286.786V37.1121H285.85V37.3121C285.85 38.4561 286.09 39.6241 287.082 40.2721V38.8721H286.298V37.8641H287.082V35.5361H288.242V42.4161H287.082V40.4641L286.466 41.2401C285.874 40.8881 285.49 40.3361 285.25 39.6641C285.018 40.4081 284.618 41.0321 284.01 41.4161L283.274 40.5041Z" fill="white"/>
<path d="M293.698 39.9441C295.282 39.9441 296.306 40.4721 296.306 41.3441C296.306 42.2161 295.282 42.7361 293.698 42.7361C292.114 42.7361 291.09 42.2161 291.09 41.3441C291.09 40.4721 292.114 39.9441 293.698 39.9441ZM290.474 39.6081V38.6161H292.754V37.4241H294.002V38.6161H297.018V39.6081H290.474ZM291.186 36.7281V35.7521H296.274V36.3361C296.274 36.9041 296.274 37.5441 296.074 38.2961L294.834 38.1681C294.978 37.6001 295.018 37.1521 295.026 36.7281H291.186ZM292.338 41.3441C292.338 41.6721 292.802 41.8081 293.698 41.8081C294.602 41.8081 295.066 41.6721 295.066 41.3441C295.066 41.0161 294.602 40.8801 293.698 40.8801C292.802 40.8801 292.338 41.0161 292.338 41.3441Z" fill="white"/>
<path d="M301.122 37.6161H302.362V35.4321H303.61V42.7441H302.362V38.6161H301.122V37.6161ZM297.282 40.2961C298.61 39.7041 299.026 38.2881 299.026 36.8881V35.9601H300.282V36.8881C300.282 38.2961 300.642 39.6321 301.93 40.1921L301.186 41.1841C300.426 40.8241 299.938 40.2001 299.65 39.4161C299.346 40.2481 298.842 40.9201 298.058 41.2961L297.282 40.2961Z" fill="white"/>
<path d="M309.267 35.4321H310.523V42.7441H309.267V35.4321ZM304.763 41.0721V35.9921H306.003V37.6801H307.187V35.9921H308.427V41.0721H304.763ZM306.003 40.0801H307.187V38.6481H306.003V40.0801Z" fill="white"/>
<path d="M314.019 35.8161H315.363V36.3201C315.363 37.2881 315.995 38.4401 317.851 38.7361L317.323 39.7761C316.003 39.5361 315.147 38.8801 314.683 38.0321C314.219 38.8721 313.363 39.5361 312.051 39.7761L311.523 38.7361C313.363 38.4401 314.019 37.2561 314.019 36.3201V35.8161ZM311.435 41.8801V40.8641H318.019V41.8801H311.435Z" fill="white"/>
<g filter="url(#filter10_d_2010_10638)">
<path d="M233.96 120.442C228.44 120.442 226 117.102 226 111.722C226 106.342 228.1 103.002 233.96 103.002C239.84 103.002 241.92 106.342 241.92 111.722C241.92 117.102 239.48 120.442 233.96 120.442ZM233.24 113.022C233.04 113.302 233.66 113.582 233.92 113.242C234.48 112.442 234.62 111.362 234.64 110.362C234.66 109.902 233.96 109.922 233.94 110.242C233.88 111.222 233.7 112.062 233.24 113.022Z" fill="url(#paint6_linear_2010_10638)" shape-rendering="crispEdges"/>
<path d="M249.051 114.642C248.991 115.622 248.911 116.622 248.831 117.602C248.691 119.102 247.851 120.282 246.191 120.282C244.491 120.282 243.671 119.102 243.531 117.602C243.131 113.802 243.151 109.742 243.531 105.962C243.751 104.022 244.991 103.402 246.531 103.182C247.471 103.082 248.451 103.002 249.391 103.002C253.131 102.962 257.051 103.622 257.051 108.802C257.051 114.202 253.131 114.722 249.051 114.642ZM249.051 109.222C249.891 109.662 250.751 109.822 251.711 109.722C252.171 109.662 252.091 108.982 251.771 109.002C250.791 109.062 250.091 108.902 249.231 108.522C248.911 108.382 248.631 108.982 249.051 109.222Z" fill="url(#paint7_linear_2010_10638)" shape-rendering="crispEdges"/>
<path d="M258.432 117.222C258.232 115.522 258.192 113.722 258.192 111.722C258.192 109.722 258.232 107.922 258.432 106.242C258.712 103.682 261.832 103.022 264.712 103.002C267.752 102.982 270.932 103.542 270.932 106.742C270.932 108.042 270.452 108.342 268.872 107.922C268.352 107.782 267.732 107.682 267.232 107.682C265.792 107.682 264.812 107.902 263.952 108.242C263.532 108.402 263.672 108.982 264.132 108.802C265.892 108.182 268.492 108.122 269.572 108.782C270.492 109.362 270.932 110.222 270.932 111.722C270.932 113.222 270.492 114.102 269.572 114.662C268.492 115.342 265.892 115.282 264.132 114.642C263.672 114.482 263.532 115.042 263.952 115.202C264.812 115.542 265.792 115.742 267.232 115.742C267.732 115.742 268.352 115.662 268.872 115.522C270.452 115.122 270.932 115.402 270.932 116.682C270.932 119.882 267.752 120.462 264.712 120.442C261.832 120.422 258.712 119.742 258.432 117.222Z" fill="url(#paint8_linear_2010_10638)" shape-rendering="crispEdges"/>
<path d="M278.37 111.822C278.35 113.582 278.23 115.922 278.05 117.622C277.91 119.122 277.07 120.302 275.41 120.302C273.71 120.302 272.89 119.122 272.75 117.622C272.35 113.822 272.35 109.642 272.75 105.862C272.89 104.382 273.71 103.202 275.41 103.202C276.37 103.202 277.05 103.582 277.49 104.182C279.29 106.502 280.23 109.582 281.79 112.142C281.93 112.482 282.35 112.282 282.15 111.902C281.73 111.042 281.41 110.462 280.99 109.702C281.05 108.382 281.13 106.942 281.23 105.862C281.43 104.382 282.23 103.202 283.91 103.202C285.59 103.202 286.39 104.382 286.59 105.862C286.97 109.642 286.97 113.822 286.59 117.622C286.39 119.122 285.59 120.302 283.91 120.302C282.75 120.302 282.05 119.702 281.59 118.882C280.55 117.042 279.57 113.902 278.37 111.822Z" fill="url(#paint9_linear_2010_10638)" shape-rendering="crispEdges"/>
</g>
<path d="M102.4 46.35C102.4 46.5433 102.132 46.7 101.8 46.7C101.469 46.7 101.2 46.5433 101.2 46.35C101.2 46.1567 101.469 46 101.8 46C102.132 46 102.4 46.1567 102.4 46.35Z" fill="#8722ED"/>
<defs>
<filter id="filter0_d_2010_10638" x="35.7871" y="25.5659" width="138.106" height="155.313" filterUnits="userSpaceOnUse" color-interpolation-filters="sRGB">
<feFlood flood-opacity="0" result="BackgroundImageFix"/>
<feColorMatrix in="SourceAlpha" type="matrix" values="0 0 0 0 0 0 0 0 0 0 0 0 0 0 0 0 0 0 127 0" result="hardAlpha"/>
<feOffset/>
<feGaussianBlur stdDeviation="5"/>
<feComposite in2="hardAlpha" operator="out"/>
<feColorMatrix type="matrix" values="0 0 0 0 0 0 0 0 0 0 0 0 0 0 0 0 0 0 0.35 0"/>
<feBlend mode="normal" in2="BackgroundImageFix" result="effect1_dropShadow_2010_10638"/>
<feBlend mode="normal" in="SourceGraphic" in2="effect1_dropShadow_2010_10638" result="shape"/>
</filter>
<filter id="filter1_d_2010_10638" x="70.96" y="69.3926" width="33.5293" height="33.5293" filterUnits="userSpaceOnUse" color-interpolation-filters="sRGB">
<feFlood flood-opacity="0" result="BackgroundImageFix"/>
<feColorMatrix in="SourceAlpha" type="matrix" values="0 0 0 0 0 0 0 0 0 0 0 0 0 0 0 0 0 0 127 0" result="hardAlpha"/>
<feOffset/>
<feGaussianBlur stdDeviation="4"/>
<feComposite in2="hardAlpha" operator="out"/>
<feColorMatrix type="matrix" values="0 0 0 0 0 0 0 0 0 0 0 0 0 0 0 0 0 0 0.25 0"/>
<feBlend mode="normal" in2="BackgroundImageFix" result="effect1_dropShadow_2010_10638"/>
<feBlend mode="normal" in="SourceGraphic" in2="effect1_dropShadow_2010_10638" result="shape"/>
</filter>
<filter id="filter2_d_2010_10638" x="106.019" y="69.3926" width="33.5293" height="33.5293" filterUnits="userSpaceOnUse" color-interpolation-filters="sRGB">
<feFlood flood-opacity="0" result="BackgroundImageFix"/>
<feColorMatrix in="SourceAlpha" type="matrix" values="0 0 0 0 0 0 0 0 0 0 0 0 0 0 0 0 0 0 127 0" result="hardAlpha"/>
<feOffset/>
<feGaussianBlur stdDeviation="4"/>
<feComposite in2="hardAlpha" operator="out"/>
<feColorMatrix type="matrix" values="0 0 0 0 0 0 0 0 0 0 0 0 0 0 0 0 0 0 0.25 0"/>
<feBlend mode="normal" in2="BackgroundImageFix" result="effect1_dropShadow_2010_10638"/>
<feBlend mode="normal" in="SourceGraphic" in2="effect1_dropShadow_2010_10638" result="shape"/>
</filter>
<filter id="filter3_d_2010_10638" x="41.7871" y="118.609" width="43.5195" height="55.3594" filterUnits="userSpaceOnUse" color-interpolation-filters="sRGB">
<feFlood flood-opacity="0" result="BackgroundImageFix"/>
<feColorMatrix in="SourceAlpha" type="matrix" values="0 0 0 0 0 0 0 0 0 0 0 0 0 0 0 0 0 0 127 0" result="hardAlpha"/>
<feOffset dy="4"/>
<feGaussianBlur stdDeviation="2"/>
<feComposite in2="hardAlpha" operator="out"/>
<feColorMatrix type="matrix" values="0 0 0 0 0 0 0 0 0 0 0 0 0 0 0 0 0 0 0.25 0"/>
<feBlend mode="normal" in2="BackgroundImageFix" result="effect1_dropShadow_2010_10638"/>
<feBlend mode="normal" in="SourceGraphic" in2="effect1_dropShadow_2010_10638" result="shape"/>
</filter>
<filter id="filter4_d_2010_10638" x="121.881" y="118.609" width="43.5195" height="55.3594" filterUnits="userSpaceOnUse" color-interpolation-filters="sRGB">
<feFlood flood-opacity="0" result="BackgroundImageFix"/>
<feColorMatrix in="SourceAlpha" type="matrix" values="0 0 0 0 0 0 0 0 0 0 0 0 0 0 0 0 0 0 127 0" result="hardAlpha"/>
<feOffset dy="4"/>
<feGaussianBlur stdDeviation="2"/>
<feComposite in2="hardAlpha" operator="out"/>
<feColorMatrix type="matrix" values="0 0 0 0 0 0 0 0 0 0 0 0 0 0 0 0 0 0 0.25 0"/>
<feBlend mode="normal" in2="BackgroundImageFix" result="effect1_dropShadow_2010_10638"/>
<feBlend mode="normal" in="SourceGraphic" in2="effect1_dropShadow_2010_10638" result="shape"/>
</filter>
<filter id="filter5_d_2010_10638" x="91.9844" y="35.5659" width="26.5381" height="23.1987" filterUnits="userSpaceOnUse" color-interpolation-filters="sRGB">
<feFlood flood-opacity="0" result="BackgroundImageFix"/>
<feColorMatrix in="SourceAlpha" type="matrix" values="0 0 0 0 0 0 0 0 0 0 0 0 0 0 0 0 0 0 127 0" result="hardAlpha"/>
<feOffset dy="2"/>
<feGaussianBlur stdDeviation="1"/>
<feComposite in2="hardAlpha" operator="out"/>
<feColorMatrix type="matrix" values="0 0 0 0 0 0 0 0 0 0 0 0 0 0 0 0 0 0 0.25 0"/>
<feBlend mode="normal" in2="BackgroundImageFix" result="effect1_dropShadow_2010_10638"/>
<feBlend mode="normal" in="SourceGraphic" in2="effect1_dropShadow_2010_10638" result="shape"/>
</filter>
<filter id="filter6_d_2010_10638" x="99.75" y="12.27" width="14.5" height="23.5" filterUnits="userSpaceOnUse" color-interpolation-filters="sRGB">
<feFlood flood-opacity="0" result="BackgroundImageFix"/>
<feColorMatrix in="SourceAlpha" type="matrix" values="0 0 0 0 0 0 0 0 0 0 0 0 0 0 0 0 0 0 127 0" result="hardAlpha"/>
<feOffset/>
<feGaussianBlur stdDeviation="3"/>
<feComposite in2="hardAlpha" operator="out"/>
<feColorMatrix type="matrix" values="0 0 0 0 1 0 0 0 0 1 0 0 0 0 1 0 0 0 0.5 0"/>
<feBlend mode="normal" in2="BackgroundImageFix" result="effect1_dropShadow_2010_10638"/>
<feBlend mode="normal" in="SourceGraphic" in2="effect1_dropShadow_2010_10638" result="shape"/>
</filter>
<filter id="filter7_d_2010_10638" x="84.75" y="17.27" width="20.8643" height="20.8638" filterUnits="userSpaceOnUse" color-interpolation-filters="sRGB">
<feFlood flood-opacity="0" result="BackgroundImageFix"/>
<feColorMatrix in="SourceAlpha" type="matrix" values="0 0 0 0 0 0 0 0 0 0 0 0 0 0 0 0 0 0 127 0" result="hardAlpha"/>
<feOffset/>
<feGaussianBlur stdDeviation="3"/>
<feComposite in2="hardAlpha" operator="out"/>
<feColorMatrix type="matrix" values="0 0 0 0 1 0 0 0 0 1 0 0 0 0 1 0 0 0 0.5 0"/>
<feBlend mode="normal" in2="BackgroundImageFix" result="effect1_dropShadow_2010_10638"/>
<feBlend mode="normal" in="SourceGraphic" in2="effect1_dropShadow_2010_10638" result="shape"/>
</filter>
<filter id="filter8_d_2010_10638" x="108.749" y="17.27" width="20.8643" height="20.8638" filterUnits="userSpaceOnUse" color-interpolation-filters="sRGB">
<feFlood flood-opacity="0" result="BackgroundImageFix"/>
<feColorMatrix in="SourceAlpha" type="matrix" values="0 0 0 0 0 0 0 0 0 0 0 0 0 0 0 0 0 0 127 0" result="hardAlpha"/>
<feOffset/>
<feGaussianBlur stdDeviation="3"/>
<feComposite in2="hardAlpha" operator="out"/>
<feColorMatrix type="matrix" values="0 0 0 0 1 0 0 0 0 1 0 0 0 0 1 0 0 0 0.5 0"/>
<feBlend mode="normal" in2="BackgroundImageFix" result="effect1_dropShadow_2010_10638"/>
<feBlend mode="normal" in="SourceGraphic" in2="effect1_dropShadow_2010_10638" result="shape"/>
</filter>
<filter id="filter9_d_2010_10638" x="206" y="46" width="100" height="56" filterUnits="userSpaceOnUse" color-interpolation-filters="sRGB">
<feFlood flood-opacity="0" result="BackgroundImageFix"/>
<feColorMatrix in="SourceAlpha" type="matrix" values="0 0 0 0 0 0 0 0 0 0 0 0 0 0 0 0 0 0 127 0" result="hardAlpha"/>
<feOffset/>
<feGaussianBlur stdDeviation="3"/>
<feComposite in2="hardAlpha" operator="out"/>
<feColorMatrix type="matrix" values="0 0 0 0 0 0 0 0 0 0 0 0 0 0 0 0 0 0 0.4 0"/>
<feBlend mode="normal" in2="BackgroundImageFix" result="effect1_dropShadow_2010_10638"/>
<feBlend mode="normal" in="SourceGraphic" in2="effect1_dropShadow_2010_10638" result="shape"/>
</filter>
<filter id="filter10_d_2010_10638" x="222" y="99" width="68.875" height="25.4419" filterUnits="userSpaceOnUse" color-interpolation-filters="sRGB">
<feFlood flood-opacity="0" result="BackgroundImageFix"/>
<feColorMatrix in="SourceAlpha" type="matrix" values="0 0 0 0 0 0 0 0 0 0 0 0 0 0 0 0 0 0 127 0" result="hardAlpha"/>
<feOffset/>
<feGaussianBlur stdDeviation="2"/>
<feComposite in2="hardAlpha" operator="out"/>
<feColorMatrix type="matrix" values="0 0 0 0 0 0 0 0 0 0 0 0 0 0 0 0 0 0 0.5 0"/>
<feBlend mode="normal" in2="BackgroundImageFix" result="effect1_dropShadow_2010_10638"/>
<feBlend mode="normal" in="SourceGraphic" in2="effect1_dropShadow_2010_10638" result="shape"/>
</filter>
<linearGradient id="paint0_linear_2010_10638" x1="244" y1="-122.918" x2="244" y2="127.357" gradientUnits="userSpaceOnUse">
<stop stop-color="#6944FF"/>
<stop offset="1" stop-color="#6944FF" stop-opacity="0"/>
</linearGradient>
<linearGradient id="paint1_linear_2010_10638" x1="43" y1="54" x2="43" y2="-51.141" gradientUnits="userSpaceOnUse">
<stop stop-color="#D5AAFF"/>
<stop offset="1" stop-color="#D5AAFF" stop-opacity="0"/>
</linearGradient>
<radialGradient id="paint2_radial_2010_10638" cx="0" cy="0" r="1" gradientUnits="userSpaceOnUse" gradientTransform="translate(81.6231 98.2779) rotate(88.3444) scale(11.7126 16.0072)">
<stop stop-color="#F3AAFF"/>
<stop offset="1" stop-color="#FFE297" stop-opacity="0"/>
</radialGradient>
<radialGradient id="paint3_radial_2010_10638" cx="0" cy="0" r="1" gradientUnits="userSpaceOnUse" gradientTransform="translate(129.254 98.2779) rotate(88.3444) scale(11.7126 16.0072)">
<stop stop-color="#F3AAFF"/>
<stop offset="1" stop-color="#FFE297" stop-opacity="0"/>
</radialGradient>
<linearGradient id="paint4_linear_2010_10638" x1="256" y1="67.561" x2="256" y2="113.707" gradientUnits="userSpaceOnUse">
<stop stop-color="white"/>
<stop offset="1" stop-color="white" stop-opacity="0"/>
</linearGradient>
<linearGradient id="paint5_linear_2010_10638" x1="256" y1="67.561" x2="256" y2="113.707" gradientUnits="userSpaceOnUse">
<stop stop-color="white"/>
<stop offset="1" stop-color="white" stop-opacity="0"/>
</linearGradient>
<linearGradient id="paint6_linear_2010_10638" x1="295.94" y1="109.002" x2="295.94" y2="126.502" gradientUnits="userSpaceOnUse">
<stop stop-color="#FCEDFF"/>
<stop offset="1" stop-color="#FCEDFF" stop-opacity="0"/>
</linearGradient>
<linearGradient id="paint7_linear_2010_10638" x1="295.94" y1="109.002" x2="295.94" y2="126.502" gradientUnits="userSpaceOnUse">
<stop stop-color="#FCEDFF"/>
<stop offset="1" stop-color="#FCEDFF" stop-opacity="0"/>
</linearGradient>
<linearGradient id="paint8_linear_2010_10638" x1="295.94" y1="109.002" x2="295.94" y2="126.502" gradientUnits="userSpaceOnUse">
<stop stop-color="#FCEDFF"/>
<stop offset="1" stop-color="#FCEDFF" stop-opacity="0"/>
</linearGradient>
<linearGradient id="paint9_linear_2010_10638" x1="295.94" y1="109.002" x2="295.94" y2="126.502" gradientUnits="userSpaceOnUse">
<stop stop-color="#FCEDFF"/>
<stop offset="1" stop-color="#FCEDFF" stop-opacity="0"/>
</linearGradient>
</defs>
</svg>
