<svg width="55" height="55" viewBox="0 0 55 55" fill="none" xmlns="http://www.w3.org/2000/svg">
<circle cx="27.5" cy="27.5" r="27.5" fill="#8722ED"/>
<path d="M23.5632 29.4204C23.1132 25.5504 22.7832 21.7404 22.9332 17.5704C22.9932 15.5604 24.6432 14.1504 27.0132 14.1504C29.3832 14.1504 31.0332 15.5604 31.0932 17.5704C31.2132 21.7404 30.8832 25.5504 30.4332 29.4204C30.2532 31.2504 29.1732 32.4804 27.0132 32.4804C24.8532 32.4804 23.7732 31.2504 23.5632 29.4204ZM23.0232 37.9704C23.0232 35.4504 24.6432 33.8604 27.0132 33.8604C29.4432 33.8604 31.0032 35.4504 31.0032 37.9704C31.0032 40.0104 29.3232 41.5404 27.0132 41.5404C24.6732 41.5404 23.0232 40.0104 23.0232 37.9704Z" fill="white"/>
</svg>
