<svg width="33" height="30" viewBox="0 0 33 30" fill="none" xmlns="http://www.w3.org/2000/svg">
<path fill-rule="evenodd" clip-rule="evenodd" d="M18.8107 2.34891C17.9201 1.51881 16.543 1.50634 15.6375 2.32017L2.37443 14.2409C2.13578 14.4554 2.28751 14.8512 2.60839 14.8512H5.99983C6.35881 14.8512 6.64983 15.1422 6.64983 15.5012V27.2038C6.64983 27.9494 7.25424 28.5538 7.99983 28.5538H11.7V24.0012C11.7 20.8808 13.8795 18.3512 16.9999 18.3512C20.1203 18.3512 21.8 20.8808 21.8 24.0012V28.5538H25.6998C26.4454 28.5538 27.0498 27.9494 27.0498 27.2038V15.5012C27.0498 15.1422 27.3408 14.8512 27.6998 14.8512H31.3353C31.6531 14.8512 31.8064 14.4619 31.5739 14.2452L18.8107 2.34891ZM14.7685 1.35331C16.1749 0.0892632 18.3138 0.108636 19.6971 1.39795L32.4603 13.2942C33.5562 14.3157 32.8334 16.1512 31.3353 16.1512H28.3498V27.2038C28.3498 28.6673 27.1634 29.8538 25.6998 29.8538H21.15C20.791 29.8538 20.5 29.5628 20.5 29.2038V24.0012C20.5 21.5988 19.4024 19.6512 16.9999 19.6512C14.5975 19.6512 13 21.5988 13 24.0012V29.2038C13 29.5628 12.709 29.8538 12.35 29.8538H7.99983C6.53627 29.8538 5.34982 28.6673 5.34982 27.2038V16.1512H2.60839C1.09565 16.1512 0.38034 14.2852 1.50543 13.274L14.7685 1.35331Z" fill="current"/>
</svg>
