<svg width="375" height="375" viewBox="0 0 375 375" fill="none" xmlns="http://www.w3.org/2000/svg">
<path d="M0 0H375V375H0V0Z" fill="#8AC7FF"/>
<rect y="261" width="375" height="114" fill="#83E37A"/>
<g filter="url(#filter0_d_2268_13507)">
<path d="M171.32 264.745L243.44 221.3L236.584 207.46C235.491 205.255 233.042 204.36 230.818 205.353L163.601 235.366C160.872 236.585 159.598 240.104 160.898 242.836L171.32 264.745Z" fill="#CBCBCB"/>
<path d="M315.643 264.745L243.523 221.3L250.379 207.46C251.472 205.255 253.921 204.36 256.145 205.353L323.362 235.366C326.091 236.585 327.365 240.104 326.065 242.836L315.643 264.745Z" fill="#DBDBDB"/>
<path d="M243.482 222.166L320.94 256.706L243.482 296.916L166.023 256.706L243.482 222.166Z" fill="url(#paint0_linear_2268_13507)"/>
<g filter="url(#filter1_d_2268_13507)">
<path d="M294.941 260.841C294.941 280.766 269.962 296.917 239.149 296.917C208.336 296.917 183.357 280.766 183.357 260.841C183.357 229.141 233.463 218.694 245.19 198.334C274.33 218.336 294.941 240.917 294.941 260.841Z" fill="url(#paint1_linear_2268_13507)"/>
<path d="M214.773 241.668H219.107V249.251H214.773V241.668Z" fill="white"/>
<path d="M224.523 241.668H228.857V249.251H224.523V241.668Z" fill="white"/>
<path d="M213.691 254.125C213.691 255.022 214.288 255.75 215.025 255.75H229.691C230.428 255.75 231.025 255.022 231.025 254.125C231.025 253.228 230.428 252.5 229.691 252.5H215.025C214.288 252.5 213.691 253.228 213.691 254.125Z" fill="white"/>
<path d="M224.523 249.251C224.523 250.447 223.068 251.417 221.273 251.417C219.479 251.417 218.023 250.447 218.023 249.251C218.023 248.054 219.479 247.084 221.273 247.084C223.068 247.084 224.523 248.054 224.523 249.251Z" fill="#8722ED"/>
</g>
<path d="M242.94 350.001V297.459L166.023 256.834L169.273 307.751L242.94 350.001Z" fill="#E6E6E6"/>
<path d="M242.94 350.001V297.459L320.939 256.834L317.689 306.126L242.94 350.001Z" fill="#CDCDCD"/>
<path d="M166.239 256.503L243.937 297.317L231.829 318.64C230.481 321.013 227.479 321.867 225.084 320.559L157.197 283.488C154.774 282.164 153.882 279.126 155.206 276.703L166.239 256.503Z" fill="#FCFCFC"/>
<path d="M320.87 256.503L243.172 297.317L255.655 319.166C257.014 321.544 260.033 322.387 262.426 321.056L329.964 283.503C332.364 282.168 333.239 279.146 331.922 276.736L320.87 256.503Z" fill="#D9D9D9"/>
</g>
<path fill-rule="evenodd" clip-rule="evenodd" d="M127 89C127 90.8574 126.847 92.6797 126.552 94.4531C129.155 96.627 131.281 99.3525 132.749 102.451C135.412 100.293 138.805 99 142.5 99C150.555 99 157.174 105.144 157.929 113H158V114.5V116C158 127.046 149.046 136 138 136H111.5H32V135.992C31.834 135.997 31.667 136 31.5 136C22.9395 136 16 129.061 16 120.5C16 111.939 22.9395 105 31.5 105C31.9814 105 32.459 105.022 32.9297 105.065C32.3242 102.981 32 100.778 32 98.5C32 85.5215 42.5215 75 55.5 75C58.3066 75 60.998 75.4922 63.4932 76.3945C68.4453 64.4229 80.2393 56 94 56C112.226 56 127 70.7744 127 89Z" fill="white"/>
<path fill-rule="evenodd" clip-rule="evenodd" d="M323.261 149.862C323.261 151.093 323.158 152.3 322.961 153.475C324.702 154.915 326.125 156.721 327.107 158.774C328.889 157.344 331.158 156.487 333.63 156.487C339.019 156.487 343.447 160.557 343.952 165.763H344C344 165.945 343.997 166.127 343.99 166.308C343.997 166.457 344 166.606 344 166.756C344 168.308 343.653 169.779 343.031 171.097C340.847 176.882 335.216 181 328.613 181H312.891H259.704V180.995C259.593 180.998 259.482 181 259.37 181C253.643 181 249 176.403 249 170.731C249 165.06 253.643 160.462 259.37 160.462C259.692 160.462 260.011 160.477 260.326 160.506C259.921 159.125 259.704 157.666 259.704 156.156C259.704 147.558 266.743 140.587 275.426 140.587C277.304 140.587 279.104 140.913 280.774 141.511C284.087 133.58 291.977 128 301.183 128C313.376 128 323.261 137.788 323.261 149.862Z" fill="white"/>
<rect x="90" y="200" width="17" height="83" fill="url(#paint2_linear_2268_13507)"/>
<rect x="40" y="166" width="118" height="56" rx="5" fill="#DBA15C"/>
<g filter="url(#filter2_d_2268_13507)">
<path d="M53.15 186.106H59.659C64.328 186.106 66.858 188.314 66.858 192.109C66.858 195.237 64.397 197.974 60.119 197.974H57.221V203.172H53.15V186.106ZM57.221 194.317H60.303C62.051 194.317 62.879 193.144 62.879 192.017C62.879 190.775 61.982 189.786 60.349 189.786H57.221V194.317ZM74.7238 199.837C76.2648 199.837 77.6678 198.848 77.6678 196.824C77.6678 194.892 76.2648 193.811 74.7238 193.811C73.2288 193.811 71.8718 194.892 71.8718 196.824C71.8718 198.848 73.2288 199.837 74.7238 199.837ZM74.7698 203.471C70.7448 203.471 67.8928 200.826 67.8928 196.824C67.8928 192.661 70.9978 190.177 74.7698 190.177C78.5418 190.177 81.6468 192.661 81.6468 196.824C81.6468 200.826 78.7948 203.471 74.7698 203.471ZM89.6154 199.837C91.1564 199.837 92.5594 198.848 92.5594 196.824C92.5594 194.892 91.1564 193.811 89.6154 193.811C88.1204 193.811 86.7634 194.892 86.7634 196.824C86.7634 198.848 88.1204 199.837 89.6154 199.837ZM89.6614 203.471C85.6364 203.471 82.7844 200.826 82.7844 196.824C82.7844 192.661 85.8894 190.177 89.6614 190.177C93.4334 190.177 96.5384 192.661 96.5384 196.824C96.5384 200.826 93.6864 203.471 89.6614 203.471ZM104.024 203.172V186.106H110.878C115.179 186.106 117.019 187.716 117.226 190.154C117.433 191.58 116.674 193.351 115.225 193.972C116.996 194.777 117.87 196.801 117.663 198.756C117.364 201.585 115.455 203.172 111.729 203.172H104.024ZM108.026 189.717V192.523H111.614C112.626 192.454 113.224 191.948 113.224 191.097C113.224 190.269 112.603 189.717 111.476 189.717H108.026ZM108.026 195.996V199.561H111.568C113.178 199.584 113.638 198.779 113.638 197.767C113.638 196.824 113.04 195.996 111.384 195.996H108.026ZM125.733 199.837C127.274 199.837 128.677 198.848 128.677 196.824C128.677 194.892 127.274 193.811 125.733 193.811C124.238 193.811 122.881 194.892 122.881 196.824C122.881 198.848 124.238 199.837 125.733 199.837ZM125.779 203.471C121.754 203.471 118.902 200.826 118.902 196.824C118.902 192.661 122.007 190.177 125.779 190.177C129.551 190.177 132.656 192.661 132.656 196.824C132.656 200.826 129.804 203.471 125.779 203.471ZM132.798 190.522H137.398L139.514 194.064L141.63 190.522H146.115L142.09 196.847L146.437 203.172H141.883L139.514 199.814L137.145 203.172H132.66L136.938 196.847L132.798 190.522Z" fill="white"/>
</g>
<defs>
<filter id="filter0_d_2268_13507" x="150.594" y="194.334" width="185.941" height="159.666" filterUnits="userSpaceOnUse" color-interpolation-filters="sRGB">
<feFlood flood-opacity="0" result="BackgroundImageFix"/>
<feColorMatrix in="SourceAlpha" type="matrix" values="0 0 0 0 0 0 0 0 0 0 0 0 0 0 0 0 0 0 127 0" result="hardAlpha"/>
<feOffset/>
<feGaussianBlur stdDeviation="2"/>
<feComposite in2="hardAlpha" operator="out"/>
<feColorMatrix type="matrix" values="0 0 0 0 0 0 0 0 0 0 0 0 0 0 0 0 0 0 0.25 0"/>
<feBlend mode="normal" in2="BackgroundImageFix" result="effect1_dropShadow_2268_13507"/>
<feBlend mode="normal" in="SourceGraphic" in2="effect1_dropShadow_2268_13507" result="shape"/>
</filter>
<filter id="filter1_d_2268_13507" x="179.357" y="198.334" width="119.584" height="106.584" filterUnits="userSpaceOnUse" color-interpolation-filters="sRGB">
<feFlood flood-opacity="0" result="BackgroundImageFix"/>
<feColorMatrix in="SourceAlpha" type="matrix" values="0 0 0 0 0 0 0 0 0 0 0 0 0 0 0 0 0 0 127 0" result="hardAlpha"/>
<feOffset dy="4"/>
<feGaussianBlur stdDeviation="2"/>
<feComposite in2="hardAlpha" operator="out"/>
<feColorMatrix type="matrix" values="0 0 0 0 0 0 0 0 0 0 0 0 0 0 0 0 0 0 0.5 0"/>
<feBlend mode="normal" in2="BackgroundImageFix" result="effect1_dropShadow_2268_13507"/>
<feBlend mode="normal" in="SourceGraphic" in2="effect1_dropShadow_2268_13507" result="shape"/>
</filter>
<filter id="filter2_d_2268_13507" x="49.1504" y="182.105" width="101.287" height="25.3652" filterUnits="userSpaceOnUse" color-interpolation-filters="sRGB">
<feFlood flood-opacity="0" result="BackgroundImageFix"/>
<feColorMatrix in="SourceAlpha" type="matrix" values="0 0 0 0 0 0 0 0 0 0 0 0 0 0 0 0 0 0 127 0" result="hardAlpha"/>
<feOffset/>
<feGaussianBlur stdDeviation="2"/>
<feComposite in2="hardAlpha" operator="out"/>
<feColorMatrix type="matrix" values="0 0 0 0 0 0 0 0 0 0 0 0 0 0 0 0 0 0 0.7 0"/>
<feBlend mode="normal" in2="BackgroundImageFix" result="effect1_dropShadow_2268_13507"/>
<feBlend mode="normal" in="SourceGraphic" in2="effect1_dropShadow_2268_13507" result="shape"/>
</filter>
<linearGradient id="paint0_linear_2268_13507" x1="243.482" y1="312.897" x2="243.482" y2="208.763" gradientUnits="userSpaceOnUse">
<stop/>
<stop offset="1" stop-color="#D3D3D3"/>
</linearGradient>
<linearGradient id="paint1_linear_2268_13507" x1="239.149" y1="183.273" x2="239.149" y2="307.209" gradientUnits="userSpaceOnUse">
<stop stop-color="#B973FF"/>
<stop offset="0.606435" stop-color="#D79F71"/>
<stop offset="0.823668" stop-color="#D79F71"/>
<stop offset="0.989583" stop-color="#986A44"/>
</linearGradient>
<linearGradient id="paint2_linear_2268_13507" x1="98.5" y1="200" x2="98.5" y2="283" gradientUnits="userSpaceOnUse">
<stop stop-color="#B59166"/>
<stop offset="1" stop-color="#DBA15C"/>
</linearGradient>
</defs>
</svg>
