<svg width="22" height="31" viewBox="0 0 22 31" fill="none" xmlns="http://www.w3.org/2000/svg">
<path fill-rule="evenodd" clip-rule="evenodd" d="M19.6996 14.5177C20.2398 13.0195 20.5202 11.7774 20.5202 10.8684C20.5202 5.56715 16.2856 1.3 11.0991 1.3C5.91259 1.3 1.67793 5.56715 1.67793 10.8684C1.67793 11.7172 1.96225 12.92 2.51955 14.4055C3.06718 15.8653 3.83784 17.4939 4.71825 19.159C6.4784 22.488 8.62893 25.8725 10.171 28.1921C10.4637 28.6323 10.8501 28.8011 11.1757 28.8088C11.4943 28.8162 11.8599 28.6733 12.1449 28.2568C13.7128 25.9658 15.8331 22.6143 17.5554 19.2905C18.4167 17.6283 19.1672 15.9945 19.6996 14.5177ZM16.9937 10.7208C16.9937 13.9764 14.3545 16.6155 11.0989 16.6155C7.84331 16.6155 5.20413 13.9764 5.20413 10.7208C5.20413 7.46517 7.84331 4.82598 11.0989 4.82598C14.3545 4.82598 16.9937 7.46517 16.9937 10.7208ZM21.8202 10.8684C21.8202 15.3982 16.3929 24.3514 13.2178 28.991C12.1668 30.5267 10.1187 30.4614 9.08843 28.9118C5.98398 24.2422 0.37793 15.2089 0.37793 10.8684C0.37793 4.86596 5.17795 0 11.0991 0C17.0202 0 21.8202 4.86596 21.8202 10.8684ZM15.6937 10.7208C15.6937 13.2584 13.6365 15.3155 11.0989 15.3155C8.56128 15.3155 6.50413 13.2584 6.50413 10.7208C6.50413 8.18314 8.56128 6.12598 11.0989 6.12598C13.6365 6.12598 15.6937 8.18314 15.6937 10.7208Z" fill="current"/>
</svg>
