<svg width="149" height="135" viewBox="0 0 149 135" fill="none" xmlns="http://www.w3.org/2000/svg">
<g opacity="0.8">
<path d="M76.5832 20.2756C77.3944 18.7859 79.2796 18.47 80.195 19.898C84.9463 27.3097 90.3359 46.8657 87.5099 60.4906L64.8802 47.3843C63.5858 46.6346 63.1225 44.9936 63.8378 43.68C65.4603 40.7007 68.2885 35.5071 70.3405 31.7391C72.2868 28.1652 74.9315 23.3087 76.5832 20.2756Z" fill="#8B8B8B"/>
<path d="M75.2073 25.1837C76.0186 23.6939 77.8877 23.3983 78.7586 24.854C82.6376 31.3384 86.8539 47.1032 84.559 58.1673L66.1204 47.4884C64.826 46.7387 64.3631 45.097 65.0784 43.7833C66.4527 41.2597 68.6535 37.2184 70.273 34.2444C71.7938 31.4518 73.8271 27.7182 75.2073 25.1837Z" fill="#F1F1F1"/>
<path fill-rule="evenodd" clip-rule="evenodd" d="M75.9485 37.6023C75.6525 37.5294 75.3535 37.7102 75.2806 38.0062L72.5739 48.9919C72.501 49.2879 72.6818 49.5869 72.9778 49.6598C73.2738 49.7327 73.5728 49.5519 73.6457 49.256L76.3523 38.2703C76.4253 37.9743 76.2444 37.6753 75.9485 37.6023Z" fill="#B3B3B3"/>
<path d="M23.7918 20.2756C22.9806 18.7859 21.0954 18.47 20.18 19.898C15.4287 27.3097 10.0391 46.8657 12.8651 60.4906L35.4948 47.3843C36.7892 46.6346 37.2525 44.9936 36.5372 43.68C34.9147 40.7007 32.0865 35.5071 30.0345 31.7391C28.0882 28.1652 25.4435 23.3087 23.7918 20.2756Z" fill="#8B8B8B"/>
<path d="M25.1677 25.1837C24.3564 23.6939 22.4873 23.3983 21.6164 24.854C17.7374 31.3384 13.5211 47.1032 15.816 58.1673L34.2546 47.4884C35.549 46.7387 36.0119 45.097 35.2966 43.7833C33.9223 41.2597 31.7215 37.2184 30.102 34.2444C28.5812 31.4518 26.5479 27.7182 25.1677 25.1837Z" fill="#F1F1F1"/>
<path fill-rule="evenodd" clip-rule="evenodd" d="M24.4304 37.6023C24.7264 37.5294 25.0254 37.7102 25.0983 38.0062L27.805 48.9919C27.8779 49.2879 27.6971 49.5869 27.4011 49.6598C27.1051 49.7327 26.8061 49.5519 26.7332 49.256L24.0266 38.2703C23.9536 37.9743 24.1345 37.6753 24.4304 37.6023Z" fill="#B3B3B3"/>
<path d="M17.6602 109.334C17.6602 108.725 18.1544 108.23 18.764 108.23H80.3022C80.9119 108.23 81.4061 108.725 81.4061 109.334V122.028C81.4061 122.638 80.9119 123.132 80.3022 123.132H18.764C18.1544 123.132 17.6602 122.638 17.6602 122.028V109.334Z" fill="#7E7E7E"/>
<path d="M60.2946 125.063C60.2946 130.55 55.8468 134.998 50.3602 134.998C44.8736 134.998 40.4258 130.55 40.4258 125.063C40.4258 119.577 44.8736 115.129 50.3602 115.129C55.8468 115.129 60.2946 119.577 60.2946 125.063Z" fill="#AFAFAF"/>
<path fill-rule="evenodd" clip-rule="evenodd" d="M50.7753 131.643C51.6432 131.454 52.2931 130.681 52.2931 129.756C52.2931 128.689 51.4282 127.824 50.3614 127.824C49.2945 127.824 48.4297 128.689 48.4297 129.756C48.4297 130.681 49.0795 131.454 49.9474 131.643L49.9474 134.447C49.9474 134.676 50.1328 134.861 50.3614 134.861C50.59 134.861 50.7753 134.676 50.7753 134.447L50.7753 131.643Z" fill="#818181"/>
<path d="M38.7695 125.615C38.7695 124.7 39.5108 123.959 40.4253 123.959H59.7422C60.6566 123.959 61.3979 124.7 61.3979 125.615C61.3979 126.529 60.6566 127.27 59.7422 127.27H40.4253C39.5108 127.27 38.7695 126.529 38.7695 125.615Z" fill="#CDCDCD"/>
<path d="M0 89.3869C0 79.5233 7.996 71.5273 17.8596 71.5273H83.0996C92.9857 71.5273 101 79.5416 101 89.4278C101 95.7759 97.6426 101.664 91.9647 104.503C81.5468 109.712 64.1737 117.277 51.0519 117.336C37.5939 117.395 19.7315 109.723 9.09531 104.473C3.38496 101.654 0 95.7551 0 89.3869Z" fill="#E8E8E8"/>
<path d="M6.62109 82.1531C6.62109 57.9967 26.2037 38.4141 50.3602 38.4141C74.5166 38.4141 94.0992 57.9967 94.0992 82.1531V90.8458H6.62109V82.1531Z" fill="#E8E8E8"/>
<path d="M59.2909 85.3025C59.1605 80.6999 63.8138 76.8285 69.6845 76.6555L77.4797 76.4257C83.3504 76.2527 88.2153 79.8436 88.3458 84.4463C88.4762 89.0489 83.8229 92.9203 77.9522 93.0933L70.157 93.3231C64.2863 93.4961 59.4214 89.9052 59.2909 85.3025Z" fill="url(#paint0_radial_2386_13194)"/>
<path d="M12.2362 85.3025C12.1058 80.6999 16.7591 76.8285 22.6298 76.6555L30.425 76.4257C36.2957 76.2527 41.1606 79.8436 41.2911 84.4463C41.4216 89.0489 36.7682 92.9203 30.8975 93.0933L23.1023 93.3231C17.2316 93.4961 12.3667 89.9052 12.2362 85.3025Z" fill="url(#paint1_radial_2386_13194)"/>
<path d="M57.6739 85.5487C57.6739 87.1947 54.4616 91.6749 50.4991 91.6749C46.5365 91.6749 43.3242 87.1947 43.3242 85.5487C43.3242 83.9027 46.5365 82.5684 50.4991 82.5684C54.4616 82.5684 57.6739 83.9027 57.6739 85.5487Z" fill="#8B8B8B"/>
<path d="M76.1784 76.7787C76.1784 81.0499 72.7159 84.5124 68.4447 84.5124C64.1734 84.5124 60.7109 81.0499 60.7109 76.7787C60.7109 72.5074 64.1734 69.0449 68.4447 69.0449C72.7159 69.0449 76.1784 72.5074 76.1784 76.7787Z" fill="white"/>
<mask id="mask0_2386_13194" style="mask-type:alpha" maskUnits="userSpaceOnUse" x="60" y="69" width="17" height="16">
<path d="M76.1784 76.7787C76.1784 81.0499 72.7159 84.5124 68.4447 84.5124C64.1734 84.5124 60.7109 81.0499 60.7109 76.7787C60.7109 72.5074 64.1734 69.0449 68.4447 69.0449C72.7159 69.0449 76.1784 72.5074 76.1784 76.7787Z" fill="#D9D9D9"/>
</mask>
<g mask="url(#mask0_2386_13194)">
<path d="M80.7904 75.6631C80.308 80.776 75.7721 84.5297 70.6591 84.0473C65.5462 83.5648 61.7925 79.0289 62.2749 73.916C62.7573 68.803 67.2933 65.0493 72.4062 65.5317C77.5191 66.0142 81.2729 70.5501 80.7904 75.6631Z" fill="#8B8B8B"/>
</g>
<path d="M71.5584 73.4394C71.5584 74.8491 70.4156 75.992 69.0058 75.992C67.596 75.992 66.4531 74.8491 66.4531 73.4394C66.4531 72.0296 67.596 70.8867 69.0058 70.8867C70.4156 70.8867 71.5584 72.0296 71.5584 73.4394Z" fill="white"/>
<path d="M72.2492 74.291C72.6596 75.4 73.534 76.2744 74.643 76.6848C73.534 77.0952 72.6596 77.9696 72.2492 79.0786C71.8389 77.9696 70.9645 77.0952 69.8555 76.6848C70.9645 76.2744 71.8389 75.4 72.2492 74.291Z" fill="#BCBCBC"/>
<path d="M68.0691 77.0424C68.0691 77.4886 67.7074 77.8504 67.2611 77.8504C66.8149 77.8504 66.4531 77.4886 66.4531 77.0424C66.4531 76.5961 66.8149 76.2344 67.2611 76.2344C67.7074 76.2344 68.0691 76.5961 68.0691 77.0424Z" fill="white"/>
<path d="M40.4675 76.7787C40.4675 81.0499 37.005 84.5124 32.7337 84.5124C28.4625 84.5124 25 81.0499 25 76.7787C25 72.5074 28.4625 69.0449 32.7337 69.0449C37.005 69.0449 40.4675 72.5074 40.4675 76.7787Z" fill="white"/>
<mask id="mask1_2386_13194" style="mask-type:alpha" maskUnits="userSpaceOnUse" x="25" y="69" width="16" height="16">
<path d="M40.4675 76.7787C40.4675 81.0499 37.005 84.5124 32.7337 84.5124C28.4625 84.5124 25 81.0499 25 76.7787C25 72.5074 28.4625 69.0449 32.7337 69.0449C37.005 69.0449 40.4675 72.5074 40.4675 76.7787Z" fill="#D9D9D9"/>
</mask>
<g mask="url(#mask1_2386_13194)">
<path d="M45.0795 75.6631C44.5971 80.776 40.0611 84.5297 34.9482 84.0473C29.8353 83.5648 26.0815 79.0289 26.564 73.916C27.0464 68.803 31.5823 65.0493 36.6953 65.5317C41.8082 66.0142 45.562 70.5501 45.0795 75.6631Z" fill="#8B8B8B"/>
</g>
<path d="M35.8475 73.4394C35.8475 74.8491 34.7046 75.992 33.2948 75.992C31.885 75.992 30.7422 74.8491 30.7422 73.4394C30.7422 72.0296 31.885 70.8867 33.2948 70.8867C34.7046 70.8867 35.8475 72.0296 35.8475 73.4394Z" fill="white"/>
<path d="M36.5383 74.291C36.9487 75.4 37.8231 76.2744 38.9321 76.6848C37.8231 77.0952 36.9487 77.9696 36.5383 79.0786C36.1279 77.9696 35.2535 77.0952 34.1445 76.6848C35.2535 76.2744 36.1279 75.4 36.5383 74.291Z" fill="#BCBCBC"/>
<path d="M32.3582 77.0424C32.3582 77.4886 31.9964 77.8504 31.5502 77.8504C31.1039 77.8504 30.7422 77.4886 30.7422 77.0424C30.7422 76.5961 31.1039 76.2344 31.5502 76.2344C31.9964 76.2344 32.3582 76.5961 32.3582 77.0424Z" fill="white"/>
<path d="M56.022 84.6438C55.9792 84.8625 55.0448 85.4852 54.2277 85.3257C53.4107 85.1661 53.0206 84.2847 53.0633 84.066C53.106 83.8472 53.8029 83.7993 54.62 83.9588C55.437 84.1184 56.0647 84.425 56.022 84.6438Z" fill="white"/>
<path d="M51.2765 74.7027C50.8434 75.3598 49.8796 75.3596 49.4481 74.7015C42.2469 63.7182 38.0787 54.9832 30.8325 43.9665C30.4465 43.3797 30.696 42.5833 31.3516 42.3312C45.7521 36.7947 54.6003 36.7872 69.8873 42.3456C70.5558 42.5887 70.8179 43.3956 70.4259 43.9891C63.1564 54.9956 58.5113 63.7264 51.2765 74.7027Z" fill="#8B8B8B"/>
<path d="M71.7059 62.9656C71.6116 62.6681 71.2896 62.5078 70.9954 62.6121L63.9902 65.094C63.7029 65.1958 63.5525 65.5112 63.6543 65.7985L63.8655 66.3947C63.9561 66.6505 64.2194 66.8025 64.4864 66.753L71.8243 65.3922C72.1505 65.3317 72.35 64.9991 72.2498 64.6828L71.7059 62.9656Z" fill="#8B8B8B"/>
<path d="M28.4231 62.9656C28.5173 62.6681 28.8393 62.5078 29.1335 62.6121L36.1387 65.094C36.426 65.1958 36.5764 65.5112 36.4746 65.7985L36.2634 66.3947C36.1728 66.6505 35.9095 66.8025 35.6426 66.753L28.3046 65.3922C27.9784 65.3317 27.7789 64.9991 27.8791 64.6828L28.4231 62.9656Z" fill="#8B8B8B"/>
<path fill-rule="evenodd" clip-rule="evenodd" d="M50.3183 93.1563C50.5106 93.0182 50.7696 93.0182 50.962 93.1563L56.3432 97.0197C56.5908 97.1975 56.6474 97.5423 56.4696 97.7899C56.2918 98.0375 55.947 98.0941 55.6994 97.9164L50.6401 94.2841L45.5809 97.9164C45.3333 98.0941 44.9884 98.0375 44.8107 97.7899C44.6329 97.5423 44.6895 97.1975 44.9371 97.0197L50.3183 93.1563Z" fill="#989898"/>
</g>
<path fill-rule="evenodd" clip-rule="evenodd" d="M143.812 34.6864C141.239 48.2555 128.153 57.1699 114.584 54.5971C111.535 54.0189 108.717 52.9082 106.211 51.3784L101.215 53.9022C98.311 55.3693 95.1466 52.4369 96.3888 49.4296L98.583 44.1175C94.9765 38.8289 93.3865 32.1588 94.6737 25.3698C97.2464 11.8007 110.332 2.88638 123.901 5.45911C137.47 8.03183 146.384 21.1174 143.812 34.6864ZM106.313 49.3609C108.838 51.0511 111.738 52.2713 114.911 52.873C127.528 55.2652 139.695 46.9764 142.088 34.3595C144.48 21.7427 136.191 9.57543 123.574 7.18325C110.957 4.79107 98.79 13.0798 96.3978 25.6967C95.1383 32.3399 96.8399 38.8584 100.575 43.891L98.0107 50.0995C97.3897 51.6032 98.9718 53.0694 100.424 52.3358L106.313 49.3609Z" fill="#C7C7C7"/>
<path fill-rule="evenodd" clip-rule="evenodd" d="M127.297 24.6676C127.983 23.9823 127.983 22.8712 127.297 22.1859C126.612 21.5005 125.501 21.5005 124.816 22.1859L118.802 28.1993L112.789 22.1859C112.103 21.5005 110.992 21.5005 110.307 22.1859C109.622 22.8712 109.622 23.9823 110.307 24.6676L116.32 30.6811L110.307 36.6946C109.622 37.3799 109.622 38.491 110.307 39.1763C110.992 39.8617 112.103 39.8617 112.789 39.1763L118.802 33.1628L124.816 39.1764C125.501 39.8617 126.612 39.8617 127.298 39.1764C127.983 38.491 127.983 37.3799 127.298 36.6946L121.284 30.6811L127.297 24.6676Z" fill="#9B9B9B"/>
<defs>
<radialGradient id="paint0_radial_2386_13194" cx="0" cy="0" r="1" gradientUnits="userSpaceOnUse" gradientTransform="translate(73.8183 84.8744) rotate(88.3762) scale(8.33714 14.5337)">
<stop stop-color="#B9B9B9"/>
<stop offset="1" stop-color="#C6C6C6" stop-opacity="0"/>
</radialGradient>
<radialGradient id="paint1_radial_2386_13194" cx="0" cy="0" r="1" gradientUnits="userSpaceOnUse" gradientTransform="translate(26.7637 84.8744) rotate(88.3762) scale(8.33714 14.5337)">
<stop stop-color="#B9B9B9"/>
<stop offset="1" stop-color="#C6C6C6" stop-opacity="0"/>
</radialGradient>
</defs>
</svg>
