<svg width="30" height="29" viewBox="0 0 30 29" fill="none" xmlns="http://www.w3.org/2000/svg">
<path fill-rule="evenodd" clip-rule="evenodd" d="M19.669 3.47181C20.0324 3.29096 20.2904 2.95079 20.3666 2.55215C20.4454 2.14038 20.7114 1.74352 21.2054 1.50011C21.9784 1.11919 23.0137 1.29641 23.6485 1.9612L27.3311 5.8175C28.1377 6.66215 27.9012 7.81317 26.9551 8.27939C26.2839 8.61011 25.4039 8.52388 24.7608 8.03949C24.3504 7.73034 23.7964 7.69193 23.3473 7.94148C22.8981 8.19104 22.6381 8.68173 22.6838 9.19351C22.7007 9.38235 22.7093 9.5735 22.7093 9.7667C22.7093 9.96113 22.7006 10.1534 22.6835 10.3434C22.6383 10.8458 22.8879 11.329 23.3237 11.583C24.4633 12.2471 25.2245 13.479 25.2245 14.8872C25.2245 16.9973 23.5139 18.7079 21.4038 18.7079H7.8505C5.74039 18.7079 4.02981 16.9973 4.02981 14.8872C4.02981 13.5361 4.73021 12.3476 5.79389 11.6665C6.20791 11.4014 6.43696 10.9254 6.3858 10.4365C6.36276 10.2163 6.35095 9.99291 6.35095 9.7667C6.35095 9.60382 6.35707 9.44241 6.3691 9.28262C6.40646 8.78628 6.15712 8.31217 5.72699 8.06168C5.29687 7.81118 4.76147 7.82828 4.3482 8.10571C3.71181 8.53291 2.88399 8.59326 2.24704 8.27939C1.30091 7.81317 1.06444 6.66215 1.87104 5.8175L5.55361 1.9612C6.18846 1.29641 7.22374 1.11919 7.99676 1.50011C8.47868 1.73758 8.74278 2.12065 8.82884 2.51958C8.91258 2.90783 9.16922 3.23649 9.52557 3.41186C9.88193 3.58724 10.2989 3.59009 10.6576 3.41961C11.8057 2.87396 13.123 2.56116 14.5301 2.56116C15.9833 2.56116 17.3406 2.89476 18.5147 3.47389C18.8787 3.65343 19.3057 3.65266 19.669 3.47181ZM19.0898 2.308C18.6996 2.11554 18.2926 1.94701 17.8714 1.80462C16.8323 1.45335 15.7062 1.26116 14.5301 1.26116C13.403 1.26116 12.3219 1.43766 11.3192 1.76154C10.898 1.89757 10.4907 2.0596 10.0996 2.24546C10.0126 1.8422 9.83368 1.45922 9.56763 1.12611C9.31357 0.808014 8.98008 0.535392 8.57138 0.333998C7.27569 -0.304474 5.63008 -0.0012126 4.61344 1.06339L0.930864 4.91969C-0.455847 6.37181 -0.0949173 8.57461 1.67242 9.4455C2.31873 9.76398 3.05211 9.84814 3.75107 9.72036C3.9002 9.6931 4.04776 9.65619 4.19258 9.60985C4.2705 9.58492 4.34764 9.55725 4.42379 9.52689C4.6504 9.43653 4.86834 9.32229 5.07277 9.18506C5.0583 9.37726 5.05095 9.57121 5.05095 9.7667C5.05095 10.0382 5.06513 10.3067 5.09285 10.5717C4.99207 10.6363 4.89371 10.7042 4.79791 10.7755C3.54288 11.7087 2.72981 13.203 2.72981 14.8872C2.72981 17.6913 4.98363 19.9689 7.77853 20.0074C7.80248 20.0077 7.82647 20.0079 7.8505 20.0079H21.4038C21.4699 20.0079 21.5357 20.0066 21.6012 20.0042C24.3378 19.9004 26.5245 17.6492 26.5245 14.8872C26.5245 13.2244 25.7319 11.7466 24.5038 10.8112C24.3364 10.6837 24.161 10.5663 23.9783 10.4598C23.9988 10.2312 24.0093 10 24.0093 9.7667C24.0093 9.5348 23.999 9.30507 23.9787 9.07786C24.1653 9.21842 24.365 9.33863 24.5739 9.43774C24.7446 9.51874 24.9213 9.58564 25.1019 9.63803C25.1704 9.6579 25.2395 9.67569 25.309 9.69137C26.0499 9.8585 26.8394 9.78563 27.5297 9.4455C29.297 8.57461 29.658 6.37181 28.2712 4.91969L24.5887 1.06339C23.572 -0.0012126 21.9264 -0.304474 20.6307 0.333998C20.2217 0.535556 19.888 0.808457 19.6339 1.12689C19.3544 1.47699 19.1712 1.88213 19.0898 2.308ZM21.4079 21.3079C23.7484 22.0872 25.6529 23.5286 26.2349 25.9688C26.4054 26.6836 26.4956 27.4295 26.4956 28.1965C26.4956 28.6509 26.1128 28.9996 25.6584 28.9996H3.73163C3.27722 28.9996 2.89441 28.6509 2.89441 28.1965C2.89441 27.4295 2.98468 26.6836 3.15517 25.9688C3.73718 23.5287 5.64166 22.0872 7.98211 21.3079C9.66803 20.7465 11.5802 20.5287 13.3872 20.5287H16.0028C17.8084 20.5287 19.7189 20.7462 21.4038 21.3065C21.4052 21.307 21.4065 21.3074 21.4079 21.3079ZM25.181 27.6996H4.20906C4.23803 27.2097 4.30954 26.7322 4.4197 26.2704C4.79948 24.6781 5.91243 23.5877 7.55302 22.864C9.22081 22.1282 11.3299 21.8287 13.3872 21.8287H16.0028C18.0601 21.8287 20.1692 22.1282 21.837 22.864C23.4776 23.5877 24.5906 24.6781 24.9703 26.2704C25.0805 26.7322 25.152 27.2097 25.181 27.6996Z" fill="current"/>
</svg>
