<svg width="30" height="29" viewBox="0 0 30 29" fill="none" xmlns="http://www.w3.org/2000/svg">
<path fill-rule="evenodd" clip-rule="evenodd" d="M19.0898 2.308C18.6996 2.11554 18.2927 1.94701 17.8715 1.80462C16.8323 1.45335 15.7063 1.26116 14.5302 1.26116C13.4031 1.26116 12.322 1.43766 11.3192 1.76154C10.8981 1.89757 10.4907 2.0596 10.0996 2.24546C10.0127 1.8422 9.83372 1.45922 9.56767 1.12611C9.31361 0.808014 8.98012 0.535392 8.57142 0.333998C7.27573 -0.304474 5.63012 -0.00121262 4.61348 1.06339L0.930902 4.91969C-0.455809 6.37181 -0.0948796 8.57461 1.67246 9.4455C2.31877 9.76398 3.05215 9.84814 3.75111 9.72036C3.90024 9.6931 4.0478 9.65619 4.19261 9.60985C4.27054 9.58492 4.34767 9.55725 4.42383 9.52689C4.65044 9.43653 4.86838 9.32229 5.0728 9.18506C5.05834 9.37726 5.05099 9.57121 5.05099 9.7667C5.05099 10.0382 5.06516 10.3067 5.09289 10.5717C4.99211 10.6363 4.89374 10.7042 4.79795 10.7755C3.54292 11.7087 2.72985 13.203 2.72985 14.8872C2.72985 17.6913 4.98367 19.9689 7.77857 20.0074C7.80252 20.0077 7.82651 20.0079 7.85053 20.0079H21.4038C21.4699 20.0079 21.5358 20.0066 21.6012 20.0042C24.3378 19.9004 26.5245 17.6492 26.5245 14.8872C26.5245 13.2244 25.7319 11.7466 24.5039 10.8112C24.3365 10.6837 24.161 10.5663 23.9783 10.4598C23.9989 10.2312 24.0093 10 24.0093 9.7667C24.0093 9.5348 23.999 9.30507 23.9787 9.07786C24.1653 9.21842 24.3651 9.33863 24.5739 9.43774C24.7446 9.51874 24.9214 9.58564 25.1019 9.63803C25.1705 9.6579 25.2395 9.67569 25.309 9.69137C26.0499 9.8585 26.8395 9.78563 27.5297 9.4455C29.2971 8.57461 29.658 6.37181 28.2713 4.91969L24.5887 1.06339C23.5721 -0.00121262 21.9265 -0.304474 20.6308 0.333998C20.2217 0.535556 19.888 0.808457 19.6339 1.12689C19.3545 1.47699 19.1712 1.88213 19.0898 2.308ZM21.408 21.3079C23.7484 22.0872 25.6529 23.5286 26.2349 25.9688C26.4054 26.6836 26.4957 27.4295 26.4957 28.1965C26.4957 28.6509 26.1129 28.9996 25.6584 28.9996H3.73167C3.27725 28.9996 2.89445 28.6509 2.89445 28.1965C2.89445 27.4295 2.98472 26.6836 3.15521 25.9688C3.73722 23.5287 5.6417 22.0872 7.98215 21.3079C9.66807 20.7465 11.5802 20.5287 13.3872 20.5287H16.0029C17.8084 20.5287 19.7189 20.7462 21.4038 21.3065L21.408 21.3079Z" fill="current"/>
</svg>
