<svg width="237" height="243" viewBox="0 0 237 243" fill="none" xmlns="http://www.w3.org/2000/svg">
<path d="M74.6426 132.248H130.626V168.824H74.6426V132.248Z" fill="#DEDEDE"/>
<path fill-rule="evenodd" clip-rule="evenodd" d="M58.4521 141.624C37.5117 116.63 40.7978 79.3924 65.7918 58.452C90.7858 37.5116 128.023 40.7977 148.963 65.7917C169.904 90.7857 166.618 128.023 141.624 148.963C116.63 169.904 79.3925 166.618 58.4521 141.624ZM56.4298 47.2778C25.2645 73.3886 21.167 119.82 47.2779 150.985C71.8091 180.265 114.277 185.653 145.17 164.545L170.208 194.43C172.793 197.516 177.39 197.922 180.476 195.337C183.562 192.751 183.967 188.154 181.382 185.068L156.344 155.183C182.536 128.465 184.669 85.7097 160.138 56.4297C134.027 25.2644 87.5952 21.1669 56.4298 47.2778Z" fill="#C7C7C7"/>
<path fill-rule="evenodd" clip-rule="evenodd" d="M85.8593 75.8617C82.4914 72.449 76.9946 72.4128 73.582 75.7808L66.7748 82.4989C63.3621 85.8668 63.3259 91.3636 66.6939 94.7762C68.2279 96.3306 70.2035 97.1845 72.2227 97.3353C71.1839 99.9809 70.4714 102.79 70.1346 105.714C66.875 108.696 64.8306 112.983 64.8306 117.749C64.8306 126.753 72.1303 134.053 81.135 134.053H126.025C135.03 134.053 142.329 126.753 142.329 117.749C142.329 112.869 140.186 108.49 136.789 105.502C136.441 102.649 135.736 99.9058 134.719 97.3198C136.675 97.1325 138.578 96.2838 140.066 94.7762C143.434 91.3636 143.398 85.8668 139.985 82.4989L133.178 75.7808C129.765 72.4128 124.269 72.449 120.901 75.8617C119.813 76.9643 119.08 78.2845 118.701 79.6801C114.131 77.3493 108.956 76.0349 103.474 76.0349C97.9258 76.0349 92.6918 77.3813 88.0813 79.7651C87.7099 78.3381 86.9696 76.9867 85.8593 75.8617Z" fill="#DEDEDE"/>
<path opacity="0.3" d="M76.521 114.661C76.3794 109.666 79.4464 105.522 83.3714 105.407L88.583 105.253C92.5079 105.137 95.8045 109.093 95.9461 114.088C96.0877 119.084 93.0207 123.227 89.0958 123.342L83.8842 123.496C79.9592 123.612 76.6626 119.656 76.521 114.661Z" fill="url(#paint0_radial_1207_10305)"/>
<path opacity="0.3" d="M108.919 114.661C108.777 109.666 111.844 105.522 115.769 105.407L120.98 105.253C124.905 105.137 128.202 109.093 128.344 114.088C128.485 119.084 125.418 123.227 121.493 123.342L116.282 123.496C112.357 123.612 109.06 119.656 108.919 114.661Z" fill="url(#paint1_radial_1207_10305)"/>
<path d="M108.238 111.515C108.238 112.399 105.773 114.361 102.733 114.361C99.6924 114.361 97.2275 112.399 97.2275 111.515C97.2275 110.631 99.6924 109.914 102.733 109.914C105.773 109.914 108.238 110.631 108.238 111.515Z" fill="#9F9F9F"/>
<path d="M96.168 105.785C96.168 109.118 93.4662 111.819 90.1333 111.819C86.8005 111.819 84.0986 109.118 84.0986 105.785C84.0986 102.452 86.8005 99.75 90.1333 99.75C93.4662 99.75 96.168 102.452 96.168 105.785Z" fill="white"/>
<mask id="mask0_1207_10305" style="mask-type:alpha" maskUnits="userSpaceOnUse" x="84" y="99" width="13" height="13">
<path d="M96.168 105.786C96.168 109.119 93.4662 111.82 90.1333 111.82C86.8005 111.82 84.0986 109.119 84.0986 105.786C84.0986 102.453 86.8005 99.751 90.1333 99.751C93.4662 99.751 96.168 102.453 96.168 105.786Z" fill="#D9D9D9"/>
</mask>
<g mask="url(#mask0_1207_10305)">
<path d="M99.7691 104.916C99.3927 108.906 95.8532 111.835 91.8636 111.459C87.8739 111.082 84.9448 107.543 85.3213 103.553C85.6978 99.5634 89.2372 96.6343 93.2268 97.0107C97.2165 97.3872 100.146 100.927 99.7691 104.916Z" fill="#777777"/>
</g>
<path d="M91.7134 102.552C91.7134 103.306 91.1023 103.917 90.3484 103.917C89.5945 103.917 88.9834 103.306 88.9834 102.552C88.9834 101.799 89.5945 101.188 90.3484 101.188C91.1023 101.188 91.7134 101.799 91.7134 102.552Z" fill="white"/>
<path d="M87.7917 104.032C88.1119 104.898 88.7942 105.58 89.6596 105.9C88.7942 106.22 88.1119 106.903 87.7917 107.768C87.4715 106.903 86.7892 106.22 85.9238 105.9C86.7892 105.58 87.4715 104.898 87.7917 104.032Z" fill="#D3D3D3"/>
<path d="M93.8274 103.262C93.8274 103.611 93.5451 103.893 93.1969 103.893C92.8487 103.893 92.5664 103.611 92.5664 103.262C92.5664 102.914 92.8487 102.632 93.1969 102.632C93.5451 102.632 93.8274 102.914 93.8274 103.262Z" fill="#D0D0D0"/>
<path d="M121.157 105.785C121.157 109.118 118.455 111.819 115.123 111.819C111.79 111.819 109.088 109.118 109.088 105.785C109.088 102.452 111.79 99.75 115.123 99.75C118.455 99.75 121.157 102.452 121.157 105.785Z" fill="white"/>
<mask id="mask1_1207_10305" style="mask-type:alpha" maskUnits="userSpaceOnUse" x="109" y="99" width="13" height="13">
<path d="M121.158 105.786C121.158 109.119 118.456 111.82 115.124 111.82C111.791 111.82 109.089 109.119 109.089 105.786C109.089 102.453 111.791 99.751 115.124 99.751C118.456 99.751 121.158 102.453 121.158 105.786Z" fill="#D9D9D9"/>
</mask>
<g mask="url(#mask1_1207_10305)">
<path d="M124.759 104.916C124.383 108.906 120.843 111.835 116.854 111.459C112.864 111.082 109.935 107.543 110.312 103.553C110.688 99.5634 114.227 96.6343 118.217 97.0107C122.207 97.3872 125.136 100.927 124.759 104.916Z" fill="#777777"/>
</g>
<path d="M116.704 102.552C116.704 103.306 116.092 103.917 115.339 103.917C114.585 103.917 113.974 103.306 113.974 102.552C113.974 101.799 114.585 101.188 115.339 101.188C116.092 101.188 116.704 101.799 116.704 102.552Z" fill="white"/>
<path d="M112.782 104.032C113.102 104.898 113.784 105.58 114.65 105.9C113.784 106.22 113.102 106.903 112.782 107.768C112.462 106.903 111.779 106.22 110.914 105.9C111.779 105.58 112.462 104.898 112.782 104.032Z" fill="#D3D3D3"/>
<path d="M118.815 103.262C118.815 103.611 118.532 103.893 118.184 103.893C117.836 103.893 117.554 103.611 117.554 103.262C117.554 102.914 117.836 102.632 118.184 102.632C118.532 102.632 118.815 102.914 118.815 103.262Z" fill="#D0D0D0"/>
<path d="M106.968 111.508C106.935 111.676 106.4 111.713 105.773 111.59C105.146 111.468 104.665 111.232 104.697 111.065C104.73 110.897 105.265 110.86 105.892 110.982C106.519 111.105 107.001 111.34 106.968 111.508Z" fill="white"/>
<path d="M84.7814 97.4465C84.8595 97.667 85.1016 97.7824 85.322 97.7043L90.7109 95.795C90.9314 95.7169 91.0468 95.4749 90.9687 95.2544L90.8273 94.8552C90.7492 94.6348 90.5071 94.5194 90.2867 94.5975L84.8977 96.5067C84.6773 96.5848 84.5619 96.8269 84.64 97.0473L84.7814 97.4465Z" fill="#A0A0A0"/>
<path d="M119.013 97.4465C118.935 97.667 118.693 97.7824 118.473 97.7043L113.084 95.795C112.864 95.7169 112.748 95.4749 112.826 95.2544L112.968 94.8552C113.046 94.6348 113.288 94.5194 113.508 94.5975L118.897 96.5067C119.118 96.5848 119.233 96.8269 119.155 97.0473L119.013 97.4465Z" fill="#A0A0A0"/>
<path d="M77.5342 134.053H126.447V141.04H77.5342V134.053Z" fill="#626262"/>
<path d="M109.72 142.522C109.72 146.732 106.307 150.145 102.097 150.145C97.8875 150.145 94.4746 146.732 94.4746 142.522C94.4746 138.312 97.8875 134.899 102.097 134.899C106.307 134.899 109.72 138.312 109.72 142.522Z" fill="#B3B3B3"/>
<path fill-rule="evenodd" clip-rule="evenodd" d="M102.416 147.57C103.082 147.425 103.581 146.831 103.581 146.122C103.581 145.303 102.917 144.64 102.098 144.64C101.28 144.64 100.616 145.303 100.616 146.122C100.616 146.831 101.115 147.425 101.781 147.57L101.781 149.722C101.781 149.897 101.923 150.039 102.098 150.039C102.274 150.039 102.416 149.897 102.416 149.722L102.416 147.57Z" fill="#464646"/>
<path d="M93.416 142.946C93.416 142.245 93.9848 141.676 94.6865 141.676H109.509C110.21 141.676 110.779 142.245 110.779 142.946C110.779 143.648 110.21 144.217 109.509 144.217H94.6865C93.9848 144.217 93.416 143.648 93.416 142.946Z" fill="#C7C7C7"/>
<path fill-rule="evenodd" clip-rule="evenodd" d="M103.156 114.996C103.194 114.996 103.231 115.003 103.266 115.016C103.31 115.032 103.349 115.057 103.38 115.089C103.425 115.134 103.456 115.192 103.468 115.255C103.738 116.514 104.618 117.263 105.657 117.691C106.705 118.123 107.881 118.212 108.639 118.159C108.814 118.146 108.966 118.278 108.978 118.453C108.99 118.628 108.859 118.78 108.684 118.792C107.853 118.85 106.574 118.756 105.414 118.278C104.501 117.902 103.642 117.277 103.156 116.287C102.67 117.277 101.811 117.902 100.898 118.278C99.7381 118.756 98.4587 118.85 97.6285 118.792C97.4535 118.78 97.3216 118.628 97.3338 118.453C97.346 118.278 97.4978 118.146 97.6728 118.159C98.4306 118.212 99.6075 118.123 100.656 117.691C101.694 117.263 102.574 116.514 102.844 115.255C102.856 115.192 102.887 115.134 102.932 115.089C102.99 115.031 103.071 114.996 103.156 114.996Z" fill="#858585"/>
<path fill-rule="evenodd" clip-rule="evenodd" d="M75.7624 128.515C69.3724 128.515 64.1924 133.737 64.1924 140.18V159.345C64.1924 162.106 66.4124 164.344 69.1509 164.344C70.4209 164.344 71.5794 163.863 72.4567 163.071C73.3339 163.863 74.4924 164.344 75.7624 164.344C77.0323 164.344 78.1908 163.863 79.0681 163.071C79.9453 163.863 81.1038 164.344 82.3738 164.344C85.1123 164.344 87.3323 162.106 87.3323 159.345V140.18C87.3323 133.737 82.1523 128.515 75.7624 128.515Z" fill="#DEDEDE"/>
<path fill-rule="evenodd" clip-rule="evenodd" d="M129.507 128.515C123.117 128.515 117.937 133.737 117.937 140.18V159.345C117.937 162.106 120.157 164.344 122.895 164.344C124.165 164.344 125.324 163.863 126.201 163.071C127.078 163.863 128.237 164.344 129.507 164.344C130.776 164.344 131.935 163.863 132.812 163.071C133.689 163.863 134.848 164.344 136.118 164.344C138.856 164.344 141.076 162.106 141.076 159.345V140.18C141.076 133.737 135.896 128.515 129.507 128.515Z" fill="#DEDEDE"/>
<path fill-rule="evenodd" clip-rule="evenodd" d="M141.705 66.6844C154.547 66.6844 164.957 56.2742 164.957 43.4325C164.957 30.5909 154.547 20.1807 141.705 20.1807C128.863 20.1807 118.453 30.5909 118.453 43.4325C118.453 50.194 121.339 56.2815 125.947 60.5302L124.584 67.1078C124.254 68.7008 126.081 69.8466 127.371 68.8554L132.603 64.8354C135.399 66.0258 138.475 66.6844 141.705 66.6844Z" fill="white"/>
<path fill-rule="evenodd" clip-rule="evenodd" d="M166.712 43.4325C166.712 57.2433 155.516 68.4392 141.705 68.4392C138.601 68.4392 135.625 67.8729 132.879 66.8366L128.44 70.2469C125.86 72.2293 122.205 69.9377 122.865 66.7517L124.031 61.1238C119.503 56.5996 116.698 50.3424 116.698 43.4325C116.698 29.6217 127.894 18.4258 141.705 18.4258C155.516 18.4258 166.712 29.6217 166.712 43.4325ZM132.603 64.8354C135.399 66.0257 138.475 66.6844 141.705 66.6844C154.547 66.6844 164.957 56.2742 164.957 43.4325C164.957 30.5909 154.547 20.1806 141.705 20.1806C128.863 20.1806 118.453 30.5909 118.453 43.4325C118.453 50.194 121.339 56.2815 125.947 60.5301L124.584 67.1078C124.253 68.7008 126.081 69.8466 127.371 68.8554L132.603 64.8354Z" fill="#C7C7C7"/>
<path fill-rule="evenodd" clip-rule="evenodd" d="M149.997 38.0924C150.682 37.4071 150.682 36.296 149.997 35.6107C149.311 34.9254 148.2 34.9254 147.515 35.6107L141.501 41.6241L135.488 35.6107C134.803 34.9254 133.692 34.9254 133.006 35.6107C132.321 36.296 132.321 37.4071 133.006 38.0924L139.02 44.1059L133.006 50.1194C132.321 50.8047 132.321 51.9158 133.006 52.6012C133.691 53.2865 134.803 53.2865 135.488 52.6012L141.501 46.5876L147.515 52.6012C148.2 53.2865 149.311 53.2865 149.997 52.6012C150.682 51.9158 150.682 50.8047 149.997 50.1194L143.983 44.1059L149.997 38.0924Z" fill="#9B9B9B"/>
<path d="M33.416 226.96H34.796V229.27C35.996 229.195 37.226 229.09 38.366 228.91L38.471 229.915C35.531 230.47 32.321 230.485 29.966 230.5L29.801 229.36C30.851 229.36 32.111 229.36 33.416 229.315V226.96ZM30.161 226.33C32.111 225.76 33.356 224.365 33.416 222.715H30.491V221.605H33.416V220.015H34.796V221.605H37.766V222.715H34.796C34.871 224.305 36.146 225.655 38.066 226.195L37.436 227.245C35.891 226.795 34.706 225.82 34.121 224.56C33.536 225.895 32.366 226.915 30.791 227.395L30.161 226.33ZM39.191 233.17V219.895H40.571V233.17H39.191ZM44.3814 220.705H53.3364V221.755C53.3364 222.88 53.3364 224.2 53.0064 225.94H54.8364V227.065H42.8514V225.94H51.6414C51.9864 224.2 51.9864 222.925 51.9864 221.8H44.3814V220.705ZM44.4114 232.87V228.46H45.7764V231.76H53.7114V232.87H44.4114ZM66.1838 220.75C66.1838 224.11 63.9038 226.495 60.0788 227.575L59.5238 226.495C62.5988 225.64 64.4588 223.96 64.7138 221.845H60.2138V220.75H66.1838ZM61.7588 232.96V227.98H70.3388V232.96H61.7588ZM63.0938 231.865H68.9888V229.075H63.0938V231.865ZM66.2288 224.395V223.255H68.9738V219.91H70.3388V227.425H68.9738V224.395H66.2288ZM75.1991 220.705H76.5041V222.415C76.5041 223.9 77.4341 225.4 79.1441 226.105L78.4091 227.155C77.2091 226.645 76.3391 225.715 75.8741 224.605C75.3941 225.835 74.4941 226.915 73.2191 227.485L72.4841 226.42C74.2391 225.64 75.1991 223.915 75.1991 222.415V220.705ZM74.7641 229.735V228.625H83.7041V233.155H82.3241V229.735H74.7641ZM79.5641 227.845V220.15H80.8541V223.315H82.3841V219.925H83.7041V227.92H82.3841V224.44H80.8541V227.845H79.5641ZM99.0115 219.91H100.332V233.14H99.0115V226.36H97.3165V232.465H96.0415V220.195H97.3165V225.235H99.0115V219.91ZM89.7115 229.765V221.485H91.0765V228.58C92.2915 228.565 93.6265 228.46 95.1265 228.175L95.2765 229.36C93.4915 229.705 91.9765 229.765 90.5815 229.765H89.7115ZM104.247 228.43H113.127V233.155H111.762V229.51H104.247V228.43ZM102.387 223.855C102.387 221.98 103.857 220.66 105.822 220.66C106.947 220.66 107.907 221.095 108.522 221.83H111.762V219.925H113.127V227.71H111.762V225.895H108.507C107.892 226.615 106.932 227.05 105.822 227.05C103.857 227.05 102.387 225.715 102.387 223.855ZM103.692 223.855C103.692 225.07 104.607 225.88 105.822 225.88C107.022 225.88 107.922 225.07 107.922 223.855C107.922 222.655 107.022 221.815 105.822 221.815C104.607 221.815 103.692 222.655 103.692 223.855ZM109.122 224.77H111.762V222.94H109.122C109.197 223.225 109.242 223.525 109.242 223.855C109.242 224.17 109.197 224.485 109.122 224.77ZM124.797 219.895H126.162V233.17H124.797V219.895ZM115.767 225.55C115.767 222.7 117.177 220.915 119.157 220.915C121.122 220.915 122.547 222.7 122.547 225.55C122.547 228.385 121.122 230.2 119.157 230.2C117.177 230.2 115.767 228.385 115.767 225.55ZM117.087 225.55C117.087 227.65 117.942 228.97 119.157 228.97C120.372 228.97 121.227 227.65 121.227 225.55C121.227 223.45 120.372 222.145 119.157 222.145C117.942 222.145 117.087 223.45 117.087 225.55ZM133.385 227.68H134.675V229.24H136.76V227.68H138.035V232.975H133.385V227.68ZM132.095 223.54C132.095 221.725 133.535 220.48 135.515 220.48C137.255 220.48 138.62 221.47 138.89 222.955H141.455V219.925H142.82V226.915H141.455V224.08H138.905C138.65 225.595 137.285 226.615 135.515 226.615C133.535 226.615 132.095 225.355 132.095 223.54ZM133.415 223.54C133.415 224.695 134.285 225.475 135.515 225.475C136.745 225.475 137.63 224.695 137.63 223.54C137.63 222.4 136.745 221.62 135.515 221.62C134.285 221.62 133.415 222.4 133.415 223.54ZM134.675 231.925H136.76V230.26H134.675V231.925ZM138.11 232.06C139.685 231.4 140.465 229.99 140.465 228.67V227.59H141.815V228.67C141.815 230.065 142.595 231.46 144.185 232.06L143.495 233.095C142.325 232.615 141.545 231.745 141.14 230.695C140.72 231.73 139.94 232.615 138.785 233.095L138.11 232.06ZM146.48 227.845H147.83V229.285H154.04V227.845H155.39V232.975H146.48V227.845ZM144.995 226.99V225.895H156.95V226.99H144.995ZM145.655 223.96C148.175 223.63 150.275 222.205 150.275 220.6V220.06H151.685V220.6C151.685 222.175 153.8 223.645 156.29 223.96L155.795 225.025C153.695 224.725 151.835 223.72 150.98 222.295C150.14 223.72 148.265 224.725 146.165 225.025L145.655 223.96ZM147.83 231.88H154.04V230.335H147.83V231.88ZM167.63 219.91H168.98V233.14H167.63V219.91ZM158.9 229.765V221.2H160.265V228.595C162.17 228.58 164.195 228.43 166.325 227.98L166.505 229.135C164.21 229.615 162.08 229.765 160.025 229.765H158.9ZM180.066 219.895H181.446V225.055H183.546V226.195H181.446V233.17H180.066V219.895ZM171.786 229.9V221.2H177.936V222.295H173.136V228.745C175.401 228.745 177.036 228.655 178.911 228.295L179.061 229.45C177.036 229.825 175.281 229.9 172.836 229.9H171.786ZM185.481 230.605C185.976 230.605 186.306 230.935 186.306 231.43C186.306 231.925 185.976 232.27 185.481 232.27C184.986 232.27 184.641 231.925 184.641 231.43C184.641 230.935 184.986 230.605 185.481 230.605Z" fill="#C7C7C7"/>
<defs>
<radialGradient id="paint0_radial_1207_10305" cx="0" cy="0" r="1" gradientUnits="userSpaceOnUse" gradientTransform="translate(86.2336 114.375) rotate(88.3762) scale(9.04823 9.71675)">
<stop stop-color="#878787"/>
<stop offset="1" stop-color="#989898" stop-opacity="0"/>
</radialGradient>
<radialGradient id="paint1_radial_1207_10305" cx="0" cy="0" r="1" gradientUnits="userSpaceOnUse" gradientTransform="translate(118.631 114.375) rotate(88.3762) scale(9.04823 9.71675)">
<stop stop-color="#878787"/>
<stop offset="1" stop-color="#989898" stop-opacity="0"/>
</radialGradient>
</defs>
</svg>
