<svg width="237" height="243" viewBox="0 0 237 243" fill="none" xmlns="http://www.w3.org/2000/svg">
<path d="M74.5811 131.614H130.565V168.19H74.5811V131.614Z" fill="#DEDEDE"/>
<path fill-rule="evenodd" clip-rule="evenodd" d="M58.4521 141.624C37.5117 116.63 40.7978 79.3924 65.7918 58.452C90.7858 37.5116 128.023 40.7977 148.963 65.7917C169.904 90.7857 166.618 128.023 141.624 148.963C116.63 169.904 79.3925 166.618 58.4521 141.624ZM56.4298 47.2778C25.2645 73.3886 21.167 119.82 47.2779 150.985C71.8091 180.265 114.277 185.653 145.17 164.545L170.208 194.43C172.793 197.516 177.39 197.922 180.476 195.337C183.562 192.751 183.967 188.154 181.382 185.068L156.344 155.183C182.536 128.465 184.669 85.7097 160.138 56.4297C134.027 25.2644 87.5952 21.1669 56.4298 47.2778Z" fill="#C7C7C7"/>
<path fill-rule="evenodd" clip-rule="evenodd" d="M104.805 80.7236C102.393 80.7236 100.324 82.1937 99.4359 84.2901C98.3677 82.9362 96.716 82.0677 94.8623 82.0677C91.8513 82.0677 89.3733 84.3591 89.0631 87.3001C88.5376 87.1439 87.9811 87.06 87.4051 87.06C86.2541 87.06 85.1811 87.3948 84.2772 87.9728C84.1999 84.2391 81.1319 81.236 77.3585 81.236C74.2992 81.236 71.7036 83.21 70.7895 85.947C70.3646 85.8659 69.9259 85.8234 69.4772 85.8234C66.0562 85.8234 63.215 88.2917 62.6566 91.535C61.9615 91.3018 61.2169 91.1753 60.4426 91.1753C56.6207 91.1753 53.5225 94.2561 53.5225 98.0564C53.5225 101.437 55.9747 104.249 59.2071 104.828C58.6473 105.821 58.3281 106.967 58.3281 108.187C58.3281 111.987 61.4264 115.068 65.2483 115.068C65.9163 115.068 66.5623 114.974 67.1735 114.798C66.964 115.402 66.8501 116.05 66.8501 116.726C66.8501 118.337 67.4976 119.795 68.5455 120.854C67.4976 121.913 66.8501 123.372 66.8501 124.982C66.8501 127.924 69.01 130.359 71.8242 130.776C71.6977 131.255 71.6304 131.759 71.6304 132.279C71.6304 135.513 74.2414 138.135 77.4622 138.135C78.6867 138.135 79.8231 137.756 80.7613 137.109C82.4336 137.771 84.2556 138.135 86.1623 138.135H118.668C120.302 138.135 121.874 137.868 123.343 137.374C124.192 137.859 125.174 138.135 126.221 138.135C129.441 138.135 132.052 135.513 132.052 132.279C132.052 132.117 132.046 131.956 132.033 131.798L132.043 131.798L132.079 131.798C132.102 131.799 132.125 131.799 132.148 131.799C135.369 131.799 137.98 129.177 137.98 125.942C137.98 124.548 137.494 123.267 136.684 122.261C138.163 121.199 139.127 119.459 139.127 117.494C139.127 116.619 138.936 115.788 138.593 115.043C138.79 115.059 138.99 115.068 139.191 115.068C143.013 115.068 146.111 111.987 146.111 108.187C146.111 106.967 145.792 105.821 145.232 104.828C148.465 104.249 150.917 101.437 150.917 98.0564C150.917 94.2561 147.819 91.1753 143.997 91.1753C143.223 91.1753 142.478 91.3018 141.783 91.535C141.225 88.2917 138.383 85.8234 134.962 85.8234C134.514 85.8234 134.075 85.8659 133.65 85.947C132.736 83.21 130.14 81.236 127.081 81.236C123.259 81.236 120.161 84.3168 120.161 88.1171C120.161 88.5089 120.194 88.8931 120.257 89.267C120.074 89.3638 119.897 89.4701 119.726 89.5853C119.242 86.8406 116.855 84.7559 113.983 84.7559C112.718 84.7559 111.547 85.1603 110.592 85.8474C110.233 82.9588 107.779 80.7236 104.805 80.7236Z" fill="#DEDEDE"/>
<path opacity="0.8" d="M108.481 119.396C108.353 114.882 111.574 111.125 115.675 111.004L121.121 110.843C125.223 110.722 128.651 114.284 128.779 118.798C128.907 123.312 125.686 127.069 121.585 127.19L116.139 127.35C112.037 127.471 108.609 123.91 108.481 119.396Z" fill="url(#paint0_radial_1207_10307)"/>
<path opacity="0.8" d="M77.4456 119.396C77.3176 114.882 80.5387 111.125 84.6401 111.004L90.0861 110.843C94.1875 110.722 97.6161 114.284 97.744 118.798C97.872 123.312 94.6509 127.069 90.5494 127.19L85.1035 127.35C81.0021 127.471 77.5735 123.91 77.4456 119.396Z" fill="url(#paint1_radial_1207_10307)"/>
<path d="M107.046 116.839C107.046 117.885 105.279 120.208 103.098 120.208C100.917 120.208 99.1494 117.885 99.1494 116.839C99.1494 115.792 100.917 114.943 103.098 114.943C105.279 114.943 107.046 115.792 107.046 116.839Z" fill="#B4B4B4"/>
<path d="M96.5829 111.224C96.5829 114.197 94.0584 116.606 90.9443 116.606C87.8302 116.606 85.3057 114.197 85.3057 111.224C85.3057 108.252 87.8302 105.842 90.9443 105.842C94.0584 105.842 96.5829 108.252 96.5829 111.224Z" fill="white"/>
<mask id="mask0_1207_10307" style="mask-type:alpha" maskUnits="userSpaceOnUse" x="85" y="105" width="12" height="12">
<path d="M96.5839 111.224C96.5839 114.197 94.0594 116.606 90.9453 116.606C87.8311 116.606 85.3066 114.197 85.3066 111.224C85.3066 108.252 87.8311 105.842 90.9453 105.842C94.0594 105.842 96.5839 108.252 96.5839 111.224Z" fill="#D9D9D9"/>
</mask>
<g mask="url(#mask0_1207_10307)">
<path d="M99.6391 110.59C99.2989 114.195 96.1005 116.842 92.4952 116.502C88.89 116.162 86.2431 112.963 86.5833 109.358C86.9234 105.753 90.1219 103.106 93.7271 103.446C97.3324 103.786 99.9793 106.985 99.6391 110.59Z" fill="#676767"/>
</g>
<path d="M92.4829 108.66C92.4829 109.368 91.9092 109.942 91.2014 109.942C90.4937 109.942 89.9199 109.368 89.9199 108.66C89.9199 107.953 90.4937 107.379 91.2014 107.379C91.9092 107.379 92.4829 107.953 92.4829 108.66Z" fill="white"/>
<path d="M91.714 111.479C92.0216 112.192 92.6769 112.754 93.5081 113.017C92.6769 113.281 92.0216 113.843 91.714 114.555C91.4065 113.843 90.7511 113.281 89.9199 113.017C90.7511 112.754 91.4065 112.192 91.714 111.479Z" fill="#B3B3B3"/>
<path d="M94.0193 108.917C94.0193 109.2 93.7898 109.43 93.5067 109.43C93.2236 109.43 92.9941 109.2 92.9941 108.917C92.9941 108.634 93.2236 108.404 93.5067 108.404C93.7898 108.404 94.0193 108.634 94.0193 108.917Z" fill="#DCDCDC"/>
<path d="M120.078 111.223C120.078 114.196 117.554 116.605 114.439 116.605C111.325 116.605 108.801 114.196 108.801 111.223C108.801 108.251 111.325 105.841 114.439 105.841C117.554 105.841 120.078 108.251 120.078 111.223Z" fill="white"/>
<mask id="mask1_1207_10307" style="mask-type:alpha" maskUnits="userSpaceOnUse" x="108" y="105" width="13" height="12">
<path d="M120.078 111.223C120.078 114.196 117.554 116.605 114.439 116.605C111.325 116.605 108.801 114.196 108.801 111.223C108.801 108.251 111.325 105.841 114.439 105.841C117.554 105.841 120.078 108.251 120.078 111.223Z" fill="#D9D9D9"/>
</mask>
<g mask="url(#mask1_1207_10307)">
<path d="M123.133 110.589C122.793 114.194 119.595 116.841 115.989 116.501C112.384 116.161 109.737 112.962 110.077 109.357C110.418 105.752 113.616 103.105 117.221 103.445C120.827 103.785 123.473 106.984 123.133 110.589Z" fill="#676767"/>
</g>
<path d="M115.977 108.659C115.977 109.367 115.403 109.941 114.696 109.941C113.988 109.941 113.414 109.367 113.414 108.659C113.414 107.952 113.988 107.378 114.696 107.378C115.403 107.378 115.977 107.952 115.977 108.659Z" fill="white"/>
<path d="M115.208 111.479C115.516 112.191 116.171 112.753 117.002 113.016C116.171 113.28 115.516 113.842 115.208 114.554C114.901 113.842 114.245 113.28 113.414 113.016C114.245 112.753 114.901 112.191 115.208 111.479Z" fill="#B3B3B3"/>
<path d="M117.514 108.917C117.514 109.2 117.285 109.43 117.002 109.43C116.719 109.43 116.489 109.2 116.489 108.917C116.489 108.634 116.719 108.404 117.002 108.404C117.285 108.404 117.514 108.634 117.514 108.917Z" fill="#DCDCDC"/>
<path d="M105.791 116.823C105.745 117.149 105.249 117.288 104.682 117.136C104.116 116.983 103.694 116.595 103.74 116.27C103.786 115.944 104.282 115.805 104.849 115.957C105.416 116.11 105.837 116.498 105.791 116.823Z" fill="white"/>
<path d="M117.376 98.7629C117.36 98.9737 117.177 99.1318 116.966 99.116L111.814 98.7315C111.603 98.7157 111.445 98.5321 111.461 98.3213L111.47 98.2008C111.483 98.0253 111.615 97.8812 111.788 97.852C113.721 97.5262 114.827 97.3971 117.14 98.2436C117.299 98.3017 117.399 98.4592 117.386 98.6278L117.376 98.7629Z" fill="#9D9D9D"/>
<path d="M87.4598 98.7629C87.4755 98.9737 87.6591 99.1318 87.8699 99.116L93.0219 98.7315C93.2327 98.7157 93.3908 98.5321 93.375 98.3213L93.366 98.2008C93.3529 98.0253 93.2213 97.8812 93.0478 97.852C91.1151 97.5262 90.0092 97.3971 87.6958 98.2436C87.537 98.3017 87.4371 98.4592 87.4497 98.6278L87.4598 98.7629Z" fill="#9D9D9D"/>
<path d="M79.666 137.109H123.75V143.261H79.666V137.109Z" fill="#B3B3B3"/>
<path d="M108.884 144.542C108.884 148.364 105.786 151.462 101.964 151.462C98.1422 151.462 95.0439 148.364 95.0439 144.542C95.0439 140.72 98.1422 137.622 101.964 137.622C105.786 137.622 108.884 140.72 108.884 144.542Z" fill="#848484"/>
<path fill-rule="evenodd" clip-rule="evenodd" d="M102.239 149.118C102.815 148.98 103.246 148.417 103.246 147.743C103.246 146.966 102.672 146.53 101.964 146.53C101.256 146.53 100.683 146.966 100.683 147.743C100.683 148.417 101.114 148.98 101.69 149.118L101.69 151.16C101.69 151.327 101.812 151.462 101.964 151.462C102.116 151.462 102.239 151.327 102.239 151.16L102.239 149.118Z" fill="#525252"/>
<path d="M94.5312 145.055C94.5312 144.347 95.035 143.773 95.6565 143.773H108.784C109.406 143.773 109.909 144.347 109.909 145.055C109.909 145.763 109.406 146.336 108.784 146.336H95.6565C95.035 146.336 94.5312 145.763 94.5312 145.055Z" fill="#9F9F9F"/>
<path fill-rule="evenodd" clip-rule="evenodd" d="M141.704 71.949C154.546 71.949 164.956 61.5388 164.956 48.6972C164.956 35.8555 154.546 25.4453 141.704 25.4453C128.862 25.4453 118.452 35.8555 118.452 48.6972C118.452 55.4587 121.338 61.5461 125.946 65.7948L124.583 72.3724C124.253 73.9655 126.08 75.1112 127.37 74.12L132.602 70.1001C135.398 71.2904 138.474 71.949 141.704 71.949Z" fill="white"/>
<path fill-rule="evenodd" clip-rule="evenodd" d="M166.711 48.6972C166.711 62.508 155.515 73.7039 141.704 73.7039C138.6 73.7039 135.624 73.1375 132.878 72.1012L128.439 75.5116C125.859 77.4939 122.204 75.2024 122.864 72.0163L124.03 66.3885C119.502 61.8643 116.697 55.6071 116.697 48.6972C116.697 34.8863 127.893 23.6904 141.704 23.6904C155.515 23.6904 166.711 34.8863 166.711 48.6972ZM132.602 70.1001C135.398 71.2904 138.474 71.949 141.704 71.949C154.546 71.949 164.956 61.5388 164.956 48.6972C164.956 35.8555 154.546 25.4453 141.704 25.4453C128.862 25.4453 118.452 35.8555 118.452 48.6972C118.452 55.4587 121.338 61.5461 125.946 65.7948L124.583 72.3724C124.253 73.9654 126.08 75.1112 127.37 74.12L132.602 70.1001Z" fill="#C7C7C7"/>
<path fill-rule="evenodd" clip-rule="evenodd" d="M74.7448 128.104C68.3549 128.104 63.1748 133.327 63.1748 139.77V158.935C63.1748 161.696 65.3948 163.934 68.1334 163.934C69.4033 163.934 70.5618 163.453 71.4391 162.661C72.3163 163.453 73.4748 163.934 74.7448 163.934C76.0148 163.934 77.1732 163.453 78.0505 162.661C78.9278 163.453 80.0862 163.934 81.3562 163.934C84.0947 163.934 86.3148 161.696 86.3148 158.935V139.77C86.3148 133.327 81.1347 128.104 74.7448 128.104Z" fill="#DEDEDE"/>
<path fill-rule="evenodd" clip-rule="evenodd" d="M128.489 128.104C122.099 128.104 116.919 133.327 116.919 139.77V158.935C116.919 161.696 119.139 163.934 121.878 163.934C123.147 163.934 124.306 163.453 125.183 162.661C126.06 163.453 127.219 163.934 128.489 163.934C129.759 163.934 130.917 163.453 131.795 162.661C132.672 163.453 133.83 163.934 135.1 163.934C137.839 163.934 140.059 161.696 140.059 158.935V139.77C140.059 133.327 134.879 128.104 128.489 128.104Z" fill="#DEDEDE"/>
<path d="M107.923 125.823C107.923 127.568 105.763 128.982 103.097 128.982C100.432 128.982 98.2715 127.568 98.2715 125.823C98.2715 124.079 100.432 121.085 103.097 121.085C105.763 121.085 107.923 124.079 107.923 125.823Z" fill="#7A7A7A"/>
<path d="M51.32 220.75C51.32 224.11 49.04 226.495 45.215 227.575L44.66 226.495C47.735 225.64 49.595 223.96 49.85 221.845H45.35V220.75H51.32ZM46.895 232.96V227.98H55.475V232.96H46.895ZM48.23 231.865H54.125V229.075H48.23V231.865ZM51.365 224.395V223.255H54.11V219.91H55.475V227.425H54.11V224.395H51.365ZM60.3354 220.705H61.6404V222.415C61.6404 223.9 62.5704 225.4 64.2804 226.105L63.5454 227.155C62.3454 226.645 61.4754 225.715 61.0104 224.605C60.5304 225.835 59.6304 226.915 58.3554 227.485L57.6204 226.42C59.3754 225.64 60.3354 223.915 60.3354 222.415V220.705ZM59.9004 229.735V228.625H68.8404V233.155H67.4604V229.735H59.9004ZM64.7004 227.845V220.15H65.9904V223.315H67.5204V219.925H68.8404V227.92H67.5204V224.44H65.9904V227.845H64.7004ZM83.7877 219.91H85.1527V226.645H83.7877V225.37H80.4427V224.305H83.7877V222.835H80.6077C79.7977 224.89 77.8177 226.255 74.9077 226.945L74.4427 225.835C77.5927 225.115 79.3027 223.6 79.5277 221.65H75.1327V220.525H81.0277C81.0277 220.96 80.9977 221.38 80.9227 221.77H83.7877V219.91ZM76.5877 228.31V227.215H85.1527V230.56H77.9827V231.925H85.5427V233.02H76.6177V229.525H83.7877V228.31H76.5877ZM87.9281 221.32H94.6331V222.13C94.6331 223.255 94.6331 224.95 94.2581 227.35L92.9231 227.23C93.2681 225.1 93.2981 223.54 93.2981 222.445H87.9281V221.32ZM87.2081 229.18C88.0331 229.18 88.9481 229.165 89.9081 229.15V225.115H91.2581V229.105C92.6681 229.06 94.1081 228.97 95.4131 228.805L95.4881 229.795C92.7581 230.245 89.6981 230.305 87.3731 230.305L87.2081 229.18ZM96.1781 233.14V219.91H97.5281V225.4H99.5831V226.54H97.5281V233.14H96.1781ZM109.288 219.895H110.683V225.205H112.723V226.345H110.683V233.14H109.288V219.895ZM100.483 229.63C103.783 227.95 105.583 225.535 105.853 222.43H101.128V221.32H107.233C107.233 225.13 105.553 228.52 101.248 230.68L100.483 229.63ZM118.521 227.68H119.811V229.24H121.896V227.68H123.171V232.975H118.521V227.68ZM117.231 223.54C117.231 221.725 118.671 220.48 120.651 220.48C122.391 220.48 123.756 221.47 124.026 222.955H126.591V219.925H127.956V226.915H126.591V224.08H124.041C123.786 225.595 122.421 226.615 120.651 226.615C118.671 226.615 117.231 225.355 117.231 223.54ZM118.551 223.54C118.551 224.695 119.421 225.475 120.651 225.475C121.881 225.475 122.766 224.695 122.766 223.54C122.766 222.4 121.881 221.62 120.651 221.62C119.421 221.62 118.551 222.4 118.551 223.54ZM119.811 231.925H121.896V230.26H119.811V231.925ZM123.246 232.06C124.821 231.4 125.601 229.99 125.601 228.67V227.59H126.951V228.67C126.951 230.065 127.731 231.46 129.321 232.06L128.631 233.095C127.461 232.615 126.681 231.745 126.276 230.695C125.856 231.73 125.076 232.615 123.921 233.095L123.246 232.06ZM131.616 227.845H132.966V229.285H139.176V227.845H140.526V232.975H131.616V227.845ZM130.131 226.99V225.895H142.086V226.99H130.131ZM130.791 223.96C133.311 223.63 135.411 222.205 135.411 220.6V220.06H136.821V220.6C136.821 222.175 138.936 223.645 141.426 223.96L140.931 225.025C138.831 224.725 136.971 223.72 136.116 222.295C135.276 223.72 133.401 224.725 131.301 225.025L130.791 223.96ZM132.966 231.88H139.176V230.335H132.966V231.88ZM152.767 219.91H154.117V233.14H152.767V219.91ZM144.037 229.765V221.2H145.402V228.595C147.307 228.58 149.332 228.43 151.462 227.98L151.642 229.135C149.347 229.615 147.217 229.765 145.162 229.765H144.037ZM165.202 219.895H166.582V225.055H168.682V226.195H166.582V233.17H165.202V219.895ZM156.922 229.9V221.2H163.072V222.295H158.272V228.745C160.537 228.745 162.172 228.655 164.047 228.295L164.197 229.45C162.172 229.825 160.417 229.9 157.972 229.9H156.922ZM170.617 230.605C171.112 230.605 171.442 230.935 171.442 231.43C171.442 231.925 171.112 232.27 170.617 232.27C170.122 232.27 169.777 231.925 169.777 231.43C169.777 230.935 170.122 230.605 170.617 230.605Z" fill="#C7C7C7"/>
<path d="M138.1 51.4204C137.65 47.5504 137.32 43.7404 137.47 39.5704C137.53 37.5604 139.18 36.1504 141.55 36.1504C143.92 36.1504 145.57 37.5604 145.63 39.5704C145.75 43.7404 145.42 47.5504 144.97 51.4204C144.79 53.2504 143.71 54.4804 141.55 54.4804C139.39 54.4804 138.31 53.2504 138.1 51.4204ZM137.56 59.9704C137.56 57.4504 139.18 55.8604 141.55 55.8604C143.98 55.8604 145.54 57.4504 145.54 59.9704C145.54 62.0104 143.86 63.5404 141.55 63.5404C139.21 63.5404 137.56 62.0104 137.56 59.9704Z" fill="#9B9B9B"/>
<defs>
<radialGradient id="paint0_radial_1207_10307" cx="0" cy="0" r="1" gradientUnits="userSpaceOnUse" gradientTransform="translate(118.63 119.097) rotate(88.3762) scale(8.17648 10.1536)">
<stop stop-color="#8B8B8B" stop-opacity="0.56"/>
<stop offset="1" stop-color="#C2C2C2" stop-opacity="0"/>
</radialGradient>
<radialGradient id="paint1_radial_1207_10307" cx="0" cy="0" r="1" gradientUnits="userSpaceOnUse" gradientTransform="translate(87.5948 119.097) rotate(88.3762) scale(8.17648 10.1536)">
<stop stop-color="#8B8B8B" stop-opacity="0.56"/>
<stop offset="1" stop-color="#C2C2C2" stop-opacity="0"/>
</radialGradient>
</defs>
</svg>
