<svg width="61" height="61" viewBox="0 0 61 61" fill="none" xmlns="http://www.w3.org/2000/svg">
<g filter="url(#filter0_d_734_7008)">
<path d="M53 30.5C53 42.9264 42.9264 53 30.5 53C18.0736 53 8 42.9264 8 30.5C8 18.0736 18.0736 8 30.5 8C42.9264 8 53 18.0736 53 30.5Z" fill="white"/>
</g>
<path fill-rule="evenodd" clip-rule="evenodd" d="M51.8905 9.34641C53.1184 10.2663 53.3648 12.003 52.4407 13.2254L32.7578 39.264C32.2188 39.9771 31.3677 40.388 30.4715 40.3678C29.5754 40.3476 28.7438 39.8989 28.2378 39.1623L19.5388 26.5013C18.6713 25.2386 18.9962 23.5147 20.2646 22.651C21.5331 21.7873 23.2646 22.1108 24.1322 23.3736L30.6423 32.8488L47.9941 9.89416C48.9181 8.67175 50.6626 8.42652 51.8905 9.34641Z" fill="#A54BFF"/>
<defs>
<filter id="filter0_d_734_7008" x="0" y="0" width="61" height="61" filterUnits="userSpaceOnUse" color-interpolation-filters="sRGB">
<feFlood flood-opacity="0" result="BackgroundImageFix"/>
<feColorMatrix in="SourceAlpha" type="matrix" values="0 0 0 0 0 0 0 0 0 0 0 0 0 0 0 0 0 0 127 0" result="hardAlpha"/>
<feOffset/>
<feGaussianBlur stdDeviation="4"/>
<feComposite in2="hardAlpha" operator="out"/>
<feColorMatrix type="matrix" values="0 0 0 0 0.529412 0 0 0 0 0.133333 0 0 0 0 0.929412 0 0 0 1 0"/>
<feBlend mode="normal" in2="BackgroundImageFix" result="effect1_dropShadow_734_7008"/>
<feBlend mode="normal" in="SourceGraphic" in2="effect1_dropShadow_734_7008" result="shape"/>
</filter>
</defs>
</svg>
