<svg width="current" height="current" viewBox="0 0 43 40" fill="none" xmlns="http://www.w3.org/2000/svg">
<g filter="url(#filter0_d_303_4731)">
<path fill-rule="evenodd" clip-rule="evenodd" d="M15.4486 1.13454C16.6054 0.581362 17.9922 0.935724 18.7418 1.976L19.694 3.29738C20.2143 3.18178 20.7551 3.12082 21.3102 3.12082C21.8653 3.12082 22.4061 3.18178 22.9264 3.29737L23.8785 1.976C24.6281 0.935724 26.015 0.581362 27.1718 1.13454L36.2071 5.45534C37.6315 6.1365 38.1479 7.90427 37.3143 9.24516L34.9922 12.9804L37.7166 16.6885C38.6993 18.0261 38.2246 19.9275 36.7285 20.6462L34.8579 21.5448V24.068C34.8579 25.1202 34.2354 26.0728 33.2716 26.4951L21.5711 31.6227C21.5024 31.6529 21.43 31.6704 21.3571 31.6757C21.3329 31.6775 21.3085 31.6779 21.2842 31.6769C21.2043 31.6737 21.1246 31.6558 21.0492 31.6227L9.34875 26.4951C8.38499 26.0728 7.76242 25.1202 7.76242 24.068V21.5448L5.89186 20.6462C4.39576 19.9275 3.92104 18.0261 4.90377 16.6885L7.62817 12.9804L5.30602 9.24516C4.47241 7.90427 4.98891 6.1365 6.4133 5.45534L15.4486 1.13454ZM28.6638 9.55271C28.314 6.92118 26.5849 4.72542 24.2269 3.71618L24.9332 2.736C25.3151 2.20605 26.0216 2.02553 26.6109 2.30733L35.6462 6.62813C36.3718 6.97514 36.635 7.87571 36.2103 8.5588L33.967 12.1673L28.6638 9.55271ZM28.7131 11.0264C28.6001 12.7705 27.8843 14.3504 26.7721 15.5598L32.6677 12.9761L28.7131 11.0264ZM15.8484 15.5598C14.7361 14.3504 14.0203 12.7705 13.9073 11.0264L9.95269 12.9761L15.8484 15.5598ZM18.3934 3.71619C16.0356 4.72544 14.3064 6.92117 13.9566 9.55269L8.6534 12.1673L6.41006 8.5588C5.98539 7.87571 6.24851 6.97514 6.97415 6.62813L16.0095 2.30733C16.5987 2.02553 17.3053 2.20605 17.6871 2.736L18.3934 3.71619ZM8.62814 13.815L5.95141 17.4582C5.45077 18.1396 5.69261 19.1083 6.45477 19.4744L15.8837 24.0039C16.5099 24.3046 17.262 24.0812 17.6224 23.4873L20.3694 18.9605L8.62814 13.815ZM20.6601 20.9872L18.7338 24.1617C18.0264 25.3274 16.5499 25.7661 15.3208 25.1757L9.06242 22.1693V24.068C9.06242 24.604 9.37958 25.0893 9.87055 25.3045L20.6601 30.0329V20.9872ZM33.9922 13.815L36.669 17.4582C37.1696 18.1396 36.9278 19.1083 36.1656 19.4744L26.7367 24.0039C26.1105 24.3046 25.3583 24.0812 24.998 23.4873L22.251 18.9605L33.9922 13.815ZM21.9602 20.9872L23.8866 24.1617C24.5939 25.3274 26.0705 25.7661 27.2996 25.1757L33.5579 22.1693V24.068C33.5579 24.604 33.2408 25.0893 32.7498 25.3045L21.9602 30.0329V20.9872ZM18.1307 9.88864C17.7717 9.88864 17.4807 10.1797 17.4807 10.5386C17.4807 10.8976 17.7717 11.1886 18.1307 11.1886H20.66V13.7191C20.66 14.0781 20.951 14.3691 21.31 14.3691C21.669 14.3691 21.96 14.0781 21.96 13.7191V11.1886H24.4895C24.8485 11.1886 25.1395 10.8976 25.1395 10.5386C25.1395 10.1797 24.8485 9.88864 24.4895 9.88864H21.96V7.36029C21.96 7.0013 21.669 6.71029 21.31 6.71029C20.951 6.71029 20.66 7.0013 20.66 7.36029V9.88864H18.1307Z" fill="current"/>
</g>
<defs>
<filter id="filter0_d_303_4731" x="0.388672" y="0.875" width="41.8428" height="38.8027" filterUnits="userSpaceOnUse" color-interpolation-filters="sRGB">
<feFlood flood-opacity="0" result="BackgroundImageFix"/>
<feColorMatrix in="SourceAlpha" type="matrix" values="0 0 0 0 0 0 0 0 0 0 0 0 0 0 0 0 0 0 127 0" result="hardAlpha"/>
<feOffset dy="4"/>
<feGaussianBlur stdDeviation="2"/>
<feComposite in2="hardAlpha" operator="out"/>
<feColorMatrix type="matrix" values="0 0 0 0 0 0 0 0 0 0 0 0 0 0 0 0 0 0 0.25 0"/>
<feBlend mode="normal" in2="BackgroundImageFix" result="effect1_dropShadow_303_4731"/>
<feBlend mode="normal" in="SourceGraphic" in2="effect1_dropShadow_303_4731" result="shape"/>
</filter>
</defs>
</svg>
