<svg width="current" height="current" viewBox="0 0 66 33" fill="none" xmlns="http://www.w3.org/2000/svg">
<path d="M5.3649 11.5752C5.22183 10.3529 5.18607 9.09477 5.29337 7.72876C3.18317 7.47712 1.10875 7.18954 1.10875 4.49346C1.10875 2.3366 2.46785 1.54575 4.36345 1.36601C7.86852 0.970588 12.1247 0.79085 16.0589 0.79085C19.9574 0.79085 24.2493 0.970588 27.7544 1.36601C29.65 1.54575 31.0091 2.3366 31.0091 4.49346C31.0091 7.29739 28.7559 7.54902 26.6099 7.72876C26.7172 9.05882 26.6457 10.3529 26.5026 11.5392C26.9318 11.5752 27.361 11.6471 27.7544 11.683C29.65 11.8987 31.0091 12.6536 31.0091 14.8464C31.0091 17.0033 29.65 17.7222 27.7544 17.902C24.2493 18.2974 19.9574 18.5131 16.0589 18.5131C12.1247 18.5131 7.86852 18.2974 4.36345 17.902C2.46785 17.7222 1.10875 17.0033 1.10875 14.8464C1.10875 12.6536 2.46785 11.8987 4.36345 11.683C4.68534 11.6471 5.043 11.6111 5.3649 11.5752ZM14.3422 11.1078C14.9144 11.1078 15.4867 11.1078 16.0589 11.1078C16.5597 11.1078 17.0604 11.1078 17.5611 11.1078C17.5611 10.1373 17.6326 9.20261 17.7757 8.19608C17.2034 8.19608 16.6312 8.19608 16.0589 8.19608C15.4151 8.19608 14.7714 8.19608 14.1276 8.19608C14.2706 9.20261 14.3422 10.1373 14.3422 11.1078ZM10.086 27.0327C7.72545 26.9608 5.40066 26.817 3.29047 26.6373C1.25181 26.4575 0 25.0196 0 22.8627C0 21.0654 1.25181 19.1961 3.29047 19.4118C10.9444 20.1307 20.78 20.0588 28.7201 19.4118C30.7945 19.232 32.0463 21.0654 32.0463 22.8627C32.0463 25.0196 30.7945 26.4575 28.6843 26.6373C26.5384 26.817 24.2493 26.9248 21.9245 26.9967C22.0318 27.5 22.0676 28.1111 22.0676 28.8301C22.0676 32.8922 20.7085 33 16.0232 33C11.3378 33 9.94294 32.8922 9.94294 28.8301C9.94294 28.1111 9.97871 27.5359 10.086 27.0327Z" fill="#8722ED"/>
<path d="M57.5545 14.3072C57.5187 14.7386 57.5187 15.134 57.4829 15.5654C57.3041 18.4052 55.9092 19.8072 53.8706 19.8072C51.6888 19.8072 50.1867 18.1536 50.5086 14.9902C50.7947 11.4314 50.7947 8.7353 50.5443 5.53595C50.2582 2.01307 51.6888 0.395424 53.8706 0.395424C55.9092 0.395424 57.3041 1.79739 57.4829 4.63725C57.5187 5.21242 57.5187 5.75163 57.5545 6.3268L58.9493 6.43464C58.9136 6.03921 58.9136 5.64379 58.8778 5.24837C58.5559 1.68954 60.0223 0 62.2398 0C64.2069 0 65.6733 1.43791 65.8522 4.38562C66.031 8.12418 66.0668 12.2941 65.8522 16.0327C65.6376 18.9444 64.2069 20.3824 62.2398 20.3824C60.0223 20.3824 58.5559 18.7288 58.842 15.4575C58.8778 15.0261 58.8778 14.6307 58.9136 14.1993L57.5545 14.3072ZM41.0306 7.76471C41.3167 8.41177 41.424 9.84967 41.3167 10.4608C40.3152 10.7843 39.6357 11.0359 38.8846 11.4314C38.4197 11.6471 38.7058 12.402 39.2423 12.1144C40.816 11.3595 42.1393 10.8203 44.6072 10.7843C47.683 10.7484 49.5786 11.5033 49.829 14.3431C50.0794 17.0392 48.8276 18.2255 46.5385 18.9444C44.5356 19.5556 41.9247 19.5196 39.8145 19.5196C35.8445 19.5196 34.5927 17.902 34.1277 15.134C33.5197 12.0065 33.4124 8.12418 34.1277 5.03268C34.7 2.22876 35.8445 0.826798 38.527 0.575163C41.2094 0.287583 43.105 0.32353 45.4655 0.503268C48.2553 0.683006 49.3998 1.86928 49.3998 4.06209C49.3998 6.3268 48.4341 7.76471 45.4655 7.76471H41.0306ZM35.5584 27.1405C35.5584 22.719 40.2437 20.2026 50.7589 20.2026C61.2383 20.2026 65.8879 22.719 65.8879 27.1405C65.8879 31.634 61.9894 33 50.7589 33C39.5284 33 35.5584 31.634 35.5584 27.1405ZM48.148 27.3203C49.7932 28.183 51.6888 28.183 53.3341 27.3203C53.5844 27.1765 53.799 26.817 53.656 26.4575C53.5487 26.1699 53.191 25.9183 52.9049 26.098C51.5815 26.817 49.7932 26.781 48.5057 26.0621C48.2911 25.9183 47.8976 26.0261 47.7188 26.3856C47.54 26.7451 47.683 27.0686 48.148 27.3203Z" fill="#8722ED"/>
</svg>
