<svg width="153" height="143" viewBox="0 0 153 143" fill="none" xmlns="http://www.w3.org/2000/svg">
<g filter="url(#filter0_d_2386_13194)">
<g opacity="0.8">
<path d="M80.5832 20.2756C81.3944 18.7859 83.2796 18.47 84.195 19.898C88.9463 27.3097 94.3359 46.8657 91.5099 60.4906L68.8802 47.3843C67.5858 46.6346 67.1225 44.9936 67.8378 43.68C69.4603 40.7007 72.2885 35.5071 74.3405 31.7391C76.2868 28.1652 78.9315 23.3087 80.5832 20.2756Z" fill="#8B8B8B"/>
<path d="M79.2073 25.1837C80.0186 23.6939 81.8877 23.3983 82.7586 24.854C86.6376 31.3384 90.8539 47.1032 88.559 58.1673L70.1204 47.4884C68.826 46.7387 68.3631 45.097 69.0784 43.7833C70.4527 41.2597 72.6535 37.2184 74.273 34.2444C75.7938 31.4518 77.8271 27.7182 79.2073 25.1837Z" fill="#F1F1F1"/>
<path fill-rule="evenodd" clip-rule="evenodd" d="M79.9485 37.6023C79.6525 37.5294 79.3535 37.7102 79.2806 38.0062L76.5739 48.9919C76.501 49.2879 76.6818 49.5869 76.9778 49.6598C77.2738 49.7327 77.5728 49.5519 77.6457 49.256L80.3523 38.2703C80.4253 37.9743 80.2444 37.6753 79.9485 37.6023Z" fill="#B3B3B3"/>
<path d="M27.7918 20.2756C26.9806 18.7859 25.0954 18.47 24.18 19.898C19.4287 27.3097 14.0391 46.8657 16.8651 60.4906L39.4948 47.3843C40.7892 46.6346 41.2525 44.9936 40.5372 43.68C38.9147 40.7007 36.0865 35.5071 34.0345 31.7391C32.0882 28.1652 29.4435 23.3087 27.7918 20.2756Z" fill="#8B8B8B"/>
<path d="M29.1677 25.1837C28.3564 23.6939 26.4873 23.3983 25.6164 24.854C21.7374 31.3384 17.5211 47.1032 19.816 58.1673L38.2546 47.4884C39.549 46.7387 40.0119 45.097 39.2966 43.7833C37.9223 41.2597 35.7215 37.2184 34.102 34.2444C32.5812 31.4518 30.5479 27.7182 29.1677 25.1837Z" fill="#F1F1F1"/>
<path fill-rule="evenodd" clip-rule="evenodd" d="M28.4304 37.6023C28.7264 37.5294 29.0254 37.7102 29.0983 38.0062L31.805 48.9919C31.8779 49.2879 31.6971 49.5869 31.4011 49.6598C31.1051 49.7327 30.8061 49.5519 30.7332 49.256L28.0266 38.2703C27.9536 37.9743 28.1345 37.6753 28.4304 37.6023Z" fill="#B3B3B3"/>
<path d="M21.6602 109.334C21.6602 108.725 22.1544 108.23 22.764 108.23H84.3022C84.9119 108.23 85.4061 108.725 85.4061 109.334V122.028C85.4061 122.638 84.9119 123.132 84.3022 123.132H22.764C22.1544 123.132 21.6602 122.638 21.6602 122.028V109.334Z" fill="#7E7E7E"/>
<path d="M64.2946 125.063C64.2946 130.55 59.8468 134.998 54.3602 134.998C48.8736 134.998 44.4258 130.55 44.4258 125.063C44.4258 119.577 48.8736 115.129 54.3602 115.129C59.8468 115.129 64.2946 119.577 64.2946 125.063Z" fill="#AFAFAF"/>
<path fill-rule="evenodd" clip-rule="evenodd" d="M54.7753 131.643C55.6432 131.454 56.2931 130.681 56.2931 129.756C56.2931 128.689 55.4282 127.824 54.3614 127.824C53.2945 127.824 52.4297 128.689 52.4297 129.756C52.4297 130.681 53.0795 131.454 53.9474 131.643L53.9474 134.447C53.9474 134.676 54.1328 134.861 54.3614 134.861C54.59 134.861 54.7753 134.676 54.7753 134.447L54.7753 131.643Z" fill="#818181"/>
<path d="M42.7695 125.615C42.7695 124.7 43.5108 123.959 44.4253 123.959H63.7422C64.6566 123.959 65.3979 124.7 65.3979 125.615C65.3979 126.529 64.6566 127.27 63.7422 127.27H44.4253C43.5108 127.27 42.7695 126.529 42.7695 125.615Z" fill="#CDCDCD"/>
<path d="M4 89.3869C4 79.5233 11.996 71.5273 21.8596 71.5273H87.0996C96.9857 71.5273 105 79.5416 105 89.4278C105 95.7759 101.643 101.664 95.9647 104.503C85.5468 109.712 68.1737 117.277 55.0519 117.336C41.5939 117.395 23.7315 109.723 13.0953 104.473C7.38496 101.654 4 95.7551 4 89.3869Z" fill="#E8E8E8"/>
<path d="M10.6211 82.1531C10.6211 57.9967 30.2037 38.4141 54.3602 38.4141C78.5166 38.4141 98.0992 57.9967 98.0992 82.1531V90.8458H10.6211V82.1531Z" fill="#E8E8E8"/>
<path d="M63.2909 85.3025C63.1605 80.6999 67.8138 76.8285 73.6845 76.6555L81.4797 76.4257C87.3504 76.2527 92.2153 79.8436 92.3458 84.4463C92.4762 89.0489 87.8229 92.9203 81.9522 93.0933L74.157 93.3231C68.2863 93.4961 63.4214 89.9052 63.2909 85.3025Z" fill="url(#paint0_radial_2386_13194)"/>
<path d="M16.2362 85.3025C16.1058 80.6999 20.7591 76.8285 26.6298 76.6555L34.425 76.4257C40.2957 76.2527 45.1606 79.8436 45.2911 84.4463C45.4216 89.0489 40.7682 92.9203 34.8975 93.0933L27.1023 93.3231C21.2316 93.4961 16.3667 89.9052 16.2362 85.3025Z" fill="url(#paint1_radial_2386_13194)"/>
<path d="M61.6739 85.5487C61.6739 87.1947 58.4616 91.6749 54.4991 91.6749C50.5365 91.6749 47.3242 87.1947 47.3242 85.5487C47.3242 83.9027 50.5365 82.5684 54.4991 82.5684C58.4616 82.5684 61.6739 83.9027 61.6739 85.5487Z" fill="#8B8B8B"/>
<path d="M80.1784 76.7787C80.1784 81.0499 76.7159 84.5124 72.4447 84.5124C68.1734 84.5124 64.7109 81.0499 64.7109 76.7787C64.7109 72.5074 68.1734 69.0449 72.4447 69.0449C76.7159 69.0449 80.1784 72.5074 80.1784 76.7787Z" fill="white"/>
<mask id="mask0_2386_13194" style="mask-type:alpha" maskUnits="userSpaceOnUse" x="64" y="69" width="17" height="16">
<path d="M80.1784 76.7787C80.1784 81.0499 76.7159 84.5124 72.4447 84.5124C68.1734 84.5124 64.7109 81.0499 64.7109 76.7787C64.7109 72.5074 68.1734 69.0449 72.4447 69.0449C76.7159 69.0449 80.1784 72.5074 80.1784 76.7787Z" fill="#D9D9D9"/>
</mask>
<g mask="url(#mask0_2386_13194)">
<path d="M84.7904 75.6631C84.308 80.776 79.7721 84.5297 74.6591 84.0473C69.5462 83.5648 65.7925 79.0289 66.2749 73.916C66.7573 68.803 71.2933 65.0493 76.4062 65.5317C81.5191 66.0142 85.2729 70.5501 84.7904 75.6631Z" fill="#8B8B8B"/>
</g>
<path d="M75.5584 73.4394C75.5584 74.8491 74.4156 75.992 73.0058 75.992C71.596 75.992 70.4531 74.8491 70.4531 73.4394C70.4531 72.0296 71.596 70.8867 73.0058 70.8867C74.4156 70.8867 75.5584 72.0296 75.5584 73.4394Z" fill="white"/>
<path d="M76.2492 74.291C76.6596 75.4 77.534 76.2744 78.643 76.6848C77.534 77.0952 76.6596 77.9696 76.2492 79.0786C75.8389 77.9696 74.9645 77.0952 73.8555 76.6848C74.9645 76.2744 75.8389 75.4 76.2492 74.291Z" fill="#BCBCBC"/>
<path d="M72.0691 77.0424C72.0691 77.4886 71.7074 77.8504 71.2611 77.8504C70.8149 77.8504 70.4531 77.4886 70.4531 77.0424C70.4531 76.5961 70.8149 76.2344 71.2611 76.2344C71.7074 76.2344 72.0691 76.5961 72.0691 77.0424Z" fill="white"/>
<path d="M44.4675 76.7787C44.4675 81.0499 41.005 84.5124 36.7337 84.5124C32.4625 84.5124 29 81.0499 29 76.7787C29 72.5074 32.4625 69.0449 36.7337 69.0449C41.005 69.0449 44.4675 72.5074 44.4675 76.7787Z" fill="white"/>
<mask id="mask1_2386_13194" style="mask-type:alpha" maskUnits="userSpaceOnUse" x="29" y="69" width="16" height="16">
<path d="M44.4675 76.7787C44.4675 81.0499 41.005 84.5124 36.7337 84.5124C32.4625 84.5124 29 81.0499 29 76.7787C29 72.5074 32.4625 69.0449 36.7337 69.0449C41.005 69.0449 44.4675 72.5074 44.4675 76.7787Z" fill="#D9D9D9"/>
</mask>
<g mask="url(#mask1_2386_13194)">
<path d="M49.0795 75.6631C48.5971 80.776 44.0611 84.5297 38.9482 84.0473C33.8353 83.5648 30.0815 79.0289 30.564 73.916C31.0464 68.803 35.5823 65.0493 40.6953 65.5317C45.8082 66.0142 49.562 70.5501 49.0795 75.6631Z" fill="#8B8B8B"/>
</g>
<path d="M39.8475 73.4394C39.8475 74.8491 38.7046 75.992 37.2948 75.992C35.885 75.992 34.7422 74.8491 34.7422 73.4394C34.7422 72.0296 35.885 70.8867 37.2948 70.8867C38.7046 70.8867 39.8475 72.0296 39.8475 73.4394Z" fill="white"/>
<path d="M40.5383 74.291C40.9487 75.4 41.8231 76.2744 42.9321 76.6848C41.8231 77.0952 40.9487 77.9696 40.5383 79.0786C40.1279 77.9696 39.2535 77.0952 38.1445 76.6848C39.2535 76.2744 40.1279 75.4 40.5383 74.291Z" fill="#BCBCBC"/>
<path d="M36.3582 77.0424C36.3582 77.4886 35.9964 77.8504 35.5502 77.8504C35.1039 77.8504 34.7422 77.4886 34.7422 77.0424C34.7422 76.5961 35.1039 76.2344 35.5502 76.2344C35.9964 76.2344 36.3582 76.5961 36.3582 77.0424Z" fill="white"/>
<path d="M60.022 84.6438C59.9792 84.8625 59.0448 85.4852 58.2277 85.3257C57.4107 85.1661 57.0206 84.2847 57.0633 84.066C57.106 83.8472 57.8029 83.7993 58.62 83.9588C59.437 84.1184 60.0647 84.425 60.022 84.6438Z" fill="white"/>
<path d="M55.2765 74.7027C54.8434 75.3598 53.8796 75.3596 53.4481 74.7015C46.2469 63.7182 42.0787 54.9832 34.8325 43.9665C34.4465 43.3797 34.696 42.5833 35.3516 42.3312C49.7521 36.7947 58.6003 36.7872 73.8873 42.3456C74.5558 42.5887 74.8179 43.3956 74.4259 43.9891C67.1564 54.9956 62.5113 63.7264 55.2765 74.7027Z" fill="#8B8B8B"/>
<path d="M75.7059 62.9656C75.6116 62.6681 75.2896 62.5078 74.9954 62.6121L67.9902 65.094C67.7029 65.1958 67.5525 65.5112 67.6543 65.7985L67.8655 66.3947C67.9561 66.6505 68.2194 66.8025 68.4864 66.753L75.8243 65.3922C76.1505 65.3317 76.35 64.9991 76.2498 64.6828L75.7059 62.9656Z" fill="#8B8B8B"/>
<path d="M32.4231 62.9656C32.5173 62.6681 32.8393 62.5078 33.1335 62.6121L40.1387 65.094C40.426 65.1958 40.5764 65.5112 40.4746 65.7985L40.2634 66.3947C40.1728 66.6505 39.9095 66.8025 39.6426 66.753L32.3046 65.3922C31.9784 65.3317 31.7789 64.9991 31.8791 64.6828L32.4231 62.9656Z" fill="#8B8B8B"/>
<path fill-rule="evenodd" clip-rule="evenodd" d="M54.3183 93.1563C54.5106 93.0182 54.7696 93.0182 54.962 93.1563L60.3432 97.0197C60.5908 97.1975 60.6474 97.5423 60.4696 97.7899C60.2918 98.0375 59.947 98.0941 59.6994 97.9164L54.6401 94.2841L49.5809 97.9164C49.3333 98.0941 48.9884 98.0375 48.8107 97.7899C48.6329 97.5423 48.6895 97.1975 48.9371 97.0197L54.3183 93.1563Z" fill="#989898"/>
</g>
<path fill-rule="evenodd" clip-rule="evenodd" d="M147.812 34.6864C145.239 48.2555 132.153 57.1699 118.584 54.5971C115.535 54.0189 112.717 52.9082 110.211 51.3784L105.215 53.9022C102.311 55.3693 99.1466 52.4369 100.389 49.4296L102.583 44.1175C98.9765 38.8289 97.3865 32.1588 98.6737 25.3698C101.246 11.8007 114.332 2.88638 127.901 5.45911C141.47 8.03183 150.384 21.1174 147.812 34.6864ZM110.313 49.3609C112.838 51.0511 115.738 52.2713 118.911 52.873C131.528 55.2652 143.695 46.9764 146.088 34.3595C148.48 21.7427 140.191 9.57543 127.574 7.18325C114.957 4.79107 102.79 13.0798 100.398 25.6967C99.1383 32.3399 100.84 38.8584 104.575 43.891L102.011 50.0995C101.39 51.6032 102.972 53.0694 104.424 52.3358L110.313 49.3609Z" fill="#C7C7C7"/>
<path fill-rule="evenodd" clip-rule="evenodd" d="M131.297 24.6676C131.983 23.9823 131.983 22.8712 131.297 22.1859C130.612 21.5005 129.501 21.5005 128.816 22.1859L122.802 28.1993L116.789 22.1859C116.103 21.5005 114.992 21.5005 114.307 22.1859C113.622 22.8712 113.622 23.9823 114.307 24.6676L120.32 30.6811L114.307 36.6946C113.622 37.3799 113.622 38.491 114.307 39.1763C114.992 39.8617 116.103 39.8617 116.789 39.1763L122.802 33.1628L128.816 39.1764C129.501 39.8617 130.612 39.8617 131.298 39.1764C131.983 38.491 131.983 37.3799 131.298 36.6946L125.284 30.6811L131.297 24.6676Z" fill="#9B9B9B"/>
</g>
<defs>
<filter id="filter0_d_2386_13194" x="0" y="5.01758" width="152.254" height="137.98" filterUnits="userSpaceOnUse" color-interpolation-filters="sRGB">
<feFlood flood-opacity="0" result="BackgroundImageFix"/>
<feColorMatrix in="SourceAlpha" type="matrix" values="0 0 0 0 0 0 0 0 0 0 0 0 0 0 0 0 0 0 127 0" result="hardAlpha"/>
<feOffset dy="4"/>
<feGaussianBlur stdDeviation="2"/>
<feComposite in2="hardAlpha" operator="out"/>
<feColorMatrix type="matrix" values="0 0 0 0 0 0 0 0 0 0 0 0 0 0 0 0 0 0 0.25 0"/>
<feBlend mode="normal" in2="BackgroundImageFix" result="effect1_dropShadow_2386_13194"/>
<feBlend mode="normal" in="SourceGraphic" in2="effect1_dropShadow_2386_13194" result="shape"/>
</filter>
<radialGradient id="paint0_radial_2386_13194" cx="0" cy="0" r="1" gradientUnits="userSpaceOnUse" gradientTransform="translate(77.8183 84.8744) rotate(88.3762) scale(8.33714 14.5337)">
<stop stop-color="#B9B9B9"/>
<stop offset="1" stop-color="#C6C6C6" stop-opacity="0"/>
</radialGradient>
<radialGradient id="paint1_radial_2386_13194" cx="0" cy="0" r="1" gradientUnits="userSpaceOnUse" gradientTransform="translate(30.7637 84.8744) rotate(88.3762) scale(8.33714 14.5337)">
<stop stop-color="#B9B9B9"/>
<stop offset="1" stop-color="#C6C6C6" stop-opacity="0"/>
</radialGradient>
</defs>
</svg>
