<svg width="49" height="49" viewBox="0 0 49 49" fill="none" xmlns="http://www.w3.org/2000/svg">
<g filter="url(#filter0_d_690_5425)">
<path d="M47 24.5C47 36.9264 36.9264 47 24.5 47C12.0736 47 2 36.9264 2 24.5C2 12.0736 12.0736 2 24.5 2C36.9264 2 47 12.0736 47 24.5Z" fill="white"/>
</g>
<path fill-rule="evenodd" clip-rule="evenodd" d="M15.1059 33.968V35.6812H33.665V33.968H15.1059ZM14.4873 32.2549C13.8039 32.2549 13.25 32.7662 13.25 33.397V36.2522C13.25 36.883 13.8039 37.3943 14.4873 37.3943H34.2837C34.967 37.3943 35.5209 36.883 35.5209 36.2522V33.397C35.5209 32.7662 34.967 32.2549 34.2837 32.2549H14.4873Z" fill="#8722ED"/>
<path fill-rule="evenodd" clip-rule="evenodd" d="M31.1163 32.0832V23.9172C31.1163 20.1011 28.1031 17.0075 24.3861 17.0075C20.6691 17.0075 17.6558 20.1011 17.6558 23.9172V32.0832H31.1163ZM24.3861 15.123C19.6553 15.123 15.8203 19.0603 15.8203 23.9172V33.9677H32.9518V23.9172C32.9518 19.0603 29.1168 15.123 24.3861 15.123Z" fill="#8722ED"/>
<path fill-rule="evenodd" clip-rule="evenodd" d="M24.3933 19.394C24.4593 18.8659 24.9409 18.4913 25.469 18.5573C26.6182 18.701 28.8777 19.7068 29.502 22.5164C29.6175 23.0359 29.2899 23.5507 28.7704 23.6661C28.2509 23.7815 27.7362 23.454 27.6208 22.9345C27.2173 21.1189 25.7937 20.5401 25.2299 20.4696C24.7018 20.4036 24.3273 19.922 24.3933 19.394Z" fill="#8722ED"/>
<path fill-rule="evenodd" clip-rule="evenodd" d="M16.0891 11.1086C16.4475 10.7502 17.0286 10.7502 17.387 11.1086L19.8344 13.556C20.1928 13.9144 20.1928 14.4955 19.8344 14.8539C19.476 15.2123 18.8949 15.2123 18.5365 14.8539L16.0891 12.4066C15.7307 12.0481 15.7307 11.4671 16.0891 11.1086Z" fill="#8722ED"/>
<path fill-rule="evenodd" clip-rule="evenodd" d="M24.2793 8.00937C24.7918 8.00937 25.2073 8.42483 25.2073 8.93733L25.2073 12.4369C25.2073 12.9494 24.7918 13.3648 24.2793 13.3648C23.7668 13.3648 23.3513 12.9494 23.3513 12.4369L23.3513 8.93733C23.3513 8.42483 23.7668 8.00937 24.2793 8.00937Z" fill="#8722ED"/>
<path fill-rule="evenodd" clip-rule="evenodd" d="M32.6824 11.1086C32.324 10.7502 31.7429 10.7502 31.3845 11.1086L28.9371 13.556C28.5787 13.9144 28.5787 14.4955 28.9371 14.8539C29.2955 15.2123 29.8766 15.2123 30.235 14.8539L32.6824 12.4066C33.0408 12.0481 33.0408 11.4671 32.6824 11.1086Z" fill="#8722ED"/>
<defs>
<filter id="filter0_d_690_5425" x="0" y="0" width="49" height="49" filterUnits="userSpaceOnUse" color-interpolation-filters="sRGB">
<feFlood flood-opacity="0" result="BackgroundImageFix"/>
<feColorMatrix in="SourceAlpha" type="matrix" values="0 0 0 0 0 0 0 0 0 0 0 0 0 0 0 0 0 0 127 0" result="hardAlpha"/>
<feOffset/>
<feGaussianBlur stdDeviation="1"/>
<feComposite in2="hardAlpha" operator="out"/>
<feColorMatrix type="matrix" values="0 0 0 0 0.529412 0 0 0 0 0.133333 0 0 0 0 0.929412 0 0 0 0.5 0"/>
<feBlend mode="normal" in2="BackgroundImageFix" result="effect1_dropShadow_690_5425"/>
<feBlend mode="normal" in="SourceGraphic" in2="effect1_dropShadow_690_5425" result="shape"/>
</filter>
</defs>
</svg>
