<svg width="236" height="231" viewBox="0 0 236 231" fill="none" xmlns="http://www.w3.org/2000/svg">
<path d="M29.667 140.049C29.667 119.471 46.3489 102.789 66.927 102.789H169.513C190.091 102.789 206.773 119.471 206.773 140.049C206.773 160.627 190.091 177.309 169.513 177.309H66.927C46.3489 177.309 29.667 160.627 29.667 140.049Z" fill="white"/>
<path d="M41.2812 121.419C41.2812 79.0604 75.6199 44.7217 117.979 44.7217C160.338 44.7217 194.676 79.0604 194.676 121.419V136.662H41.2812V121.419Z" fill="white"/>
<path d="M26.5924 66.1679C32.8895 74.9675 45.1277 76.9962 53.9273 70.6991C62.7269 64.402 64.7556 52.1638 58.4585 43.3642C52.1614 34.5646 39.9232 32.5359 31.1236 38.833C22.324 45.1301 20.2953 57.3683 26.5924 66.1679Z" fill="white"/>
<path d="M39.1891 83.7709C45.4862 92.5705 57.7244 94.5992 66.524 88.3021C75.3236 82.0051 77.3523 69.7668 71.0552 60.9672C64.7581 52.1676 52.5199 50.139 43.7203 56.436C34.9207 62.7331 32.892 74.9714 39.1891 83.7709Z" fill="white"/>
<path d="M15.9078 83.3364C22.2049 92.136 34.4432 94.1646 43.2427 87.8676C52.0423 81.5705 54.071 69.3322 47.7739 60.5327C41.4769 51.7331 29.2386 49.7044 20.439 56.0015C11.6394 62.2985 9.61076 74.5368 15.9078 83.3364Z" fill="white"/>
<path d="M209.408 66.1674C203.111 74.967 190.872 76.9957 182.073 70.6986C173.273 64.4015 171.244 52.1633 177.541 43.3637C183.839 34.5641 196.077 32.5355 204.876 38.8325C213.676 45.1296 215.705 57.3679 209.408 66.1674Z" fill="white"/>
<path d="M196.811 83.77C190.514 92.5695 178.276 94.5982 169.476 88.3012C160.676 82.0041 158.648 69.7658 164.945 60.9662C171.242 52.1667 183.48 50.138 192.28 56.4351C201.079 62.7321 203.108 74.9704 196.811 83.77Z" fill="white"/>
<path d="M220.091 83.3359C213.794 92.1355 201.556 94.1641 192.756 87.8671C183.957 81.57 181.928 69.3317 188.225 60.5322C194.522 51.7326 206.76 49.7039 215.56 56.001C224.36 62.2981 226.388 74.5363 220.091 83.3359Z" fill="white"/>
<path d="M58.5 177.473H171.767V193.654H58.5V177.473Z" fill="#A54BFF"/>
<path d="M133.03 197.086C133.03 206.835 125.127 214.738 115.379 214.738C105.63 214.738 97.7266 206.835 97.7266 197.086C97.7266 187.337 105.63 179.434 115.379 179.434C125.127 179.434 133.03 187.337 133.03 197.086Z" fill="#D5AAFF"/>
<path fill-rule="evenodd" clip-rule="evenodd" d="M116.114 208.775C117.656 208.439 118.811 207.065 118.811 205.422C118.811 203.526 117.274 201.99 115.379 201.99C113.483 201.99 111.946 203.526 111.946 205.422C111.946 207.065 113.101 208.439 114.643 208.775L114.643 213.758C114.643 214.164 114.972 214.493 115.379 214.493C115.785 214.493 116.114 214.164 116.114 213.758L116.114 208.775Z" fill="#464646"/>
<path d="M94.7852 198.067C94.7852 196.442 96.1023 195.125 97.7272 195.125H132.05C133.675 195.125 134.992 196.442 134.992 198.067C134.992 199.691 133.675 201.009 132.05 201.009H97.7272C96.1023 201.009 94.7852 199.691 94.7852 198.067Z" fill="#E9D2FF"/>
<path d="M46.3564 136.469C46.022 124.902 55.128 115.254 66.6953 114.92L82.0544 114.476C93.6216 114.141 103.27 123.247 103.604 134.814C103.938 146.382 94.8323 156.03 83.2651 156.364L67.906 156.808C56.3388 157.142 46.6907 148.036 46.3564 136.469Z" fill="url(#paint0_radial_527_4959)"/>
<path d="M131.565 136.469C131.231 124.902 140.337 115.254 151.904 114.92L167.263 114.476C178.831 114.141 188.479 123.247 188.813 134.814C189.147 146.382 180.041 156.03 168.474 156.364L153.115 156.808C141.548 157.142 131.9 148.036 131.565 136.469Z" fill="url(#paint1_radial_527_4959)"/>
<path d="M130.497 128.172C130.497 131.389 124.79 138.528 117.749 138.528C110.708 138.528 105 131.389 105 128.172C105 124.955 110.708 122.347 117.749 122.347C124.79 122.347 130.497 124.955 130.497 128.172Z" fill="#DB00FF"/>
<g filter="url(#filter0_d_527_4959)">
<path d="M99.5314 113.484C99.5314 121.655 92.9079 128.278 84.7374 128.278C76.5669 128.278 69.9434 121.655 69.9434 113.484C69.9434 105.313 76.5669 98.6899 84.7374 98.6899C92.9079 98.6899 99.5314 105.313 99.5314 113.484Z" fill="white"/>
</g>
<mask id="mask0_527_4959" style="mask-type:alpha" maskUnits="userSpaceOnUse" x="69" y="98" width="31" height="31">
<path d="M99.5285 113.484C99.5285 121.655 92.905 128.279 84.7345 128.279C76.5639 128.279 69.9404 121.655 69.9404 113.484C69.9404 105.314 76.5639 98.6904 84.7345 98.6904C92.905 98.6904 99.5285 105.314 99.5285 113.484Z" fill="#D9D9D9"/>
</mask>
<g mask="url(#mask0_527_4959)">
<path d="M107.439 112.076C106.516 121.857 97.8394 129.038 88.0588 128.115C78.2781 127.192 71.0975 118.515 72.0204 108.734C72.9433 98.9537 81.6202 91.773 91.4008 92.6959C101.181 93.6188 108.362 102.296 107.439 112.076Z" fill="black"/>
</g>
<path d="M88.6105 105.559C88.6105 107.407 87.1123 108.905 85.2642 108.905C83.4161 108.905 81.918 107.407 81.918 105.559C81.918 103.711 83.4161 102.212 85.2642 102.212C87.1123 102.212 88.6105 103.711 88.6105 105.559Z" fill="white"/>
<path d="M88.6514 109.289C89.4364 111.41 91.109 113.083 93.2305 113.868C91.109 114.653 89.4364 116.325 88.6514 118.447C87.8664 116.325 86.1937 114.653 84.0723 113.868C86.1937 113.083 87.8664 111.41 88.6514 109.289Z" fill="#B56CFF"/>
<path d="M93.7915 107.301C93.7915 108.155 93.0995 108.847 92.2458 108.847C91.3922 108.847 90.7002 108.155 90.7002 107.301C90.7002 106.447 91.3922 105.755 92.2458 105.755C93.0995 105.755 93.7915 106.447 93.7915 107.301Z" fill="#ADFF98"/>
<g filter="url(#filter1_d_527_4959)">
<path d="M164.687 113.484C164.687 121.655 158.063 128.278 149.893 128.278C141.722 128.278 135.099 121.655 135.099 113.484C135.099 105.313 141.722 98.6899 149.893 98.6899C158.063 98.6899 164.687 105.313 164.687 113.484Z" fill="white"/>
</g>
<mask id="mask1_527_4959" style="mask-type:alpha" maskUnits="userSpaceOnUse" x="135" y="98" width="30" height="31">
<path d="M164.686 113.484C164.686 121.655 158.062 128.279 149.892 128.279C141.721 128.279 135.098 121.655 135.098 113.484C135.098 105.314 141.721 98.6904 149.892 98.6904C158.062 98.6904 164.686 105.314 164.686 113.484Z" fill="#D9D9D9"/>
</mask>
<g mask="url(#mask1_527_4959)">
<path d="M172.597 112.076C171.675 121.857 162.998 129.038 153.217 128.115C143.436 127.192 136.256 118.515 137.179 108.734C138.101 98.9537 146.778 91.773 156.559 92.6959C166.34 93.6188 173.52 102.296 172.597 112.076Z" fill="black"/>
</g>
<path d="M153.769 105.559C153.769 107.407 152.271 108.905 150.422 108.905C148.574 108.905 147.076 107.407 147.076 105.559C147.076 103.711 148.574 102.213 150.422 102.213C152.271 102.213 153.769 103.711 153.769 105.559Z" fill="white"/>
<path d="M153.812 109.288C154.597 111.41 156.269 113.082 158.391 113.867C156.269 114.652 154.597 116.325 153.812 118.446C153.027 116.325 151.354 114.652 149.232 113.867C151.354 113.082 153.027 111.41 153.812 109.288Z" fill="#B56CFF"/>
<path d="M158.946 107.301C158.946 108.154 158.254 108.846 157.4 108.846C156.547 108.846 155.854 108.154 155.854 107.301C155.854 106.447 156.547 105.755 157.4 105.755C158.254 105.755 158.946 106.447 158.946 107.301Z" fill="#ADFF98"/>
<path d="M126.558 127.448C126.318 128.448 124.704 128.918 122.954 128.497C121.204 128.077 119.98 126.925 120.22 125.925C120.46 124.925 122.074 124.455 123.824 124.875C125.575 125.296 126.799 126.448 126.558 127.448Z" fill="white"/>
<g filter="url(#filter2_d_527_4959)">
<path d="M116.887 14.0348C117.649 12.7703 119.483 12.7703 120.246 14.0348L144.019 53.449C144.669 54.5277 144.144 55.9337 142.943 56.3118C124.045 62.2589 112.786 62.2612 94.1754 56.3186C92.9789 55.9366 92.4591 54.5346 93.1078 53.4591L116.887 14.0348Z" fill="url(#paint2_linear_527_4959)"/>
</g>
<path d="M116.948 1.34561C117.28 -0.448538 119.851 -0.448538 120.184 1.34561C120.421 2.62902 121.987 3.13782 122.934 2.23936C124.258 0.98335 126.338 2.49442 125.552 4.14141C124.99 5.31955 125.958 6.65159 127.252 6.48126C129.061 6.24315 129.856 8.68811 128.252 9.55884C127.105 10.1817 127.105 11.8282 128.252 12.4511C129.856 13.3218 129.061 15.7668 127.252 15.5286C125.958 15.3583 124.99 16.6904 125.552 17.8685C126.338 19.5155 124.258 21.0266 122.934 19.7705C121.987 18.8721 120.421 19.3809 120.184 20.6643C119.851 22.4584 117.28 22.4584 116.948 20.6643C116.71 19.3809 115.144 18.8721 114.197 19.7705C112.873 21.0266 110.793 19.5155 111.579 17.8685C112.141 16.6904 111.173 15.3583 109.879 15.5286C108.07 15.7668 107.275 13.3218 108.879 12.4511C110.026 11.8282 110.026 10.1817 108.879 9.55884C107.275 8.68811 108.07 6.24315 109.879 6.48126C111.173 6.65159 112.141 5.31955 111.579 4.14141C110.793 2.49442 112.873 0.98335 114.197 2.23936C115.144 3.13782 116.71 2.62902 116.948 1.34561Z" fill="white"/>
<path fill-rule="evenodd" clip-rule="evenodd" d="M139.37 91.9822C139.37 91.1884 140.014 90.5449 140.807 90.5449H154.701C155.494 90.5449 156.138 91.1884 156.138 91.9822C156.138 92.7759 155.494 93.4194 154.701 93.4194H140.807C140.014 93.4194 139.37 92.7759 139.37 91.9822Z" fill="#8722ED"/>
<path fill-rule="evenodd" clip-rule="evenodd" d="M77.1738 91.9822C77.1738 91.1884 77.8173 90.5449 78.6111 90.5449H92.5043C93.298 90.5449 93.9415 91.1884 93.9415 91.9822C93.9415 92.7759 93.298 93.4194 92.5043 93.4194H78.6111C77.8173 93.4194 77.1738 92.7759 77.1738 91.9822Z" fill="#8722ED"/>
<path fill-rule="evenodd" clip-rule="evenodd" d="M100.253 139.415C100.516 138.956 101.101 138.796 101.561 139.059L117.846 148.364L133.656 139.065C134.112 138.796 134.699 138.949 134.967 139.405C135.236 139.861 135.083 140.448 134.627 140.716L118.339 150.298C118.043 150.472 117.676 150.474 117.378 150.304L100.61 140.722C100.15 140.46 99.9908 139.875 100.253 139.415Z" fill="#777777"/>
<g filter="url(#filter3_d_527_4959)">
<path d="M214.859 198.634C214.859 216.012 202.246 229.117 184.867 229.117C167.489 229.117 154.384 215.029 154.384 197.65C150.451 191.259 155.859 178.967 163.234 178.967C163.234 171.1 178.967 165.2 184.867 171.1C190.767 165.2 206.501 170.117 206.501 177.984C214.367 177.984 219.284 191.259 214.859 198.634Z" fill="white"/>
</g>
<g filter="url(#filter4_d_527_4959)">
<path d="M74.5807 198.634C74.5807 216.012 61.9675 229.117 44.5889 229.117C27.2104 229.117 14.1053 215.029 14.1053 197.65C10.1723 191.259 15.5805 178.967 22.9555 178.967C22.9555 171.1 38.6889 165.2 44.5889 171.1C50.4889 165.2 66.2222 170.117 66.2222 177.984C74.0889 177.984 79.0057 191.259 74.5807 198.634Z" fill="white"/>
</g>
<path fill-rule="evenodd" clip-rule="evenodd" d="M176.017 186.791C178.993 186.791 181.404 184.379 181.404 181.404C181.404 178.428 178.993 176.017 176.017 176.017C173.042 176.017 170.63 178.428 170.63 181.404C170.63 184.379 173.042 186.791 176.017 186.791ZM169.091 192.177C169.091 195.153 166.679 197.564 163.704 197.564C160.729 197.564 158.317 195.153 158.317 192.177C158.317 189.202 160.729 186.791 163.704 186.791C166.679 186.791 169.091 189.202 169.091 192.177ZM203.722 206.359C203.722 213.828 200.644 219.882 185.252 219.882C169.861 219.882 166.783 213.828 166.783 206.359C166.783 198.891 175.052 188.33 185.252 188.33C195.453 188.33 203.722 198.891 203.722 206.359ZM198.335 181.404C198.335 184.379 195.923 186.791 192.948 186.791C189.973 186.791 187.561 184.379 187.561 181.404C187.561 178.428 189.973 176.017 192.948 176.017C195.923 176.017 198.335 178.428 198.335 181.404ZM206.03 196.025C209.006 196.025 211.417 193.613 211.417 190.638C211.417 187.663 209.006 185.251 206.03 185.251C203.055 185.251 200.644 187.663 200.644 190.638C200.644 193.613 203.055 196.025 206.03 196.025Z" fill="url(#paint3_linear_527_4959)"/>
<path fill-rule="evenodd" clip-rule="evenodd" d="M35.4002 186.791C38.3753 186.791 40.7872 184.379 40.7872 181.404C40.7872 178.428 38.3753 176.017 35.4002 176.017C32.4251 176.017 30.0132 178.428 30.0132 181.404C30.0132 184.379 32.4251 186.791 35.4002 186.791ZM28.4741 192.177C28.4741 195.153 26.0623 197.564 23.0872 197.564C20.112 197.564 17.7002 195.153 17.7002 192.177C17.7002 189.202 20.112 186.791 23.0872 186.791C26.0623 186.791 28.4741 189.202 28.4741 192.177ZM63.1046 206.359C63.1046 213.828 60.0263 219.882 44.635 219.882C29.2437 219.882 26.1654 213.828 26.1654 206.359C26.1654 198.891 34.4345 188.33 44.635 188.33C54.8355 188.33 63.1046 198.891 63.1046 206.359ZM57.7176 181.404C57.7176 184.379 55.3058 186.791 52.3307 186.791C49.3555 186.791 46.9437 184.379 46.9437 181.404C46.9437 178.428 49.3555 176.017 52.3307 176.017C55.3058 176.017 57.7176 178.428 57.7176 181.404ZM65.4133 196.025C68.3884 196.025 70.8002 193.613 70.8002 190.638C70.8002 187.663 68.3884 185.251 65.4133 185.251C62.4381 185.251 60.0263 187.663 60.0263 190.638C60.0263 193.613 62.4381 196.025 65.4133 196.025Z" fill="url(#paint4_linear_527_4959)"/>
<defs>
<filter id="filter0_d_527_4959" x="67.9434" y="96.6899" width="33.5879" height="33.5879" filterUnits="userSpaceOnUse" color-interpolation-filters="sRGB">
<feFlood flood-opacity="0" result="BackgroundImageFix"/>
<feColorMatrix in="SourceAlpha" type="matrix" values="0 0 0 0 0 0 0 0 0 0 0 0 0 0 0 0 0 0 127 0" result="hardAlpha"/>
<feOffset/>
<feGaussianBlur stdDeviation="1"/>
<feComposite in2="hardAlpha" operator="out"/>
<feColorMatrix type="matrix" values="0 0 0 0 0 0 0 0 0 0 0 0 0 0 0 0 0 0 0.6 0"/>
<feBlend mode="normal" in2="BackgroundImageFix" result="effect1_dropShadow_527_4959"/>
<feBlend mode="normal" in="SourceGraphic" in2="effect1_dropShadow_527_4959" result="shape"/>
</filter>
<filter id="filter1_d_527_4959" x="133.099" y="96.6899" width="33.5879" height="33.5879" filterUnits="userSpaceOnUse" color-interpolation-filters="sRGB">
<feFlood flood-opacity="0" result="BackgroundImageFix"/>
<feColorMatrix in="SourceAlpha" type="matrix" values="0 0 0 0 0 0 0 0 0 0 0 0 0 0 0 0 0 0 127 0" result="hardAlpha"/>
<feOffset/>
<feGaussianBlur stdDeviation="1"/>
<feComposite in2="hardAlpha" operator="out"/>
<feColorMatrix type="matrix" values="0 0 0 0 0 0 0 0 0 0 0 0 0 0 0 0 0 0 0.6 0"/>
<feBlend mode="normal" in2="BackgroundImageFix" result="effect1_dropShadow_527_4959"/>
<feBlend mode="normal" in="SourceGraphic" in2="effect1_dropShadow_527_4959" result="shape"/>
</filter>
<filter id="filter2_d_527_4959" x="88.8262" y="13.0864" width="59.4736" height="55.6875" filterUnits="userSpaceOnUse" color-interpolation-filters="sRGB">
<feFlood flood-opacity="0" result="BackgroundImageFix"/>
<feColorMatrix in="SourceAlpha" type="matrix" values="0 0 0 0 0 0 0 0 0 0 0 0 0 0 0 0 0 0 127 0" result="hardAlpha"/>
<feOffset dy="4"/>
<feGaussianBlur stdDeviation="2"/>
<feComposite in2="hardAlpha" operator="out"/>
<feColorMatrix type="matrix" values="0 0 0 0 0 0 0 0 0 0 0 0 0 0 0 0 0 0 0.1 0"/>
<feBlend mode="normal" in2="BackgroundImageFix" result="effect1_dropShadow_527_4959"/>
<feBlend mode="normal" in="SourceGraphic" in2="effect1_dropShadow_527_4959" result="shape"/>
</filter>
<filter id="filter3_d_527_4959" x="150.062" y="163.497" width="69.4658" height="66.6201" filterUnits="userSpaceOnUse" color-interpolation-filters="sRGB">
<feFlood flood-opacity="0" result="BackgroundImageFix"/>
<feColorMatrix in="SourceAlpha" type="matrix" values="0 0 0 0 0 0 0 0 0 0 0 0 0 0 0 0 0 0 127 0" result="hardAlpha"/>
<feOffset dy="-2"/>
<feGaussianBlur stdDeviation="1.5"/>
<feComposite in2="hardAlpha" operator="out"/>
<feColorMatrix type="matrix" values="0 0 0 0 0 0 0 0 0 0 0 0 0 0 0 0 0 0 0.13 0"/>
<feBlend mode="normal" in2="BackgroundImageFix" result="effect1_dropShadow_527_4959"/>
<feBlend mode="normal" in="SourceGraphic" in2="effect1_dropShadow_527_4959" result="shape"/>
</filter>
<filter id="filter4_d_527_4959" x="9.78418" y="163.497" width="69.4658" height="66.6201" filterUnits="userSpaceOnUse" color-interpolation-filters="sRGB">
<feFlood flood-opacity="0" result="BackgroundImageFix"/>
<feColorMatrix in="SourceAlpha" type="matrix" values="0 0 0 0 0 0 0 0 0 0 0 0 0 0 0 0 0 0 127 0" result="hardAlpha"/>
<feOffset dy="-2"/>
<feGaussianBlur stdDeviation="1.5"/>
<feComposite in2="hardAlpha" operator="out"/>
<feColorMatrix type="matrix" values="0 0 0 0 0 0 0 0 0 0 0 0 0 0 0 0 0 0 0.13 0"/>
<feBlend mode="normal" in2="BackgroundImageFix" result="effect1_dropShadow_527_4959"/>
<feBlend mode="normal" in="SourceGraphic" in2="effect1_dropShadow_527_4959" result="shape"/>
</filter>
<radialGradient id="paint0_radial_527_4959" cx="0" cy="0" r="1" gradientUnits="userSpaceOnUse" gradientTransform="translate(74.9802 135.642) rotate(88.3444) scale(20.953 28.6358)">
<stop stop-color="#F3AAFF"/>
<stop offset="1" stop-color="#FFE297" stop-opacity="0"/>
</radialGradient>
<radialGradient id="paint1_radial_527_4959" cx="0" cy="0" r="1" gradientUnits="userSpaceOnUse" gradientTransform="translate(160.189 135.642) rotate(88.3444) scale(20.953 28.6358)">
<stop stop-color="#F3AAFF"/>
<stop offset="1" stop-color="#FFE297" stop-opacity="0"/>
</radialGradient>
<linearGradient id="paint2_linear_527_4959" x1="118.566" y1="11.2503" x2="118.566" y2="60.7738" gradientUnits="userSpaceOnUse">
<stop stop-color="#DB00FF"/>
<stop offset="1" stop-color="#8722ED"/>
</linearGradient>
<linearGradient id="paint3_linear_527_4959" x1="184.867" y1="176.017" x2="184.867" y2="219.882" gradientUnits="userSpaceOnUse">
<stop stop-color="#C791FF"/>
<stop offset="1" stop-color="#E59AFF"/>
</linearGradient>
<linearGradient id="paint4_linear_527_4959" x1="44.2502" y1="176.017" x2="44.2502" y2="219.882" gradientUnits="userSpaceOnUse">
<stop stop-color="#C791FF"/>
<stop offset="1" stop-color="#E59AFF"/>
</linearGradient>
</defs>
</svg>
