<svg width="8" height="14" viewBox="0 0 8 14" fill="none" xmlns="http://www.w3.org/2000/svg">
<path fill-rule="evenodd" clip-rule="evenodd" d="M2.45464 5.06163C2.45464 5.33777 2.6785 5.56163 2.95464 5.56163H5.08986C5.09045 5.56163 5.09093 5.56211 5.09093 5.5627C5.09093 5.56329 5.09141 5.56376 5.09199 5.56376H7.0658C7.58741 5.59765 8 6.03146 8 6.56163V12.091C8 12.6433 7.55228 13.091 7 13.091H1C0.447715 13.091 0 12.6433 0 12.091V6.56163C0 6.00935 0.447715 5.56163 1 5.56163C1.25109 5.56163 1.45464 5.35808 1.45464 5.10699V2.54546C1.45464 1.13964 2.59428 0 4.0001 0C5.40591 0 6.54555 1.13964 6.54555 2.54546V2.88194C6.54555 3.15809 6.3217 3.38194 6.04555 3.38194C5.76941 3.38194 5.54555 3.15809 5.54555 2.88194V2.54546C5.54555 1.69192 4.85363 1 4.0001 1C3.14657 1 2.45464 1.69192 2.45464 2.54546V5.06163ZM4 10.5C4.55228 10.5 5 10.0523 5 9.5C5 8.94771 4.55228 8.5 4 8.5C3.44772 8.5 3 8.94771 3 9.5C3 10.0523 3.44772 10.5 4 10.5Z" fill="current"/>
</svg>
