<svg width="102" height="102" viewBox="0 0 102 102" fill="none" xmlns="http://www.w3.org/2000/svg">
<circle cx="51" cy="51" r="51" fill="#A5A5A5"/>
<g filter="url(#filter0_d_1278_10080)">
<path fill-rule="evenodd" clip-rule="evenodd" d="M56.1357 34C57.0355 34 57.8198 34.5879 58.038 35.4258L58.962 38.9742C59.1802 39.8121 59.9645 40.4 60.8643 40.4H69.0392C70.1221 40.4 71 41.2428 71 42.2824V64.1176C71 65.1572 70.1221 66 69.0392 66H32.9608C31.8779 66 31 65.1572 31 64.1176V42.2824C31 41.2428 31.8779 40.4 32.9608 40.4H41.1357C42.0355 40.4 42.8198 39.8121 43.038 38.9742L43.962 35.4258C44.1802 34.5879 44.9645 34 45.8643 34H56.1357ZM51 62.8C56.5228 62.8 61 58.5019 61 53.2C61 47.8981 56.5228 43.6 51 43.6C45.4772 43.6 41 47.8981 41 53.2C41 58.5019 45.4772 62.8 51 62.8ZM57.6667 53.2C57.6667 56.7346 54.6819 59.6 51 59.6C47.3181 59.6 44.3333 56.7346 44.3333 53.2C44.3333 49.6654 47.3181 46.8 51 46.8C54.6819 46.8 57.6667 49.6654 57.6667 53.2ZM62.6667 46.8C63.5871 46.8 64.3333 46.0837 64.3333 45.2C64.3333 44.3163 63.5871 43.6 62.6667 43.6C61.7462 43.6 61 44.3163 61 45.2C61 46.0837 61.7462 46.8 62.6667 46.8Z" fill="white"/>
</g>
<defs>
<filter id="filter0_d_1278_10080" x="27" y="30" width="48" height="40" filterUnits="userSpaceOnUse" color-interpolation-filters="sRGB">
<feFlood flood-opacity="0" result="BackgroundImageFix"/>
<feColorMatrix in="SourceAlpha" type="matrix" values="0 0 0 0 0 0 0 0 0 0 0 0 0 0 0 0 0 0 127 0" result="hardAlpha"/>
<feOffset/>
<feGaussianBlur stdDeviation="2"/>
<feComposite in2="hardAlpha" operator="out"/>
<feColorMatrix type="matrix" values="0 0 0 0 0 0 0 0 0 0 0 0 0 0 0 0 0 0 0.25 0"/>
<feBlend mode="normal" in2="BackgroundImageFix" result="effect1_dropShadow_1278_10080"/>
<feBlend mode="normal" in="SourceGraphic" in2="effect1_dropShadow_1278_10080" result="shape"/>
</filter>
</defs>
</svg>
