<svg width="102" height="102" viewBox="0 0 102 102" fill="none" xmlns="http://www.w3.org/2000/svg">
<path d="M102 51C102 79.1665 79.1665 102 51 102C22.8335 102 0 79.1665 0 51C0 22.8335 22.8335 0 51 0C79.1665 0 102 22.8335 102 51Z" fill="#444444"/>
<g filter="url(#filter0_d_1278_10086)">
<path fill-rule="evenodd" clip-rule="evenodd" d="M53.0946 24C51.0627 24 49.3188 25.2334 48.5708 26.9923C47.6708 25.8564 46.2792 25.1277 44.7174 25.1277C42.1806 25.1277 40.0927 27.0502 39.8314 29.5177C39.3886 29.3867 38.9198 29.3163 38.4345 29.3163C35.7208 29.3163 33.5209 31.5162 33.5209 34.2299C33.5209 34.3594 33.5259 34.4878 33.5358 34.6148C33.0042 34.418 32.4294 34.3104 31.8294 34.3104C29.1157 34.3104 26.9158 36.5103 26.9158 39.224C26.9158 40.0864 27.138 40.897 27.5283 41.6015C25.4973 42.2047 24.016 44.0856 24.016 46.3124C24.016 47.4737 24.4189 48.541 25.0926 49.382C22.8272 49.8195 21.1162 51.8131 21.1162 54.2063C21.1162 55.5577 21.6618 56.7816 22.5446 57.6699C21.6618 58.5583 21.1162 59.7822 21.1162 61.1336C21.1162 63.6017 22.936 65.6449 25.307 65.9944C25.2005 66.3968 25.1437 66.8195 25.1437 67.2554C25.1437 69.9691 27.3436 72.169 30.0573 72.169C31.0889 72.169 32.0464 71.851 32.8369 71.3078C34.2458 71.8636 35.7809 72.169 37.3873 72.169H64.7744C66.1514 72.169 67.4761 71.9446 68.7138 71.5304C69.429 71.9368 70.2563 72.169 71.1378 72.169C73.8515 72.169 76.0514 69.9691 76.0514 67.2554C76.0514 67.1195 76.0459 66.9849 76.035 66.8517L76.0432 66.8519C76.0532 66.8521 76.0633 66.8522 76.0734 66.8523C76.0929 66.8525 76.1124 66.8527 76.1319 66.8527C78.8456 66.8527 81.0455 64.6528 81.0455 61.9391C81.0455 60.7689 80.6364 59.6942 79.9534 58.8503C81.1997 57.959 82.0121 56.4997 82.0121 54.8507C82.0121 52.4364 80.2708 50.4288 77.9756 50.0152C78.0865 49.6052 78.1457 49.174 78.1457 48.7289C78.1457 47.6082 77.7705 46.5752 77.1389 45.7485C77.7705 44.9219 78.1457 43.8888 78.1457 42.7682C78.1457 40.0545 75.9458 37.8546 73.2321 37.8546C73.055 37.8546 72.8801 37.864 72.7079 37.8823C73.0934 37.181 73.3127 36.3754 73.3127 35.5187C73.3127 32.805 71.1128 30.6051 68.3991 30.6051C67.3874 30.6051 66.4472 30.9109 65.6657 31.435C65.2583 29.1322 63.2471 27.3831 60.8274 27.3831C59.7617 27.3831 58.7752 27.7224 57.9701 28.2989C57.6676 25.8753 55.6001 24 53.0946 24Z" fill="#989898"/>
<path d="M56.2703 56.4497C56.1625 52.6492 58.8745 49.4859 62.3276 49.3841L66.9128 49.249C70.3659 49.1472 73.2525 52.1456 73.3603 55.946C73.468 59.7464 70.756 62.9098 67.3029 63.0116L62.7178 63.1467C59.2646 63.2485 56.378 60.2501 56.2703 56.4497Z" fill="url(#paint0_radial_1278_10086)"/>
<path d="M29.0447 56.4497C28.9369 52.6492 31.6489 49.4859 35.102 49.3841L39.6872 49.249C43.1403 49.1472 46.0269 52.1456 46.1347 55.946C46.2424 59.7464 43.5304 62.9098 40.0773 63.0116L35.4922 63.1467C32.0391 63.2485 29.1524 60.2501 29.0447 56.4497Z" fill="url(#paint1_radial_1278_10086)"/>
<path d="M54.7867 54.5198C54.7867 55.4487 53.272 57.5098 51.4036 57.5098C49.5352 57.5098 48.0205 55.4487 48.0205 54.5198C48.0205 53.5909 49.5352 52.8379 51.4036 52.8379C53.272 52.8379 54.7867 53.5909 54.7867 54.5198Z" fill="#CCCCCC"/>
<g filter="url(#filter1_d_1278_10086)">
<path d="M46.0879 49.6968C46.0879 52.2325 44.0323 54.2881 41.4966 54.2881C38.9609 54.2881 36.9053 52.2325 36.9053 49.6968C36.9053 47.1611 38.9609 45.1055 41.4966 45.1055C44.0323 45.1055 46.0879 47.1611 46.0879 49.6968Z" fill="white"/>
</g>
<mask id="mask0_1278_10086" style="mask-type:alpha" maskUnits="userSpaceOnUse" x="36" y="45" width="11" height="10">
<path d="M46.0879 49.6968C46.0879 52.2325 44.0323 54.2881 41.4966 54.2881C38.9609 54.2881 36.9053 52.2325 36.9053 49.6968C36.9053 47.1611 38.9609 45.1055 41.4966 45.1055C44.0323 45.1055 46.0879 47.1611 46.0879 49.6968Z" fill="#D9D9D9"/>
</mask>
<g mask="url(#mask0_1278_10086)">
<path d="M48.8271 49.0352C48.5407 52.0707 45.8478 54.2992 42.8124 54.0127C39.777 53.7263 37.5485 51.0335 37.8349 47.9981C38.1213 44.9626 40.8142 42.7341 43.8496 43.0206C46.885 43.307 49.1135 45.9998 48.8271 49.0352Z" fill="#250061"/>
</g>
<path d="M42.6991 47.2377C42.6991 47.8113 42.2341 48.2762 41.6606 48.2762C41.087 48.2762 40.6221 47.8113 40.6221 47.2377C40.6221 46.6642 41.087 46.1992 41.6606 46.1992C42.2341 46.1992 42.6991 46.6642 42.6991 47.2377Z" fill="white"/>
<path d="M42.0315 49.6172C42.2751 50.2756 42.7942 50.7947 43.4526 51.0383C42.7942 51.2819 42.2751 51.801 42.0315 52.4594C41.7878 51.801 41.2687 51.2819 40.6104 51.0383C41.2687 50.7947 41.7878 50.2756 42.0315 49.6172Z" fill="#FF6CD6"/>
<path d="M44.3061 47.7785C44.3061 48.0434 44.0913 48.2582 43.8264 48.2582C43.5614 48.2582 43.3467 48.0434 43.3467 47.7785C43.3467 47.5136 43.5614 47.2988 43.8264 47.2988C44.0913 47.2988 44.3061 47.5136 44.3061 47.7785Z" fill="#ADFF98"/>
<g filter="url(#filter2_d_1278_10086)">
<path d="M65.5811 49.6968C65.5811 52.2325 63.5255 54.2881 60.9898 54.2881C58.454 54.2881 56.3984 52.2325 56.3984 49.6968C56.3984 47.1611 58.454 45.1055 60.9898 45.1055C63.5255 45.1055 65.5811 47.1611 65.5811 49.6968Z" fill="white"/>
</g>
<mask id="mask1_1278_10086" style="mask-type:alpha" maskUnits="userSpaceOnUse" x="56" y="45" width="10" height="10">
<path d="M65.582 49.6968C65.582 52.2325 63.5264 54.2881 60.9907 54.2881C58.455 54.2881 56.3994 52.2325 56.3994 49.6968C56.3994 47.1611 58.455 45.1055 60.9907 45.1055C63.5264 45.1055 65.582 47.1611 65.582 49.6968Z" fill="#D9D9D9"/>
</mask>
<g mask="url(#mask1_1278_10086)">
<path d="M68.3213 49.0352C68.0348 52.0707 65.342 54.2992 62.3066 54.0127C59.2711 53.7263 57.0426 51.0335 57.3291 47.9981C57.6155 44.9626 60.3083 42.7341 63.3438 43.0206C66.3792 43.307 68.6077 45.9998 68.3213 49.0352Z" fill="#250061"/>
</g>
<path d="M62.1932 47.2358C62.1932 47.8093 61.7283 48.2743 61.1547 48.2743C60.5812 48.2743 60.1162 47.8093 60.1162 47.2358C60.1162 46.6622 60.5812 46.1973 61.1547 46.1973C61.7283 46.1973 62.1932 46.6622 62.1932 47.2358Z" fill="white"/>
<path d="M61.5256 49.6152C61.7692 50.2736 62.2883 50.7927 62.9467 51.0364C62.2883 51.28 61.7692 51.7991 61.5256 52.4575C61.282 51.7991 60.7629 51.28 60.1045 51.0364C60.7629 50.7927 61.282 50.2736 61.5256 49.6152Z" fill="#FF6CD6"/>
<path d="M63.7992 47.7785C63.7992 48.0434 63.5845 48.2582 63.3195 48.2582C63.0546 48.2582 62.8398 48.0434 62.8398 47.7785C62.8398 47.5136 63.0546 47.2988 63.3195 47.2988C63.5845 47.2988 63.7992 47.5136 63.7992 47.7785Z" fill="#ADFF98"/>
<path d="M54.0067 54.2842C53.968 54.5581 53.5499 54.676 53.0729 54.5473C52.596 54.4187 52.2407 54.0923 52.2795 53.8183C52.3182 53.5444 52.7363 53.4265 53.2132 53.5552C53.6902 53.6838 54.0454 54.0102 54.0067 54.2842Z" fill="white"/>
<path d="M63.7252 42.7295C63.7119 42.9069 63.5573 43.04 63.3799 43.0268L59.0422 42.703C58.8648 42.6898 58.7317 42.5352 58.7449 42.3577L58.7759 41.9421C58.7861 41.8061 58.8814 41.6909 59.0131 41.6552C60.6815 41.2033 61.6191 41.0105 63.5835 41.9903C63.6989 42.0478 63.7669 42.1702 63.7573 42.2988L63.7252 42.7295Z" fill="white"/>
<path d="M63.6578 42.7021C63.6445 42.8796 63.4899 43.0127 63.3125 42.9995L58.9748 42.6757C58.7974 42.6624 58.6643 42.5078 58.6775 42.3304L58.7085 41.9148C58.7187 41.7787 58.814 41.6636 58.9457 41.6279C60.6142 41.1759 61.5517 40.9831 63.5161 41.9629C63.6315 42.0205 63.6995 42.1429 63.6899 42.2715L63.6578 42.7021Z" fill="white"/>
<path d="M38.1254 42.7021C38.1387 42.8796 38.2933 43.0127 38.4707 42.9995L42.8084 42.6757C42.9858 42.6624 43.1189 42.5078 43.1057 42.3304L43.0747 41.9148C43.0645 41.7787 42.9692 41.6636 42.8375 41.6279C41.169 41.1759 40.2315 40.9831 38.2671 41.9629C38.1517 42.0205 38.0837 42.1429 38.0933 42.2715L38.1254 42.7021Z" fill="white"/>
<path d="M31.9307 71.2246H69.1448V76.5409H31.9307V71.2246Z" fill="#5A38BC"/>
<path d="M56.5582 77.6492C56.5582 80.8523 53.9616 83.4488 50.7586 83.4488C47.5556 83.4488 44.959 80.8523 44.959 77.6492C44.959 74.4462 47.5556 71.8496 50.7586 71.8496C53.9616 71.8496 56.5582 74.4462 56.5582 77.6492Z" fill="#FF73D8"/>
<path fill-rule="evenodd" clip-rule="evenodd" d="M50.9992 81.4892C51.5059 81.3786 51.8853 80.9273 51.8853 80.3875C51.8853 79.7647 51.3804 79.2598 50.7576 79.2598C50.1348 79.2598 49.6299 79.7647 49.6299 80.3875C49.6299 80.9273 50.0092 81.3786 50.5159 81.4892L50.5159 83.1262C50.5159 83.2596 50.6241 83.3678 50.7576 83.3678C50.891 83.3678 50.9992 83.2596 50.9992 83.1262L50.9992 81.4892Z" fill="#464646"/>
<path d="M44.3145 77.9725C44.3145 77.4386 44.7472 77.0059 45.2811 77.0059H56.5581C57.0919 77.0059 57.5247 77.4386 57.5247 77.9725C57.5247 78.5063 57.0919 78.9391 56.5581 78.9391H45.2811C44.7472 78.9391 44.3145 78.5063 44.3145 77.9725Z" fill="#FFA8E7"/>
<g filter="url(#filter3_d_1278_10086)">
<path fill-rule="evenodd" clip-rule="evenodd" d="M35.776 30.1219C35.776 33.3249 33.1795 35.9215 29.9764 35.9215C29.6004 35.9215 29.2327 35.8857 28.8766 35.8173C28.8646 35.8535 28.8522 35.8895 28.8395 35.9254C30.399 36.9649 31.4263 38.7397 31.4263 40.7545C31.4263 43.9575 28.8298 46.5541 25.6267 46.5541C25.6201 46.5541 25.6135 46.5541 25.6069 46.5541C25.62 46.7134 25.6267 46.8746 25.6267 47.0374C25.6267 50.2404 23.0301 52.837 19.8271 52.837C16.6241 52.837 14.0275 50.2404 14.0275 47.0374C14.0275 46.0094 14.295 45.0438 14.7641 44.2065C12.0552 43.7183 10 41.3487 10 38.4991C10 35.2961 12.5966 32.6995 15.7996 32.6995C16.4485 32.6995 17.0725 32.8061 17.6551 33.0026C18.1231 30.2691 20.5043 28.1887 23.3713 28.1887C23.7474 28.1887 24.115 28.2245 24.4711 28.2928C25.2371 25.986 27.4125 24.3223 29.9764 24.3223C33.1795 24.3223 35.776 26.9188 35.776 30.1219Z" fill="#989898"/>
</g>
<g filter="url(#filter4_d_1278_10086)">
<path fill-rule="evenodd" clip-rule="evenodd" d="M66.224 30.1219C66.224 33.3249 68.8205 35.9215 72.0236 35.9215C72.3996 35.9215 72.7673 35.8857 73.1234 35.8173C73.1354 35.8535 73.1478 35.8895 73.1605 35.9254C71.601 36.9649 70.5737 38.7397 70.5737 40.7545C70.5737 43.9575 73.1702 46.5541 76.3733 46.5541C76.3799 46.5541 76.3865 46.5541 76.3931 46.5541C76.38 46.7134 76.3733 46.8746 76.3733 47.0374C76.3733 50.2404 78.9699 52.837 82.1729 52.837C85.3759 52.837 87.9725 50.2404 87.9725 47.0374C87.9725 46.0094 87.705 45.0438 87.2359 44.2065C89.9448 43.7183 92 41.3487 92 38.4991C92 35.2961 89.4034 32.6995 86.2004 32.6995C85.5515 32.6995 84.9275 32.8061 84.3449 33.0026C83.8769 30.2691 81.4957 28.1887 78.6287 28.1887C78.2526 28.1887 77.885 28.2245 77.5289 28.2928C76.7629 25.986 74.5875 24.3223 72.0236 24.3223C68.8205 24.3223 66.224 26.9188 66.224 30.1219Z" fill="#989898"/>
</g>
</g>
<path d="M54.8614 59.9118C55.1213 60.46 54.8877 61.115 54.3396 61.3749C53.7914 61.6348 53.1364 61.4011 52.8765 60.853L52.4945 60.0474L54.4795 59.1062L54.8614 59.9118Z" fill="#FFA8E7"/>
<path fill-rule="evenodd" clip-rule="evenodd" d="M46.7423 58.5777C46.7743 58.4947 46.8676 58.4534 46.9506 58.4855L51.4829 60.2348L55.8544 58.4862C55.937 58.4531 56.0307 58.4933 56.0638 58.5759C56.0968 58.6585 56.0566 58.7523 55.974 58.7853L51.5438 60.5574C51.506 60.5725 51.4639 60.5728 51.4259 60.5581L46.8346 58.786C46.7516 58.754 46.7103 58.6607 46.7423 58.5777Z" fill="white"/>
<path fill-rule="evenodd" clip-rule="evenodd" d="M53.6266 59.8925C53.6675 59.875 53.7149 59.8941 53.7323 59.935L54.2088 61.053C54.2263 61.0939 54.2072 61.1412 54.1663 61.1586C54.1254 61.1761 54.0781 61.1571 54.0606 61.1161L53.5841 59.9982C53.5667 59.9572 53.5857 59.9099 53.6266 59.8925Z" fill="#FFCCF1"/>
<defs>
<filter id="filter0_d_1278_10086" x="7" y="21" width="88" height="65.4492" filterUnits="userSpaceOnUse" color-interpolation-filters="sRGB">
<feFlood flood-opacity="0" result="BackgroundImageFix"/>
<feColorMatrix in="SourceAlpha" type="matrix" values="0 0 0 0 0 0 0 0 0 0 0 0 0 0 0 0 0 0 127 0" result="hardAlpha"/>
<feOffset/>
<feGaussianBlur stdDeviation="1.5"/>
<feComposite in2="hardAlpha" operator="out"/>
<feColorMatrix type="matrix" values="0 0 0 0 0 0 0 0 0 0 0 0 0 0 0 0 0 0 0.25 0"/>
<feBlend mode="normal" in2="BackgroundImageFix" result="effect1_dropShadow_1278_10086"/>
<feBlend mode="normal" in="SourceGraphic" in2="effect1_dropShadow_1278_10086" result="shape"/>
</filter>
<filter id="filter1_d_1278_10086" x="28.9053" y="37.1055" width="25.1826" height="25.1836" filterUnits="userSpaceOnUse" color-interpolation-filters="sRGB">
<feFlood flood-opacity="0" result="BackgroundImageFix"/>
<feColorMatrix in="SourceAlpha" type="matrix" values="0 0 0 0 0 0 0 0 0 0 0 0 0 0 0 0 0 0 127 0" result="hardAlpha"/>
<feOffset/>
<feGaussianBlur stdDeviation="4"/>
<feComposite in2="hardAlpha" operator="out"/>
<feColorMatrix type="matrix" values="0 0 0 0 0 0 0 0 0 0 0 0 0 0 0 0 0 0 0.25 0"/>
<feBlend mode="normal" in2="BackgroundImageFix" result="effect1_dropShadow_1278_10086"/>
<feBlend mode="normal" in="SourceGraphic" in2="effect1_dropShadow_1278_10086" result="shape"/>
</filter>
<filter id="filter2_d_1278_10086" x="48.3984" y="37.1055" width="25.1826" height="25.1836" filterUnits="userSpaceOnUse" color-interpolation-filters="sRGB">
<feFlood flood-opacity="0" result="BackgroundImageFix"/>
<feColorMatrix in="SourceAlpha" type="matrix" values="0 0 0 0 0 0 0 0 0 0 0 0 0 0 0 0 0 0 127 0" result="hardAlpha"/>
<feOffset/>
<feGaussianBlur stdDeviation="4"/>
<feComposite in2="hardAlpha" operator="out"/>
<feColorMatrix type="matrix" values="0 0 0 0 0 0 0 0 0 0 0 0 0 0 0 0 0 0 0.25 0"/>
<feBlend mode="normal" in2="BackgroundImageFix" result="effect1_dropShadow_1278_10086"/>
<feBlend mode="normal" in="SourceGraphic" in2="effect1_dropShadow_1278_10086" result="shape"/>
</filter>
<filter id="filter3_d_1278_10086" x="6" y="18.3223" width="37.7764" height="40.5156" filterUnits="userSpaceOnUse" color-interpolation-filters="sRGB">
<feFlood flood-opacity="0" result="BackgroundImageFix"/>
<feColorMatrix in="SourceAlpha" type="matrix" values="0 0 0 0 0 0 0 0 0 0 0 0 0 0 0 0 0 0 127 0" result="hardAlpha"/>
<feOffset dx="2"/>
<feGaussianBlur stdDeviation="3"/>
<feComposite in2="hardAlpha" operator="out"/>
<feColorMatrix type="matrix" values="0 0 0 0 0 0 0 0 0 0 0 0 0 0 0 0 0 0 0.15 0"/>
<feBlend mode="normal" in2="BackgroundImageFix" result="effect1_dropShadow_1278_10086"/>
<feBlend mode="normal" in="SourceGraphic" in2="effect1_dropShadow_1278_10086" result="shape"/>
</filter>
<filter id="filter4_d_1278_10086" x="58.2236" y="18.3223" width="37.7764" height="40.5156" filterUnits="userSpaceOnUse" color-interpolation-filters="sRGB">
<feFlood flood-opacity="0" result="BackgroundImageFix"/>
<feColorMatrix in="SourceAlpha" type="matrix" values="0 0 0 0 0 0 0 0 0 0 0 0 0 0 0 0 0 0 127 0" result="hardAlpha"/>
<feOffset dx="-2"/>
<feGaussianBlur stdDeviation="3"/>
<feComposite in2="hardAlpha" operator="out"/>
<feColorMatrix type="matrix" values="0 0 0 0 0 0 0 0 0 0 0 0 0 0 0 0 0 0 0.15 0"/>
<feBlend mode="normal" in2="BackgroundImageFix" result="effect1_dropShadow_1278_10086"/>
<feBlend mode="normal" in="SourceGraphic" in2="effect1_dropShadow_1278_10086" result="shape"/>
</filter>
<radialGradient id="paint0_radial_1278_10086" cx="0" cy="0" r="1" gradientUnits="userSpaceOnUse" gradientTransform="translate(64.8153 56.1978) rotate(88.3762) scale(6.88407 8.5487)">
<stop stop-color="#F3AAFF"/>
<stop offset="1" stop-color="#C18FFF" stop-opacity="0"/>
</radialGradient>
<radialGradient id="paint1_radial_1278_10086" cx="0" cy="0" r="1" gradientUnits="userSpaceOnUse" gradientTransform="translate(37.5897 56.1978) rotate(88.3762) scale(6.88407 8.5487)">
<stop stop-color="#F3AAFF"/>
<stop offset="1" stop-color="#C18FFF" stop-opacity="0"/>
</radialGradient>
</defs>
</svg>
