<svg width="102" height="102" viewBox="0 0 102 102" fill="none" xmlns="http://www.w3.org/2000/svg">
<path d="M102 51C102 79.1665 79.1665 102 51 102C22.8335 102 0 79.1665 0 51C0 22.8335 22.8335 0 51 0C79.1665 0 102 22.8335 102 51Z" fill="#7967E3"/>
<g filter="url(#filter0_d_1278_10088)">
<path d="M24.167 29.4037C24.167 25.3051 27.4896 21.9824 31.5883 21.9824C35.687 21.9824 39.0096 25.3051 39.0096 29.4037V34.1099C39.0096 38.2086 35.687 41.5313 31.5883 41.5313C27.4896 41.5313 24.167 38.2086 24.167 34.1099V29.4037Z" fill="#B88344"/>
<path d="M26.1017 23.213C29.0189 20.3339 33.7177 20.3649 36.5968 23.2821C39.4758 26.1994 39.4448 30.8982 36.5276 33.7772L30.7085 39.5201C27.7913 42.3992 23.0925 42.3682 20.2134 39.451C17.3344 36.5337 17.3653 31.8349 20.2826 28.9559L26.1017 23.213Z" fill="#F2C287"/>
<path d="M78.9805 29.4037C78.9805 25.3051 75.6578 21.9824 71.5591 21.9824C67.4605 21.9824 64.1378 25.3051 64.1378 29.4037V34.1099C64.1378 38.2086 67.4605 41.5313 71.5591 41.5313C75.6578 41.5313 78.9805 38.2086 78.9805 34.1099V29.4037Z" fill="#B88344"/>
<path d="M77.0458 23.213C74.1286 20.3339 69.4297 20.3649 66.5507 23.2821C63.6717 26.1994 63.7026 30.8982 66.6199 33.7772L72.4389 39.5201C75.3562 42.3992 80.055 42.3682 82.934 39.451C85.8131 36.5337 85.7821 31.8349 82.8649 28.9559L77.0458 23.213Z" fill="#F2C287"/>
<path d="M18.6201 59.088C18.6201 51.3905 24.8602 45.1504 32.5577 45.1504H70.9314C78.6289 45.1504 84.869 51.3905 84.869 59.088C84.869 66.7855 78.6289 73.0256 70.9314 73.0256H32.5577C24.8602 73.0256 18.6201 66.7855 18.6201 59.088Z" fill="#F2C287"/>
<path d="M22.9639 52.1194C22.9639 36.2745 35.8087 23.4297 51.6536 23.4297C67.4985 23.4297 80.3433 36.2745 80.3433 52.1194V57.8212H22.9639V52.1194Z" fill="#F2C287"/>
<path d="M27.2192 56.4484C27.0981 52.1784 29.7199 48.6366 33.0751 48.5378L37.5302 48.4065C40.8854 48.3076 43.7034 51.689 43.8244 55.9591C43.9455 60.2291 41.3237 63.7709 37.9685 63.8698L33.5134 64.0011C30.1583 64.0999 27.3402 60.7185 27.2192 56.4484Z" fill="url(#paint0_radial_1278_10088)"/>
<path d="M58.2192 56.4484C58.0981 52.1784 60.7199 48.6366 64.0751 48.5378L68.5302 48.4065C71.8854 48.3076 74.7034 51.689 74.8244 55.9591C74.9455 60.2291 72.3237 63.7709 68.9685 63.8698L64.5134 64.0011C61.1583 64.0999 58.3402 60.7185 58.2192 56.4484Z" fill="url(#paint1_radial_1278_10088)"/>
<path d="M55.7269 53.759C55.7269 54.5148 53.6198 56.1918 51.0207 56.1918C48.4215 56.1918 46.3145 54.5148 46.3145 53.759C46.3145 53.0033 48.4215 52.3906 51.0207 52.3906C53.6198 52.3906 55.7269 53.0033 55.7269 53.759Z" fill="#9F3838"/>
<g filter="url(#filter1_d_1278_10088)">
<path d="M45.4092 48.8618C45.4092 51.7109 43.0995 54.0205 40.2505 54.0205C37.4014 54.0205 35.0918 51.7109 35.0918 48.8618C35.0918 46.0127 37.4014 43.7031 40.2505 43.7031C43.0995 43.7031 45.4092 46.0127 45.4092 48.8618Z" fill="white"/>
</g>
<mask id="mask0_1278_10088" style="mask-type:alpha" maskUnits="userSpaceOnUse" x="35" y="43" width="11" height="12">
<path d="M45.4092 48.8618C45.4092 51.7109 43.0995 54.0205 40.2505 54.0205C37.4014 54.0205 35.0918 51.7109 35.0918 48.8618C35.0918 46.0127 37.4014 43.7031 40.2505 43.7031C43.0995 43.7031 45.4092 46.0127 45.4092 48.8618Z" fill="#D9D9D9"/>
</mask>
<g mask="url(#mask0_1278_10088)">
<path d="M48.4866 48.118C48.1648 51.5285 45.1392 54.0324 41.7287 53.7106C38.3181 53.3888 35.8143 50.3631 36.1361 46.9526C36.4579 43.5421 39.4835 41.0382 42.894 41.36C46.3045 41.6818 48.8084 44.7075 48.4866 48.118Z" fill="#8976FF"/>
</g>
<path d="M41.6022 46.0985C41.6022 46.7429 41.0798 47.2653 40.4354 47.2653C39.791 47.2653 39.2686 46.7429 39.2686 46.0985C39.2686 45.4541 39.791 44.9316 40.4354 44.9316C41.0798 44.9316 41.6022 45.4541 41.6022 46.0985Z" fill="white"/>
<path d="M38.2491 47.3633C38.5228 48.103 39.1061 48.6863 39.8458 48.96C39.1061 49.2337 38.5228 49.817 38.2491 50.5567C37.9753 49.817 37.3921 49.2337 36.6523 48.96C37.3921 48.6863 37.9753 48.103 38.2491 47.3633Z" fill="#FFCD6C"/>
<path d="M43.407 46.705C43.407 47.0026 43.1657 47.2439 42.8681 47.2439C42.5704 47.2439 42.3291 47.0026 42.3291 46.705C42.3291 46.4073 42.5704 46.166 42.8681 46.166C43.1657 46.166 43.407 46.4073 43.407 46.705Z" fill="#ADFF98"/>
<g filter="url(#filter2_d_1278_10088)">
<path d="M67.4922 48.8618C67.4922 51.7109 65.1825 54.0205 62.3335 54.0205C59.4844 54.0205 57.1748 51.7109 57.1748 48.8618C57.1748 46.0127 59.4844 43.7031 62.3335 43.7031C65.1825 43.7031 67.4922 46.0127 67.4922 48.8618Z" fill="white"/>
</g>
<mask id="mask1_1278_10088" style="mask-type:alpha" maskUnits="userSpaceOnUse" x="57" y="43" width="11" height="12">
<path d="M67.4922 48.8618C67.4922 51.7109 65.1825 54.0205 62.3335 54.0205C59.4844 54.0205 57.1748 51.7109 57.1748 48.8618C57.1748 46.0127 59.4844 43.7031 62.3335 43.7031C65.1825 43.7031 67.4922 46.0127 67.4922 48.8618Z" fill="#D9D9D9"/>
</mask>
<g mask="url(#mask1_1278_10088)">
<path d="M70.5696 48.118C70.2478 51.5285 67.2222 54.0324 63.8117 53.7106C60.4012 53.3888 57.8973 50.3631 58.2191 46.9526C58.5409 43.5421 61.5665 41.0382 64.977 41.36C68.3875 41.6818 70.8914 44.7075 70.5696 48.118Z" fill="#8976FF"/>
</g>
<path d="M63.6852 46.0985C63.6852 46.7429 63.1628 47.2653 62.5184 47.2653C61.874 47.2653 61.3516 46.7429 61.3516 46.0985C61.3516 45.4541 61.874 44.9316 62.5184 44.9316C63.1628 44.9316 63.6852 45.4541 63.6852 46.0985Z" fill="white"/>
<path d="M60.3321 47.3633C60.6058 48.103 61.1891 48.6863 61.9288 48.96C61.1891 49.2337 60.6058 49.817 60.3321 50.5567C60.0584 49.817 59.4751 49.2337 58.7354 48.96C59.4751 48.6863 60.0584 48.103 60.3321 47.3633Z" fill="#FFCD6C"/>
<path d="M65.49 46.705C65.49 47.0026 65.2487 47.2439 64.9511 47.2439C64.6534 47.2439 64.4121 47.0026 64.4121 46.705C64.4121 46.4073 64.6534 46.166 64.9511 46.166C65.2487 46.166 65.49 46.4073 65.49 46.705Z" fill="#ADFF98"/>
<path d="M54.6409 53.754C54.6129 53.8975 54.1558 53.929 53.6199 53.8243C53.0839 53.7197 52.6722 53.5185 52.7002 53.375C52.7283 53.2315 53.1854 53.2001 53.7213 53.3047C54.2572 53.4094 54.669 53.6105 54.6409 53.754Z" fill="white"/>
<path d="M35.675 41.733C35.7418 41.9214 35.9487 42.0201 36.1371 41.9533L40.7438 40.3212C40.9322 40.2544 41.0309 40.0475 40.9641 39.8591L40.8432 39.5179C40.7764 39.3294 40.5695 39.2307 40.3811 39.2975L35.7744 40.9296C35.586 40.9964 35.4873 41.2033 35.5541 41.3918L35.675 41.733Z" fill="#A66F50"/>
<path d="M64.9383 41.733C64.8715 41.9214 64.6646 42.0201 64.4762 41.9533L59.8695 40.3212C59.6811 40.2544 59.5824 40.0475 59.6492 39.8591L59.7701 39.5179C59.8369 39.3294 60.0438 39.2307 60.2322 39.2975L64.8388 40.9296C65.0273 40.9964 65.1259 41.2033 65.0592 41.3918L64.9383 41.733Z" fill="#A66F50"/>
<path d="M29.4805 73.0254H71.2933V78.9986H29.4805V73.0254Z" fill="#DF9BFF"/>
<path d="M57.0326 80.2663C57.0326 83.8651 54.1151 86.7826 50.5163 86.7826C46.9174 86.7826 44 83.8651 44 80.2663C44 76.6674 46.9174 73.75 50.5163 73.75C54.1151 73.75 57.0326 76.6674 57.0326 80.2663Z" fill="#FFC163"/>
<path fill-rule="evenodd" clip-rule="evenodd" d="M50.7495 84.5811C51.3188 84.4568 51.745 83.9498 51.745 83.3432C51.745 82.6435 51.1778 82.0762 50.478 82.0762C49.7782 82.0762 49.2109 82.6435 49.2109 83.3432C49.2109 83.9498 49.6372 84.4568 50.2065 84.5811L50.2065 86.4204C50.2065 86.5703 50.328 86.6919 50.478 86.6919C50.6279 86.6919 50.7495 86.5703 50.7495 86.4204L50.7495 84.5811Z" fill="#464646"/>
<path d="M42.875 80.629C42.875 80.0292 43.3612 79.543 43.961 79.543H56.6316C57.2314 79.543 57.7176 80.0292 57.7176 80.629C57.7176 81.2288 57.2314 81.7151 56.6316 81.7151H43.961C43.3612 81.7151 42.875 81.2288 42.875 80.629Z" fill="#FFDBC7"/>
<path fill-rule="evenodd" clip-rule="evenodd" d="M51.383 56.7363C51.4156 56.7363 51.4474 56.7422 51.477 56.7531C51.5146 56.767 51.5477 56.7886 51.5748 56.8157C51.6132 56.8541 51.6396 56.9034 51.6498 56.9573C51.8804 58.0342 52.6324 58.674 53.5205 59.04C54.4164 59.4091 55.4224 59.485 56.0703 59.4398C56.2199 59.4293 56.3496 59.5421 56.3601 59.6917C56.3705 59.8413 56.2577 59.971 56.1081 59.9815C55.3984 60.0311 54.3048 59.9505 53.3136 59.542C52.5325 59.2201 51.7981 58.6858 51.383 57.8402C50.9679 58.6858 50.2335 59.2201 49.4524 59.542C48.4612 59.9505 47.3676 60.0311 46.6579 59.9815C46.5083 59.971 46.3955 59.8413 46.4059 59.6917C46.4164 59.5421 46.5461 59.4293 46.6957 59.4398C47.3436 59.485 48.3496 59.4091 49.2455 59.04C50.1336 58.674 50.8856 58.0342 51.1162 56.9573C51.1264 56.9034 51.1528 56.8541 51.1912 56.8157C51.2413 56.7658 51.31 56.7363 51.383 56.7363Z" fill="#8D5500"/>
<path fill-rule="evenodd" clip-rule="evenodd" d="M51.3828 56.9863C51.3777 56.9863 51.372 56.9885 51.3676 56.9928L51.1912 56.8157L51.368 56.9925C51.3647 56.9957 51.3626 56.9999 51.3618 57.004L51.3607 57.0097L51.3606 57.0097C51.1076 58.1916 50.2785 58.8847 49.3407 59.2711C48.401 59.6584 47.3546 59.7364 46.6783 59.6892C46.6665 59.6883 46.6562 59.6973 46.6553 59.7091C46.6545 59.721 46.6635 59.7313 46.6753 59.7321C47.3565 59.7797 48.4099 59.7013 49.3571 59.3109C50.1011 59.0043 50.7783 58.5047 51.1586 57.73L51.383 57.2729L51.6074 57.73C51.9878 58.5047 52.6649 59.0043 53.4089 59.3109C54.3562 59.7013 55.4095 59.7797 56.0907 59.7321C56.1026 59.7313 56.1115 59.721 56.1107 59.7091C56.1098 59.6973 56.0996 59.6883 56.0877 59.6892C55.4114 59.7364 54.365 59.6584 53.4253 59.2711C52.4875 58.8847 51.6585 58.1916 51.4054 57.0097L51.4042 57.004L51.4042 57.004C51.4035 56.9999 51.4013 56.9957 51.3981 56.9925L51.5744 56.8161L51.3981 56.9925C51.3959 56.9903 51.3935 56.9888 51.3908 56.9878L51.3902 56.9876C51.3879 56.9867 51.3856 56.9863 51.3833 56.9863H51.3828ZM51.383 56.4863C51.2421 56.4863 51.1105 56.5432 51.0148 56.6386L51.0144 56.6389C50.9417 56.7116 50.8914 56.8049 50.8712 56.9073C50.6625 57.8778 49.988 58.4636 49.1502 58.8088C48.2982 59.1599 47.3325 59.2337 46.7131 59.1904C46.4258 59.1703 46.1766 59.387 46.1566 59.6743C46.1365 59.9616 46.3531 60.2108 46.6405 60.2309C47.3787 60.2824 48.5126 60.1997 49.5476 59.7732C50.2431 59.4866 50.9194 59.0323 51.383 58.3396C51.8466 59.0323 52.5229 59.4866 53.2184 59.7732C54.2534 60.1997 55.3874 60.2824 56.1256 60.2309C56.4129 60.2108 56.6295 59.9616 56.6095 59.6743C56.5894 59.387 56.3402 59.1703 56.0529 59.1904C55.4335 59.2337 54.4678 59.1599 53.6158 58.8088C52.778 58.4636 52.1035 57.8778 51.8948 56.9073C51.8747 56.8049 51.8243 56.7116 51.7516 56.6389C51.6996 56.5869 51.636 56.5453 51.5638 56.5187" fill="#983333"/>
</g>
<defs>
<filter id="filter0_d_1278_10088" x="14.0742" y="17.0742" width="74.999" height="73.709" filterUnits="userSpaceOnUse" color-interpolation-filters="sRGB">
<feFlood flood-opacity="0" result="BackgroundImageFix"/>
<feColorMatrix in="SourceAlpha" type="matrix" values="0 0 0 0 0 0 0 0 0 0 0 0 0 0 0 0 0 0 127 0" result="hardAlpha"/>
<feOffset/>
<feGaussianBlur stdDeviation="2"/>
<feComposite in2="hardAlpha" operator="out"/>
<feColorMatrix type="matrix" values="0 0 0 0 0 0 0 0 0 0 0 0 0 0 0 0 0 0 0.25 0"/>
<feBlend mode="normal" in2="BackgroundImageFix" result="effect1_dropShadow_1278_10088"/>
<feBlend mode="normal" in="SourceGraphic" in2="effect1_dropShadow_1278_10088" result="shape"/>
</filter>
<filter id="filter1_d_1278_10088" x="27.0918" y="35.7031" width="26.3174" height="26.3164" filterUnits="userSpaceOnUse" color-interpolation-filters="sRGB">
<feFlood flood-opacity="0" result="BackgroundImageFix"/>
<feColorMatrix in="SourceAlpha" type="matrix" values="0 0 0 0 0 0 0 0 0 0 0 0 0 0 0 0 0 0 127 0" result="hardAlpha"/>
<feOffset/>
<feGaussianBlur stdDeviation="4"/>
<feComposite in2="hardAlpha" operator="out"/>
<feColorMatrix type="matrix" values="0 0 0 0 0 0 0 0 0 0 0 0 0 0 0 0 0 0 0.25 0"/>
<feBlend mode="normal" in2="BackgroundImageFix" result="effect1_dropShadow_1278_10088"/>
<feBlend mode="normal" in="SourceGraphic" in2="effect1_dropShadow_1278_10088" result="shape"/>
</filter>
<filter id="filter2_d_1278_10088" x="49.1748" y="35.7031" width="26.3174" height="26.3164" filterUnits="userSpaceOnUse" color-interpolation-filters="sRGB">
<feFlood flood-opacity="0" result="BackgroundImageFix"/>
<feColorMatrix in="SourceAlpha" type="matrix" values="0 0 0 0 0 0 0 0 0 0 0 0 0 0 0 0 0 0 127 0" result="hardAlpha"/>
<feOffset/>
<feGaussianBlur stdDeviation="4"/>
<feComposite in2="hardAlpha" operator="out"/>
<feColorMatrix type="matrix" values="0 0 0 0 0 0 0 0 0 0 0 0 0 0 0 0 0 0 0.25 0"/>
<feBlend mode="normal" in2="BackgroundImageFix" result="effect1_dropShadow_1278_10088"/>
<feBlend mode="normal" in="SourceGraphic" in2="effect1_dropShadow_1278_10088" result="shape"/>
</filter>
<radialGradient id="paint0_radial_1278_10088" cx="0" cy="0" r="1" gradientUnits="userSpaceOnUse" gradientTransform="translate(35.5218 56.2038) rotate(88.3762) scale(7.73475 8.30623)">
<stop stop-color="#FFB017"/>
<stop offset="1" stop-color="#FF7BF2" stop-opacity="0"/>
</radialGradient>
<radialGradient id="paint1_radial_1278_10088" cx="0" cy="0" r="1" gradientUnits="userSpaceOnUse" gradientTransform="translate(66.5218 56.2038) rotate(88.3762) scale(7.73475 8.30623)">
<stop stop-color="#FFB017"/>
<stop offset="1" stop-color="#FF7BF2" stop-opacity="0"/>
</radialGradient>
</defs>
</svg>
