<svg width="102" height="102" viewBox="0 0 102 102" fill="none" xmlns="http://www.w3.org/2000/svg">
<path d="M102 51C102 79.1665 79.1665 102 51 102C22.8335 102 0 79.1665 0 51C0 22.8335 22.8335 0 51 0C79.1665 0 102 22.8335 102 51Z" fill="#E2CAFB"/>
<g filter="url(#filter0_d_1278_10087)">
<path d="M20.5312 59.9826C20.5312 52.7597 26.3866 46.9043 33.6096 46.9043H69.6174C76.8404 46.9043 82.6957 52.7597 82.6957 59.9826C82.6957 67.2056 76.8404 73.0609 69.6174 73.0609H33.6096C26.3866 73.0609 20.5312 67.2056 20.5312 59.9826Z" fill="white"/>
<path d="M24.6074 53.4444C24.6074 38.5764 36.6603 26.5234 51.5284 26.5234C66.3964 26.5234 78.4493 38.5764 78.4493 53.4444V58.7946H24.6074V53.4444Z" fill="white"/>
<path d="M82.5931 35.089C79.5013 37.2948 75.2067 36.5767 73.0008 33.4849C70.7949 30.393 71.5131 26.0984 74.6049 23.8925C77.6967 21.6867 81.9913 22.4048 84.1972 25.4966C86.4031 28.5884 85.6849 32.8831 82.5931 35.089Z" fill="white"/>
<path d="M76.4095 39.5011C73.3177 41.7069 69.0231 40.9888 66.8172 37.897C64.6113 34.8052 65.3295 30.5105 68.4213 28.3047C71.5131 26.0988 75.8078 26.8169 78.0136 29.9088C80.2195 33.0006 79.5013 37.2952 76.4095 39.5011Z" fill="white"/>
<path d="M84.1879 42.005C81.096 44.2109 76.8014 43.4927 74.5955 40.4009C72.3897 37.3091 73.1078 33.0144 76.1996 30.8086C79.2914 28.6027 83.5861 29.3209 85.792 32.4127C87.9978 35.5045 87.2797 39.7991 84.1879 42.005Z" fill="white"/>
<path d="M19.4059 35.7706C22.4977 37.9765 26.7923 37.2583 28.9982 34.1665C31.2041 31.0747 30.4859 26.7801 27.3941 24.5742C24.3023 22.3683 20.0077 23.0865 17.8018 26.1783C15.5959 29.2701 16.3141 33.5647 19.4059 35.7706Z" fill="white"/>
<path d="M25.5895 40.1827C28.6813 42.3886 32.9759 41.6704 35.1818 38.5786C37.3877 35.4868 36.6695 31.1922 33.5777 28.9863C30.4859 26.7804 26.1913 27.4986 23.9854 30.5904C21.7795 33.6822 22.4977 37.9768 25.5895 40.1827Z" fill="white"/>
<path d="M17.8112 42.6866C20.903 44.8925 25.1976 44.1743 27.4035 41.0825C29.6094 37.9907 28.8912 33.6961 25.7994 31.4902C22.7076 29.2843 18.413 30.0025 16.2071 33.0943C14.0012 36.1861 14.7194 40.4807 17.8112 42.6866Z" fill="white"/>
<path d="M26.1755 58.0831C26.0597 54.0763 29.214 50.7342 33.2208 50.6184L38.5411 50.4646C42.5479 50.3488 45.89 53.5031 46.0058 57.5099C46.1216 61.5167 42.9673 64.8588 38.9605 64.9746L33.6402 65.1284C29.6334 65.2442 26.2913 62.0899 26.1755 58.0831Z" fill="url(#paint0_radial_1278_10087)"/>
<path d="M55.6921 58.0831C55.5763 54.0763 58.7306 50.7342 62.7374 50.6184L68.0577 50.4646C72.0645 50.3488 75.4066 53.5031 75.5224 57.5099C75.6382 61.5167 72.4839 64.8588 68.4771 64.9746L63.1568 65.1284C59.15 65.2442 55.8079 62.0899 55.6921 58.0831Z" fill="url(#paint1_radial_1278_10087)"/>
<path d="M54.9978 55.3046C54.9978 56.4911 53.012 59.1239 50.5624 59.1239C48.1128 59.1239 46.127 56.4911 46.127 55.3046C46.127 54.1181 48.1128 53.1562 50.5624 53.1562C53.012 53.1562 54.9978 54.1181 54.9978 55.3046Z" fill="#DB00FF"/>
<path fill-rule="evenodd" clip-rule="evenodd" d="M44.3872 60.24C44.2005 60.2213 44.0341 60.3575 44.0154 60.5442C43.9967 60.7309 44.1329 60.8973 44.3196 60.916C44.9559 60.9796 46.042 61.2164 47.1882 61.7215C48.3319 62.2256 49.5133 62.9871 50.371 64.0871C50.3889 64.1112 50.4103 64.1333 50.4351 64.1526C50.5832 64.2677 50.7966 64.2411 50.9118 64.093C51.7698 62.9898 52.9534 62.2265 54.0992 61.7215C55.2453 61.2164 56.3314 60.9796 56.9677 60.916C57.1544 60.8973 57.2906 60.7309 57.2719 60.5442C57.2533 60.3575 57.0868 60.2213 56.9001 60.24C56.1923 60.3108 55.0366 60.5659 53.8252 61.0998C52.7242 61.585 51.5589 62.3086 50.6437 63.3515C49.7284 62.3086 48.5631 61.585 47.4621 61.0998C46.2508 60.5659 45.095 60.3108 44.3872 60.24Z" fill="black"/>
<g filter="url(#filter1_d_1278_10087)">
<path d="M45.1599 50.1727C45.1599 53.1568 42.7408 55.5759 39.7567 55.5759C36.7726 55.5759 34.3535 53.1568 34.3535 50.1727C34.3535 47.1886 36.7726 44.7695 39.7567 44.7695C42.7408 44.7695 45.1599 47.1886 45.1599 50.1727Z" fill="white"/>
</g>
<mask id="mask0_1278_10087" style="mask-type:alpha" maskUnits="userSpaceOnUse" x="34" y="44" width="12" height="12">
<path d="M45.1589 50.1747C45.1589 53.1588 42.7398 55.5778 39.7557 55.5778C36.7716 55.5778 34.3525 53.1588 34.3525 50.1747C34.3525 47.1906 36.7716 44.7715 39.7557 44.7715C42.7398 44.7715 45.1589 47.1906 45.1589 50.1747Z" fill="#D9D9D9"/>
</mask>
<g mask="url(#mask0_1278_10087)">
<path d="M48.3842 49.3956C48.0471 52.9677 44.8781 55.5903 41.3059 55.2532C37.7338 54.9162 35.1112 51.7471 35.4483 48.175C35.7854 44.6028 38.9544 41.9803 42.5265 42.3173C46.0987 42.6544 48.7213 45.8234 48.3842 49.3956Z" fill="black"/>
</g>
<path d="M41.1709 47.2807C41.1709 47.9557 40.6237 48.5029 39.9487 48.5029C39.2737 48.5029 38.7266 47.9557 38.7266 47.2807C38.7266 46.6058 39.2737 46.0586 39.9487 46.0586C40.6237 46.0586 41.1709 46.6058 41.1709 47.2807Z" fill="white"/>
<path d="M41.1861 48.6426C41.4728 49.4174 42.0837 50.0283 42.8585 50.315C42.0837 50.6017 41.4728 51.2126 41.1861 51.9874C40.8994 51.2126 40.2885 50.6017 39.5137 50.315C40.2885 50.0283 40.8994 49.4174 41.1861 48.6426Z" fill="#B56CFF"/>
<path d="M43.0626 47.9161C43.0626 48.2278 42.8099 48.4806 42.4981 48.4806C42.1863 48.4806 41.9336 48.2278 41.9336 47.9161C41.9336 47.6043 42.1863 47.3516 42.4981 47.3516C42.8099 47.3516 43.0626 47.6043 43.0626 47.9161Z" fill="#ADFF98"/>
<g filter="url(#filter2_d_1278_10087)">
<path d="M66.9323 50.1727C66.9323 53.1568 64.5133 55.5759 61.5292 55.5759C58.5451 55.5759 56.126 53.1568 56.126 50.1727C56.126 47.1886 58.5451 44.7695 61.5292 44.7695C64.5133 44.7695 66.9323 47.1886 66.9323 50.1727Z" fill="white"/>
</g>
<mask id="mask1_1278_10087" style="mask-type:alpha" maskUnits="userSpaceOnUse" x="56" y="44" width="11" height="12">
<path d="M66.9314 50.1747C66.9314 53.1588 64.5123 55.5778 61.5282 55.5778C58.5441 55.5778 56.125 53.1588 56.125 50.1747C56.125 47.1906 58.5441 44.7715 61.5282 44.7715C64.5123 44.7715 66.9314 47.1906 66.9314 50.1747Z" fill="#D9D9D9"/>
</mask>
<g mask="url(#mask1_1278_10087)">
<path d="M70.1557 49.3956C69.8186 52.9677 66.6496 55.5903 63.0774 55.2532C59.5053 54.9162 56.8827 51.7471 57.2198 48.175C57.5568 44.6028 60.7259 41.9803 64.298 42.3173C67.8702 42.6544 70.4927 45.8234 70.1557 49.3956Z" fill="black"/>
</g>
<path d="M62.9443 47.2807C62.9443 47.9557 62.3971 48.5029 61.7221 48.5029C61.0472 48.5029 60.5 47.9557 60.5 47.2807C60.5 46.6058 61.0472 46.0586 61.7221 46.0586C62.3971 46.0586 62.9443 46.6058 62.9443 47.2807Z" fill="white"/>
<path d="M62.9595 48.6426C63.2462 49.4174 63.8571 50.0283 64.6319 50.315C63.8571 50.6017 63.2462 51.2126 62.9595 51.9874C62.6728 51.2126 62.0619 50.6017 61.2871 50.315C62.0619 50.0283 62.6728 49.4174 62.9595 48.6426Z" fill="#B56CFF"/>
<path d="M64.8361 47.9161C64.8361 48.2278 64.5833 48.4806 64.2715 48.4806C63.9598 48.4806 63.707 48.2278 63.707 47.9161C63.707 47.6043 63.9598 47.3516 64.2715 47.3516C64.5833 47.3516 64.8361 47.6043 64.8361 47.9161Z" fill="#ADFF98"/>
<path d="M53.9569 54.9576C53.8737 55.304 53.3147 55.4668 52.7084 55.3211C52.1021 55.1754 51.6781 54.7765 51.7614 54.43C51.8446 54.0836 52.4036 53.9208 53.0099 54.0665C53.6162 54.2122 54.0402 54.6111 53.9569 54.9576Z" fill="white"/>
<path d="M58.5762 42.4901C58.5762 42.3025 58.7283 42.1504 58.9159 42.1504H63.5018C63.6894 42.1504 63.8415 42.3025 63.8415 42.4901V42.8298C63.8415 43.0174 63.6894 43.1695 63.5018 43.1695H58.9159C58.7283 43.1695 58.5762 43.0174 58.5762 42.8298V42.4901Z" fill="#8722ED"/>
<path d="M37.0059 42.4901C37.0059 42.3025 37.1579 42.1504 37.3456 42.1504H41.9315C42.1191 42.1504 42.2712 42.3025 42.2712 42.4901V42.8298C42.2712 43.0174 42.1191 43.1695 41.9315 43.1695H37.3456C37.1579 43.1695 37.0059 43.0174 37.0059 42.8298V42.4901Z" fill="#8722ED"/>
<path d="M30.3818 73.0605H69.6168V78.6655H30.3818V73.0605Z" fill="#A54BFF"/>
<path d="M56.1988 79.8548C56.1988 83.2317 53.4612 85.9693 50.0843 85.9693C46.7073 85.9693 43.9697 83.2317 43.9697 79.8548C43.9697 76.4778 46.7073 73.7402 50.0843 73.7402C53.4612 73.7402 56.1988 76.4778 56.1988 79.8548Z" fill="#D5AAFF"/>
<path fill-rule="evenodd" clip-rule="evenodd" d="M50.3392 83.9052C50.8734 83.7886 51.2734 83.3128 51.2734 82.7436C51.2734 82.087 50.7411 81.5547 50.0844 81.5547C49.4278 81.5547 48.8955 82.087 48.8955 82.7436C48.8955 83.3128 49.2955 83.7886 49.8297 83.9052L49.8297 85.631C49.8297 85.7718 49.9437 85.8858 50.0844 85.8858C50.2252 85.8858 50.3392 85.7718 50.3392 85.631L50.3392 83.9052Z" fill="#464646"/>
<path d="M42.9512 80.1949C42.9512 79.632 43.4074 79.1758 43.9703 79.1758H55.8596C56.4225 79.1758 56.8787 79.632 56.8787 80.1949C56.8787 80.7577 56.4225 81.214 55.8596 81.214H43.9703C43.4074 81.214 42.9512 80.7577 42.9512 80.1949Z" fill="#E9D2FF"/>
</g>
<defs>
<filter id="filter0_d_1278_10087" x="11.9277" y="19.6133" width="78.1436" height="69.3555" filterUnits="userSpaceOnUse" color-interpolation-filters="sRGB">
<feFlood flood-opacity="0" result="BackgroundImageFix"/>
<feColorMatrix in="SourceAlpha" type="matrix" values="0 0 0 0 0 0 0 0 0 0 0 0 0 0 0 0 0 0 127 0" result="hardAlpha"/>
<feOffset/>
<feGaussianBlur stdDeviation="1.5"/>
<feComposite in2="hardAlpha" operator="out"/>
<feColorMatrix type="matrix" values="0 0 0 0 0 0 0 0 0 0 0 0 0 0 0 0 0 0 0.25 0"/>
<feBlend mode="normal" in2="BackgroundImageFix" result="effect1_dropShadow_1278_10087"/>
<feBlend mode="normal" in="SourceGraphic" in2="effect1_dropShadow_1278_10087" result="shape"/>
</filter>
<filter id="filter1_d_1278_10087" x="26.3535" y="36.7695" width="26.8066" height="26.8066" filterUnits="userSpaceOnUse" color-interpolation-filters="sRGB">
<feFlood flood-opacity="0" result="BackgroundImageFix"/>
<feColorMatrix in="SourceAlpha" type="matrix" values="0 0 0 0 0 0 0 0 0 0 0 0 0 0 0 0 0 0 127 0" result="hardAlpha"/>
<feOffset/>
<feGaussianBlur stdDeviation="4"/>
<feComposite in2="hardAlpha" operator="out"/>
<feColorMatrix type="matrix" values="0 0 0 0 0 0 0 0 0 0 0 0 0 0 0 0 0 0 0.25 0"/>
<feBlend mode="normal" in2="BackgroundImageFix" result="effect1_dropShadow_1278_10087"/>
<feBlend mode="normal" in="SourceGraphic" in2="effect1_dropShadow_1278_10087" result="shape"/>
</filter>
<filter id="filter2_d_1278_10087" x="48.126" y="36.7695" width="26.8066" height="26.8066" filterUnits="userSpaceOnUse" color-interpolation-filters="sRGB">
<feFlood flood-opacity="0" result="BackgroundImageFix"/>
<feColorMatrix in="SourceAlpha" type="matrix" values="0 0 0 0 0 0 0 0 0 0 0 0 0 0 0 0 0 0 127 0" result="hardAlpha"/>
<feOffset/>
<feGaussianBlur stdDeviation="4"/>
<feComposite in2="hardAlpha" operator="out"/>
<feColorMatrix type="matrix" values="0 0 0 0 0 0 0 0 0 0 0 0 0 0 0 0 0 0 0.25 0"/>
<feBlend mode="normal" in2="BackgroundImageFix" result="effect1_dropShadow_1278_10087"/>
<feBlend mode="normal" in="SourceGraphic" in2="effect1_dropShadow_1278_10087" result="shape"/>
</filter>
<radialGradient id="paint0_radial_1278_10087" cx="0" cy="0" r="1" gradientUnits="userSpaceOnUse" gradientTransform="translate(36.0907 57.7965) rotate(88.3444) scale(7.25801 9.91927)">
<stop stop-color="#F3AAFF"/>
<stop offset="1" stop-color="#FFE297" stop-opacity="0"/>
</radialGradient>
<radialGradient id="paint1_radial_1278_10087" cx="0" cy="0" r="1" gradientUnits="userSpaceOnUse" gradientTransform="translate(65.6073 57.7965) rotate(88.3444) scale(7.25801 9.91927)">
<stop stop-color="#F3AAFF"/>
<stop offset="1" stop-color="#FFE297" stop-opacity="0"/>
</radialGradient>
</defs>
</svg>
