<svg width="159" height="120" viewBox="0 0 159 120" fill="none" xmlns="http://www.w3.org/2000/svg">
<path d="M73.8512 85.5954L4.11684 89.896V75.5337L14.0309 74.9657V62.9566H5.3771V49.2434H72.5909V62.9566H63.9371V71.8011L73.8512 71.152V85.5954ZM77.968 102.879L47.7218 104.745V118.296L30.2462 119.919V105.8L0 107.666V93.6286L77.968 88.8411V102.879ZM46.8816 72.856V62.9566H31.2544V73.8297L46.8816 72.856Z" fill="white"/>
<path d="M157.404 82.9177L142.197 84.3783V73.9109L136.903 74.4789V83.8914L121.948 85.1897V84.3783L84.2247 88.1109V49.3246H117.748V62.7943H99.0957V73.0183L121.948 71.0709V49H136.903V57.9257L142.197 57.3577V49H157.404V82.9177ZM140.18 120H108.338C96.9113 120 89.6018 113.752 89.6018 104.258C89.6018 94.7646 96.9953 89.2469 108.338 88.4354L140.18 86.2446C151.606 85.4331 159 92.0057 159 103.122C159 113.427 151.69 120 140.18 120ZM137.324 100.526L111.11 101.986C108.59 102.149 106.405 102.392 106.489 104.177C106.573 105.962 108.758 105.881 111.278 105.881L137.492 104.826C140.012 104.745 142.113 104.258 142.029 102.473C141.944 100.688 139.844 100.363 137.324 100.526Z" fill="white"/>
<path d="M0 0H8.92925C15.3343 0 18.8051 2.96548 18.8051 8.0624C18.8051 12.2635 15.429 15.9395 9.56029 15.9395H5.58472V22.9207H0V0ZM5.58472 11.0279H9.81271C12.2107 11.0279 13.3465 9.45247 13.3465 7.93884C13.3465 6.27076 12.116 4.94247 9.87581 4.94247H5.58472V11.0279Z" fill="white"/>
<path d="M29.5956 18.4416C31.7096 18.4416 33.6343 17.1133 33.6343 14.3949C33.6343 11.8001 31.7096 10.3483 29.5956 10.3483C27.5448 10.3483 25.6832 11.8001 25.6832 14.3949C25.6832 17.1133 27.5448 18.4416 29.5956 18.4416ZM29.6587 23.3223C24.1371 23.3223 20.2247 19.7699 20.2247 14.3949C20.2247 8.80377 24.4842 5.46761 29.6587 5.46761C34.8333 5.46761 39.0928 8.80377 39.0928 14.3949C39.0928 19.7699 35.1804 23.3223 29.6587 23.3223Z" fill="white"/>
<path d="M50.0244 18.4416C52.1384 18.4416 54.0631 17.1133 54.0631 14.3949C54.0631 11.8001 52.1384 10.3483 50.0244 10.3483C47.9735 10.3483 46.1119 11.8001 46.1119 14.3949C46.1119 17.1133 47.9735 18.4416 50.0244 18.4416ZM50.0875 23.3223C44.5659 23.3223 40.6534 19.7699 40.6534 14.3949C40.6534 8.80377 44.913 5.46761 50.0875 5.46761C55.2621 5.46761 59.5216 8.80377 59.5216 14.3949C59.5216 19.7699 55.6091 23.3223 50.0875 23.3223Z" fill="white"/>
<path d="M76.0694 11.4604C76.0694 7.47549 74.4603 4.88069 71.1789 4.88069H67.4242V18.04H71.1789C74.4603 18.04 76.0694 15.507 76.0694 11.4604ZM81.3702 11.4604C81.3386 18.5343 77.7417 22.8898 69.8852 22.9207H61.9025V0H69.8852C77.7417 0.0308919 81.3386 4.41733 81.3702 11.4604Z" fill="white"/>
<path d="M95.9865 22.9207V21.438C94.9453 22.4882 93.3045 23.1369 91.4745 23.1369C86.8679 23.1369 83.1448 20.3568 83.3025 14.3332C83.4918 8.24774 87.4043 5.40583 91.6954 5.59117C93.5254 5.68384 95.0399 6.48699 95.9865 7.47549V5.93096H101.445V22.9207H95.9865ZM92.1371 18.4107C93.9987 18.4107 95.4185 17.5458 95.7972 15.6614C95.8287 15.5379 95.8603 14.951 95.8603 14.8274C95.8603 11.9237 94.2827 10.3174 92.2633 10.3174C90.5595 10.2247 88.761 11.553 88.761 14.3332C88.761 17.0206 90.2124 18.4107 92.1371 18.4107Z" fill="white"/>
<path d="M103.637 14.5185C103.637 8.83466 107.171 5.31316 112.283 5.31316C117.52 5.31316 120.549 9.08179 120.549 14.5803L120.423 16.2793H109.033C109.159 17.8547 110.705 18.7196 112.504 18.7196C114.144 18.7196 115.28 18.0709 116.29 16.8662L119.855 19.8934C117.994 22.3956 115.469 23.5385 112.283 23.5385C107.203 23.5385 103.543 20.0788 103.637 14.5185ZM115.217 12.1399C114.996 10.719 113.734 10.0394 112.314 10.0394C110.737 10.0394 109.538 10.8117 109.348 12.1399H115.217Z" fill="white"/>
<path d="M122.627 22.9207V5.93096H128.148V6.91946C128.937 6.27076 130.515 5.65295 132.029 5.52939H132.534C136.762 5.52939 138.718 8.30953 138.75 12.5415V22.9207H133.228V14.8583C133.228 11.3059 132.345 10.6881 130.799 10.7499C129.6 10.8117 129.063 11.1206 128.148 11.8001V22.9207H122.627Z" fill="white"/>
<path d="M149.881 17.5149C152.153 17.484 153.384 16.0321 153.384 14.1169C153.384 11.4295 151.775 10.1938 149.881 10.1012C148.335 10.0085 146.505 10.997 146.379 13.8389C146.253 16.3719 147.925 17.5458 149.881 17.5149ZM159 19.9861C159 23.1678 158.558 25.2993 156.034 27.06C154.078 28.3574 151.27 28.6354 148.462 28.5119C146.537 28.4192 144.044 27.8632 141.709 26.5349L143.981 22.3338C146.158 23.5385 148.209 24.1872 150.639 23.9401C152.753 23.693 153.478 22.4882 153.478 21.3762V20.6348C152.658 21.4997 150.86 22.0867 149.03 22.0867C145.306 22.0867 140.826 19.6463 141.015 14.086C141.236 7.96973 144.991 5.31316 149.345 5.52939C151.175 5.59117 152.563 6.23987 153.478 7.13569V5.93096H159V19.9861Z" fill="white"/>
</svg>
