<svg width="201" height="37" viewBox="0 0 201 37" fill="none" xmlns="http://www.w3.org/2000/svg">
<rect width="201" height="37" fill="#F5F5F5"/>
<rect x="-87" y="-303" width="375" height="812" rx="15" fill="white"/>
<path d="M7.47228 28.1242L0 29.5861V0H14.2396C20.7955 0 24.1792 4.3857 24.1792 9.67639C24.1792 14.9323 21.1832 19.2484 14.5921 20.0141L7.47228 20.8495V28.1242ZM7.47228 14.3405L13.006 13.7836C15.2618 13.5748 16.7069 12.3217 16.7069 10.1289C16.7069 7.97084 15.2265 6.50894 13.006 6.50894H7.47228V14.3405Z" fill="black"/>
<path d="M35.9826 23.5992C38.2737 23.5992 39.8598 21.5108 39.8598 18.587C39.8598 15.5936 38.2737 13.6444 35.9826 13.6444C33.6916 13.6444 32.1408 15.5936 32.1408 18.587C32.1408 21.5108 33.6916 23.5992 35.9826 23.5992ZM35.9826 29.7601C29.603 29.7601 24.8095 25.7225 24.8095 18.587C24.8095 11.4167 29.603 7.48354 35.9826 7.48354C42.3975 7.48354 47.1911 11.4167 47.1911 18.587C47.1911 25.7225 42.3975 29.7601 35.9826 29.7601Z" fill="black"/>
<path d="M60.1802 23.5992C62.4713 23.5992 64.0574 21.5108 64.0574 18.587C64.0574 15.5936 62.4713 13.6444 60.1802 13.6444C57.8892 13.6444 56.3384 15.5936 56.3384 18.587C56.3384 21.5108 57.8892 23.5992 60.1802 23.5992ZM60.1802 29.7601C53.8006 29.7601 49.0071 25.7225 49.0071 18.587C49.0071 11.4167 53.8006 7.48354 60.1802 7.48354C66.5951 7.48354 71.3887 11.4167 71.3887 18.587C71.3887 25.7225 66.5951 29.7601 60.1802 29.7601Z" fill="black"/>
<path d="M86.1049 28.8551H75.0023V0H86.1049C95.0928 0 99.3577 5.63876 99.3577 14.2013V14.5842C99.3577 23.2164 95.0928 28.8551 86.1049 28.8551ZM91.8854 14.4798V14.3754C91.8854 9.53716 90.8985 6.50894 86.1049 6.50894H82.4745V22.3462H86.1049C91.2509 22.3462 91.8854 19.3528 91.8854 14.4798Z" fill="black"/>
<path d="M124.793 28.1242L117.462 29.5861V26.9059C116.334 28.9247 114.536 29.7601 111.928 29.7601C106.253 29.7601 101.636 25.7225 101.636 18.587C101.636 11.4167 106.253 7.48354 111.928 7.48354C114.113 7.48354 116.017 8.31891 117.462 9.85042V8.21449H124.793V28.1242ZM113.197 23.5992C115.488 23.5992 117.462 21.5108 117.462 18.587C117.462 15.5936 115.488 13.6444 113.197 13.6444C110.906 13.6444 108.967 15.5936 108.967 18.587C108.967 21.5108 110.906 23.5992 113.197 23.5992Z" fill="black"/>
<path d="M149.863 19.0743L135.306 20.571C135.87 22.4506 137.21 24.0169 138.831 24.0169C140.417 24.0169 141.616 23.5644 142.144 21.7197L149.758 20.9887C148.841 27.0452 143.942 29.7601 138.831 29.7601C132.451 29.7601 127.658 25.7225 127.658 18.587C127.658 11.4167 132.451 7.48354 138.831 7.48354C144.224 7.48354 148.348 10.2333 149.652 15.1063C150.004 16.4638 150.004 17.9953 149.863 19.0743ZM135.165 16.9511L142.708 16.2549C142.179 13.9925 140.558 13.0527 138.937 13.2267C137.139 13.3659 135.588 14.619 135.165 16.9511Z" fill="black"/>
<path d="M175.226 27.7761L167.894 29.2032V18.0997C167.894 15.2107 166.097 13.8184 164.052 13.9925C161.656 14.2361 160.281 15.7328 160.175 18.3782V28.1242L152.844 29.5861V8.21449H160.175V9.95485C161.339 8.42333 164.334 7.55315 166.449 7.48354C171.701 7.3095 175.226 11.1383 175.226 17.5428V27.7761Z" fill="black"/>
<path d="M193.669 27.2888V24.2258C192.541 25.8269 190.743 26.4882 188.135 26.4882C182.46 26.4882 177.843 23.7385 177.843 17.334C177.843 11.2079 182.46 7.48354 188.135 7.48354C190.32 7.48354 192.224 8.17968 193.669 9.50235V8.21449H201V26.9755C201 34.0762 196.347 37 189.968 37C183.588 37 178.971 34.4243 178.971 28.7507L186.302 27.6369C186.302 30.1778 187.677 31.1872 189.968 31.1872C192.259 31.1872 193.669 29.8297 193.669 27.2888ZM193.669 17.334V17.1599C193.563 14.793 191.624 13.6444 189.404 13.6444C187.113 13.6444 185.174 14.8627 185.174 17.334C185.174 19.7008 187.113 21.0583 189.404 21.0583C191.695 21.0583 193.669 19.7008 193.669 17.334Z" fill="black"/>
</svg>
