<svg width="current" height="current" viewBox="0 0 234 226" fill="none" xmlns="http://www.w3.org/2000/svg">
<rect opacity="0.8" width="234" height="226" rx="14" fill="url(#paint0_linear_734_7465)"/>
<mask id="mask0_734_7465" style="mask-type:alpha" maskUnits="userSpaceOnUse" x="0" y="0" width="234" height="226">
<rect width="234" height="226" rx="14" fill="#D6F5B6"/>
</mask>
<g mask="url(#mask0_734_7465)">
<path fill-rule="evenodd" clip-rule="evenodd" d="M75.9156 80.4568C38.3257 50.0407 27.2642 13.0119 27 -4.54146L57.5876 -5C57.7132 3.34151 64.4988 31.913 95.1804 56.7393C140.412 93.3385 165.426 137.536 172.534 180.479C177.209 208.716 189.144 223.443 192 225.908L171.986 249C162.762 241.036 147.966 219.366 142.352 185.456C136.601 150.713 116.024 112.911 75.9156 80.4568Z" fill="#76B5FF"/>
<path fill-rule="evenodd" clip-rule="evenodd" d="M14.8203 -16.3604L69.4053 -17.1787L69.5858 -5.18076C69.6567 -0.467461 74.7585 24.7785 102.728 47.4105C149.968 85.6351 176.73 132.346 184.373 178.519C186.494 191.332 190.225 200.865 193.587 207.305C196.78 213.423 199.425 216.36 199.8 216.776C199.838 216.819 199.853 216.835 199.842 216.825L208.942 224.682L173.209 265.91L164.144 258.083C152.417 247.958 136.496 223.557 130.513 187.415C125.296 155.9 106.464 120.612 68.3668 89.7852C28.0663 57.1758 15.3197 16.822 15.0009 -4.3611L14.8203 -16.3604ZM163.9 240.007C155.673 228.91 146.502 210.529 142.352 185.455C136.601 150.713 116.023 112.911 75.9151 80.4566C45.4903 55.8382 32.4445 26.8877 28.4364 7.43814C27.4925 2.85772 27.0499 -1.19577 26.9995 -4.54166L57.5872 -5.0002C57.7127 3.34132 64.4983 31.9128 95.18 56.7391C140.411 93.3383 165.426 137.536 172.534 180.478C177.198 208.654 189.092 223.378 191.981 225.892C191.987 225.897 191.993 225.903 192 225.908L171.986 249C171.953 248.972 171.921 248.944 171.888 248.915C169.507 246.843 166.76 243.865 163.9 240.007Z" fill="#CECECE"/>
<g filter="url(#filter0_d_734_7465)">
<path fill-rule="evenodd" clip-rule="evenodd" d="M132.851 33.5893L76.0398 -25.3638L65.9589 -15.6491L120.167 40.6028L-21.3877 118.874L-14.6132 131.126L130.224 51.0393L204.979 128.613L14.6123 233.874L21.3868 246.126L215.036 139.049L268.153 194.169L278.234 184.454L227.72 132.036L276.387 105.126L269.612 92.8742L217.663 121.599L142.908 44.0258L240.387 -9.87404L233.612 -22.1258L132.851 33.5893Z" fill="#E1B785"/>
</g>
</g>
<g filter="url(#filter1_f_734_7465)">
<ellipse cx="121.5" cy="178.5" rx="35.5" ry="12.5" fill="url(#paint1_radial_734_7465)" fill-opacity="0.8"/>
</g>
<mask id="path-7-outside-1_734_7465" maskUnits="userSpaceOnUse" x="75" y="42" width="92" height="133" fill="black">
<rect fill="white" x="75" y="42" width="92" height="133"/>
<path fill-rule="evenodd" clip-rule="evenodd" d="M121 172.857C125.889 167.901 165 113.239 165 88.6044C165 63.9701 145.301 44 121 44C96.6995 44 77 63.9701 77 88.6044C77 113.239 121 172.857 121 172.857ZM121 106.86C131.415 106.86 139.857 98.4174 139.857 88.0029C139.857 77.5883 131.415 69.1457 121 69.1457C110.586 69.1457 102.143 77.5883 102.143 88.0029C102.143 98.4174 110.586 106.86 121 106.86Z"/>
</mask>
<path fill-rule="evenodd" clip-rule="evenodd" d="M121 172.857C125.889 167.901 165 113.239 165 88.6044C165 63.9701 145.301 44 121 44C96.6995 44 77 63.9701 77 88.6044C77 113.239 121 172.857 121 172.857ZM121 106.86C131.415 106.86 139.857 98.4174 139.857 88.0029C139.857 77.5883 131.415 69.1457 121 69.1457C110.586 69.1457 102.143 77.5883 102.143 88.0029C102.143 98.4174 110.586 106.86 121 106.86Z" fill="#8722ED"/>
<path d="M121 172.857L119.793 173.748C120.054 174.101 120.455 174.322 120.893 174.353C121.331 174.385 121.76 174.223 122.068 173.911L121 172.857ZM163.5 88.6044C163.5 94.4417 161.162 102.242 157.435 110.87C153.728 119.454 148.722 128.689 143.546 137.34C138.373 145.987 133.046 154.023 128.71 160.205C124.339 166.434 121.05 170.67 119.932 171.804L122.068 173.911C123.394 172.566 126.827 168.111 131.165 161.928C135.537 155.696 140.905 147.598 146.121 138.88C151.334 130.167 156.411 120.808 160.19 112.059C163.949 103.355 166.5 95.0843 166.5 88.6044H163.5ZM121 45.5C144.453 45.5 163.5 64.7791 163.5 88.6044H166.5C166.5 63.161 146.148 42.5 121 42.5V45.5ZM78.5 88.6044C78.5 64.7791 97.5471 45.5 121 45.5V42.5C95.8518 42.5 75.5 63.161 75.5 88.6044H78.5ZM121 172.857C122.207 171.966 122.207 171.966 122.207 171.966C122.206 171.966 122.206 171.965 122.205 171.964C122.204 171.963 122.202 171.96 122.2 171.957C122.194 171.95 122.187 171.939 122.176 171.925C122.156 171.897 122.125 171.855 122.083 171.799C122.001 171.686 121.879 171.519 121.719 171.299C121.398 170.859 120.928 170.209 120.328 169.373C119.13 167.701 117.416 165.284 115.359 162.305C111.245 156.345 105.761 148.147 100.28 139.186C94.7952 130.22 89.3296 120.515 85.24 111.54C81.1245 102.507 78.5 94.416 78.5 88.6044H75.5C75.5 95.11 78.3755 103.709 82.51 112.783C86.6704 121.914 92.2048 131.734 97.7204 140.751C103.239 149.774 108.755 158.02 112.891 164.009C114.959 167.004 116.683 169.437 117.89 171.121C118.494 171.964 118.969 172.619 119.293 173.064C119.455 173.287 119.58 173.457 119.664 173.572C119.706 173.63 119.738 173.673 119.76 173.703C119.771 173.717 119.779 173.729 119.784 173.736C119.787 173.74 119.789 173.743 119.791 173.745C119.791 173.746 119.792 173.746 119.792 173.747C119.793 173.748 119.793 173.748 121 172.857ZM138.357 88.0029C138.357 97.589 130.586 105.36 121 105.36V108.36C132.243 108.36 141.357 99.2458 141.357 88.0029H138.357ZM121 70.6457C130.586 70.6457 138.357 78.4168 138.357 88.0029H141.357C141.357 76.7599 132.243 67.6457 121 67.6457V70.6457ZM103.643 88.0029C103.643 78.4168 111.414 70.6457 121 70.6457V67.6457C109.757 67.6457 100.643 76.7599 100.643 88.0029H103.643ZM121 105.36C111.414 105.36 103.643 97.589 103.643 88.0029H100.643C100.643 99.2458 109.757 108.36 121 108.36V105.36Z" fill="white" mask="url(#path-7-outside-1_734_7465)"/>
<g filter="url(#filter2_d_734_7465)">
<path d="M93.8535 95.7654C93.8535 89.257 99.1296 83.981 105.638 83.981H138.083C144.592 83.981 149.868 89.257 149.868 95.7654C149.868 102.274 144.592 107.55 138.083 107.55H105.638C99.1296 107.55 93.8535 102.274 93.8535 95.7654Z" fill="white"/>
<path d="M97.5264 89.8733C97.5264 76.4762 108.387 65.6157 121.784 65.6157C135.181 65.6157 146.042 76.4762 146.042 89.8733V94.6942H97.5264V89.8733Z" fill="white"/>
<path d="M149.777 73.3341C146.991 75.3218 143.121 74.6747 141.133 71.8887C139.146 69.1028 139.793 65.2331 142.579 63.2454C145.365 61.2578 149.234 61.9049 151.222 64.6908C153.21 67.4768 152.563 71.3465 149.777 73.3341Z" fill="white"/>
<path d="M144.203 77.3102C141.417 79.2979 137.548 78.6507 135.56 75.8648C133.572 73.0789 134.22 69.2092 137.005 67.2215C139.791 65.2339 143.661 65.881 145.649 68.6669C147.636 71.4528 146.989 75.3226 144.203 77.3102Z" fill="white"/>
<path d="M151.214 79.5661C148.428 81.5537 144.558 80.9066 142.571 78.1207C140.583 75.3348 141.23 71.465 144.016 69.4774C146.802 67.4897 150.672 68.1369 152.659 70.9228C154.647 73.7087 154 77.5784 151.214 79.5661Z" fill="white"/>
<path d="M92.8396 73.946C95.6255 75.9336 99.4953 75.2865 101.483 72.5006C103.471 69.7146 102.823 65.8449 100.038 63.8573C97.2516 61.8696 93.3819 62.5167 91.3942 65.3027C89.4066 68.0886 90.0537 71.9583 92.8396 73.946Z" fill="white"/>
<path d="M98.4129 77.922C101.199 79.9097 105.069 79.2626 107.056 76.4766C109.044 73.6907 108.397 69.821 105.611 67.8333C102.825 65.8457 98.9551 66.4928 96.9675 69.2787C94.9798 72.0647 95.6269 75.9344 98.4129 77.922Z" fill="white"/>
<path d="M91.4021 80.1784C94.188 82.166 98.0578 81.5189 100.045 78.733C102.033 75.9471 101.386 72.0773 98.6 70.0897C95.8141 68.102 91.9444 68.7492 89.9567 71.5351C87.9691 74.321 88.6162 78.1907 91.4021 80.1784Z" fill="white"/>
<path d="M99.2788 94.0519C99.1744 90.4415 102.017 87.4301 105.627 87.3257L110.421 87.1871C114.031 87.0828 117.043 89.925 117.147 93.5354C117.252 97.1458 114.409 100.157 110.799 100.262L106.005 100.4C102.395 100.504 99.3832 97.6623 99.2788 94.0519Z" fill="url(#paint2_radial_734_7465)"/>
<path d="M125.874 94.0519C125.77 90.4415 128.612 87.4301 132.223 87.3257L137.017 87.1871C140.627 87.0828 143.639 89.925 143.743 93.5354C143.847 97.1458 141.005 100.157 137.395 100.262L132.601 100.4C128.99 100.504 125.979 97.6623 125.874 94.0519Z" fill="url(#paint3_radial_734_7465)"/>
<path d="M125.249 91.5496C125.249 92.6187 123.46 94.9911 121.252 94.9911C119.045 94.9911 117.256 92.6187 117.256 91.5496C117.256 90.4805 119.045 89.6138 121.252 89.6138C123.46 89.6138 125.249 90.4805 125.249 91.5496Z" fill="#DB00FF"/>
<path fill-rule="evenodd" clip-rule="evenodd" d="M115.688 95.9947C115.52 95.9779 115.37 96.1006 115.353 96.2688C115.336 96.437 115.459 96.587 115.627 96.6038C116.201 96.6612 117.179 96.8745 118.212 97.3296C119.243 97.7839 120.307 98.47 121.08 99.4612C121.096 99.4829 121.115 99.5028 121.138 99.5202C121.271 99.624 121.463 99.5999 121.567 99.4665C122.34 98.4725 123.407 97.7847 124.439 97.3296C125.472 96.8745 126.451 96.6612 127.024 96.6038C127.192 96.587 127.315 96.437 127.298 96.2688C127.281 96.1006 127.131 95.9779 126.963 95.9947C126.325 96.0585 125.284 96.2884 124.192 96.7695C123.2 97.2067 122.15 97.8587 121.326 98.7984C120.501 97.8587 119.451 97.2067 118.459 96.7695C117.367 96.2884 116.326 96.0585 115.688 95.9947Z" fill="black"/>
<g filter="url(#filter3_d_734_7465)">
<path d="M116.385 86.9258C116.385 89.6146 114.205 91.7944 111.516 91.7944C108.827 91.7944 106.647 89.6146 106.647 86.9258C106.647 84.2369 108.827 82.0571 111.516 82.0571C114.205 82.0571 116.385 84.2369 116.385 86.9258Z" fill="white"/>
</g>
<mask id="mask1_734_7465" style="mask-type:alpha" maskUnits="userSpaceOnUse" x="106" y="82" width="11" height="10">
<path d="M116.384 86.9258C116.384 89.6146 114.204 91.7944 111.515 91.7944C108.826 91.7944 106.646 89.6146 106.646 86.9258C106.646 84.2369 108.826 82.0571 111.515 82.0571C114.204 82.0571 116.384 84.2369 116.384 86.9258Z" fill="#D9D9D9"/>
</mask>
<g mask="url(#mask1_734_7465)">
<path d="M119.289 86.2248C118.985 89.4435 116.13 91.8066 112.911 91.5029C109.692 91.1992 107.329 88.3437 107.633 85.1249C107.936 81.9062 110.792 79.5431 114.011 79.8468C117.229 80.1505 119.593 83.006 119.289 86.2248Z" fill="black"/>
</g>
<path d="M112.789 84.318C112.789 84.9262 112.296 85.4193 111.688 85.4193C111.08 85.4193 110.587 84.9262 110.587 84.318C110.587 83.7098 111.08 83.2168 111.688 83.2168C112.296 83.2168 112.789 83.7098 112.789 84.318Z" fill="white"/>
<path d="M112.803 85.5464C113.061 86.2445 113.612 86.795 114.31 87.0533C113.612 87.3117 113.061 87.8621 112.803 88.5603C112.545 87.8621 111.994 87.3117 111.296 87.0533C111.994 86.795 112.545 86.2445 112.803 85.5464Z" fill="#B56CFF"/>
<path d="M114.496 84.891C114.496 85.1719 114.268 85.3996 113.987 85.3996C113.706 85.3996 113.479 85.1719 113.479 84.891C113.479 84.6101 113.706 84.3823 113.987 84.3823C114.268 84.3823 114.496 84.6101 114.496 84.891Z" fill="#ADFF98"/>
<g filter="url(#filter4_d_734_7465)">
<path d="M136.002 86.9258C136.002 89.6146 133.822 91.7944 131.133 91.7944C128.444 91.7944 126.265 89.6146 126.265 86.9258C126.265 84.2369 128.444 82.0571 131.133 82.0571C133.822 82.0571 136.002 84.2369 136.002 86.9258Z" fill="white"/>
</g>
<mask id="mask2_734_7465" style="mask-type:alpha" maskUnits="userSpaceOnUse" x="126" y="82" width="11" height="10">
<path d="M136.001 86.9258C136.001 89.6146 133.821 91.7944 131.132 91.7944C128.443 91.7944 126.264 89.6146 126.264 86.9258C126.264 84.2369 128.443 82.0571 131.132 82.0571C133.821 82.0571 136.001 84.2369 136.001 86.9258Z" fill="#D9D9D9"/>
</mask>
<g mask="url(#mask2_734_7465)">
<path d="M138.907 86.2238C138.603 89.4425 135.748 91.8056 132.529 91.5019C129.31 91.1982 126.947 88.3427 127.251 85.124C127.555 81.9052 130.41 79.5421 133.629 79.8458C136.848 80.1495 139.211 83.005 138.907 86.2238Z" fill="black"/>
</g>
<path d="M132.41 84.318C132.41 84.9262 131.916 85.4193 131.308 85.4193C130.7 85.4193 130.207 84.9262 130.207 84.318C130.207 83.7098 130.7 83.2168 131.308 83.2168C131.916 83.2168 132.41 83.7098 132.41 84.318Z" fill="white"/>
<path d="M132.423 85.5459C132.681 86.2441 133.232 86.7945 133.93 87.0529C133.232 87.3112 132.681 87.8617 132.423 88.5598C132.165 87.8617 131.614 87.3112 130.916 87.0529C131.614 86.7945 132.165 86.2441 132.423 85.5459Z" fill="#B56CFF"/>
<path d="M134.113 84.891C134.113 85.1719 133.885 85.3996 133.604 85.3996C133.323 85.3996 133.096 85.1719 133.096 84.891C133.096 84.6101 133.323 84.3823 133.604 84.3823C133.885 84.3823 134.113 84.6101 134.113 84.891Z" fill="#ADFF98"/>
<path d="M124.313 91.2359C124.238 91.5481 123.735 91.6947 123.188 91.5635C122.642 91.4322 122.26 91.0727 122.335 90.7606C122.41 90.4484 122.914 90.3017 123.46 90.433C124.006 90.5643 124.388 90.9237 124.313 91.2359Z" fill="white"/>
<path d="M128.475 80.0019C128.475 79.8328 128.612 79.6958 128.781 79.6958H132.913C133.082 79.6958 133.219 79.8328 133.219 80.0019V80.308C133.219 80.477 133.082 80.6141 132.913 80.6141H128.781C128.612 80.6141 128.475 80.477 128.475 80.308V80.0019Z" fill="#8722ED"/>
<path d="M109.038 80.0019C109.038 79.8328 109.175 79.6958 109.344 79.6958H113.476C113.645 79.6958 113.782 79.8328 113.782 80.0019V80.308C113.782 80.477 113.645 80.6141 113.476 80.6141H109.344C109.175 80.6141 109.038 80.477 109.038 80.308V80.0019Z" fill="#8722ED"/>
<path d="M102.771 107.632H139.069V112.582H102.771V107.632Z" fill="#DB00FF"/>
<path d="M127.453 113.407C127.453 116.596 124.868 119.181 121.679 119.181C118.49 119.181 115.904 116.596 115.904 113.407C115.904 110.218 118.49 107.632 121.679 107.632C124.868 107.632 127.453 110.218 127.453 113.407Z" fill="#D5AAFF"/>
<path fill-rule="evenodd" clip-rule="evenodd" d="M121.936 117.369C122.557 117.245 123.021 116.739 123.021 116.134C123.021 115.437 122.403 114.871 121.64 114.871C120.878 114.871 120.26 115.437 120.26 116.134C120.26 116.739 120.724 117.245 121.345 117.369L121.345 119.202C121.345 119.352 121.477 119.473 121.64 119.473C121.804 119.473 121.936 119.352 121.936 119.202L121.936 117.369Z" fill="#464646"/>
<path d="M114.737 113.03C114.737 112.522 115.19 112.11 115.748 112.11H127.533C128.091 112.11 128.543 112.522 128.543 113.03C128.543 113.539 128.091 113.951 127.533 113.951H115.748C115.19 113.951 114.737 113.539 114.737 113.03Z" fill="#E9D2FF"/>
</g>
<defs>
<filter id="filter0_d_734_7465" x="-25.3877" y="-29.3638" width="307.622" height="279.49" filterUnits="userSpaceOnUse" color-interpolation-filters="sRGB">
<feFlood flood-opacity="0" result="BackgroundImageFix"/>
<feColorMatrix in="SourceAlpha" type="matrix" values="0 0 0 0 0 0 0 0 0 0 0 0 0 0 0 0 0 0 127 0" result="hardAlpha"/>
<feOffset/>
<feGaussianBlur stdDeviation="2"/>
<feComposite in2="hardAlpha" operator="out"/>
<feColorMatrix type="matrix" values="0 0 0 0 0 0 0 0 0 0 0 0 0 0 0 0 0 0 0.25 0"/>
<feBlend mode="normal" in2="BackgroundImageFix" result="effect1_dropShadow_734_7465"/>
<feBlend mode="normal" in="SourceGraphic" in2="effect1_dropShadow_734_7465" result="shape"/>
</filter>
<filter id="filter1_f_734_7465" x="84" y="164" width="75" height="29" filterUnits="userSpaceOnUse" color-interpolation-filters="sRGB">
<feFlood flood-opacity="0" result="BackgroundImageFix"/>
<feBlend mode="normal" in="SourceGraphic" in2="BackgroundImageFix" result="shape"/>
<feGaussianBlur stdDeviation="1" result="effect1_foregroundBlur_734_7465"/>
</filter>
<filter id="filter2_d_734_7465" x="78.8037" y="52.0928" width="85.0088" height="77.3804" filterUnits="userSpaceOnUse" color-interpolation-filters="sRGB">
<feFlood flood-opacity="0" result="BackgroundImageFix"/>
<feColorMatrix in="SourceAlpha" type="matrix" values="0 0 0 0 0 0 0 0 0 0 0 0 0 0 0 0 0 0 127 0" result="hardAlpha"/>
<feOffset/>
<feGaussianBlur stdDeviation="5"/>
<feComposite in2="hardAlpha" operator="out"/>
<feColorMatrix type="matrix" values="0 0 0 0 0 0 0 0 0 0 0 0 0 0 0 0 0 0 0.6 0"/>
<feBlend mode="normal" in2="BackgroundImageFix" result="effect1_dropShadow_734_7465"/>
<feBlend mode="normal" in="SourceGraphic" in2="effect1_dropShadow_734_7465" result="shape"/>
</filter>
<filter id="filter3_d_734_7465" x="104.647" y="80.0571" width="13.7373" height="13.7373" filterUnits="userSpaceOnUse" color-interpolation-filters="sRGB">
<feFlood flood-opacity="0" result="BackgroundImageFix"/>
<feColorMatrix in="SourceAlpha" type="matrix" values="0 0 0 0 0 0 0 0 0 0 0 0 0 0 0 0 0 0 127 0" result="hardAlpha"/>
<feOffset/>
<feGaussianBlur stdDeviation="1"/>
<feComposite in2="hardAlpha" operator="out"/>
<feColorMatrix type="matrix" values="0 0 0 0 0 0 0 0 0 0 0 0 0 0 0 0 0 0 0.25 0"/>
<feBlend mode="normal" in2="BackgroundImageFix" result="effect1_dropShadow_734_7465"/>
<feBlend mode="normal" in="SourceGraphic" in2="effect1_dropShadow_734_7465" result="shape"/>
</filter>
<filter id="filter4_d_734_7465" x="124.265" y="80.0571" width="13.7373" height="13.7373" filterUnits="userSpaceOnUse" color-interpolation-filters="sRGB">
<feFlood flood-opacity="0" result="BackgroundImageFix"/>
<feColorMatrix in="SourceAlpha" type="matrix" values="0 0 0 0 0 0 0 0 0 0 0 0 0 0 0 0 0 0 127 0" result="hardAlpha"/>
<feOffset/>
<feGaussianBlur stdDeviation="1"/>
<feComposite in2="hardAlpha" operator="out"/>
<feColorMatrix type="matrix" values="0 0 0 0 0 0 0 0 0 0 0 0 0 0 0 0 0 0 0.25 0"/>
<feBlend mode="normal" in2="BackgroundImageFix" result="effect1_dropShadow_734_7465"/>
<feBlend mode="normal" in="SourceGraphic" in2="effect1_dropShadow_734_7465" result="shape"/>
</filter>
<linearGradient id="paint0_linear_734_7465" x1="194.5" y1="176.5" x2="8.99998" y2="21.5" gradientUnits="userSpaceOnUse">
<stop stop-color="#C4FF89"/>
<stop offset="1" stop-color="#88F7C8"/>
</linearGradient>
<radialGradient id="paint1_radial_734_7465" cx="0" cy="0" r="1" gradientUnits="userSpaceOnUse" gradientTransform="translate(121.882 174.974) rotate(90) scale(13.0577 37.078)">
<stop/>
<stop offset="1" stop-color="#666666" stop-opacity="0.55"/>
</radialGradient>
<radialGradient id="paint2_radial_734_7465" cx="0" cy="0" r="1" gradientUnits="userSpaceOnUse" gradientTransform="translate(108.213 93.7936) rotate(88.3444) scale(6.53994 8.93792)">
<stop stop-color="#F3AAFF"/>
<stop offset="1" stop-color="#FFE297" stop-opacity="0"/>
</radialGradient>
<radialGradient id="paint3_radial_734_7465" cx="0" cy="0" r="1" gradientUnits="userSpaceOnUse" gradientTransform="translate(134.809 93.7936) rotate(88.3444) scale(6.53994 8.93792)">
<stop stop-color="#F3AAFF"/>
<stop offset="1" stop-color="#FFE297" stop-opacity="0"/>
</radialGradient>
</defs>
</svg>
