<svg width="12" height="10" viewBox="0 0 12 10" fill="none" xmlns="http://www.w3.org/2000/svg">
<path fill-rule="evenodd" clip-rule="evenodd" d="M7.60961 0C7.83905 0 8.03904 0.156149 8.09468 0.378732L8.40532 1.62127C8.46096 1.84385 8.66095 2 8.89039 2H11.5C11.7761 2 12 2.22386 12 2.5V9.5C12 9.77614 11.7761 10 11.5 10H0.5C0.223858 10 0 9.77614 0 9.5V2.5C0 2.22386 0.223858 2 0.5 2H3.10961C3.33905 2 3.53904 1.84385 3.59468 1.62127L3.90532 0.378732C3.96096 0.156148 4.16095 0 4.39039 0H7.60961ZM6 9C7.65685 9 9 7.65685 9 6C9 4.34315 7.65685 3 6 3C4.34315 3 3 4.34315 3 6C3 7.65685 4.34315 9 6 9ZM8 6C8 7.10457 7.10457 8 6 8C4.89543 8 4 7.10457 4 6C4 4.89543 4.89543 4 6 4C7.10457 4 8 4.89543 8 6ZM9.5 4C9.77614 4 10 3.77614 10 3.5C10 3.22386 9.77614 3 9.5 3C9.22386 3 9 3.22386 9 3.5C9 3.77614 9.22386 4 9.5 4Z" fill="#747474"/>
</svg>
