<svg width="8" height="14" viewBox="0 0 8 14" fill="none" xmlns="http://www.w3.org/2000/svg">
<path fill-rule="evenodd" clip-rule="evenodd" d="M5.54555 2.54546V5.06163C5.54555 5.33777 5.3217 5.56163 5.04555 5.56163H2.95464C2.6785 5.56163 2.45464 5.33777 2.45464 5.06163V2.54546C2.45464 1.69192 3.14657 1 4.0001 1C4.85363 1 5.54555 1.69192 5.54555 2.54546ZM1 5.56163C1.25109 5.56163 1.45464 5.35808 1.45464 5.10699V2.54546C1.45464 1.13964 2.59428 0 4.0001 0C5.40591 0 6.54555 1.13964 6.54555 2.54546V5.10719C6.54555 5.35817 6.74902 5.56163 7 5.56163C7.55228 5.56163 8 6.00935 8 6.56163V12.091C8 12.6433 7.55228 13.091 7 13.091H1C0.447715 13.091 0 12.6433 0 12.091V6.56163C0 6.00935 0.447715 5.56163 1 5.56163ZM4 10.5C4.55228 10.5 5 10.0523 5 9.5C5 8.94771 4.55228 8.5 4 8.5C3.44772 8.5 3 8.94771 3 9.5C3 10.0523 3.44772 10.5 4 10.5Z" fill="current"/>
</svg>
