<svg width="20" height="20" viewBox="0 0 20 20" fill="none" xmlns="http://www.w3.org/2000/svg">
<mask id="path-1-inside-1_189_3979" fill="white">
<path fill-rule="evenodd" clip-rule="evenodd" d="M17.8184 14.1312C18.5814 12.7627 19.0161 11.1861 19.0161 9.50804C19.0161 4.2569 14.7592 0 9.50804 0C4.2569 0 0 4.2569 0 9.50804C0 14.7592 4.2569 19.0161 9.50804 19.0161C11.186 19.0161 12.7625 18.5814 14.131 17.8185L17.9346 19.2186C18.7349 19.5132 19.5131 18.7351 19.2185 17.9347L17.8184 14.1312Z"/>
</mask>
<path d="M17.8184 14.1312L16.5082 13.4008C16.2952 13.7829 16.2596 14.2389 16.4107 14.6494L17.8184 14.1312ZM14.131 17.8185L14.6491 16.4109C14.2387 16.2598 13.7827 16.2954 13.4006 16.5084L14.131 17.8185ZM17.9346 19.2186L18.4527 17.811L18.4527 17.811L17.9346 19.2186ZM19.2185 17.9347L20.6261 17.4166L20.6261 17.4166L19.2185 17.9347ZM17.5161 9.50804C17.5161 10.924 17.1499 12.2498 16.5082 13.4008L19.1285 14.8617C20.0128 13.2755 20.5161 11.4483 20.5161 9.50804H17.5161ZM9.50804 1.5C13.9308 1.5 17.5161 5.08532 17.5161 9.50804H20.5161C20.5161 3.42847 15.5876 -1.5 9.50804 -1.5V1.5ZM1.5 9.50804C1.5 5.08532 5.08532 1.5 9.50804 1.5V-1.5C3.42847 -1.5 -1.5 3.42847 -1.5 9.50804H1.5ZM9.50804 17.5161C5.08532 17.5161 1.5 13.9308 1.5 9.50804H-1.5C-1.5 15.5876 3.42847 20.5161 9.50804 20.5161V17.5161ZM13.4006 16.5084C12.2497 17.15 10.9239 17.5161 9.50804 17.5161V20.5161C11.4482 20.5161 13.2753 20.0129 14.8614 19.1287L13.4006 16.5084ZM18.4527 17.811L14.6491 16.4109L13.6128 19.2262L17.4164 20.6263L18.4527 17.811ZM17.8108 18.4529C17.6635 18.0527 18.0526 17.6637 18.4527 17.811L17.4164 20.6263C19.4173 21.3628 21.3626 19.4174 20.6261 17.4166L17.8108 18.4529ZM16.4107 14.6494L17.8108 18.4529L20.6261 17.4166L19.226 13.6131L16.4107 14.6494Z" fill="black" mask="url(#path-1-inside-1_189_3979)"/>
</svg>
