<svg width="32" height="29" viewBox="0 0 32 29" fill="none" xmlns="http://www.w3.org/2000/svg">
<path fill-rule="evenodd" clip-rule="evenodd" d="M15.897 21.8757C16.4054 21.8757 16.8671 22.172 17.0789 22.6342C18.5975 25.9492 20.8162 27.6679 22.9624 27.6679C24.7755 27.6679 26.6288 26.4572 28.0973 24.0488C29.552 21.6632 30.494 18.2847 30.494 14.4839C30.494 10.6831 29.552 7.30465 28.0973 4.91904C26.6288 2.5107 24.7755 1.3 22.9624 1.3C20.8162 1.3 18.5975 3.01865 17.0789 6.33364C16.8671 6.79584 16.4054 7.0922 15.897 7.0922C15.3886 7.0922 14.9269 6.79584 14.7151 6.33364C13.1965 3.01865 10.9778 1.3 8.83166 1.3C7.01854 1.3 5.16516 2.5107 3.69667 4.91904C2.24203 7.30465 1.3 10.6831 1.3 14.4839C1.3 18.2847 2.24203 21.6632 3.69667 24.0488C5.16516 26.4572 7.01854 27.6679 8.83166 27.6679C10.9778 27.6679 13.1965 25.9492 14.7151 22.6342C14.9269 22.172 15.3886 21.8757 15.897 21.8757ZM16.6422 24.6008C18.246 27.2951 20.4851 28.9679 22.9624 28.9679C27.8399 28.9679 31.794 22.4832 31.794 14.4839C31.794 6.48468 27.8399 0 22.9624 0C20.4851 0 18.246 1.67275 16.6422 4.36711C16.3757 4.81491 16.1266 5.29094 15.897 5.7922C15.6674 5.29094 15.4184 4.81491 15.1518 4.36711C13.548 1.67275 11.309 0 8.83166 0C3.95407 0 0 6.48468 0 14.4839C0 22.4832 3.95407 28.9679 8.83166 28.9679C11.309 28.9679 13.548 27.2951 15.1518 24.6008C15.4184 24.153 15.6674 23.6769 15.897 23.1757C16.1266 23.6769 16.3757 24.153 16.6422 24.6008Z" fill="current"/>
<path d="M16.2504 14.4836C16.2504 18.1905 14.3524 21.1956 12.0112 21.1956C9.66993 21.1956 7.77197 18.1905 7.77197 14.4836C7.77197 10.7766 9.66993 7.77148 12.0112 7.77148C14.3524 7.77148 16.2504 10.7766 16.2504 14.4836Z" fill="current"/>
<path d="M30.3812 14.4836C30.3812 18.1905 28.4833 21.1956 26.142 21.1956C23.8008 21.1956 21.9028 18.1905 21.9028 14.4836C21.9028 10.7766 23.8008 7.77148 26.142 7.77148C28.4833 7.77148 30.3812 10.7766 30.3812 14.4836Z" fill="current"/>
</svg>
