<svg width="33" height="30" viewBox="0 0 33 30" fill="none" xmlns="http://www.w3.org/2000/svg">
<path fill-rule="evenodd" clip-rule="evenodd" d="M19.6971 1.39795C18.3138 0.108636 16.1749 0.0892632 14.7685 1.35331L1.50543 13.274C0.38034 14.2852 1.09565 16.1512 2.60839 16.1512H5.34982V27.2038C5.34982 28.6673 6.53627 29.8538 7.99982 29.8538H12.35C12.709 29.8538 13 29.5628 13 29.2038V24.0012C13 21.5988 14.5975 19.6512 16.9999 19.6512C19.4024 19.6512 20.5 21.5988 20.5 24.0012V29.2038C20.5 29.5628 20.791 29.8538 21.15 29.8538H25.6998C27.1634 29.8538 28.3498 28.6673 28.3498 27.2038V16.1512H31.3353C32.8334 16.1512 33.5562 14.3157 32.4603 13.2942L19.6971 1.39795Z" fill="current"/>
</svg>
