<svg width="35" height="32" viewBox="0 0 35 32" fill="none" xmlns="http://www.w3.org/2000/svg">
<path fill-rule="evenodd" clip-rule="evenodd" d="M11.4486 1.13454C12.6054 0.581362 13.9922 0.935724 14.7418 1.976L15.694 3.29738C16.2143 3.18178 16.7551 3.12082 17.3102 3.12082C17.8653 3.12082 18.4061 3.18178 18.9264 3.29737L19.8785 1.976C20.6281 0.935724 22.015 0.581362 23.1718 1.13454L32.2071 5.45534C33.6315 6.1365 34.1479 7.90427 33.3143 9.24516L30.9922 12.9804L33.7166 16.6885C34.6993 18.0261 34.2246 19.9275 32.7285 20.6462L30.8579 21.5448V24.068C30.8579 25.1202 30.2354 26.0728 29.2716 26.4951L17.5711 31.6227C17.5024 31.6529 17.43 31.6704 17.3571 31.6757C17.3329 31.6775 17.3085 31.6779 17.2842 31.6769C17.2043 31.6737 17.1246 31.6558 17.0492 31.6227L5.34875 26.4951C4.38499 26.0728 3.76242 25.1202 3.76242 24.068V21.5448L1.89186 20.6462C0.395756 19.9275 -0.0789635 18.0261 0.903771 16.6885L3.62817 12.9804L1.30602 9.24516C0.472412 7.90427 0.988906 6.1365 2.4133 5.45534L11.4486 1.13454ZM24.6638 9.55271C24.314 6.92118 22.5849 4.72542 20.2269 3.71618L20.9332 2.736C21.3151 2.20605 22.0216 2.02553 22.6109 2.30733L31.6462 6.62813C32.3718 6.97514 32.635 7.87571 32.2103 8.5588L29.967 12.1673L24.6638 9.55271ZM24.7131 11.0264C24.6001 12.7705 23.8843 14.3504 22.7721 15.5598L28.6677 12.9761L24.7131 11.0264ZM11.8484 15.5598C10.7361 14.3504 10.0203 12.7705 9.90733 11.0264L5.95269 12.9761L11.8484 15.5598ZM14.3934 3.71619C12.0356 4.72544 10.3064 6.92117 9.95665 9.55269L4.6534 12.1673L2.41006 8.5588C1.98539 7.87571 2.24851 6.97514 2.97415 6.62813L12.0095 2.30733C12.5987 2.02553 13.3053 2.20605 13.6871 2.736L14.3934 3.71619ZM4.62814 13.815L1.95141 17.4582C1.45077 18.1396 1.69261 19.1083 2.45477 19.4744L11.8837 24.0039C12.5099 24.3046 13.262 24.0812 13.6224 23.4873L16.3694 18.9605L4.62814 13.815ZM16.6601 20.9872L14.7338 24.1617C14.0264 25.3274 12.5499 25.7661 11.3208 25.1757L5.06242 22.1693V24.068C5.06242 24.604 5.37958 25.0893 5.87055 25.3045L16.6601 30.0329V20.9872ZM29.9922 13.815L32.669 17.4582C33.1696 18.1396 32.9278 19.1083 32.1656 19.4744L22.7367 24.0039C22.1105 24.3046 21.3583 24.0812 20.998 23.4873L18.251 18.9605L29.9922 13.815ZM17.9602 20.9872L19.8866 24.1617C20.5939 25.3274 22.0705 25.7661 23.2996 25.1757L29.5579 22.1693V24.068C29.5579 24.604 29.2408 25.0893 28.7498 25.3045L17.9602 30.0329V20.9872ZM14.1307 9.88864C13.7717 9.88864 13.4807 10.1797 13.4807 10.5386C13.4807 10.8976 13.7717 11.1886 14.1307 11.1886H16.66V13.7191C16.66 14.0781 16.951 14.3691 17.31 14.3691C17.669 14.3691 17.96 14.0781 17.96 13.7191V11.1886H20.4895C20.8485 11.1886 21.1395 10.8976 21.1395 10.5386C21.1395 10.1797 20.8485 9.88864 20.4895 9.88864H17.96V7.36029C17.96 7.0013 17.669 6.71029 17.31 6.71029C16.951 6.71029 16.66 7.0013 16.66 7.36029V9.88864H14.1307Z" fill="current"/>
</svg>
