<svg width="172" height="204" viewBox="0 0 172 204" fill="none" xmlns="http://www.w3.org/2000/svg">
<path d="M9.76 183C9.76 187.48 6.72 190.66 1.62 192.1L0.88 190.66C4.98 189.52 7.46 187.28 7.8 184.46H1.8V183H9.76ZM3.86 199.28V192.64H15.3V199.28H3.86ZM5.64 197.82H13.5V194.1H5.64V197.82ZM9.82 187.86V186.34H13.48V181.88H15.3V191.9H13.48V187.86H9.82ZM21.7805 182.94H23.5205V185.22C23.5205 187.2 24.7605 189.2 27.0405 190.14L26.0605 191.54C24.4605 190.86 23.3005 189.62 22.6805 188.14C22.0405 189.78 20.8405 191.22 19.1405 191.98L18.1605 190.56C20.5005 189.52 21.7805 187.22 21.7805 185.22V182.94ZM21.2005 194.98V193.5H33.1205V199.54H31.2805V194.98H21.2005ZM27.6005 192.46V182.2H29.3205V186.42H31.3605V181.9H33.1205V192.56H31.3605V187.92H29.3205V192.46H27.6005ZM53.0503 181.88H54.8703V190.86H53.0503V189.16H48.5903V187.74H53.0503V185.78H48.8103C47.7303 188.52 45.0903 190.34 41.2103 191.26L40.5903 189.78C44.7903 188.82 47.0703 186.8 47.3703 184.2H41.5103V182.7H49.3703C49.3703 183.28 49.3303 183.84 49.2303 184.36H53.0503V181.88ZM43.4503 193.08V191.62H54.8703V196.08H45.3103V197.9H55.3903V199.36H43.4903V194.7H53.0503V193.08H43.4503ZM58.5708 183.76H67.5108V184.84C67.5108 186.34 67.5108 188.6 67.0108 191.8L65.2308 191.64C65.6908 188.8 65.7308 186.72 65.7308 185.26H58.5708V183.76ZM57.6108 194.24C58.7108 194.24 59.9308 194.22 61.2108 194.2V188.82H63.0108V194.14C64.8908 194.08 66.8108 193.96 68.5508 193.74L68.6508 195.06C65.0108 195.66 60.9308 195.74 57.8308 195.74L57.6108 194.24ZM69.5708 199.52V181.88H71.3708V189.2H74.1108V190.72H71.3708V199.52H69.5708ZM87.0513 181.86H88.9113V188.94H91.6313V190.46H88.9113V199.52H87.0513V181.86ZM75.3113 194.84C79.7113 192.6 82.1113 189.38 82.4713 185.24H76.1713V183.76H84.3113C84.3113 188.84 82.0713 193.36 76.3313 196.24L75.3113 194.84ZM99.3611 192.24H101.081V194.32H103.861V192.24H105.561V199.3H99.3611V192.24ZM97.6411 186.72C97.6411 184.3 99.5611 182.64 102.201 182.64C104.521 182.64 106.341 183.96 106.701 185.94H110.121V181.9H111.941V191.22H110.121V187.44H106.721C106.381 189.46 104.561 190.82 102.201 190.82C99.5611 190.82 97.6411 189.14 97.6411 186.72ZM99.4011 186.72C99.4011 188.26 100.561 189.3 102.201 189.3C103.841 189.3 105.021 188.26 105.021 186.72C105.021 185.2 103.841 184.16 102.201 184.16C100.561 184.16 99.4011 185.2 99.4011 186.72ZM101.081 197.9H103.861V195.68H101.081V197.9ZM105.661 198.08C107.761 197.2 108.801 195.32 108.801 193.56V192.12H110.601V193.56C110.601 195.42 111.641 197.28 113.761 198.08L112.841 199.46C111.281 198.82 110.241 197.66 109.701 196.26C109.141 197.64 108.101 198.82 106.561 199.46L105.661 198.08ZM116.822 192.46H118.622V194.38H126.902V192.46H128.702V199.3H116.822V192.46ZM114.842 191.32V189.86H130.782V191.32H114.842ZM115.722 187.28C119.082 186.84 121.882 184.94 121.882 182.8V182.08H123.762V182.8C123.762 184.9 126.582 186.86 129.902 187.28L129.242 188.7C126.442 188.3 123.962 186.96 122.822 185.06C121.702 186.96 119.202 188.3 116.402 188.7L115.722 187.28ZM118.622 197.84H126.902V195.78H118.622V197.84ZM145.022 181.88H146.822V199.52H145.022V181.88ZM133.382 195.02V183.6H135.202V193.46C137.742 193.44 140.442 193.24 143.282 192.64L143.522 194.18C140.462 194.82 137.622 195.02 134.882 195.02H133.382ZM161.603 181.86H163.443V188.74H166.243V190.26H163.443V199.56H161.603V181.86ZM150.563 195.2V183.6H158.763V185.06H152.363V193.66C155.383 193.66 157.563 193.54 160.063 193.06L160.263 194.6C157.563 195.1 155.223 195.2 151.963 195.2H150.563ZM168.823 196.14C169.483 196.14 169.923 196.58 169.923 197.24C169.923 197.9 169.483 198.36 168.823 198.36C168.163 198.36 167.703 197.9 167.703 197.24C167.703 196.58 168.163 196.14 168.823 196.14Z" fill="#9C9C9C"/>
<g opacity="0.9">
<path fill-rule="evenodd" clip-rule="evenodd" d="M73.0098 65.0265C72.7181 65.0661 72.4274 64.9481 72.2446 64.7161C70.8427 62.9362 68.6778 61.7969 66.2479 61.7969C62.3009 61.7969 59.0514 64.8061 58.6448 68.6677C58.6187 68.9154 58.4845 69.1387 58.2786 69.2771C58.0726 69.4154 57.8161 69.4546 57.5786 69.3839C56.8905 69.179 56.161 69.0687 55.4045 69.0687C51.1817 69.0687 47.7585 72.5122 47.7585 76.76C47.7585 76.9633 47.7663 77.1645 47.7816 77.3635C47.8036 77.6488 47.6796 77.9256 47.4526 78.098C47.2257 78.2704 46.927 78.3145 46.6603 78.2152C45.8343 77.9074 44.9402 77.7389 44.005 77.7389C39.7822 77.7389 36.359 81.1825 36.359 85.4303C36.359 86.7818 36.7048 88.0495 37.3116 89.1514C37.4341 89.3738 37.4497 89.6401 37.3541 89.8755C37.2584 90.1109 37.0618 90.2899 36.8195 90.3623C33.6585 91.3067 31.3544 94.252 31.3544 97.7365C31.3544 99.5552 31.9809 101.224 33.0293 102.541C33.212 102.77 33.262 103.079 33.1612 103.355C33.0604 103.631 32.8234 103.834 32.5365 103.889C29.0117 104.574 26.3497 107.696 26.3497 111.441C26.3497 113.557 27.1978 115.471 28.5725 116.863C28.8958 117.19 28.8958 117.719 28.5725 118.046C27.1978 119.437 26.3497 121.352 26.3497 123.468C26.3497 127.33 29.1812 130.529 32.87 131.076C33.105 131.111 33.3141 131.245 33.4448 131.445C33.5755 131.644 33.6155 131.89 33.5547 132.121C33.3891 132.75 33.3006 133.412 33.3006 134.096C33.3006 138.343 36.7239 141.787 40.9466 141.787C42.5531 141.787 44.0416 141.289 45.2714 140.439C45.5 140.281 45.7918 140.248 46.0499 140.35C48.3856 141.277 50.9313 141.787 53.5972 141.787H100.863C103.149 141.787 105.346 141.412 107.397 140.722C107.622 140.646 107.868 140.67 108.074 140.788C109.186 141.424 110.473 141.787 111.846 141.787C116.069 141.787 119.492 138.343 119.492 134.096C119.492 133.882 119.483 133.671 119.466 133.463C119.447 133.226 119.528 132.993 119.69 132.82C119.851 132.647 120.078 132.551 120.313 132.556L120.326 132.556C120.342 132.556 120.358 132.557 120.374 132.557C120.394 132.557 120.415 132.557 120.436 132.557C120.446 132.557 120.455 132.557 120.465 132.557C124.688 132.557 128.111 129.114 128.111 124.866C128.111 123.033 127.475 121.352 126.412 120.031C126.267 119.852 126.203 119.62 126.234 119.391C126.265 119.162 126.388 118.955 126.575 118.821C128.516 117.424 129.779 115.14 129.779 112.56C129.779 108.781 127.07 105.638 123.499 104.991C123.269 104.949 123.067 104.812 122.942 104.614C122.817 104.415 122.781 104.173 122.842 103.946C123.014 103.305 123.106 102.63 123.106 101.932C123.106 100.177 122.523 98.5609 121.54 97.267C121.312 96.9662 121.312 96.5489 121.54 96.2482C122.523 94.9542 123.106 93.3385 123.106 91.5834C123.106 87.3356 119.683 83.892 115.46 83.892C115.184 83.892 114.912 83.9067 114.643 83.9353C114.335 83.9683 114.033 83.8258 113.861 83.5656C113.689 83.3054 113.675 82.9706 113.825 82.6968C114.424 81.6 114.765 80.3401 114.765 78.9975C114.765 74.7497 111.342 71.3062 107.119 71.3062C105.544 71.3062 104.082 71.7846 102.866 72.6047C102.632 72.7627 102.334 72.791 102.075 72.6799C101.815 72.5688 101.629 72.3334 101.58 72.054C100.946 68.4499 97.8159 65.7125 94.0515 65.7125C92.392 65.7125 90.8583 66.2433 89.6057 67.1455C89.3666 67.3177 89.055 67.3505 88.7856 67.2319C88.5162 67.1132 88.3289 66.8607 88.2924 66.5672C87.8219 62.7743 84.6039 59.8391 80.7057 59.8391C77.5452 59.8391 74.8306 61.7683 73.666 64.5233C73.5508 64.7958 73.3015 64.987 73.0098 65.0265ZM120.325 134.234C120.325 134.188 120.326 134.142 120.326 134.096C120.326 133.913 120.32 133.732 120.309 133.553C120.309 133.552 120.309 133.551 120.309 133.551C120.306 133.499 120.302 133.447 120.298 133.395L120.312 133.395C120.329 133.395 120.346 133.396 120.364 133.396C120.397 133.396 120.431 133.396 120.465 133.396C120.69 133.396 120.912 133.388 121.132 133.37C125.504 133.028 128.945 129.351 128.945 124.866C128.945 123.136 128.433 121.525 127.553 120.181C127.399 119.947 127.235 119.721 127.06 119.503C127.287 119.34 127.505 119.167 127.714 118.983C129.491 117.419 130.613 115.121 130.613 112.56C130.613 108.66 128.012 105.372 124.46 104.354C124.194 104.278 123.923 104.215 123.647 104.165C123.719 103.896 123.778 103.623 123.825 103.345C123.901 102.885 123.94 102.413 123.94 101.932C123.94 99.9862 123.293 98.1927 122.203 96.7576C123.293 95.3224 123.94 93.529 123.94 91.5834C123.94 86.8915 120.175 83.0843 115.518 83.0532C115.499 83.053 115.479 83.053 115.46 83.053C115.155 83.053 114.853 83.0692 114.555 83.101C114.71 82.8189 114.848 82.527 114.971 82.2267C115.376 81.2306 115.599 80.1403 115.599 78.9975C115.599 74.2863 111.803 70.4671 107.119 70.4671C105.69 70.4671 104.344 70.8226 103.163 71.4505C102.901 71.5898 102.647 71.7426 102.402 71.9079C102.35 71.6128 102.283 71.3229 102.201 71.039C101.182 67.4782 97.9193 64.8734 94.0515 64.8734C92.5396 64.8734 91.1202 65.2714 89.891 65.9689C89.6248 66.1199 89.3675 66.2851 89.1201 66.4632C89.082 66.1562 89.0277 65.8542 88.9581 65.5582C88.0733 61.7979 84.7143 59 80.7057 59C77.5245 59 74.7524 60.7621 73.3014 63.369C73.1529 63.6358 73.0182 63.9115 72.8984 64.195C72.7088 63.9542 72.5065 63.724 72.2926 63.5054C70.7544 61.9329 68.6143 60.9578 66.2479 60.9578C62.1588 60.9578 58.7457 63.8691 57.9453 67.7436C57.8887 68.0176 57.8451 68.2964 57.8154 68.5793C57.5482 68.4998 57.2756 68.4331 56.9982 68.38C56.482 68.2813 55.9493 68.2296 55.4045 68.2296C50.797 68.2296 47.0478 71.9259 46.9274 76.5315C46.9254 76.6074 46.9244 76.6836 46.9244 76.76C46.9244 76.985 46.933 77.2078 46.95 77.4284C46.6728 77.3251 46.3887 77.2359 46.0987 77.1619C45.429 76.9908 44.7276 76.8999 44.005 76.8999C39.3216 76.8999 35.5249 80.7191 35.5249 85.4303C35.5249 86.6251 35.7691 87.7626 36.2101 88.7949C36.3217 89.0563 36.4459 89.3109 36.582 89.558C36.3105 89.6391 36.0446 89.7335 35.7853 89.8405C32.6961 91.1147 30.5203 94.17 30.5203 97.7365C30.5203 99.4243 31.0076 100.998 31.8484 102.322C32.012 102.58 32.189 102.828 32.3783 103.066C32.0783 103.124 31.7839 103.198 31.496 103.287C28.0327 104.36 25.5156 107.605 25.5156 111.441C25.5156 113.787 26.4572 115.912 27.9809 117.454C26.4572 118.997 25.5156 121.121 25.5156 123.468C25.5156 127.462 28.2443 130.814 31.9287 131.743C32.1971 131.81 32.4706 131.865 32.7484 131.906C32.6776 132.175 32.6195 132.45 32.5748 132.729C32.5036 133.174 32.4665 133.63 32.4665 134.096C32.4665 138.807 36.2632 142.626 40.9466 142.626C42.7271 142.626 44.3795 142.074 45.7438 141.131C48.1754 142.096 50.8248 142.626 53.5972 142.626H100.863C103.24 142.626 105.526 142.236 107.662 141.517C108.897 142.223 110.324 142.626 111.846 142.626C116.483 142.626 120.251 138.882 120.325 134.234Z" fill="#9E9E9E"/>
<path d="M83.7155 112.136C83.7155 113.709 81.0592 117.199 77.7825 117.199C74.5059 117.199 71.8496 113.709 71.8496 112.136C71.8496 110.563 74.5059 109.288 77.7825 109.288C81.0592 109.288 83.7155 110.563 83.7155 112.136Z" fill="#9E9E9E"/>
<path d="M102.361 103.639C102.361 108.008 98.8195 111.55 94.4506 111.55C90.0817 111.55 86.54 108.008 86.54 103.639C86.54 99.2702 90.0817 95.7285 94.4506 95.7285C98.8195 95.7285 102.361 99.2702 102.361 103.639Z" fill="white"/>
<path fill-rule="evenodd" clip-rule="evenodd" d="M94.4506 111.133C98.5896 111.133 101.945 107.778 101.945 103.639C101.945 99.5001 98.5896 96.1449 94.4506 96.1449C90.3117 96.1449 86.9564 99.5001 86.9564 103.639C86.9564 107.778 90.3117 111.133 94.4506 111.133ZM94.4506 111.55C98.8195 111.55 102.361 108.008 102.361 103.639C102.361 99.2702 98.8195 95.7285 94.4506 95.7285C90.0817 95.7285 86.54 99.2702 86.54 103.639C86.54 108.008 90.0817 111.55 94.4506 111.55Z" fill="#9E9E9E"/>
<mask id="mask0_716_9353" style="mask-type:alpha" maskUnits="userSpaceOnUse" x="86" y="95" width="17" height="17">
<path d="M102.361 103.639C102.361 108.008 98.8195 111.55 94.4506 111.55C90.0817 111.55 86.54 108.008 86.54 103.639C86.54 99.2702 90.0817 95.7285 94.4506 95.7285C98.8195 95.7285 102.361 99.2702 102.361 103.639Z" fill="#D9D9D9"/>
</mask>
<g mask="url(#mask0_716_9353)">
<path d="M107.087 102.509C106.59 107.768 101.925 111.629 96.6658 111.133C91.4067 110.636 87.5457 105.971 88.0419 100.712C88.5382 95.4528 93.2037 91.5917 98.4628 92.088C103.722 92.5842 107.583 97.2498 107.087 102.509Z" fill="#9E9E9E"/>
</g>
<path d="M96.7111 99.4015C96.7111 100.494 95.8257 101.379 94.7335 101.379C93.6413 101.379 92.7559 100.494 92.7559 99.4015C92.7559 98.3092 93.6413 97.4238 94.7335 97.4238C95.8257 97.4238 96.7111 98.3092 96.7111 99.4015Z" fill="white"/>
<path d="M95.2985 103.639C95.7344 104.686 96.6632 105.511 97.8412 105.899C96.6632 106.286 95.7344 107.112 95.2985 108.159C94.8626 107.112 93.9339 106.286 92.7559 105.899C93.9339 105.511 94.8626 104.686 95.2985 103.639Z" fill="white"/>
<path d="M99.5359 100.53C99.5359 100.998 99.1565 101.378 98.6884 101.378C98.2203 101.378 97.8408 100.998 97.8408 100.53C97.8408 100.062 98.2203 99.6826 98.6884 99.6826C99.1565 99.6826 99.5359 100.062 99.5359 100.53Z" fill="#EAEAEA"/>
<path d="M68.4598 103.639C68.4598 108.008 64.9181 111.55 60.5492 111.55C56.1804 111.55 52.6387 108.008 52.6387 103.639C52.6387 99.2702 56.1804 95.7285 60.5492 95.7285C64.9181 95.7285 68.4598 99.2702 68.4598 103.639Z" fill="white"/>
<path fill-rule="evenodd" clip-rule="evenodd" d="M60.5492 111.133C64.6882 111.133 68.0435 107.778 68.0435 103.639C68.0435 99.5001 64.6882 96.1449 60.5492 96.1449C56.4103 96.1449 53.055 99.5001 53.055 103.639C53.055 107.778 56.4103 111.133 60.5492 111.133ZM60.5492 111.55C64.9181 111.55 68.4598 108.008 68.4598 103.639C68.4598 99.2702 64.9181 95.7285 60.5492 95.7285C56.1804 95.7285 52.6387 99.2702 52.6387 103.639C52.6387 108.008 56.1804 111.55 60.5492 111.55Z" fill="#9E9E9E"/>
<mask id="mask1_716_9353" style="mask-type:alpha" maskUnits="userSpaceOnUse" x="52" y="95" width="17" height="17">
<path d="M68.4608 103.64C68.4608 108.009 64.9191 111.551 60.5502 111.551C56.1813 111.551 52.6396 108.009 52.6396 103.64C52.6396 99.2712 56.1813 95.7295 60.5502 95.7295C64.9191 95.7295 68.4608 99.2712 68.4608 103.64Z" fill="#D9D9D9"/>
</mask>
<g mask="url(#mask1_716_9353)">
<path d="M73.3151 102.51C72.8189 107.769 68.1533 111.63 62.8943 111.134C57.6352 110.637 53.7742 105.972 54.2704 100.713C54.7667 95.4537 59.4322 91.5927 64.6913 92.0889C69.9503 92.5852 73.8114 97.2507 73.3151 102.51Z" fill="#9E9E9E"/>
</g>
<path d="M62.8098 99.4015C62.8098 100.494 61.9244 101.379 60.8321 101.379C59.7399 101.379 58.8545 100.494 58.8545 99.4015C58.8545 98.3092 59.7399 97.4238 60.8321 97.4238C61.9244 97.4238 62.8098 98.3092 62.8098 99.4015Z" fill="white"/>
<path d="M61.3972 103.639C61.8331 104.686 62.7619 105.511 63.9399 105.899C62.7619 106.286 61.8331 107.112 61.3972 108.159C60.9613 107.112 60.0325 106.286 58.8545 105.899C60.0325 105.511 60.9613 104.686 61.3972 103.639Z" fill="white"/>
<path d="M65.6346 100.53C65.6346 100.998 65.2551 101.378 64.787 101.378C64.3189 101.378 63.9395 100.998 63.9395 100.53C63.9395 100.062 64.3189 99.6826 64.787 99.6826C65.2551 99.6826 65.6346 100.062 65.6346 100.53Z" fill="#EAEAEA"/>
<path d="M82.289 111.602C82.2219 112.077 81.4975 112.281 80.6712 112.058C79.8448 111.835 79.2293 111.27 79.2964 110.795C79.3636 110.32 80.0879 110.116 80.9143 110.339C81.7406 110.562 82.3561 111.127 82.289 111.602Z" fill="white"/>
<path d="M99.189 83.4599C99.1661 83.7674 98.8982 83.998 98.5908 83.975L91.0755 83.4141C90.7681 83.3911 90.5375 83.1233 90.5604 82.8158L90.5735 82.6399C90.5926 82.384 90.7847 82.1738 91.0377 82.1311C93.857 81.6559 95.4701 81.4676 98.8448 82.7025C99.0764 82.7872 99.2221 83.0169 99.2037 83.2628L99.189 83.4599Z" fill="#9E9E9E"/>
<path d="M55.5502 84.0175C55.5732 84.325 55.841 84.5556 56.1485 84.5327L63.6637 83.9717C63.9712 83.9487 64.2018 83.6809 64.1788 83.3734L64.1657 83.1975C64.1466 82.9416 63.9545 82.7314 63.7015 82.6888C60.8823 82.2135 59.2691 82.0252 55.8944 83.2601C55.6628 83.3448 55.5172 83.5745 55.5355 83.8205L55.5502 84.0175Z" fill="#9E9E9E"/>
<path d="M44.1621 143.52C44.1621 141.024 46.1859 139 48.6824 139H104.056C106.553 139 108.577 141.024 108.577 143.52C108.577 146.017 106.553 148.041 104.056 148.041H48.6824C46.1859 148.041 44.1621 146.017 44.1621 143.52Z" fill="#9E9E9E"/>
<path d="M86.5401 150.301C86.5401 155.918 82.113 160.471 76.6519 160.471C71.1908 160.471 66.7637 155.918 66.7637 150.301C66.7637 144.683 71.1908 140.13 76.6519 140.13C82.113 140.13 86.5401 144.683 86.5401 150.301Z" fill="white"/>
<path fill-rule="evenodd" clip-rule="evenodd" d="M87.6704 150.018C87.6704 156.104 82.7373 161.037 76.6521 161.037C70.5668 161.037 65.6338 156.104 65.6338 150.018C65.6338 143.933 70.5668 139 76.6521 139C82.7373 139 87.6704 143.933 87.6704 150.018ZM76.6521 160.189C82.2692 160.189 86.8228 155.635 86.8228 150.018C86.8228 144.401 82.2692 139.848 76.6521 139.848C71.0349 139.848 66.4814 144.401 66.4814 150.018C66.4814 155.635 71.0349 160.189 76.6521 160.189Z" fill="#9E9E9E"/>
<path fill-rule="evenodd" clip-rule="evenodd" d="M76.9546 157.322C77.5893 157.17 78.0645 156.55 78.0645 155.807C78.0645 154.95 77.432 154.256 76.6519 154.256C75.8717 154.256 75.2393 154.95 75.2393 155.807C75.2393 156.55 75.7145 157.17 76.3492 157.322L76.3492 159.574C76.3492 159.757 76.4847 159.906 76.6519 159.906C76.819 159.906 76.9546 159.757 76.9546 159.574L76.9546 157.322Z" fill="#9E9E9E"/>
<path d="M65.6338 150.866C65.6338 149.93 66.3742 149.171 67.2876 149.171H86.5816C87.495 149.171 88.2354 149.93 88.2354 150.866C88.2354 151.802 87.495 152.561 86.5816 152.561H67.2876C66.3742 152.561 65.6338 151.802 65.6338 150.866Z" fill="white"/>
<path fill-rule="evenodd" clip-rule="evenodd" d="M67.276 148.605H86.5925C87.8117 148.605 88.8001 149.617 88.8001 150.866C88.8001 152.114 87.8117 153.126 86.5925 153.126H67.276C66.0567 153.126 65.0684 152.114 65.0684 150.866C65.0684 149.617 66.0567 148.605 67.276 148.605ZM67.276 149.171C66.3615 149.171 65.6203 149.929 65.6203 150.866C65.6203 151.802 66.3615 152.561 67.276 152.561H86.5925C87.5069 152.561 88.2482 151.802 88.2482 150.866C88.2482 149.929 87.5069 149.171 86.5925 149.171H67.276Z" fill="#9E9E9E"/>
<path fill-rule="evenodd" clip-rule="evenodd" d="M52.6382 69.6787C52.6382 75.2641 48.1415 79.792 42.5946 79.792C41.9434 79.792 41.3067 79.7296 40.69 79.6104C40.6692 79.6734 40.6478 79.7362 40.6258 79.7987C43.3264 81.6115 45.1055 84.7064 45.1055 88.2197C45.1055 93.8051 40.6088 98.333 35.0619 98.333C35.0504 98.333 35.039 98.3329 35.0275 98.3329C35.0503 98.6108 35.0619 98.8919 35.0619 99.1757C35.0619 104.761 30.5652 109.289 25.0183 109.289C19.4714 109.289 14.9747 104.761 14.9747 99.1757C14.9747 97.3831 15.4379 95.6993 16.2504 94.2393C11.5591 93.3879 8 89.2559 8 84.2868C8 78.7014 12.4967 74.1735 18.0436 74.1735C19.1674 74.1735 20.248 74.3593 21.2569 74.7022C22.0674 69.9354 26.191 66.3076 31.1561 66.3076C31.8073 66.3076 32.444 66.37 33.0607 66.4892C34.3873 62.4667 38.1545 59.5654 42.5946 59.5654C48.1415 59.5654 52.6382 64.0933 52.6382 69.6787Z" fill="white"/>
<path fill-rule="evenodd" clip-rule="evenodd" d="M39.8957 79.3448C40.028 78.9434 40.4353 78.703 40.8478 78.7827C41.4127 78.8919 41.9966 78.9492 42.5946 78.9492C47.6793 78.9492 51.8012 74.7987 51.8012 69.6787C51.8012 64.5587 47.6793 60.4082 42.5946 60.4082C38.5258 60.4082 35.0713 63.0665 33.855 66.7548C33.7227 67.1562 33.3154 67.3966 32.9029 67.3169C32.338 67.2077 31.7541 67.1504 31.1561 67.1504C26.6056 67.1504 22.8247 70.4755 22.0819 74.8444C22.0406 75.0872 21.8959 75.2997 21.6857 75.4259C21.4756 75.5521 21.2211 75.5795 20.9893 75.5007C20.0655 75.1868 19.0752 75.0163 18.0436 75.0163C12.9589 75.0163 8.83697 79.1668 8.83697 84.2868C8.83697 88.8409 12.099 92.6296 16.3989 93.4099C16.6652 93.4582 16.8919 93.6332 17.0073 93.8797C17.1228 94.1261 17.1128 94.4136 16.9806 94.6513C16.2363 95.9887 15.8117 97.531 15.8117 99.1757C15.8117 104.296 19.9336 108.446 25.0183 108.446C30.103 108.446 34.2249 104.296 34.2249 99.1757C34.2249 98.9151 34.2143 98.6571 34.1934 98.4022C34.1741 98.1669 34.2537 97.9343 34.4128 97.761C34.5719 97.5876 34.7959 97.4893 35.0303 97.4901L35.0619 97.4902C40.1466 97.4902 44.2685 93.3396 44.2685 88.2197C44.2685 85 42.6392 82.1631 40.1615 80.5C39.8426 80.2859 39.7089 79.8811 39.8369 79.5173C39.857 79.4601 39.8766 79.4025 39.8957 79.3448ZM41.6602 80.5948C41.3409 80.3145 41.0038 80.0541 40.6508 79.8156C40.6425 79.81 40.6341 79.8044 40.6258 79.7987C40.6478 79.7362 40.6692 79.6734 40.69 79.6104C40.7079 79.6138 40.7258 79.6172 40.7437 79.6206C41.1521 79.6972 41.5691 79.7489 41.9933 79.7741C42.1922 79.786 42.3927 79.792 42.5946 79.792C48.1415 79.792 52.6382 75.2641 52.6382 69.6787C52.6382 64.0933 48.1415 59.5654 42.5946 59.5654C38.1545 59.5654 34.3873 62.4667 33.0607 66.4892C32.444 66.37 31.8073 66.3076 31.1561 66.3076C26.4831 66.3076 22.5554 69.5211 21.4338 73.8733C21.3637 74.1453 21.3046 74.4217 21.2569 74.7022C20.9922 74.6122 20.7226 74.5331 20.4485 74.4652C19.678 74.2746 18.8725 74.1735 18.0436 74.1735C12.4967 74.1735 8 78.7014 8 84.2868C8 88.9515 11.1364 92.8785 15.4016 94.0465C15.6799 94.1227 15.963 94.1871 16.2504 94.2393C16.109 94.4935 15.9781 94.7545 15.8584 95.0216C15.2907 96.2889 14.9747 97.6952 14.9747 99.1757C14.9747 104.761 19.4714 109.289 25.0183 109.289C30.5652 109.289 35.0619 104.761 35.0619 99.1757C35.0619 98.8919 35.0503 98.6108 35.0275 98.3329L35.0619 98.333C35.3321 98.333 35.5998 98.3222 35.8647 98.3011C41.0363 97.8893 45.1055 93.533 45.1055 88.2197C45.1055 85.1774 43.7714 82.4488 41.6602 80.5948Z" fill="#9E9E9E"/>
<path fill-rule="evenodd" clip-rule="evenodd" d="M102.362 69.1133C102.362 74.6987 106.858 79.2265 112.405 79.2265C113.057 79.2265 113.693 79.1641 114.31 79.0449C114.331 79.108 114.352 79.1708 114.374 79.2333C111.674 81.0461 109.894 84.141 109.894 87.6543C109.894 93.2397 114.391 97.7675 119.938 97.7675C119.95 97.7675 119.961 97.7675 119.972 97.7675C119.95 98.0454 119.938 98.3265 119.938 98.6103C119.938 104.196 124.435 108.724 129.982 108.724C135.529 108.724 140.025 104.196 140.025 98.6103C140.025 96.8176 139.562 95.1339 138.75 93.6739C143.441 92.8225 147 88.6904 147 83.7213C147 78.1359 142.503 73.6081 136.956 73.6081C135.833 73.6081 134.752 73.7939 133.743 74.1367C132.933 69.37 128.809 65.7422 123.844 65.7422C123.193 65.7422 122.556 65.8046 121.939 65.9238C120.613 61.9012 116.846 59 112.405 59C106.858 59 102.362 63.5279 102.362 69.1133Z" fill="white"/>
<path d="M138.749 93.6685L138.751 93.6695L138.749 93.6685Z" fill="#9E9E9E" stroke="#9E9E9E" stroke-width="4" stroke-linejoin="round"/>
<path d="M75.7258 119.828C76.7684 118.581 78.7971 118.581 79.8397 119.828L84.2937 125.159C85.6221 126.749 84.4028 129.063 82.2367 129.063H73.3288C71.1627 129.063 69.9434 126.749 71.2718 125.159L75.7258 119.828Z" fill="#D9D9D9"/>
<path fill-rule="evenodd" clip-rule="evenodd" d="M83.8366 125.489L79.3826 120.158C78.5717 119.188 76.9938 119.188 76.1829 120.158L71.7289 125.489C70.6957 126.726 71.644 128.526 73.3288 128.526H82.2367C83.9214 128.526 84.8698 126.726 83.8366 125.489ZM79.8397 119.828C78.7971 118.581 76.7684 118.581 75.7258 119.828L71.2718 125.159C69.9434 126.749 71.1627 129.063 73.3288 129.063H82.2367C84.4028 129.063 85.6221 126.749 84.2937 125.159L79.8397 119.828Z" fill="#9E9E9E"/>
</g>
<path fill-rule="evenodd" clip-rule="evenodd" d="M124.691 63.4182C136.999 67.9043 151.12 63.0522 157.896 51.3157C165.49 38.1627 160.983 21.3439 147.83 13.75C134.677 6.15608 117.859 10.6627 110.265 23.8157C103.489 35.5522 106.347 50.2073 116.386 58.623L114.332 69.8872C114.164 70.8113 115.247 71.4368 115.963 70.8288L124.691 63.4182Z" fill="#A8A8A8"/>
<path d="M136.818 26.93L136.278 43.88H132.798L132.168 26.93H136.818ZM132.528 48.8C132.528 47.63 133.368 46.79 134.538 46.79C135.738 46.79 136.548 47.63 136.548 48.8C136.548 50 135.738 50.84 134.538 50.84C133.368 50.84 132.528 50 132.528 48.8Z" fill="white"/>
</svg>
