<svg width="55" height="28" viewBox="0 0 55 28" fill="none" xmlns="http://www.w3.org/2000/svg">
<path d="M4.47075 9.82135C4.35153 8.78431 4.32172 7.71678 4.41114 6.55773C2.65264 6.34423 0.923955 6.10022 0.923955 3.81264C0.923955 1.98257 2.05654 1.31155 3.63621 1.15904C6.5571 0.823529 10.1039 0.671024 13.3824 0.671024C16.6312 0.671024 20.2078 0.823529 23.1287 1.15904C24.7083 1.31155 25.8409 1.98257 25.8409 3.81264C25.8409 6.19172 23.9632 6.40523 22.1749 6.55773C22.2643 7.68627 22.2047 8.78431 22.0855 9.79085C22.4432 9.82135 22.8008 9.88235 23.1287 9.91285C24.7083 10.0959 25.8409 10.7364 25.8409 12.5969C25.8409 14.427 24.7083 15.037 23.1287 15.1895C20.2078 15.5251 16.6312 15.7081 13.3824 15.7081C10.1039 15.7081 6.5571 15.5251 3.63621 15.1895C2.05654 15.037 0.923955 14.427 0.923955 12.5969C0.923955 10.7364 2.05654 10.0959 3.63621 9.91285C3.90445 9.88235 4.2025 9.85185 4.47075 9.82135ZM11.9518 9.42484C12.4287 9.42484 12.9056 9.42484 13.3824 9.42484C13.7997 9.42484 14.217 9.42484 14.6342 9.42484C14.6342 8.60131 14.6939 7.80828 14.8131 6.95425C14.3362 6.95425 13.8593 6.95425 13.3824 6.95425C12.846 6.95425 12.3095 6.95425 11.773 6.95425C11.8922 7.80828 11.9518 8.60131 11.9518 9.42484ZM8.40501 22.9368C6.43788 22.8758 4.50055 22.7538 2.74206 22.6013C1.04317 22.4488 0 21.2288 0 19.3987C0 17.8736 1.04317 16.2876 2.74206 16.4706C9.12033 17.0806 17.3167 17.0196 23.9334 16.4706C25.6621 16.3181 26.7053 17.8736 26.7053 19.3987C26.7053 21.2288 25.6621 22.4488 23.9036 22.6013C22.1153 22.7538 20.2078 22.8453 18.2705 22.9063C18.3599 23.3333 18.3897 23.8519 18.3897 24.4619C18.3897 27.9085 17.2571 28 13.3526 28C9.44818 28 8.28579 27.9085 8.28579 24.4619C8.28579 23.8519 8.31559 23.3638 8.40501 22.9368Z" fill="#8722ED"/>
<path d="M47.9621 12.1394C47.9322 12.5054 47.9322 12.841 47.9024 13.207C47.7534 15.6166 46.591 16.8061 44.8921 16.8061C43.074 16.8061 41.8222 15.403 42.0905 12.719C42.3289 9.69935 42.3289 7.41177 42.1203 4.69717C41.8818 1.70806 43.074 0.335511 44.8921 0.335511C46.591 0.335511 47.7534 1.52505 47.9024 3.93464C47.9322 4.42266 47.9322 4.88017 47.9621 5.36819L49.1244 5.45969C49.0946 5.12418 49.0946 4.78867 49.0648 4.45316C48.7966 1.43355 50.0186 0 51.8665 0C53.5058 0 54.7278 1.22004 54.8768 3.72113C55.0258 6.89325 55.0556 10.4314 54.8768 13.6035C54.698 16.0741 53.5058 17.2941 51.8665 17.2941C50.0186 17.2941 48.7966 15.8911 49.035 13.1155C49.0648 12.7495 49.0648 12.4139 49.0946 12.0479L47.9621 12.1394ZM34.1921 6.58824C34.4306 7.13726 34.52 8.3573 34.4306 8.87582C33.596 9.15033 33.0298 9.36383 32.4038 9.69935C32.0164 9.88235 32.2548 10.5229 32.7019 10.2789C34.0133 9.63834 35.1161 9.18083 37.1726 9.15033C39.7359 9.11982 41.3155 9.76035 41.5242 12.1699C41.7328 14.4575 40.6896 15.4641 38.7821 16.0741C37.113 16.5926 34.9373 16.5621 33.1788 16.5621C29.8704 16.5621 28.8272 15.1895 28.4398 12.841C27.9331 10.1874 27.8437 6.89325 28.4398 4.27015C28.9167 1.89107 29.8704 0.701525 32.1058 0.488017C34.3412 0.24401 35.9208 0.27451 37.888 0.427015C40.2127 0.579521 41.1665 1.58606 41.1665 3.44662C41.1665 5.36819 40.3618 6.58824 37.888 6.58824H34.1921ZM29.632 23.0283C29.632 19.2767 33.5364 17.1416 42.2991 17.1416C51.032 17.1416 54.9066 19.2767 54.9066 23.0283C54.9066 26.841 51.6579 28 42.2991 28C32.9403 28 29.632 26.841 29.632 23.0283ZM40.1233 23.1808C41.4944 23.9129 43.074 23.9129 44.4451 23.1808C44.6537 23.0588 44.8325 22.7538 44.7133 22.4488C44.6239 22.2048 44.3258 21.9913 44.0874 22.1438C42.9846 22.7538 41.4944 22.7233 40.4214 22.1133C40.2426 21.9913 39.9147 22.0828 39.7657 22.3878C39.6166 22.6928 39.7359 22.9673 40.1233 23.1808Z" fill="#8722ED"/>
</svg>
