<svg width="102" height="102" viewBox="0 0 102 102" fill="none" xmlns="http://www.w3.org/2000/svg">
<path d="M102 51C102 79.1665 79.1665 102 51 102C22.8335 102 0 79.1665 0 51C0 22.8335 22.8335 0 51 0C79.1665 0 102 22.8335 102 51Z" fill="#C0E1FF"/>
<g filter="url(#filter0_d_1278_10090)">
<path d="M67.9747 15.1375C68.5041 14.1654 69.7343 13.9592 70.3317 14.8911C73.4321 19.7276 76.9491 32.4889 75.105 41.3799L60.3379 32.8273C59.4933 32.3381 59.1909 31.2673 59.6577 30.4101C60.7165 28.4659 62.5621 25.0768 63.901 22.618C65.1711 20.2859 66.8969 17.1167 67.9747 15.1375Z" fill="black"/>
<path d="M67.077 18.3402C67.6064 17.3681 68.8262 17.1752 69.3944 18.1251C71.9257 22.3565 74.677 32.6438 73.1795 39.8638L61.1474 32.8952C60.3027 32.406 60.0006 31.3347 60.4674 30.4775C61.3642 28.8307 62.8004 26.1935 63.8572 24.2529C64.8496 22.4305 66.1764 19.9941 67.077 18.3402Z" fill="url(#paint0_linear_1278_10090)"/>
<path fill-rule="evenodd" clip-rule="evenodd" d="M67.5595 26.4431C67.3664 26.3956 67.1712 26.5135 67.1236 26.7067L65.3574 33.8754C65.3098 34.0685 65.4278 34.2637 65.621 34.3113C65.8141 34.3589 66.0092 34.2409 66.0568 34.0477L67.823 26.879C67.8706 26.6859 67.7526 26.4907 67.5595 26.4431Z" fill="#434343"/>
<path d="M33.5243 15.1375C32.9949 14.1654 31.7648 13.9592 31.1674 14.8911C28.0669 19.7276 24.5499 32.4889 26.394 41.3799L41.1611 32.8273C42.0058 32.3381 42.3081 31.2673 41.8413 30.4101C40.7826 28.4659 38.937 25.0768 37.598 22.618C36.3279 20.2859 34.6021 17.1167 33.5243 15.1375Z" fill="black"/>
<path d="M34.422 18.3402C33.8926 17.3681 32.6729 17.1752 32.1046 18.1251C29.5733 22.3565 26.822 32.6438 28.3195 39.8638L40.3517 32.8952C41.1963 32.406 41.4984 31.3347 41.0316 30.4775C40.1348 28.8307 38.6987 26.1935 37.6418 24.2529C36.6495 22.4305 35.3226 19.9941 34.422 18.3402Z" fill="url(#paint1_linear_1278_10090)"/>
<path fill-rule="evenodd" clip-rule="evenodd" d="M33.9405 26.4431C34.1336 26.3956 34.3288 26.5135 34.3764 26.7067L36.1426 33.8754C36.1902 34.0685 36.0722 34.2637 35.879 34.3113C35.6859 34.3589 35.4908 34.2409 35.4432 34.0477L33.677 26.879C33.6294 26.6859 33.7474 26.4907 33.9405 26.4431Z" fill="#434343"/>
<path d="M29.5244 73.2535C29.5244 72.8557 29.8469 72.5332 30.2447 72.5332H70.4016C70.7994 72.5332 71.1219 72.8557 71.1219 73.2535V81.537C71.1219 81.9348 70.7994 82.2573 70.4016 82.2573H30.2447C29.8469 82.2573 29.5244 81.9348 29.5244 81.537V73.2535Z" fill="#3967AC"/>
<path d="M57.3473 83.5179C57.3473 87.0982 54.4449 90.0006 50.8646 90.0006C47.2843 90.0006 44.3818 87.0982 44.3818 83.5179C44.3818 79.9376 47.2843 77.0352 50.8646 77.0352C54.4449 77.0352 57.3473 79.9376 57.3473 83.5179Z" fill="#9BF3FF"/>
<path fill-rule="evenodd" clip-rule="evenodd" d="M51.1342 87.8124C51.7005 87.6887 52.1246 87.1843 52.1246 86.5808C52.1246 85.8847 51.5602 85.3203 50.864 85.3203C50.1679 85.3203 49.6035 85.8847 49.6035 86.5808C49.6035 87.1843 50.0276 87.6887 50.5939 87.8124L50.5939 89.6421C50.5939 89.7913 50.7149 89.9122 50.864 89.9122C51.0132 89.9122 51.1342 89.7913 51.1342 89.6421L51.1342 87.8124Z" fill="#464646"/>
<path d="M43.2998 83.8793C43.2998 83.2826 43.7835 82.7988 44.3803 82.7988H56.9856C57.5823 82.7988 58.066 83.2826 58.066 83.8793C58.066 84.476 57.5823 84.9597 56.9856 84.9597H44.3803C43.7835 84.9597 43.2998 84.476 43.2998 83.8793Z" fill="#E1FFFA"/>
<path d="M18 60.2363C18 53.7998 23.2178 48.582 29.6543 48.582H72.2268C78.678 48.582 83.9078 53.8118 83.9078 60.263C83.9078 64.4055 81.7169 68.2476 78.0117 70.1001C71.2136 73.4992 59.8767 78.4363 51.314 78.4743C42.532 78.5132 30.8758 73.5069 23.9352 70.0808C20.2089 68.2415 18 64.3919 18 60.2363Z" fill="white"/>
<path d="M22.3213 55.5147C22.3213 39.7514 35.1 26.9727 50.8633 26.9727C66.6266 26.9727 79.4053 39.7514 79.4053 55.5147V61.1871H22.3213V55.5147Z" fill="white"/>
<path d="M56.6903 57.5691C56.6052 54.5656 59.6417 52.0393 63.4726 51.9264L68.5594 51.7765C72.3903 51.6636 75.5649 54.0069 75.6501 57.0103C75.7352 60.0138 72.6987 62.5401 68.8677 62.653L63.781 62.8029C59.95 62.9158 56.7754 60.5725 56.6903 57.5691Z" fill="url(#paint2_radial_1278_10090)"/>
<path d="M25.3573 57.6414C25.2721 54.6379 28.3087 52.1116 32.1396 51.9987L37.2264 51.8488C41.0573 51.7359 44.2319 54.0791 44.3171 57.0826C44.4022 60.086 41.3657 62.6123 37.5347 62.7252L32.448 62.8752C28.617 62.9881 25.4424 60.6448 25.3573 57.6414Z" fill="url(#paint3_radial_1278_10090)"/>
<path d="M55.6364 57.7319C55.6364 58.806 53.5402 61.7296 50.9544 61.7296C48.3687 61.7296 46.2725 58.806 46.2725 57.7319C46.2725 56.6578 48.3687 55.7871 50.9544 55.7871C53.5402 55.7871 55.6364 56.6578 55.6364 57.7319Z" fill="#060606"/>
<g filter="url(#filter1_d_1278_10090)">
<path d="M44.1216 52.0096C44.1216 54.7968 41.8622 57.0562 39.075 57.0562C36.2878 57.0562 34.0283 54.7968 34.0283 52.0096C34.0283 49.2224 36.2878 46.9629 39.075 46.9629C41.8622 46.9629 44.1216 49.2224 44.1216 52.0096Z" fill="white"/>
</g>
<mask id="mask0_1278_10090" style="mask-type:alpha" maskUnits="userSpaceOnUse" x="34" y="46" width="11" height="12">
<path d="M44.1226 52.0076C44.1226 54.7948 41.8632 57.0543 39.076 57.0543C36.2888 57.0543 34.0293 54.7948 34.0293 52.0076C34.0293 49.2204 36.2888 46.9609 39.076 46.9609C41.8632 46.9609 44.1226 49.2204 44.1226 52.0076Z" fill="#D9D9D9"/>
</mask>
<g mask="url(#mask0_1278_10090)">
<path d="M47.1334 51.2808C46.8186 54.6173 43.8587 57.0668 40.5222 56.752C37.1858 56.4372 34.7362 53.4772 35.0511 50.1408C35.3659 46.8043 38.3258 44.3548 41.6623 44.6696C44.9987 44.9845 47.4482 47.9444 47.1334 51.2808Z" fill="#9FD1FF"/>
</g>
<path d="M41.1078 49.8298C41.1078 50.7498 40.3621 51.4955 39.4421 51.4955C38.5221 51.4955 37.7764 50.7498 37.7764 49.8298C37.7764 48.9098 38.5221 48.1641 39.4421 48.1641C40.3621 48.1641 41.1078 48.9098 41.1078 49.8298Z" fill="white"/>
<path d="M41.5591 50.3867C41.8269 51.1104 42.3975 51.681 43.1212 51.9488C42.3975 52.2166 41.8269 52.7872 41.5591 53.5108C41.2913 52.7872 40.7208 52.2166 39.9971 51.9488C40.7208 51.681 41.2913 51.1104 41.5591 50.3867Z" fill="black"/>
<path d="M38.8299 52.1816C38.8299 52.4728 38.5939 52.7088 38.3027 52.7088C38.0115 52.7088 37.7754 52.4728 37.7754 52.1816C37.7754 51.8904 38.0115 51.6543 38.3027 51.6543C38.5939 51.6543 38.8299 51.8904 38.8299 52.1816Z" fill="#00FF85"/>
<g filter="url(#filter2_d_1278_10090)">
<path d="M67.7095 52.0096C67.7095 54.7968 65.4501 57.0562 62.6629 57.0562C59.8757 57.0562 57.6162 54.7968 57.6162 52.0096C57.6162 49.2224 59.8757 46.9629 62.6629 46.9629C65.4501 46.9629 67.7095 49.2224 67.7095 52.0096Z" fill="white"/>
</g>
<mask id="mask1_1278_10090" style="mask-type:alpha" maskUnits="userSpaceOnUse" x="57" y="46" width="11" height="12">
<path d="M67.7086 52.0076C67.7086 54.7948 65.4491 57.0543 62.6619 57.0543C59.8747 57.0543 57.6152 54.7948 57.6152 52.0076C57.6152 49.2204 59.8747 46.9609 62.6619 46.9609C65.4491 46.9609 67.7086 49.2204 67.7086 52.0076Z" fill="#D9D9D9"/>
</mask>
<g mask="url(#mask1_1278_10090)">
<path d="M70.7194 51.2808C70.4045 54.6173 67.4446 57.0668 64.1081 56.752C60.7717 56.4372 58.3222 53.4772 58.637 50.1408C58.9518 46.8043 61.9118 44.3548 65.2482 44.6696C68.5847 44.9845 71.0342 47.9444 70.7194 51.2808Z" fill="#9FD1FF"/>
</g>
<path d="M64.6938 49.8298C64.6938 50.7498 63.948 51.4955 63.028 51.4955C62.1081 51.4955 61.3623 50.7498 61.3623 49.8298C61.3623 48.9098 62.1081 48.1641 63.028 48.1641C63.948 48.1641 64.6938 48.9098 64.6938 49.8298Z" fill="white"/>
<path d="M65.1451 50.3867C65.4129 51.1104 65.9834 51.681 66.7071 51.9488C65.9834 52.2166 65.4129 52.7872 65.1451 53.5108C64.8773 52.7872 64.3067 52.2166 63.583 51.9488C64.3067 51.681 64.8773 51.1104 65.1451 50.3867Z" fill="black"/>
<path d="M62.4178 52.1816C62.4178 52.4728 62.1817 52.7088 61.8905 52.7088C61.5993 52.7088 61.3633 52.4728 61.3633 52.1816C61.3633 51.8904 61.5993 51.6543 61.8905 51.6543C62.1817 51.6543 62.4178 51.8904 62.4178 52.1816Z" fill="#00FF85"/>
<path d="M54.556 57.1414C54.5281 57.2841 53.9183 57.6904 53.3852 57.5863C52.852 57.4822 52.5974 56.9071 52.6253 56.7643C52.6532 56.6216 53.108 56.5903 53.6411 56.6944C54.1743 56.7985 54.5839 56.9986 54.556 57.1414Z" fill="white"/>
<path d="M51.4614 50.6532C51.1788 51.0819 50.5499 51.0818 50.2683 50.6524C45.5692 43.4852 42.8492 37.7852 38.1207 30.5962C37.8688 30.2133 38.0316 29.6936 38.4594 29.5291C47.8565 25.9162 53.6304 25.9113 63.6059 29.5385C64.0422 29.6971 64.2132 30.2237 63.9574 30.611C59.2137 37.7932 56.1825 43.4905 51.4614 50.6532Z" fill="black"/>
<path d="M64.7921 42.9955C64.7306 42.8014 64.5205 42.6968 64.3285 42.7648L59.7572 44.3844C59.5697 44.4508 59.4716 44.6566 59.538 44.8441L59.6759 45.2332C59.735 45.4001 59.9068 45.4993 60.081 45.467L64.8694 44.579C65.0823 44.5395 65.2124 44.3225 65.1471 44.1161L64.7921 42.9955Z" fill="#584A42"/>
<path d="M36.5477 42.9955C36.6092 42.8014 36.8194 42.6968 37.0114 42.7648L41.5826 44.3844C41.7701 44.4508 41.8682 44.6566 41.8018 44.8441L41.664 45.2332C41.6048 45.4001 41.433 45.4993 41.2588 45.467L36.4705 44.579C36.2576 44.5395 36.1274 44.3225 36.1928 44.1161L36.5477 42.9955Z" fill="#584A42"/>
<path fill-rule="evenodd" clip-rule="evenodd" d="M50.8345 62.6965C50.96 62.6064 51.129 62.6064 51.2546 62.6965L54.766 65.2176C54.9276 65.3336 54.9646 65.5586 54.8485 65.7202C54.7325 65.8817 54.5075 65.9187 54.3459 65.8027L51.0445 63.4324L47.7431 65.8027C47.5815 65.9187 47.3565 65.8817 47.2405 65.7202C47.1245 65.5586 47.1614 65.3336 47.323 65.2176L50.8345 62.6965Z" fill="#989898"/>
</g>
<defs>
<filter id="filter0_d_1278_10090" x="15" y="11.291" width="71.9082" height="81.709" filterUnits="userSpaceOnUse" color-interpolation-filters="sRGB">
<feFlood flood-opacity="0" result="BackgroundImageFix"/>
<feColorMatrix in="SourceAlpha" type="matrix" values="0 0 0 0 0 0 0 0 0 0 0 0 0 0 0 0 0 0 127 0" result="hardAlpha"/>
<feOffset/>
<feGaussianBlur stdDeviation="1.5"/>
<feComposite in2="hardAlpha" operator="out"/>
<feColorMatrix type="matrix" values="0 0 0 0 0 0 0 0 0 0 0 0 0 0 0 0 0 0 0.25 0"/>
<feBlend mode="normal" in2="BackgroundImageFix" result="effect1_dropShadow_1278_10090"/>
<feBlend mode="normal" in="SourceGraphic" in2="effect1_dropShadow_1278_10090" result="shape"/>
</filter>
<filter id="filter1_d_1278_10090" x="26.0283" y="38.9629" width="26.0938" height="26.0938" filterUnits="userSpaceOnUse" color-interpolation-filters="sRGB">
<feFlood flood-opacity="0" result="BackgroundImageFix"/>
<feColorMatrix in="SourceAlpha" type="matrix" values="0 0 0 0 0 0 0 0 0 0 0 0 0 0 0 0 0 0 127 0" result="hardAlpha"/>
<feOffset/>
<feGaussianBlur stdDeviation="4"/>
<feComposite in2="hardAlpha" operator="out"/>
<feColorMatrix type="matrix" values="0 0 0 0 0 0 0 0 0 0 0 0 0 0 0 0 0 0 0.25 0"/>
<feBlend mode="normal" in2="BackgroundImageFix" result="effect1_dropShadow_1278_10090"/>
<feBlend mode="normal" in="SourceGraphic" in2="effect1_dropShadow_1278_10090" result="shape"/>
</filter>
<filter id="filter2_d_1278_10090" x="49.6162" y="38.9629" width="26.0938" height="26.0938" filterUnits="userSpaceOnUse" color-interpolation-filters="sRGB">
<feFlood flood-opacity="0" result="BackgroundImageFix"/>
<feColorMatrix in="SourceAlpha" type="matrix" values="0 0 0 0 0 0 0 0 0 0 0 0 0 0 0 0 0 0 127 0" result="hardAlpha"/>
<feOffset/>
<feGaussianBlur stdDeviation="4"/>
<feComposite in2="hardAlpha" operator="out"/>
<feColorMatrix type="matrix" values="0 0 0 0 0 0 0 0 0 0 0 0 0 0 0 0 0 0 0.25 0"/>
<feBlend mode="normal" in2="BackgroundImageFix" result="effect1_dropShadow_1278_10090"/>
<feBlend mode="normal" in="SourceGraphic" in2="effect1_dropShadow_1278_10090" result="shape"/>
</filter>
<linearGradient id="paint0_linear_1278_10090" x1="68.1718" y1="27.6937" x2="55.9958" y2="76.2242" gradientUnits="userSpaceOnUse">
<stop stop-color="white"/>
<stop offset="1" stop-color="white" stop-opacity="0"/>
</linearGradient>
<linearGradient id="paint1_linear_1278_10090" x1="33.3272" y1="27.6937" x2="45.5032" y2="76.2242" gradientUnits="userSpaceOnUse">
<stop stop-color="white"/>
<stop offset="1" stop-color="white" stop-opacity="0"/>
</linearGradient>
<radialGradient id="paint2_radial_1278_10090" cx="0" cy="0" r="1" gradientUnits="userSpaceOnUse" gradientTransform="translate(66.1702 57.2897) rotate(88.3762) scale(5.44042 9.48401)">
<stop stop-color="#FFECAA"/>
<stop offset="1" stop-color="#9FFF8F" stop-opacity="0"/>
</radialGradient>
<radialGradient id="paint3_radial_1278_10090" cx="0" cy="0" r="1" gradientUnits="userSpaceOnUse" gradientTransform="translate(34.8372 57.362) rotate(88.3762) scale(5.44042 9.48401)">
<stop stop-color="#FFECAA"/>
<stop offset="1" stop-color="#9FFF8F" stop-opacity="0"/>
</radialGradient>
</defs>
</svg>
